<svg xmlns="http://www.w3.org/2000/svg" width="56.25" height="45" viewBox="0 0 56.25 45">
  <g id="Grupo_64" data-name="Grupo 64" transform="translate(-347.616 -504.114)">
    <path id="Trazado_112" data-name="Trazado 112" d="M375.741,544.949a4.208,4.208,0,0,1-4.218,4.165H351.835a4.209,4.209,0,0,1-4.219-4.165,9.845,9.845,0,0,1,9.844-9.9,2,2,0,0,1,.62.1,10.973,10.973,0,0,0,7.2,0,2,2,0,0,1,.62-.1A9.844,9.844,0,0,1,375.741,544.949Zm-22.5-21.148a8.437,8.437,0,1,1,8.438,8.438A8.438,8.438,0,0,1,353.241,523.8Zm50.624-15.328v27.845a4.3,4.3,0,0,1-4.218,4.359H378.153a11.2,11.2,0,0,0-3.488-5.625h6.7v-5.625h11.25v5.625h5.625V509.739H367.3v4.377a11.12,11.12,0,0,0-5.624-1.565v-4.078a4.3,4.3,0,0,1,4.218-4.359h33.75A4.3,4.3,0,0,1,403.865,508.473Z" transform="translate(0 0)" fill="#fe7c1a"/>
  </g>
</svg>
