<svg xmlns="http://www.w3.org/2000/svg" width="39.374" height="45" viewBox="0 0 39.374 45">
  <g id="Grupo_63" data-name="Grupo 63" transform="translate(-225.142 -504.114)">
    <path id="Trazado_111" data-name="Trazado 111" d="M226.2,518.176a1.054,1.054,0,0,1-1.055-1.055v-3.164a4.218,4.218,0,0,1,4.218-4.218h4.218v-4.57a1.055,1.055,0,0,1,1.055-1.055h3.516a1.054,1.054,0,0,1,1.055,1.055v4.57h11.25v-4.57a1.054,1.054,0,0,1,1.055-1.055h3.515a1.054,1.054,0,0,1,1.055,1.055v4.57H260.3a4.218,4.218,0,0,1,4.218,4.218v3.164a1.054,1.054,0,0,1-1.055,1.055Zm37.265,2.813a1.055,1.055,0,0,1,1.055,1.055v22.851a4.219,4.219,0,0,1-4.218,4.219H229.36a4.219,4.219,0,0,1-4.218-4.219V522.043a1.055,1.055,0,0,1,1.055-1.055Zm-10.448,5.937a1.055,1.055,0,0,0-1.491-.006l-9.32,9.245-4.041-4.074a1.055,1.055,0,0,0-1.492-.006l-2.5,2.476a1.054,1.054,0,0,0-.006,1.491l7.26,7.318a1.053,1.053,0,0,0,1.491.006l12.565-12.463a1.055,1.055,0,0,0,.006-1.491Z" transform="translate(0 0)" fill="#fe7c1a"/>
  </g>
</svg>
