<svg xmlns="http://www.w3.org/2000/svg" width="44.999" height="45" viewBox="0 0 44.999 45">
  <g id="Grupo_65" data-name="Grupo 65" transform="translate(-470.091 -508.327)">
    <path id="Trazado_113" data-name="Trazado 113" d="M515.09,513.148v35.357a4.821,4.821,0,0,1-4.821,4.822H474.912a4.821,4.821,0,0,1-4.821-4.822V513.148a4.821,4.821,0,0,1,4.821-4.821h35.357A4.821,4.821,0,0,1,515.09,513.148ZM497.211,540.47a4.62,4.62,0,1,0-4.621,4.62A4.621,4.621,0,0,0,497.211,540.47ZM488.2,519.24l.745,13.661a1.205,1.205,0,0,0,1.2,1.14h4.877a1.2,1.2,0,0,0,1.2-1.14l.745-13.661a1.206,1.206,0,0,0-1.2-1.271h-6.366A1.2,1.2,0,0,0,488.2,519.24Z" transform="translate(0 0)" fill="#fe7c1a"/>
  </g>
</svg>
