<svg xmlns="http://www.w3.org/2000/svg" viewBox="0 0 531.3 192.5"><defs><style>.cls-1{fill:#27a8e0;}.cls-2{fill:#ec7b29;isolation:isolate;}.cls-3{fill:#fff;}</style></defs><g id="Capa_2" data-name="Capa 2"><g id="Capa_1-2" data-name="Capa 1"><path class="cls-1" d="M.57,53.39A1.82,1.82,0,0,1,0,52.06V2.74A2,2,0,0,1,.53,1.33,1.8,1.8,0,0,1,1.9.76H25.38q9.66,0,14.37,4T44.46,16a10.44,10.44,0,0,1-1.94,6.31,12.49,12.49,0,0,1-4.29,3.87,12.25,12.25,0,0,1,5.24,4.53,12.39,12.39,0,0,1,2.13,7.1q0,7.68-5.05,11.93T26.07,54H1.9A1.82,1.82,0,0,1,.57,53.39ZM23.79,21.81a5.83,5.83,0,0,0,4.33-1.52,5.35,5.35,0,0,0,1.52-3.95,5.19,5.19,0,0,0-1.48-3.84A5.93,5.93,0,0,0,23.79,11h-9.5V21.81Zm.68,21.89A6.06,6.06,0,0,0,29.07,42a6.31,6.31,0,0,0,0-8.51,6.07,6.07,0,0,0-4.56-1.71H14.29V43.7Z"/><path class="cls-1" d="M63.13,53.16A12.62,12.62,0,0,1,58,48.87a10.48,10.48,0,0,1-1.86-6,10,10,0,0,1,4.29-8.39c2.86-2.16,6.81-3.64,11.82-4.45l9.43-1.44v-.92a6.1,6.1,0,0,0-1.14-4.1,5,5,0,0,0-3.88-1.29,5.6,5.6,0,0,0-2.55.53,13.52,13.52,0,0,0-2.31,1.6A9.61,9.61,0,0,1,70,25.61a.88.88,0,0,1-.76.53H60.43a1.68,1.68,0,0,1-1.25-.49,1.38,1.38,0,0,1-.42-1.18,8.32,8.32,0,0,1,2.05-4.6,15.64,15.64,0,0,1,6-4.37,24.17,24.17,0,0,1,10-1.82q9.42,0,14,4.14T95.32,29v23a1.87,1.87,0,0,1-.54,1.33,1.77,1.77,0,0,1-1.36.57H84.07a1.95,1.95,0,0,1-1.9-1.9V49.4a12.32,12.32,0,0,1-4.64,3.84,15.6,15.6,0,0,1-7.07,1.48A17,17,0,0,1,63.13,53.16ZM79.7,43.55q2.08-2.2,2.09-6.39v-.91l-6.31,1.07c-4.26.81-6.38,2.33-6.38,4.56a3.3,3.3,0,0,0,1.48,2.81,6.14,6.14,0,0,0,3.68,1.06A7.17,7.17,0,0,0,79.7,43.55Z"/><path class="cls-1" d="M109.8,53.39a1.82,1.82,0,0,1-.57-1.33V16.34A1.8,1.8,0,0,1,109.8,15a1.92,1.92,0,0,1,1.33-.53h9.35a1.82,1.82,0,0,1,1.9,1.9v2.89a14.92,14.92,0,0,1,5.28-4,17.3,17.3,0,0,1,7.41-1.52,15,15,0,0,1,7.72,2,13.55,13.55,0,0,1,5.32,5.85,20.73,20.73,0,0,1,1.94,9.35v21.2a1.87,1.87,0,0,1-.54,1.33,1.77,1.77,0,0,1-1.36.57H138a2,2,0,0,1-1.41-.53,1.8,1.8,0,0,1-.57-1.37V31.31a7.58,7.58,0,0,0-1.63-5.24,6,6,0,0,0-4.75-1.83,6.25,6.25,0,0,0-4.79,1.87,7.27,7.27,0,0,0-1.75,5.2V52.06a1.9,1.9,0,0,1-.53,1.33,1.78,1.78,0,0,1-1.37.57H111.13A1.83,1.83,0,0,1,109.8,53.39Z"/><path class="cls-1" d="M168.34,50.12q-5.37-4.59-5.74-12.8l-.08-3,.08-3.12q.3-8.2,5.7-12.84t14.06-4.64A23.63,23.63,0,0,1,193.45,16a18,18,0,0,1,6.69,5.58,12,12,0,0,1,2.36,5.89,1.65,1.65,0,0,1-.53,1.41,2.06,2.06,0,0,1-1.45.57H190.34a2,2,0,0,1-1.29-.38,3.25,3.25,0,0,1-.84-1.22A6.88,6.88,0,0,0,186,24.78a5.49,5.49,0,0,0-3.38-1q-5.85,0-6.08,7.75l-.07,2.89.07,2.51q.07,3.95,1.6,5.81a5.45,5.45,0,0,0,4.48,1.86,5.58,5.58,0,0,0,3.46-1,6.88,6.88,0,0,0,2.09-3.15,3.33,3.33,0,0,1,.84-1.22,2,2,0,0,1,1.29-.38h10.18a2.05,2.05,0,0,1,1.37.53,1.66,1.66,0,0,1,.61,1.3,11.22,11.22,0,0,1-2.09,5.66,17.77,17.77,0,0,1-6.65,5.81,23.45,23.45,0,0,1-11.4,2.51Q173.69,54.72,168.34,50.12Z"/><path class="cls-1" d="M219,50.27q-5.13-4.44-5.58-12.65c0-.66-.08-1.8-.08-3.42s0-2.76.08-3.42q.45-8.05,5.73-12.58t14.56-4.52q9.27,0,14.55,4.52T254,30.78q.15,2,.15,3.42T254,37.62q-.45,8.21-5.59,12.65t-14.7,4.45Q224.09,54.72,219,50.27Zm19.34-7.06c1-1.3,1.6-3.28,1.75-6,0-.51.08-1.52.08-3s0-2.53-.08-3a10.65,10.65,0,0,0-1.75-5.93,6.44,6.44,0,0,0-9.27,0,10.81,10.81,0,0,0-1.75,5.93l-.07,3,.07,3c.16,2.69.74,4.67,1.75,6a6.53,6.53,0,0,0,9.27,0Z"/><path class="cls-1" d="M292.79,50.08q-4.21-4.63-4.52-13.22l-.07-2.66.07-2.74q.3-8.28,4.56-13t11.55-4.75a14.47,14.47,0,0,1,11,4.41V1.9A1.8,1.8,0,0,1,316,.53,1.92,1.92,0,0,1,317.3,0h9.81a2,2,0,0,1,1.4.53,1.8,1.8,0,0,1,.57,1.37V52.06a1.8,1.8,0,0,1-.57,1.37,2,2,0,0,1-1.4.53h-9.05a1.95,1.95,0,0,1-1.9-1.9V49.7q-4.1,5-11.78,5Q297,54.72,292.79,50.08Zm20.87-8a9.26,9.26,0,0,0,1.74-5.29c.11-1.41.16-2.38.16-2.88s-.05-1.5-.16-2.82a8,8,0,0,0-1.78-4.9,6,6,0,0,0-4.83-1.94c-2.28,0-3.91.68-4.9,2a10.36,10.36,0,0,0-1.71,5.58l-.08,2.36.08,2.36a10.36,10.36,0,0,0,1.71,5.58c1,1.34,2.62,2,4.9,2A5.76,5.76,0,0,0,313.66,42.07Z"/><path class="cls-1" d="M347.34,49.74q-5.32-5-5.48-14.48V32.91q.31-9,5.63-14.14t14.36-5.09a21.71,21.71,0,0,1,11.06,2.62,16.64,16.64,0,0,1,6.76,7.22A23.49,23.49,0,0,1,381.92,34v1.9a1.95,1.95,0,0,1-2,2H355.85v.45a9.54,9.54,0,0,0,1.59,5.51,5,5,0,0,0,4.34,2.09,5.26,5.26,0,0,0,2.92-.72,10,10,0,0,0,2.09-1.86,4,4,0,0,1,1.1-1,3.4,3.4,0,0,1,1.33-.19h10a1.76,1.76,0,0,1,1.18.42,1.29,1.29,0,0,1,.49,1q0,2-2.24,4.64a17.87,17.87,0,0,1-6.54,4.56,24.83,24.83,0,0,1-10.14,1.9Q352.66,54.72,347.34,49.74ZM367.93,30.1v-.16a8.93,8.93,0,0,0-1.59-5.66,5.41,5.41,0,0,0-4.49-2,5.28,5.28,0,0,0-4.44,2,9.05,9.05,0,0,0-1.56,5.66v.16Z"/><path class="cls-1" d="M417.56,53.43a1.8,1.8,0,0,1-.57-1.37V1.9a1.8,1.8,0,0,1,.57-1.37A2,2,0,0,1,419,0h9.5a1.88,1.88,0,0,1,1.37.53,1.88,1.88,0,0,1,.53,1.37V52.06a1.9,1.9,0,0,1-.53,1.33,1.8,1.8,0,0,1-1.37.57H419A2,2,0,0,1,417.56,53.43Z"/><path class="cls-1" d="M449.26,53.16a12.62,12.62,0,0,1-5.17-4.29,10.48,10.48,0,0,1-1.86-6,10,10,0,0,1,4.29-8.39q4.31-3.24,11.82-4.45l9.43-1.44v-.92a6.1,6.1,0,0,0-1.14-4.1,5,5,0,0,0-3.88-1.29,5.6,5.6,0,0,0-2.55.53,13.52,13.52,0,0,0-2.31,1.6,9.61,9.61,0,0,1-1.75,1.21.88.88,0,0,1-.76.53h-8.82a1.68,1.68,0,0,1-1.25-.49,1.38,1.38,0,0,1-.42-1.18,8.32,8.32,0,0,1,2.05-4.6,15.64,15.64,0,0,1,6-4.37,24.17,24.17,0,0,1,9.95-1.82q9.42,0,14,4.14T481.45,29v23a1.87,1.87,0,0,1-.54,1.33,1.77,1.77,0,0,1-1.36.57H470.2a1.95,1.95,0,0,1-1.9-1.9V49.4a12.32,12.32,0,0,1-4.64,3.84,15.6,15.6,0,0,1-7.07,1.48A17,17,0,0,1,449.26,53.16Zm16.57-9.61q2.09-2.2,2.09-6.39v-.91l-6.31,1.07c-4.26.81-6.38,2.33-6.38,4.56a3.3,3.3,0,0,0,1.48,2.81,6.14,6.14,0,0,0,3.68,1.06A7.17,7.17,0,0,0,465.83,43.55Z"/><path class="cls-1" d="M501.52,53a15.68,15.68,0,0,1-6.19-4.18,7.21,7.21,0,0,1-2-4.41,1.59,1.59,0,0,1,.57-1.25,1.87,1.87,0,0,1,1.26-.49h9.19a1,1,0,0,1,.76.3c.86.56,1.34.89,1.45,1a15.32,15.32,0,0,0,2.69,1.63,7.25,7.25,0,0,0,3,.57,6.43,6.43,0,0,0,3.38-.8A2.5,2.5,0,0,0,517,43.09a2.73,2.73,0,0,0-.72-2,7.5,7.5,0,0,0-2.74-1.49,43,43,0,0,0-6.12-1.48Q494.23,35.5,494.22,26a10.21,10.21,0,0,1,2-6,14,14,0,0,1,5.93-4.6,22.8,22.8,0,0,1,9.38-1.75,24.72,24.72,0,0,1,9.62,1.71,17,17,0,0,1,6.19,4.1,7,7,0,0,1,2.13,4.37,1.73,1.73,0,0,1-.5,1.22,1.53,1.53,0,0,1-1.17.53h-8.36a1.7,1.7,0,0,1-1.07-.3,13,13,0,0,1-1.82-1.14,19.74,19.74,0,0,0-2.4-1.41,6,6,0,0,0-2.62-.49,4.73,4.73,0,0,0-3,.83,2.61,2.61,0,0,0-1.07,2.13,2.69,2.69,0,0,0,.65,1.86,6.51,6.51,0,0,0,2.66,1.41A45.57,45.57,0,0,0,517,29.94q7.44,1.3,10.83,4.6a10.61,10.61,0,0,1-1.67,16.8q-5.05,3.38-14.18,3.38A27,27,0,0,1,501.52,53Z"/><path class="cls-1" d="M7,117Q.78,111.7.4,101.52.32,99.39.33,95T.4,88.37q.31-10,6.65-15.47t17-5.43Q34.6,67.47,41,72.9T47.6,88.37q.15,4.41.15,6.61t-.15,6.54Q47.23,111.71,41,117t-17,5.24Q13.24,122.19,7,117Zm23.33-8.55c1.57-1.6,2.4-4,2.51-7.34q.15-4.41.15-6.31t-.15-6.15c-.11-3.29-.94-5.74-2.51-7.34A8.48,8.48,0,0,0,24,78.87a8.55,8.55,0,0,0-6.38,2.39c-1.58,1.6-2.41,4-2.51,7.34q-.08,2.13-.08,6.15t.08,6.31c.1,3.3.93,5.74,2.51,7.34A8.55,8.55,0,0,0,24,110.79,8.48,8.48,0,0,0,30.35,108.4Z"/><path class="cls-1" d="M53.34,135.34a1.8,1.8,0,0,1-.57-1.37V83.81a1.8,1.8,0,0,1,.57-1.37,2,2,0,0,1,1.4-.53h9a1.82,1.82,0,0,1,1.9,1.9v2.74q4.09-5.4,11.78-5.4,7.36,0,11.59,4.6t4.52,13.11c0,.66.08,1.59.08,2.81s0,2.18-.08,2.89q-.3,8.2-4.56,12.92t-11.55,4.71q-7.38,0-11-5V134a1.82,1.82,0,0,1-1.9,1.9H54.74A2,2,0,0,1,53.34,135.34ZM78,109.61A10.36,10.36,0,0,0,79.67,104c0-.51.08-1.3.08-2.36s0-1.85-.08-2.36A10.36,10.36,0,0,0,78,93.73c-1-1.34-2.62-2-4.9-2A5.73,5.73,0,0,0,68.2,93.8a9.19,9.19,0,0,0-1.75,5.29c0,.66-.08,1.62-.08,2.88s0,2.16.08,2.82a8,8,0,0,0,1.78,4.9,6,6,0,0,0,4.83,1.94Q76.48,111.63,78,109.61Z"/><path class="cls-1" d="M102.51,117.74q-5.13-4.44-5.59-12.65c0-.66-.07-1.8-.07-3.42s0-2.76.07-3.42q.47-8.06,5.74-12.58t14.55-4.52q9.29,0,14.56,4.52t5.74,12.58q.15,2,.15,3.42t-.15,3.42q-.47,8.2-5.59,12.65t-14.71,4.45Q107.64,122.19,102.51,117.74Zm19.34-7.06a10.66,10.66,0,0,0,1.75-6c.05-.51.07-1.52.07-3s0-2.53-.07-3a10.73,10.73,0,0,0-1.75-5.93,6.44,6.44,0,0,0-9.27,0,10.65,10.65,0,0,0-1.75,5.93l-.08,3,.08,3c.15,2.69.73,4.67,1.75,6a6.53,6.53,0,0,0,9.27,0Z"/><path class="cls-1" d="M142.71,120.86a1.82,1.82,0,0,1-.57-1.33V83.89a2,2,0,0,1,.53-1.41,1.8,1.8,0,0,1,1.37-.57h9.27a1.95,1.95,0,0,1,2,2v2.88a14.61,14.61,0,0,1,5-3.61,15.66,15.66,0,0,1,6.34-1.25H170a1.86,1.86,0,0,1,1.37.53,1.84,1.84,0,0,1,.53,1.37v8.28a1.86,1.86,0,0,1-.53,1.33A1.78,1.78,0,0,1,170,94h-7.67a6.23,6.23,0,0,0-4.68,1.68,6.44,6.44,0,0,0-1.63,4.71v19.15a1.8,1.8,0,0,1-.57,1.37,2,2,0,0,1-1.41.53H144A1.83,1.83,0,0,1,142.71,120.86Z"/><path class="cls-1" d="M179.08,106.31V92.25h-6a1.95,1.95,0,0,1-1.9-1.9V83.81a1.8,1.8,0,0,1,.57-1.37,1.92,1.92,0,0,1,1.33-.53h6V69.37a1.8,1.8,0,0,1,.57-1.37,1.9,1.9,0,0,1,1.33-.53h9.35a1.83,1.83,0,0,1,1.9,1.9V81.91h9.5a2,2,0,0,1,1.4.53,1.8,1.8,0,0,1,.57,1.37v6.54a1.77,1.77,0,0,1-.57,1.36,2,2,0,0,1-1.4.54h-9.5v12.92a6.89,6.89,0,0,0,1,4,3.67,3.67,0,0,0,3.2,1.37h6a1.8,1.8,0,0,1,1.37.57,2,2,0,0,1,.53,1.41v7a1.9,1.9,0,0,1-.53,1.33,1.8,1.8,0,0,1-1.37.57h-7.22Q179.08,121.43,179.08,106.31Z"/><path class="cls-1" d="M211.45,117.71q-4.09-4.48-4.1-12.7V83.81a1.8,1.8,0,0,1,.57-1.37,1.9,1.9,0,0,1,1.33-.53h10.11a2,2,0,0,1,1.4.53,1.8,1.8,0,0,1,.57,1.37v20.75q0,7.06,6.31,7.07a6.1,6.1,0,0,0,4.75-1.87,7.39,7.39,0,0,0,1.71-5.2V83.81a1.8,1.8,0,0,1,.57-1.37,2,2,0,0,1,1.41-.53h10a1.82,1.82,0,0,1,1.9,1.9v35.72a1.9,1.9,0,0,1-.53,1.33,1.8,1.8,0,0,1-1.37.57h-9.27a2,2,0,0,1-1.41-.53,1.8,1.8,0,0,1-.57-1.37v-2.89q-3.95,5.55-12.61,5.55A14,14,0,0,1,211.45,117.71Z"/><path class="cls-1" d="M254.51,120.86a1.82,1.82,0,0,1-.57-1.33V83.81a1.8,1.8,0,0,1,.57-1.37,1.9,1.9,0,0,1,1.33-.53h9.35a1.83,1.83,0,0,1,1.9,1.9V86.7a14.74,14.74,0,0,1,5.28-4,17.24,17.24,0,0,1,7.41-1.52,15,15,0,0,1,7.71,2A13.49,13.49,0,0,1,292.81,89a20.73,20.73,0,0,1,1.94,9.35v21.2a1.9,1.9,0,0,1-.53,1.33,1.8,1.8,0,0,1-1.37.57H282.74a2,2,0,0,1-1.4-.53,1.8,1.8,0,0,1-.57-1.37V98.78a7.58,7.58,0,0,0-1.64-5.24,6,6,0,0,0-4.75-1.83,6.28,6.28,0,0,0-4.79,1.87,7.31,7.31,0,0,0-1.74,5.2v20.75a1.87,1.87,0,0,1-.54,1.33,1.77,1.77,0,0,1-1.36.57H255.84A1.82,1.82,0,0,1,254.51,120.86Z"/><path class="cls-1" d="M300.83,75.87a2,2,0,0,1-.53-1.41V67.39a1.91,1.91,0,0,1,.57-1.4,1.82,1.82,0,0,1,1.33-.57h9.5a1.95,1.95,0,0,1,2,2v7.07a1.92,1.92,0,0,1-.57,1.41,1.89,1.89,0,0,1-1.4.57h-9.5A1.78,1.78,0,0,1,300.83,75.87Zm0,45a1.82,1.82,0,0,1-.57-1.33V83.81a1.8,1.8,0,0,1,.57-1.37,1.9,1.9,0,0,1,1.33-.53h9.5a2,2,0,0,1,1.4.53,1.8,1.8,0,0,1,.57,1.37v35.72a1.8,1.8,0,0,1-.57,1.37,2,2,0,0,1-1.4.53h-9.5A1.82,1.82,0,0,1,300.87,120.86Z"/><path class="cls-1" d="M322.83,117.55q-4.21-4.64-4.52-13.22l-.08-2.66.08-2.74q.3-8.28,4.56-13t11.55-4.75a14.48,14.48,0,0,1,11,4.41V69.37A1.8,1.8,0,0,1,346,68a1.9,1.9,0,0,1,1.33-.53h9.81a2,2,0,0,1,1.4.53,1.8,1.8,0,0,1,.57,1.37v50.16a1.8,1.8,0,0,1-.57,1.37,2,2,0,0,1-1.4.53h-9a1.95,1.95,0,0,1-1.9-1.9v-2.36q-4.09,5-11.78,5Q327.05,122.19,322.83,117.55Zm20.86-8a9.19,9.19,0,0,0,1.75-5.29c.1-1.41.15-2.38.15-2.88s0-1.5-.15-2.82a8.06,8.06,0,0,0-1.78-4.9,6,6,0,0,0-4.83-1.94c-2.28,0-3.91.68-4.9,2a10.36,10.36,0,0,0-1.71,5.58l-.08,2.36.08,2.36a10.36,10.36,0,0,0,1.71,5.58q1.49,2,4.9,2A5.73,5.73,0,0,0,343.69,109.54Z"/><path class="cls-1" d="M369.65,120.63a12.55,12.55,0,0,1-5.17-4.29,10.48,10.48,0,0,1-1.86-6,10,10,0,0,1,4.29-8.39q4.29-3.24,11.82-4.45l9.42-1.44v-.92A6.1,6.1,0,0,0,387,91a5,5,0,0,0-3.87-1.29,5.54,5.54,0,0,0-2.55.53,13.55,13.55,0,0,0-2.32,1.6,9.28,9.28,0,0,1-1.75,1.21.86.86,0,0,1-.76.53H367a1.7,1.7,0,0,1-1.26-.49,1.37,1.37,0,0,1-.41-1.18,8.32,8.32,0,0,1,2.05-4.6,15.67,15.67,0,0,1,6-4.37,24.25,24.25,0,0,1,10-1.82q9.42,0,14,4.14t4.56,11.21v23a1.9,1.9,0,0,1-.53,1.33,1.78,1.78,0,0,1-1.37.57h-9.35a1.95,1.95,0,0,1-1.9-1.9v-2.66a12.29,12.29,0,0,1-4.63,3.84,15.63,15.63,0,0,1-7.07,1.48A16.93,16.93,0,0,1,369.65,120.63ZM386.21,111c1.4-1.47,2.09-3.6,2.09-6.39v-.91l-6.3,1.07q-6.39,1.21-6.39,4.56a3.32,3.32,0,0,0,1.48,2.81,6.17,6.17,0,0,0,3.69,1.06A7.13,7.13,0,0,0,386.21,111Z"/><path class="cls-1" d="M410.61,117.55q-4.22-4.64-4.52-13.22l-.08-2.66.08-2.74q.3-8.28,4.56-13c2.83-3.17,6.69-4.75,11.55-4.75a14.48,14.48,0,0,1,11,4.41V69.37a1.8,1.8,0,0,1,.57-1.37,1.9,1.9,0,0,1,1.33-.53h9.8a2,2,0,0,1,1.41.53,1.8,1.8,0,0,1,.57,1.37v50.16a1.8,1.8,0,0,1-.57,1.37,2,2,0,0,1-1.41.53h-9a1.95,1.95,0,0,1-1.9-1.9v-2.36q-4.11,5-11.78,5Q414.82,122.19,410.61,117.55Zm20.86-8a9.19,9.19,0,0,0,1.75-5.29c.1-1.41.15-2.38.15-2.88s-.05-1.5-.15-2.82a8,8,0,0,0-1.79-4.9,6,6,0,0,0-4.82-1.94c-2.28,0-3.92.68-4.9,2A10.36,10.36,0,0,0,420,99.31l-.08,2.36L420,104a10.36,10.36,0,0,0,1.71,5.58c1,1.35,2.62,2,4.9,2A5.73,5.73,0,0,0,431.47,109.54Z"/><path class="cls-1" d="M456.78,117.21q-5.32-5-5.47-14.48v-2.35q.3-9,5.62-14.14t14.36-5.09a21.68,21.68,0,0,1,11.06,2.62A16.66,16.66,0,0,1,489.12,91a23.62,23.62,0,0,1,2.24,10.45v1.9a1.95,1.95,0,0,1-2,2H465.29v.45a9.47,9.47,0,0,0,1.6,5.51,5,5,0,0,0,4.33,2.09,5.26,5.26,0,0,0,2.92-.72,9.74,9.74,0,0,0,2.09-1.86,4,4,0,0,1,1.11-1,3.33,3.33,0,0,1,1.33-.19h9.95a1.76,1.76,0,0,1,1.18.42,1.29,1.29,0,0,1,.49,1c0,1.32-.74,2.87-2.24,4.64a17.82,17.82,0,0,1-6.53,4.56,24.91,24.91,0,0,1-10.15,1.9Q462.1,122.19,456.78,117.21Zm20.59-19.64v-.16a9,9,0,0,0-1.59-5.66,5.41,5.41,0,0,0-4.49-2,5.29,5.29,0,0,0-4.44,2,9.07,9.07,0,0,0-1.56,5.66v.16Z"/><path class="cls-1" d="M501.62,120.44a15.8,15.8,0,0,1-6.2-4.18,7.25,7.25,0,0,1-2-4.41,1.59,1.59,0,0,1,.57-1.25,1.87,1.87,0,0,1,1.25-.49h9.2a1,1,0,0,1,.76.3,16.91,16.91,0,0,1,1.44,1,15.74,15.74,0,0,0,2.7,1.63,7.23,7.23,0,0,0,3,.57,6.45,6.45,0,0,0,3.39-.8,2.49,2.49,0,0,0,1.33-2.24,2.74,2.74,0,0,0-.73-2,7.35,7.35,0,0,0-2.73-1.49,43.31,43.31,0,0,0-6.12-1.48Q494.31,103,494.32,93.46a10.14,10.14,0,0,1,2-6,14,14,0,0,1,5.92-4.6,22.84,22.84,0,0,1,9.39-1.75,24.67,24.67,0,0,1,9.61,1.71,17,17,0,0,1,6.2,4.1,7,7,0,0,1,2.13,4.37,1.73,1.73,0,0,1-.5,1.22,1.53,1.53,0,0,1-1.18.53h-8.36a1.67,1.67,0,0,1-1.06-.3,12.42,12.42,0,0,1-1.82-1.14,20.53,20.53,0,0,0-2.4-1.41,6,6,0,0,0-2.62-.49,4.7,4.7,0,0,0-3,.83,2.61,2.61,0,0,0-1.07,2.13,2.69,2.69,0,0,0,.65,1.86A6.44,6.44,0,0,0,510.93,96a45.57,45.57,0,0,0,6.12,1.44q7.44,1.31,10.83,4.6a10.6,10.6,0,0,1-1.68,16.8q-5.06,3.38-14.17,3.38A26.94,26.94,0,0,1,501.62,120.44Z"/><rect class="cls-2" x="0.22" y="146.91" width="531.08" height="45.59"/><path class="cls-3" d="M31.19,184.18a.81.81,0,0,1-.25-.59l.08-.46L41.44,156a1.3,1.3,0,0,1,1.34-.92h2.69a1.32,1.32,0,0,1,1.35.92l10.41,27.18.09.46a.77.77,0,0,1-.28.59.9.9,0,0,1-.61.25h-2a1,1,0,0,1-.69-.23,1.13,1.13,0,0,1-.36-.49l-2.35-6H37.16l-2.31,6a1.11,1.11,0,0,1-1.05.72h-2A.85.85,0,0,1,31.19,184.18Zm7.18-10H49.88L44.13,159.1Z"/><path class="cls-3" d="M66,182.31a10.13,10.13,0,0,1-2.65-7.12l0-1.68,0-1.68A10.12,10.12,0,0,1,66,164.71a9.45,9.45,0,0,1,7-2.54,11.13,11.13,0,0,1,5.11,1.07,7.76,7.76,0,0,1,3.1,2.67,6.47,6.47,0,0,1,1.12,3.19.8.8,0,0,1-.28.67,1,1,0,0,1-.69.29H79.49a1,1,0,0,1-.63-.18,2,2,0,0,1-.42-.7,5.63,5.63,0,0,0-2.08-2.92A6,6,0,0,0,73,165.4a5.54,5.54,0,0,0-4.2,1.64,7.52,7.52,0,0,0-1.68,5l0,1.47,0,1.47a7.54,7.54,0,0,0,1.68,5,5.53,5.53,0,0,0,4.2,1.63,5.9,5.9,0,0,0,3.36-.86,5.63,5.63,0,0,0,2.06-2.92,2.06,2.06,0,0,1,.42-.69,1,1,0,0,1,.63-.19h1.85a1,1,0,0,1,.69.3.79.79,0,0,1,.28.67,6.51,6.51,0,0,1-1.12,3.15,8,8,0,0,1-3.1,2.69A11,11,0,0,1,73,184.85,9.45,9.45,0,0,1,66,182.31Z"/><path class="cls-3" d="M92.51,182.27a10.35,10.35,0,0,1-2.18-6.87V163.55a.92.92,0,0,1,1-1h1.94a.92.92,0,0,1,1,1v11.64q0,6.38,5.55,6.38a5.5,5.5,0,0,0,4.26-1.7,6.61,6.61,0,0,0,1.57-4.68V163.55a.9.9,0,0,1,.28-.69.93.93,0,0,1,.69-.27h1.93a.93.93,0,0,1,.69.27.9.9,0,0,1,.28.69v19.91a.94.94,0,0,1-1,1h-1.8a1,1,0,0,1-.7-.27,1,1,0,0,1-.27-.7v-1.89a8,8,0,0,1-2.86,2.46,9.18,9.18,0,0,1-4.15.82A7.66,7.66,0,0,1,92.51,182.27Z"/><path class="cls-3" d="M120.74,182.18a11,11,0,0,1-2.82-7.29l0-1.42,0-1.39a11,11,0,0,1,2.82-7.22,10.12,10.12,0,0,1,14,.25,11.76,11.76,0,0,1,2.54,8v.75a1,1,0,0,1-.27.7.93.93,0,0,1-.69.27H121.74v.38a7.88,7.88,0,0,0,1.68,4.66,5,5,0,0,0,4.12,1.93,6,6,0,0,0,3.21-.77,6.84,6.84,0,0,0,1.87-1.62,2.11,2.11,0,0,1,.59-.61,1.71,1.71,0,0,1,.71-.11h1.85a1,1,0,0,1,.65.21.68.68,0,0,1,.28.55,3.72,3.72,0,0,1-1.14,2.23,9.26,9.26,0,0,1-3.21,2.24,11.44,11.44,0,0,1-4.77.95A9,9,0,0,1,120.74,182.18ZM133.46,172v-.12a7.08,7.08,0,0,0-1.59-4.79,5.4,5.4,0,0,0-4.29-1.85A5.29,5.29,0,0,0,123.3,167a7.17,7.17,0,0,0-1.56,4.79V172Z"/><path class="cls-3" d="M145.87,184.16a1,1,0,0,1-.27-.7V163.6a1,1,0,0,1,.27-.72.93.93,0,0,1,.7-.29h1.76a.95.95,0,0,1,1,1v1.84c1.15-1.9,3.09-2.85,5.84-2.85h1.63a.87.87,0,0,1,1,1v1.56a1,1,0,0,1-.25.69.94.94,0,0,1-.72.27h-2.39a4.84,4.84,0,0,0-3.63,1.35,4.93,4.93,0,0,0-1.33,3.65v12.39a.91.91,0,0,1-.29.7,1,1,0,0,1-.71.27h-1.89A1,1,0,0,1,145.87,184.16Z"/><path class="cls-3" d="M165.49,182a12.25,12.25,0,0,1-2.38-7.22l0-1.26,0-1.26a12.14,12.14,0,0,1,2.4-7.2,7.81,7.81,0,0,1,6.59-2.88,8.16,8.16,0,0,1,6.81,3.11v-9.71a.92.92,0,0,1,1-1h1.89a.93.93,0,0,1,.69.27.9.9,0,0,1,.28.69v27.89a.94.94,0,0,1-1,1H180a.9.9,0,0,1-.68-.27,1.05,1.05,0,0,1-.25-.7v-1.8a8.14,8.14,0,0,1-6.93,3.19Q167.69,184.85,165.49,182Zm11.82-2.37a8.2,8.2,0,0,0,1.6-4.64c0-.31,0-.84,0-1.6s0-1.33,0-1.64a7.22,7.22,0,0,0-1.62-4.43,5.38,5.38,0,0,0-4.39-1.87,5.09,5.09,0,0,0-4.41,1.89,8.84,8.84,0,0,0-1.51,5l0,1.22q0,8.06,6,8.06A5.17,5.17,0,0,0,177.31,179.62Z"/><path class="cls-3" d="M194,182.24a10.18,10.18,0,0,1-2.66-6.93l0-1.8,0-1.81a10.07,10.07,0,0,1,2.71-6.93,10.93,10.93,0,0,1,14.15,0,10.11,10.11,0,0,1,2.71,6.93c.06.62.08,1.22.08,1.81s0,1.19-.08,1.8a10.14,10.14,0,0,1-2.67,6.93c-1.66,1.74-4,2.61-7.12,2.61S195.67,184,194,182.24ZM205.39,180a7.46,7.46,0,0,0,1.7-4.9c0-.28,0-.81,0-1.59s0-1.32,0-1.6a7.41,7.41,0,0,0-1.7-4.89,6.2,6.2,0,0,0-8.53,0,7.36,7.36,0,0,0-1.7,4.89l0,1.6,0,1.59a7.4,7.4,0,0,0,1.7,4.9,6.2,6.2,0,0,0,8.53,0Z"/><path class="cls-3" d="M235.21,181.68a13.75,13.75,0,0,1-2.67-8.3l0-3.61,0-3.74a13.27,13.27,0,0,1,2.67-8.25q2.53-3.17,7.91-3.17c3.61,0,6.27,1.06,8,3.17a13.33,13.33,0,0,1,2.67,8.25c0,.79,0,2,0,3.74s0,2.86,0,3.61a13.75,13.75,0,0,1-2.67,8.3c-1.66,2.11-4.32,3.17-8,3.17S236.87,183.79,235.21,181.68ZM248,179.22a10.12,10.12,0,0,0,1.73-6.05c0-.81,0-2,0-3.48s0-2.69,0-3.45a10.06,10.06,0,0,0-1.75-6,6.48,6.48,0,0,0-9.68,0,10.2,10.2,0,0,0-1.72,6l0,3.45,0,3.48a10.19,10.19,0,0,0,1.72,6.05,6.57,6.57,0,0,0,9.7,0Z"/><path class="cls-3" d="M275.82,184.16a1,1,0,0,1-.27-.7v-6.13H261.9a1,1,0,0,1-.7-.27,1,1,0,0,1-.27-.7v-1.55a2.25,2.25,0,0,1,.46-1.26L274,155.74a1.37,1.37,0,0,1,.63-.52,2.18,2.18,0,0,1,.93-.19h2.85a.87.87,0,0,1,1,1V173.8h3.82a.94.94,0,0,1,1,1v1.59a1,1,0,0,1-.27.7,1,1,0,0,1-.7.27h-3.82v6.13a.93.93,0,0,1-1,1h-1.93A.93.93,0,0,1,275.82,184.16ZM265.3,173.89h10.29V159.27Z"/><path class="cls-3" d="M295.54,183.71a8.67,8.67,0,0,1-3.53-3,7.42,7.42,0,0,1-1.3-3.92v-.09a.66.66,0,0,1,.25-.54.89.89,0,0,1,.59-.21h2.06a1.09,1.09,0,0,1,1.13.92,5.68,5.68,0,0,0,2.33,3.38A7,7,0,0,0,301,181.4a6.73,6.73,0,0,0,4.74-1.74,6.21,6.21,0,0,0,1.89-4.81,5.66,5.66,0,0,0-1.89-4.47,6.91,6.91,0,0,0-4.74-1.66,6.61,6.61,0,0,0-2.44.38,8.86,8.86,0,0,0-1.89,1.09,6.83,6.83,0,0,1-.9.61,1.61,1.61,0,0,1-.78.19h-2a1,1,0,0,1-.68-.27.76.76,0,0,1-.25-.66l1.3-14q.13-1.05,1-1.05h14.54a.87.87,0,0,1,1,1v1.56a.87.87,0,0,1-.27.67,1,1,0,0,1-.69.25h-12.1l-.76,8.44a9.23,9.23,0,0,1,5.42-1.42,11.69,11.69,0,0,1,5.13,1.11,8.82,8.82,0,0,1,3.67,3.25,9.29,9.29,0,0,1,1.37,5.09,10.11,10.11,0,0,1-1.37,5.35,8.71,8.71,0,0,1-3.78,3.4,12.64,12.64,0,0,1-5.52,1.16A12.21,12.21,0,0,1,295.54,183.71Z"/><path class="cls-3" d="M334.87,182a12.25,12.25,0,0,1-2.37-7.22l0-1.26,0-1.26a12.2,12.2,0,0,1,2.39-7.2,7.83,7.83,0,0,1,6.6-2.88,8.12,8.12,0,0,1,6.8,3.11v-9.71a.93.93,0,0,1,.27-.69,1,1,0,0,1,.7-.27h1.89a.92.92,0,0,1,1,1v27.89a1,1,0,0,1-.27.7.93.93,0,0,1-.69.27h-1.81a.87.87,0,0,1-.67-.27,1,1,0,0,1-.25-.7v-1.8a8.16,8.16,0,0,1-6.93,3.19Q337.08,184.85,334.87,182Zm11.82-2.37a8.13,8.13,0,0,0,1.6-4.64c0-.31,0-.84,0-1.6s0-1.33,0-1.64a7.22,7.22,0,0,0-1.62-4.43,5.36,5.36,0,0,0-4.39-1.87,5.12,5.12,0,0,0-4.41,1.89,8.92,8.92,0,0,0-1.51,5l0,1.22q0,8.06,6,8.06A5.17,5.17,0,0,0,346.69,179.62Z"/><path class="cls-3" d="M363.45,182.18a11,11,0,0,1-2.81-7.29l0-1.42,0-1.39a11,11,0,0,1,2.81-7.22,10.13,10.13,0,0,1,14,.25,11.81,11.81,0,0,1,2.54,8v.75a1,1,0,0,1-.27.7,1,1,0,0,1-.7.27H364.46v.38a7.75,7.75,0,0,0,1.68,4.66,5,5,0,0,0,4.12,1.93,6.05,6.05,0,0,0,3.21-.77,7,7,0,0,0,1.87-1.62,2,2,0,0,1,.59-.61,1.68,1.68,0,0,1,.71-.11h1.85a1,1,0,0,1,.65.21.67.67,0,0,1,.27.55,3.75,3.75,0,0,1-1.13,2.23,9.4,9.4,0,0,1-3.22,2.24,11.36,11.36,0,0,1-4.76.95A9.05,9.05,0,0,1,363.45,182.18ZM376.18,172v-.12a7,7,0,0,0-1.6-4.79,5.89,5.89,0,0,0-8.57,0,7.22,7.22,0,0,0-1.55,4.79V172Z"/><path class="cls-3" d="M401,184.16a1,1,0,0,1-.27-.7V182.2a2.48,2.48,0,0,1,1.05-1.85l9.15-9.11a26.33,26.33,0,0,0,4.29-4.33,6.14,6.14,0,0,0,1.17-3.57,5.3,5.3,0,0,0-1.38-3.88,6.32,6.32,0,0,0-8,.06,6.64,6.64,0,0,0-1.8,3.95,1.1,1.1,0,0,1-.42.71,1.13,1.13,0,0,1-.67.26h-2a.86.86,0,0,1-.63-.26.77.77,0,0,1-.25-.58,9.64,9.64,0,0,1,1.2-4.31,8.85,8.85,0,0,1,3.29-3.4,10.06,10.06,0,0,1,5.29-1.32q4.71,0,7.08,2.45a8.63,8.63,0,0,1,2.37,6.24,9,9,0,0,1-1.28,4.77,19.48,19.48,0,0,1-4,4.47l-8.27,8.4h13.23a1,1,0,0,1,.71.25,1,1,0,0,1,.25.72v1.59a1,1,0,0,1-.27.7.93.93,0,0,1-.69.27h-18.4A.93.93,0,0,1,401,184.16Z"/><path class="cls-3" d="M431.76,181.68a13.82,13.82,0,0,1-2.66-8.3l-.05-3.61.05-3.74a13.32,13.32,0,0,1,2.66-8.25q2.55-3.17,7.92-3.17t8,3.17a13.39,13.39,0,0,1,2.67,8.25c0,.79,0,2,0,3.74s0,2.86,0,3.61a13.89,13.89,0,0,1-2.67,8.3q-2.5,3.16-8,3.17T431.76,181.68Zm12.79-2.46a10.12,10.12,0,0,0,1.72-6.05c0-.81.05-2,.05-3.48s0-2.69-.05-3.45a10,10,0,0,0-1.74-6,5.72,5.72,0,0,0-4.85-2.17,5.66,5.66,0,0,0-4.83,2.17,10.13,10.13,0,0,0-1.72,6l0,3.45,0,3.48a10.12,10.12,0,0,0,1.72,6.05,6.57,6.57,0,0,0,9.7,0Z"/><path class="cls-3" d="M461.54,181.68a13.89,13.89,0,0,1-2.67-8.3l0-3.61,0-3.74a13.39,13.39,0,0,1,2.67-8.25c1.7-2.11,4.33-3.17,7.92-3.17s6.26,1.06,8,3.17a13.32,13.32,0,0,1,2.66,8.25c0,.79.05,2,.05,3.74s0,2.86-.05,3.61a13.82,13.82,0,0,1-2.66,8.3q-2.51,3.16-8,3.17T461.54,181.68Zm12.79-2.46a10.12,10.12,0,0,0,1.72-6.05c0-.81,0-2,0-3.48s0-2.69,0-3.45a10,10,0,0,0-1.74-6,5.72,5.72,0,0,0-4.85-2.17,5.66,5.66,0,0,0-4.83,2.17,10.13,10.13,0,0,0-1.72,6l-.05,3.45.05,3.48a10.12,10.12,0,0,0,1.72,6.05,6.57,6.57,0,0,0,9.7,0Z"/><path class="cls-3" d="M496.88,184.16a1.05,1.05,0,0,1-.25-.7V159.77l-7.05,5.42a1,1,0,0,1-.63.25.94.94,0,0,1-.72-.42l-1-1.3a1,1,0,0,1-.21-.59.88.88,0,0,1,.42-.75l9.12-7.06a2,2,0,0,1,1.09-.29h2a1,1,0,0,1,.7.27,1,1,0,0,1,.27.69v27.47a.93.93,0,0,1-1,1h-2.05A.9.9,0,0,1,496.88,184.16Z"/></g></g></svg>