<svg id="_001-campana" data-name=" 001-campana" xmlns="http://www.w3.org/2000/svg" width="24.833" height="29.838" viewBox="0 0 24.833 29.838">
  <path id="Trazado_1587" data-name="Trazado 1587" d="M5358.44,109.327a8.316,8.316,0,0,1-2.953-6.364V99.5a8.7,8.7,0,0,0-7.45-8.593V89.568a1.242,1.242,0,1,0-2.483-.073c0,.024,0,.049,0,.073v1.341A8.7,8.7,0,0,0,5338.1,99.5v3.462a8.325,8.325,0,0,1-2.965,6.373,2.172,2.172,0,0,0,1.413,3.823h20.489a2.173,2.173,0,0,0,1.4-3.831Z" transform="translate(-5334.377 -88.289)" fill="#14b3ee"/>
  <path id="Trazado_1588" data-name="Trazado 1588" d="M5352.028,135.532a4.664,4.664,0,0,0,4.564-3.725h-9.125A4.663,4.663,0,0,0,5352.028,135.532Z" transform="translate(-5339.613 -105.694)" fill="#14b3ee"/>
</svg>
