<svg xmlns="http://www.w3.org/2000/svg" width="92.807" height="92.869" viewBox="0 0 92.807 92.869">
  <g id="Grupo_99" data-name="Grupo 99" transform="translate(0 0)">
    <path id="Trazado_128" data-name="Trazado 128" d="M-390.943,206.389a6.72,6.72,0,0,1,.548-.574q16.486-13.711,32.979-27.414c.208-.173.427-.331.636-.491a13.585,13.585,0,0,0,18.4-.016q3.892,3.232,7.8,6.476,12.866,10.691,25.729,21.385a7.906,7.906,0,0,1,.613.634Z" transform="translate(393.961 -113.519)" fill="#01b0f3"/>
    <path id="Trazado_129" data-name="Trazado 129" d="M-128.712,107.425c-1.618-1.3-3.251-2.589-4.85-3.916q-14.583-12.1-29.152-24.223c-.184-.153-.359-.316-.635-.56l34.637-28.814Z" transform="translate(221.519 -16.552)" fill="#01b0f3"/>
    <path id="Trazado_130" data-name="Trazado 130" d="M-342.156-53.346h63.032v.959q0,15.643.015,31.287a1.673,1.673,0,0,1-.69,1.443Q-291.911-9.622-304,.446a9.915,9.915,0,0,1-13.26.029Q-329.478-9.641-341.646-19.82a1.549,1.549,0,0,1-.508-1.043q-.047-15.961-.034-31.922C-342.188-52.934-342.172-53.082-342.156-53.346Zm34.87,33.238c1.133,1.678,2.068,2.42,3.451,2.653a8.143,8.143,0,0,0,7.975-2.829,16.074,16.074,0,0,0,1.029-19.371c-4.3-6.265-10.506-8.084-17.651-6.874-7.844,1.328-13.351,6.028-16.741,13.078a16.546,16.546,0,0,0,8.561,22.619,31.58,31.58,0,0,0,16.922,1.778A19.564,19.564,0,0,0-291.4-15.671c.8-.946.827-1.892.079-2.566-.794-.714-1.742-.577-2.588.416a15.435,15.435,0,0,1-7.769,4.918,27.779,27.779,0,0,1-17.7-.995A13.255,13.255,0,0,1-327.4-28.366c1.778-9.853,12.409-16.946,22.164-14.789,9.1,2.012,12.985,13.579,6.935,20.644a5.019,5.019,0,0,1-4.5,1.838c-1.169-.109-1.558-.624-1.3-1.748s.567-2.224.8-3.346c.714-3.458,1.423-6.918,2.089-10.387a1.637,1.637,0,0,0-1.26-2.148c-1.023-.178-1.773.428-2,1.606-.07.363-.158.723-.261,1.19-.238-.257-.378-.409-.519-.56a7.838,7.838,0,0,0-9.07-1.718A14.33,14.33,0,0,0-321.882-24a7.451,7.451,0,0,0,7.763,6.736A10.1,10.1,0,0,0-307.286-20.108Z" transform="translate(357.02 61.684)" fill="#01b0f3"/>
    <path id="Trazado_131" data-name="Trazado 131" d="M-403.4,50.167l34.6,28.763-34.6,28.757Z" transform="translate(403.396 -16.745)" fill="#01b0f3"/>
    <path id="Trazado_132" data-name="Trazado 132" d="M-68.144,21.243V5.061l10.505,7.446Z" transform="translate(149.385 17.431)" fill="#01b0f3"/>
    <path id="Trazado_133" data-name="Trazado 133" d="M-388.766,5.091V21.254l-10.5-8.719Z" transform="translate(400.264 17.408)" fill="#01b0f3"/>
    <path id="Trazado_134" data-name="Trazado 134" d="M-253.28-82.913c2.918-1.843,5.166-4.329,8.616-4.753A9.72,9.72,0,0,1-238-86.224c1.544,1,3,2.124,4.667,3.311Z" transform="translate(289.657 87.755)" fill="#01b0f3"/>
    <path id="Trazado_135" data-name="Trazado 135" d="M-237.705,21.325A4.3,4.3,0,0,1-234,22.982a31.281,31.281,0,0,1,1.708,3.065.534.534,0,0,1,.085.343c-.465,1.637-.341,3.466-1.461,4.886a31.138,31.138,0,0,1-2.685,3.055,6.164,6.164,0,0,1-4.381,1.676A4.174,4.174,0,0,1-245.056,32c-.437-3.789,2.273-8.642,5.758-10.234A8.506,8.506,0,0,1-237.705,21.325Z" transform="translate(283.461 5.108)" fill="#01b0f3"/>
  </g>
</svg>
