<svg xmlns="http://www.w3.org/2000/svg" width="18.732" height="13.111" viewBox="0 0 18.732 13.111">
  <path id="Trazado_155" data-name="Trazado 155" d="M1230.85,713.264h-1.929a.936.936,0,0,1-.937-.937v-.937a1.875,1.875,0,0,1,1.874-1.873h1.873a1.869,1.869,0,0,1,1.32.544A4.293,4.293,0,0,0,1230.85,713.264Zm-1.929-6.557a1.873,1.873,0,1,1,1.873,1.873A1.875,1.875,0,0,1,1228.921,706.707Zm11.51,8.773a1.127,1.127,0,0,0,.182.594h-7.476a1.405,1.405,0,0,1-1.405-1.405v-.843a3.374,3.374,0,0,1,3.375-3.372h.243a4.621,4.621,0,0,0,2.005.468c.1,0,.19-.012.287-.018a1.193,1.193,0,0,0,.287.237l.231.135q0,.114,0,.228a1.249,1.249,0,0,0-.755,1.472,5.339,5.339,0,0,0,1.177,2.037,1.164,1.164,0,0,0,.846.369,1.447,1.447,0,0,0,.805-.287c.064.038.132.079.2.114Zm-6.358-9.241a3.277,3.277,0,1,1,6.226,1.408c-.023.015-.047.026-.07.041l-.231-.135a1.124,1.124,0,0,0-.574-.155,1.153,1.153,0,0,0-.846.369,5.4,5.4,0,0,0-1.063,1.733c-.056,0-.108.018-.164.018A3.277,3.277,0,0,1,1234.073,706.239Zm12.537,6.211a.216.216,0,0,1,.1.249,4.392,4.392,0,0,1-.972,1.68.214.214,0,0,1-.263.041l-.755-.436a3.435,3.435,0,0,1-1.08.623v.872a.213.213,0,0,1-.167.208,4.417,4.417,0,0,1-1.938,0,.213.213,0,0,1-.167-.208v-.872a3.436,3.436,0,0,1-1.08-.623l-.755.436a.213.213,0,0,1-.263-.041,4.416,4.416,0,0,1-.972-1.68.212.212,0,0,1,.1-.249l.755-.436a3.436,3.436,0,0,1,0-1.247l-.755-.436a.216.216,0,0,1-.1-.249,4.393,4.393,0,0,1,.972-1.68.214.214,0,0,1,.263-.041l.755.436a3.437,3.437,0,0,1,1.08-.624V707.3a.213.213,0,0,1,.167-.208,4.417,4.417,0,0,1,1.938,0,.213.213,0,0,1,.167.208v.872a3.436,3.436,0,0,1,1.08.624l.755-.436a.213.213,0,0,1,.263.041,4.391,4.391,0,0,1,.972,1.68.212.212,0,0,1-.1.249l-.755.436a3.431,3.431,0,0,1,0,1.247Zm-2.687-1.06a1.42,1.42,0,1,0-1.42,1.42A1.423,1.423,0,0,0,1243.923,711.391Z" transform="translate(-1227.984 -702.963)"/>
</svg>
