<svg xmlns="http://www.w3.org/2000/svg" width="13.211" height="13.8" viewBox="0 0 13.211 13.8">
  <path id="Trazado_154" data-name="Trazado 154" d="M843.755,705.025a6.887,6.887,0,0,1-1.522,2.632.331.331,0,0,1-.412.064l-1.185-.684a5.419,5.419,0,0,1-1.692.977v1.369a.333.333,0,0,1-.261.326,6.993,6.993,0,0,1-3.038,0,.333.333,0,0,1-.261-.326v-1.369a5.251,5.251,0,0,1-1.692-.977l-1.185.684a.335.335,0,0,1-.412-.064,6.931,6.931,0,0,1-1.522-2.632.336.336,0,0,1,.153-.389l1.185-.684a5.36,5.36,0,0,1,0-1.953l-1.185-.684a.333.333,0,0,1-.153-.39,6.889,6.889,0,0,1,1.522-2.632.331.331,0,0,1,.412-.064l1.182.684a5.415,5.415,0,0,1,1.692-.977v-1.369a.333.333,0,0,1,.261-.326,7,7,0,0,1,3.038,0,.333.333,0,0,1,.262.326v1.366a5.25,5.25,0,0,1,1.692.977l1.185-.684a.335.335,0,0,1,.412.064,6.93,6.93,0,0,1,1.522,2.632.336.336,0,0,1-.153.39l-1.185.684a5.359,5.359,0,0,1,0,1.953l1.185.685A.344.344,0,0,1,843.755,705.025Zm-4.368-2.053a2.226,2.226,0,1,0-2.226,2.226A2.229,2.229,0,0,0,839.386,702.972Z" transform="translate(-830.557 -696.075)"/>
</svg>
