<svg xmlns="http://www.w3.org/2000/svg" width="10.604" height="14.138" viewBox="0 0 10.604 14.138">
  <g id="Grupo_177" data-name="Grupo 177" transform="translate(-436.734 -616.117)">
    <path id="Trazado_156" data-name="Trazado 156" d="M443.582,620.535h3.756v9.057a.661.661,0,0,1-.663.663H437.4a.661.661,0,0,1-.663-.663V616.78a.661.661,0,0,1,.663-.663h5.523v3.755A.665.665,0,0,0,443.582,620.535Zm-5.081-1.988a.221.221,0,0,0,.221.221h2.209a.221.221,0,0,0,.221-.221v-.442a.221.221,0,0,0-.221-.221h-2.209a.221.221,0,0,0-.221.221Zm.221,1.988h2.209a.221.221,0,0,0,.221-.221v-.442a.221.221,0,0,0-.221-.221h-2.209a.221.221,0,0,0-.221.221v.442A.221.221,0,0,0,438.722,620.535Zm4.934,5.821a1.25,1.25,0,0,0-.872-1.2l-1.243-.373a.36.36,0,0,1-.242-.351.347.347,0,0,1,.326-.364h.776a.662.662,0,0,1,.354.1.227.227,0,0,0,.28-.02l.325-.31a.221.221,0,0,0-.016-.335,1.58,1.58,0,0,0-.866-.313v-.671a.221.221,0,0,0-.221-.221h-.442a.221.221,0,0,0-.221.221v.666a1.23,1.23,0,0,0-1.178,1.245,1.25,1.25,0,0,0,.872,1.2l1.243.373a.36.36,0,0,1,.242.351.347.347,0,0,1-.326.364h-.776a.664.664,0,0,1-.354-.1.227.227,0,0,0-.28.02l-.324.31a.221.221,0,0,0,.016.335,1.581,1.581,0,0,0,.866.313v.671a.221.221,0,0,0,.221.221h.442a.221.221,0,0,0,.221-.221V627.6A1.229,1.229,0,0,0,443.656,626.357Zm3.682-6.873v.168H443.8v-3.535h.168a.662.662,0,0,1,.469.193l2.7,2.706A.66.66,0,0,1,447.338,619.483Z" transform="translate(0 0)"/>
  </g>
</svg>
