<svg xmlns="http://www.w3.org/2000/svg" width="15.188" height="13.5" viewBox="0 0 15.188 13.5">
  <g id="Grupo_5647" data-name="Grupo 5647" transform="translate(-411.734 -653.109)">
    <path id="Trazado_162" data-name="Trazado 162" d="M426.639,661.76a.844.844,0,0,1-.034,1.289l-3.988,3.19a1.964,1.964,0,0,1-1.053.369h-9.408a.422.422,0,0,1-.422-.422v-2.531a.422.422,0,0,1,.422-.422h1.461l1.226-.994a3.607,3.607,0,0,1,1.954-.693h4.219a.844.844,0,0,1,.844.842v0a1,1,0,0,1-.012.141.875.875,0,0,1-.877.7h-2.064a.422.422,0,1,0,0,.844h3.123a1.953,1.953,0,0,0,1.05-.369l2.436-1.949a.873.873,0,0,1,1.123,0Zm-8.986-6.1A1.515,1.515,0,0,1,419.064,654v-.464a.442.442,0,0,1,.458-.422h.458a.442.442,0,0,1,.458.422V654a2.625,2.625,0,0,1,.91.3.334.334,0,0,1,.146.258.3.3,0,0,1-.1.226l-.5.461a.378.378,0,0,1-.4.053.943.943,0,0,0-.3-.058h-.939a.232.232,0,0,0-.24.221.239.239,0,0,0,.175.214l1.431.377a1.6,1.6,0,0,1,1.228,1.258,1.514,1.514,0,0,1-1.411,1.661v.464a.443.443,0,0,1-.458.422h-.458a.442.442,0,0,1-.458-.422v-.467a2.626,2.626,0,0,1-.91-.3.334.334,0,0,1-.146-.258.355.355,0,0,1,.044-.157.372.372,0,0,1,.059-.07l.5-.461a.377.377,0,0,1,.4-.053.944.944,0,0,0,.3.058h.939a.232.232,0,0,0,.24-.221.239.239,0,0,0-.175-.214l-1.431-.377A1.6,1.6,0,0,1,417.653,655.656Z" transform="translate(0 0)"/>
  </g>
</svg>
