<svg xmlns="http://www.w3.org/2000/svg" width="163.016" height="59.064" viewBox="0 0 163.016 59.064"><g transform="translate(-284.089 -471.7)"><g transform="translate(284.089 471.7)"><g transform="translate(0 0)"><path d="M284.264,488.607a.56.56,0,0,1-.175-.408V473.066a.607.607,0,0,1,.163-.431.548.548,0,0,1,.42-.175h7.205a6.752,6.752,0,0,1,4.407,1.213,4.254,4.254,0,0,1,1.446,3.451,3.2,3.2,0,0,1-.595,1.935,3.839,3.839,0,0,1-1.317,1.19,3.758,3.758,0,0,1,1.609,1.387,3.811,3.811,0,0,1,.653,2.18,4.524,4.524,0,0,1-1.551,3.661,6.717,6.717,0,0,1-4.442,1.305h-7.415A.56.56,0,0,1,284.264,488.607Zm7.124-9.689a1.8,1.8,0,0,0,1.329-.467,1.64,1.64,0,0,0,.466-1.213,1.594,1.594,0,0,0-.455-1.178,1.818,1.818,0,0,0-1.341-.455h-2.915v3.311Zm.21,6.716a1.86,1.86,0,0,0,1.411-.525A1.935,1.935,0,0,0,293,482.5a1.866,1.866,0,0,0-1.4-.525h-3.125v3.661Z" transform="translate(-284.089 -472.226)" fill="#27a8e0"/><path d="M342.345,497.493a3.855,3.855,0,0,1-1.586-1.318,3.205,3.205,0,0,1-.571-1.843,3.081,3.081,0,0,1,1.318-2.577,8.148,8.148,0,0,1,3.626-1.364l2.891-.443v-.28a1.875,1.875,0,0,0-.35-1.259,1.521,1.521,0,0,0-1.189-.4,1.69,1.69,0,0,0-.781.163,4.214,4.214,0,0,0-.711.49,2.809,2.809,0,0,1-.536.373.271.271,0,0,1-.233.164h-2.7a.52.52,0,0,1-.385-.152.421.421,0,0,1-.128-.361,2.557,2.557,0,0,1,.63-1.411,4.759,4.759,0,0,1,1.842-1.341,7.4,7.4,0,0,1,3.055-.56,6.219,6.219,0,0,1,4.291,1.271,4.416,4.416,0,0,1,1.4,3.439v7.066a.581.581,0,0,1-.163.408.549.549,0,0,1-.42.175h-2.868a.6.6,0,0,1-.583-.583v-.816a3.767,3.767,0,0,1-1.422,1.178,4.8,4.8,0,0,1-2.169.454A5.22,5.22,0,0,1,342.345,497.493Zm5.083-2.95a2.739,2.739,0,0,0,.641-1.958v-.28l-1.935.327q-1.959.373-1.959,1.4a1.013,1.013,0,0,0,.455.863,1.886,1.886,0,0,0,1.131.326A2.193,2.193,0,0,0,347.428,494.543Z" transform="translate(-322.976 -481.182)" fill="#27a8e0"/><path d="M393.5,497.563a.56.56,0,0,1-.175-.408V486.2a.549.549,0,0,1,.175-.419.58.58,0,0,1,.408-.164h2.868a.56.56,0,0,1,.583.583v.886a4.566,4.566,0,0,1,1.621-1.236,5.283,5.283,0,0,1,2.274-.467,4.6,4.6,0,0,1,2.367.607,4.181,4.181,0,0,1,1.632,1.8,6.357,6.357,0,0,1,.595,2.868v6.506a.581.581,0,0,1-.163.408.55.55,0,0,1-.42.175h-3.1a.605.605,0,0,1-.431-.163.547.547,0,0,1-.175-.419v-6.366a2.334,2.334,0,0,0-.5-1.609,1.855,1.855,0,0,0-1.457-.56,1.918,1.918,0,0,0-1.469.571,2.243,2.243,0,0,0-.536,1.6v6.366a.581.581,0,0,1-.163.408.55.55,0,0,1-.42.175h-3.1A.56.56,0,0,1,393.5,497.563Z" transform="translate(-359.807 -481.182)" fill="#27a8e0"/><path d="M448.395,496.561a5.241,5.241,0,0,1-1.761-3.929l-.023-.933.023-.956a5.188,5.188,0,0,1,1.749-3.941,6.388,6.388,0,0,1,4.314-1.423,7.26,7.26,0,0,1,3.4.723,5.521,5.521,0,0,1,2.052,1.714,3.676,3.676,0,0,1,.723,1.807.5.5,0,0,1-.163.431.626.626,0,0,1-.443.175h-3.125a.6.6,0,0,1-.4-.117,1.033,1.033,0,0,1-.256-.373,2.125,2.125,0,0,0-.665-.956,1.7,1.7,0,0,0-1.038-.3q-1.8,0-1.866,2.379l-.023.886.023.77a2.889,2.889,0,0,0,.49,1.784,1.671,1.671,0,0,0,1.376.571,1.722,1.722,0,0,0,1.061-.291,2.126,2.126,0,0,0,.641-.968,1.044,1.044,0,0,1,.256-.373.6.6,0,0,1,.4-.116h3.125a.622.622,0,0,1,.42.163.509.509,0,0,1,.187.4,3.431,3.431,0,0,1-.641,1.737,5.435,5.435,0,0,1-2.04,1.784,7.188,7.188,0,0,1-3.5.77A6.376,6.376,0,0,1,448.395,496.561Z" transform="translate(-396.745 -481.182)" fill="#27a8e0"/><path d="M499.127,496.607a5.272,5.272,0,0,1-1.714-3.882q-.024-.3-.024-1.049t.024-1.05a5.221,5.221,0,0,1,1.76-3.859,7.879,7.879,0,0,1,8.931,0,5.224,5.224,0,0,1,1.76,3.859q.046.607.046,1.05t-.046,1.049a5.273,5.273,0,0,1-1.714,3.882,8.144,8.144,0,0,1-9.024,0Zm5.934-2.168a3.262,3.262,0,0,0,.536-1.831q.023-.233.024-.933t-.024-.933a3.281,3.281,0,0,0-.536-1.819,1.971,1.971,0,0,0-2.845,0,3.279,3.279,0,0,0-.536,1.819l-.023.933.023.933a3.26,3.26,0,0,0,.536,1.831,2,2,0,0,0,2.845,0Z" transform="translate(-431.944 -481.182)" fill="#27a8e0"/><path d="M573.7,487.067a6.158,6.158,0,0,1-1.387-4.057l-.023-.816.023-.84a6.129,6.129,0,0,1,1.4-4,4.52,4.52,0,0,1,3.544-1.457,4.447,4.447,0,0,1,3.381,1.352v-4.966a.549.549,0,0,1,.175-.42.579.579,0,0,1,.408-.163h3.008a.609.609,0,0,1,.431.163.549.549,0,0,1,.175.42v15.39a.546.546,0,0,1-.175.419.607.607,0,0,1-.431.163h-2.775a.6.6,0,0,1-.583-.583v-.723a4.4,4.4,0,0,1-3.614,1.539A4.566,4.566,0,0,1,573.7,487.067Zm6.4-2.46a2.826,2.826,0,0,0,.536-1.621q.046-.653.047-.886,0-.257-.047-.863a2.46,2.46,0,0,0-.548-1.5,1.829,1.829,0,0,0-1.481-.594,1.745,1.745,0,0,0-1.5.618,3.2,3.2,0,0,0-.525,1.714l-.023.723.023.723a3.2,3.2,0,0,0,.525,1.714,2.1,2.1,0,0,0,3-.023Z" transform="translate(-483.86 -471.7)" fill="#27a8e0"/><path d="M627.632,496.444A5.927,5.927,0,0,1,625.953,492v-.723a6.015,6.015,0,0,1,1.726-4.338,6.108,6.108,0,0,1,4.407-1.562,6.669,6.669,0,0,1,3.393.8,5.1,5.1,0,0,1,2.075,2.215,7.233,7.233,0,0,1,.688,3.207v.583a.6.6,0,0,1-.606.606h-7.392v.14a2.921,2.921,0,0,0,.49,1.691,1.544,1.544,0,0,0,1.329.641,1.612,1.612,0,0,0,.9-.222,3.109,3.109,0,0,0,.641-.571,1.223,1.223,0,0,1,.338-.292,1.058,1.058,0,0,1,.408-.059H637.4a.544.544,0,0,1,.361.128.4.4,0,0,1,.151.315,2.379,2.379,0,0,1-.687,1.422,5.455,5.455,0,0,1-2.005,1.4,7.658,7.658,0,0,1-3.113.583A6.293,6.293,0,0,1,627.632,496.444Zm6.319-6.028v-.047a2.735,2.735,0,0,0-.49-1.737,1.656,1.656,0,0,0-1.376-.618,1.622,1.622,0,0,0-1.364.618,2.782,2.782,0,0,0-.478,1.737v.047Z" transform="translate(-521.061 -481.182)" fill="#27a8e0"/><path d="M701.25,488.093a.546.546,0,0,1-.175-.419v-15.39a.549.549,0,0,1,.175-.42.609.609,0,0,1,.431-.163H704.6a.558.558,0,0,1,.583.583v15.39a.582.582,0,0,1-.163.408.55.55,0,0,1-.42.175h-2.915A.606.606,0,0,1,701.25,488.093Z" transform="translate(-573.134 -471.7)" fill="#27a8e0"/><path d="M728.475,497.493a3.855,3.855,0,0,1-1.586-1.318,3.205,3.205,0,0,1-.571-1.843,3.081,3.081,0,0,1,1.318-2.577,8.147,8.147,0,0,1,3.626-1.364l2.891-.443v-.28a1.874,1.874,0,0,0-.35-1.259,1.521,1.521,0,0,0-1.189-.4,1.691,1.691,0,0,0-.781.163,4.223,4.223,0,0,0-.711.49,2.807,2.807,0,0,1-.536.373.271.271,0,0,1-.233.164h-2.7a.52.52,0,0,1-.385-.152.421.421,0,0,1-.128-.361,2.556,2.556,0,0,1,.63-1.411,4.76,4.76,0,0,1,1.842-1.341,7.4,7.4,0,0,1,3.055-.56,6.219,6.219,0,0,1,4.291,1.271,4.415,4.415,0,0,1,1.4,3.439v7.066a.581.581,0,0,1-.163.408.55.55,0,0,1-.42.175H734.9a.6.6,0,0,1-.583-.583v-.816a3.765,3.765,0,0,1-1.422,1.178,4.8,4.8,0,0,1-2.169.454A5.22,5.22,0,0,1,728.475,497.493Zm5.083-2.95a2.739,2.739,0,0,0,.641-1.958v-.28l-1.935.327q-1.959.373-1.959,1.4a1.013,1.013,0,0,0,.455.863,1.886,1.886,0,0,0,1.131.326A2.193,2.193,0,0,0,733.558,494.543Z" transform="translate(-590.632 -481.182)" fill="#27a8e0"/><path d="M779.919,497.435a4.84,4.84,0,0,1-1.9-1.283,2.222,2.222,0,0,1-.618-1.353.487.487,0,0,1,.175-.385.574.574,0,0,1,.384-.152h2.822a.319.319,0,0,1,.233.093q.4.257.443.3a4.685,4.685,0,0,0,.828.5,2.215,2.215,0,0,0,.921.175,1.991,1.991,0,0,0,1.037-.245.764.764,0,0,0,.408-.688.846.846,0,0,0-.221-.606,2.255,2.255,0,0,0-.839-.455,13.044,13.044,0,0,0-1.877-.454q-4.034-.817-4.034-3.731a3.125,3.125,0,0,1,.618-1.831,4.306,4.306,0,0,1,1.819-1.411,7.034,7.034,0,0,1,2.88-.536,7.577,7.577,0,0,1,2.95.525,5.188,5.188,0,0,1,1.9,1.259,2.124,2.124,0,0,1,.653,1.34.533.533,0,0,1-.152.373.476.476,0,0,1-.361.163h-2.566a.509.509,0,0,1-.326-.093,3.66,3.66,0,0,1-.559-.35,6.4,6.4,0,0,0-.734-.431,1.866,1.866,0,0,0-.8-.151,1.437,1.437,0,0,0-.909.256.8.8,0,0,0-.326.653.822.822,0,0,0,.2.571,2,2,0,0,0,.816.432,14.573,14.573,0,0,0,1.877.443,6.215,6.215,0,0,1,3.323,1.411,3.253,3.253,0,0,1-.513,5.153,7.768,7.768,0,0,1-4.349,1.038A8.32,8.32,0,0,1,779.919,497.435Z" transform="translate(-626.041 -481.182)" fill="#27a8e0"/></g><g transform="translate(0.101 20.071)"><path d="M286.469,554.35a6.156,6.156,0,0,1-2.029-4.734q-.023-.653-.023-2.005t.023-2.029a6.168,6.168,0,0,1,2.041-4.745,8.943,8.943,0,0,1,10.4,0,6.171,6.171,0,0,1,2.04,4.745q.047,1.353.047,2.029,0,.7-.047,2.005a6.179,6.179,0,0,1-2.017,4.734,9.263,9.263,0,0,1-10.435,0Zm7.159-2.623a3.246,3.246,0,0,0,.77-2.25q.046-1.352.046-1.935t-.046-1.889a3.247,3.247,0,0,0-.77-2.25,2.593,2.593,0,0,0-1.935-.734,2.622,2.622,0,0,0-1.959.734,3.244,3.244,0,0,0-.77,2.25q-.024.653-.023,1.889,0,1.259.023,1.935a3.243,3.243,0,0,0,.77,2.25,2.622,2.622,0,0,0,1.959.734A2.594,2.594,0,0,0,293.628,551.727Z" transform="translate(-284.417 -538.54)" fill="#27a8e0"/><path d="M337.032,569.476a.548.548,0,0,1-.175-.42v-15.39a.548.548,0,0,1,.175-.42.609.609,0,0,1,.431-.163h2.775a.559.559,0,0,1,.583.583v.839a4.268,4.268,0,0,1,3.614-1.656,4.586,4.586,0,0,1,3.556,1.411,6.078,6.078,0,0,1,1.387,4.022q.023.3.023.863t-.023.886a6.049,6.049,0,0,1-1.4,3.964,4.537,4.537,0,0,1-3.544,1.446,3.906,3.906,0,0,1-3.381-1.539v5.153a.559.559,0,0,1-.583.583h-3.008A.608.608,0,0,1,337.032,569.476Zm7.555-7.893a3.2,3.2,0,0,0,.524-1.714q.023-.233.024-.723t-.024-.723a3.2,3.2,0,0,0-.524-1.714,2.1,2.1,0,0,0-3,.023,2.821,2.821,0,0,0-.536,1.62q-.023.3-.023.886,0,.56.023.863a2.453,2.453,0,0,0,.548,1.5,1.827,1.827,0,0,0,1.481.594A1.744,1.744,0,0,0,344.587,561.583Z" transform="translate(-320.767 -548.023)" fill="#27a8e0"/><path d="M382.672,564.078a5.274,5.274,0,0,1-1.714-3.883q-.023-.3-.023-1.049t.023-1.049a5.223,5.223,0,0,1,1.761-3.859,7.88,7.88,0,0,1,8.931,0,5.223,5.223,0,0,1,1.76,3.859q.047.607.047,1.049t-.047,1.049a5.274,5.274,0,0,1-1.714,3.883,8.146,8.146,0,0,1-9.025,0Zm5.935-2.169a3.262,3.262,0,0,0,.536-1.831q.023-.232.023-.932t-.023-.933a3.283,3.283,0,0,0-.536-1.819,1.972,1.972,0,0,0-2.845,0,3.279,3.279,0,0,0-.536,1.819l-.023.933.023.932a3.258,3.258,0,0,0,.536,1.831,2,2,0,0,0,2.845,0Z" transform="translate(-351.321 -548.023)" fill="#27a8e0"/><path d="M426.407,565.561a.559.559,0,0,1-.175-.408V554.216a.608.608,0,0,1,.163-.431.548.548,0,0,1,.42-.175h2.845a.6.6,0,0,1,.606.606v.886a4.458,4.458,0,0,1,1.527-1.108,4.782,4.782,0,0,1,1.947-.385h1.049a.56.56,0,0,1,.583.583v2.542a.581.581,0,0,1-.164.408.548.548,0,0,1-.419.175h-2.355a1.915,1.915,0,0,0-1.434.513,1.981,1.981,0,0,0-.5,1.446v5.876a.549.549,0,0,1-.175.42.609.609,0,0,1-.431.163h-3.078A.559.559,0,0,1,426.407,565.561Z" transform="translate(-382.72 -548.549)" fill="#27a8e0"/><path d="M457.688,551.086v-4.314h-1.842a.6.6,0,0,1-.583-.583v-2.005a.549.549,0,0,1,.175-.42.581.581,0,0,1,.408-.163h1.842v-3.848a.55.55,0,0,1,.175-.42.581.581,0,0,1,.408-.163h2.868a.559.559,0,0,1,.583.583V543.6h2.915a.609.609,0,0,1,.431.163.548.548,0,0,1,.175.42v2.005a.548.548,0,0,1-.175.42.607.607,0,0,1-.431.163h-2.915v3.964a2.1,2.1,0,0,0,.3,1.236,1.125,1.125,0,0,0,.979.42h1.842a.547.547,0,0,1,.42.175.61.61,0,0,1,.164.431v2.145a.58.58,0,0,1-.164.408.549.549,0,0,1-.42.175h-2.215Q457.688,555.726,457.688,551.086Z" transform="translate(-402.843 -538.54)" fill="#27a8e0"/><path d="M492.7,564.593a5.561,5.561,0,0,1-1.259-3.894v-6.506a.549.549,0,0,1,.175-.42.58.58,0,0,1,.408-.163h3.1a.61.61,0,0,1,.431.163.549.549,0,0,1,.175.42v6.366q0,2.169,1.935,2.168a1.879,1.879,0,0,0,1.457-.571,2.274,2.274,0,0,0,.525-1.6v-6.366a.548.548,0,0,1,.175-.42.609.609,0,0,1,.431-.163h3.078a.559.559,0,0,1,.583.583v10.96a.58.58,0,0,1-.163.408.549.549,0,0,1-.42.175h-2.845a.608.608,0,0,1-.431-.163.548.548,0,0,1-.175-.42v-.886a4.424,4.424,0,0,1-3.871,1.7A4.275,4.275,0,0,1,492.7,564.593Z" transform="translate(-427.92 -548.549)" fill="#27a8e0"/><path d="M538.2,565.034a.559.559,0,0,1-.175-.408v-10.96a.549.549,0,0,1,.175-.42.58.58,0,0,1,.408-.163h2.868a.559.559,0,0,1,.583.583v.886a4.569,4.569,0,0,1,1.621-1.236,5.282,5.282,0,0,1,2.274-.466,4.608,4.608,0,0,1,2.367.606,4.181,4.181,0,0,1,1.632,1.8,6.355,6.355,0,0,1,.595,2.868v6.506a.58.58,0,0,1-.163.408.549.549,0,0,1-.42.175h-3.1a.608.608,0,0,1-.431-.163.548.548,0,0,1-.175-.42V558.26a2.335,2.335,0,0,0-.5-1.609,1.856,1.856,0,0,0-1.457-.56,1.917,1.917,0,0,0-1.469.571,2.243,2.243,0,0,0-.536,1.6v6.366a.579.579,0,0,1-.163.408.548.548,0,0,1-.42.175h-3.1A.559.559,0,0,1,538.2,565.034Z" transform="translate(-460.213 -548.023)" fill="#27a8e0"/><path d="M584.55,540.324a.607.607,0,0,1-.163-.431v-2.169a.586.586,0,0,1,.175-.431.559.559,0,0,1,.408-.175h2.915a.6.6,0,0,1,.606.607v2.169a.6.6,0,0,1-.606.606H584.97A.547.547,0,0,1,584.55,540.324Zm.012,13.8a.559.559,0,0,1-.175-.408V542.76a.548.548,0,0,1,.175-.42.579.579,0,0,1,.408-.163h2.915a.609.609,0,0,1,.431.163.548.548,0,0,1,.175.42v10.96a.548.548,0,0,1-.175.42.609.609,0,0,1-.431.163H584.97A.559.559,0,0,1,584.562,554.128Z" transform="translate(-492.349 -537.117)" fill="#27a8e0"/><path d="M603.733,554.537a6.159,6.159,0,0,1-1.387-4.057l-.023-.816.023-.839a6.129,6.129,0,0,1,1.4-4,4.52,4.52,0,0,1,3.544-1.457,4.444,4.444,0,0,1,3.381,1.353v-4.967a.55.55,0,0,1,.175-.42.582.582,0,0,1,.408-.163h3.008a.611.611,0,0,1,.431.163.55.55,0,0,1,.175.42v15.39a.548.548,0,0,1-.175.42.607.607,0,0,1-.431.163h-2.775a.6.6,0,0,1-.583-.583v-.723a4.4,4.4,0,0,1-3.615,1.539A4.566,4.566,0,0,1,603.733,554.537Zm6.4-2.46a2.824,2.824,0,0,0,.536-1.621q.047-.653.047-.886,0-.256-.047-.863a2.458,2.458,0,0,0-.548-1.5,1.828,1.828,0,0,0-1.481-.595,1.744,1.744,0,0,0-1.5.618,3.2,3.2,0,0,0-.525,1.714l-.023.723.023.723a3.2,3.2,0,0,0,.525,1.714,2.1,2.1,0,0,0,3-.023Z" transform="translate(-504.781 -538.54)" fill="#27a8e0"/><path d="M648.862,564.964a3.846,3.846,0,0,1-1.586-1.317,3.2,3.2,0,0,1-.572-1.843,3.081,3.081,0,0,1,1.318-2.577,8.146,8.146,0,0,1,3.626-1.364l2.891-.443v-.28a1.874,1.874,0,0,0-.35-1.259,1.522,1.522,0,0,0-1.189-.4,1.688,1.688,0,0,0-.781.163,4.208,4.208,0,0,0-.711.49,2.838,2.838,0,0,1-.536.373.271.271,0,0,1-.234.163h-2.7a.522.522,0,0,1-.385-.151.421.421,0,0,1-.128-.361,2.557,2.557,0,0,1,.63-1.411,4.758,4.758,0,0,1,1.842-1.341,7.4,7.4,0,0,1,3.054-.56,6.223,6.223,0,0,1,4.291,1.271,4.418,4.418,0,0,1,1.4,3.44v7.066a.58.58,0,0,1-.164.408.548.548,0,0,1-.42.175h-2.868a.6.6,0,0,1-.583-.583v-.816a3.763,3.763,0,0,1-1.422,1.178,4.8,4.8,0,0,1-2.168.455A5.217,5.217,0,0,1,648.862,564.964Zm5.083-2.95a2.739,2.739,0,0,0,.641-1.959v-.28l-1.935.326q-1.959.373-1.959,1.4a1.013,1.013,0,0,0,.455.863,1.888,1.888,0,0,0,1.131.327A2.193,2.193,0,0,0,653.945,562.014Z" transform="translate(-535.547 -548.023)" fill="#27a8e0"/><path d="M691.511,554.537a6.157,6.157,0,0,1-1.387-4.057l-.024-.816.024-.839a6.125,6.125,0,0,1,1.4-4,4.519,4.519,0,0,1,3.544-1.457,4.444,4.444,0,0,1,3.381,1.353v-4.967a.549.549,0,0,1,.175-.42.58.58,0,0,1,.408-.163h3.008a.612.612,0,0,1,.432.163.55.55,0,0,1,.175.42v15.39a.548.548,0,0,1-.175.42.609.609,0,0,1-.432.163h-2.775a.6.6,0,0,1-.583-.583v-.723a4.4,4.4,0,0,1-3.615,1.539A4.566,4.566,0,0,1,691.511,554.537Zm6.4-2.46a2.826,2.826,0,0,0,.536-1.621q.047-.653.047-.886,0-.256-.047-.863a2.459,2.459,0,0,0-.548-1.5,1.828,1.828,0,0,0-1.481-.595,1.743,1.743,0,0,0-1.5.618,3.2,3.2,0,0,0-.525,1.714l-.023.723.023.723a3.2,3.2,0,0,0,.525,1.714,2.1,2.1,0,0,0,3-.023Z" transform="translate(-565.627 -538.54)" fill="#27a8e0"/><path d="M737.074,563.915a5.926,5.926,0,0,1-1.679-4.442v-.723a6.014,6.014,0,0,1,1.726-4.337,6.109,6.109,0,0,1,4.407-1.562,6.663,6.663,0,0,1,3.393.8A5.1,5.1,0,0,1,747,555.87a7.227,7.227,0,0,1,.688,3.206v.583a.6.6,0,0,1-.606.606h-7.392v.14a2.923,2.923,0,0,0,.49,1.691,1.545,1.545,0,0,0,1.329.641,1.616,1.616,0,0,0,.9-.221,3.114,3.114,0,0,0,.641-.571,1.223,1.223,0,0,1,.338-.291,1.053,1.053,0,0,1,.408-.058h3.055a.544.544,0,0,1,.361.128.4.4,0,0,1,.152.315,2.378,2.378,0,0,1-.688,1.422,5.453,5.453,0,0,1-2.005,1.4,7.651,7.651,0,0,1-3.113.583A6.292,6.292,0,0,1,737.074,563.915Zm6.319-6.028v-.047a2.735,2.735,0,0,0-.49-1.737,1.656,1.656,0,0,0-1.376-.618,1.624,1.624,0,0,0-1.364.618,2.783,2.783,0,0,0-.478,1.737v.047Z" transform="translate(-597.025 -548.023)" fill="#27a8e0"/><path d="M780.016,564.906a4.841,4.841,0,0,1-1.9-1.283,2.222,2.222,0,0,1-.618-1.352.488.488,0,0,1,.175-.385.575.575,0,0,1,.385-.151h2.821a.318.318,0,0,1,.233.093,5.193,5.193,0,0,1,.443.3,4.68,4.68,0,0,0,.828.5,2.212,2.212,0,0,0,.921.175,1.993,1.993,0,0,0,1.037-.245.764.764,0,0,0,.408-.688.846.846,0,0,0-.222-.607,2.258,2.258,0,0,0-.839-.454,13.082,13.082,0,0,0-1.877-.455q-4.034-.816-4.034-3.731a3.124,3.124,0,0,1,.618-1.831,4.306,4.306,0,0,1,1.819-1.411,7.032,7.032,0,0,1,2.88-.536,7.578,7.578,0,0,1,2.95.525,5.194,5.194,0,0,1,1.9,1.259,2.126,2.126,0,0,1,.653,1.341.532.532,0,0,1-.152.373.476.476,0,0,1-.361.163H785.52a.509.509,0,0,1-.326-.093,3.672,3.672,0,0,1-.559-.35,6.279,6.279,0,0,0-.735-.431,1.86,1.86,0,0,0-.8-.152,1.437,1.437,0,0,0-.909.257.794.794,0,0,0-.326.653.824.824,0,0,0,.2.571,2,2,0,0,0,.816.431,14.514,14.514,0,0,0,1.878.443,6.212,6.212,0,0,1,3.323,1.411,3.253,3.253,0,0,1-.513,5.153,7.77,7.77,0,0,1-4.349,1.038A8.313,8.313,0,0,1,780.016,564.906Z" transform="translate(-626.209 -548.023)" fill="#27a8e0"/></g></g><g transform="translate(284.156 516.776)"><rect width="162.948" height="13.988" transform="translate(0)" fill="#ec7b29" style="isolation:isolate"/><g transform="translate(9.426 2.348)"><path d="M315.106,635.671a.247.247,0,0,1-.077-.18l.026-.142,3.2-8.338a.4.4,0,0,1,.412-.284h.825a.4.4,0,0,1,.412.284l3.2,8.338.026.142a.239.239,0,0,1-.084.18.27.27,0,0,1-.187.077h-.606a.318.318,0,0,1-.213-.071.341.341,0,0,1-.109-.148l-.722-1.856h-4.266l-.709,1.856a.338.338,0,0,1-.322.219h-.619A.247.247,0,0,1,315.106,635.671Zm2.2-3.067h3.531l-1.766-4.626Z" transform="translate(-315.029 -626.586)" fill="#fff"/><path d="M348.194,640.047a3.1,3.1,0,0,1-.812-2.185l-.013-.515.013-.515a3.1,3.1,0,0,1,.812-2.184,2.9,2.9,0,0,1,2.152-.78,3.389,3.389,0,0,1,1.565.329,2.413,2.413,0,0,1,.954.818,2,2,0,0,1,.341.979.236.236,0,0,1-.084.206.3.3,0,0,1-.213.09h-.567a.282.282,0,0,1-.193-.058.61.61,0,0,1-.129-.213,1.733,1.733,0,0,0-.638-.9,1.841,1.841,0,0,0-1.024-.264,1.692,1.692,0,0,0-1.289.5,2.288,2.288,0,0,0-.515,1.533l-.013.451.013.451a2.289,2.289,0,0,0,.515,1.534,1.693,1.693,0,0,0,1.289.5,1.835,1.835,0,0,0,1.031-.264,1.749,1.749,0,0,0,.631-.9.609.609,0,0,1,.129-.213.282.282,0,0,1,.193-.058h.567a.306.306,0,0,1,.213.09.236.236,0,0,1,.084.206,1.98,1.98,0,0,1-.341.966,2.458,2.458,0,0,1-.954.825,3.339,3.339,0,0,1-1.565.335A2.9,2.9,0,0,1,348.194,640.047Z" transform="translate(-337.446 -631.536)" fill="#fff"/><path d="M375.087,640.325a3.155,3.155,0,0,1-.67-2.107v-3.634a.287.287,0,0,1,.3-.3h.593a.287.287,0,0,1,.3.3v3.569q0,1.959,1.7,1.959a1.7,1.7,0,0,0,1.308-.522,2.033,2.033,0,0,0,.483-1.437v-3.569a.287.287,0,0,1,.3-.3h.593a.287.287,0,0,1,.3.3v6.108a.287.287,0,0,1-.3.3h-.554a.287.287,0,0,1-.3-.3v-.58a2.469,2.469,0,0,1-.876.754,2.847,2.847,0,0,1-1.276.251A2.344,2.344,0,0,1,375.087,640.325Z" transform="translate(-356.195 -631.827)" fill="#fff"/><path d="M402.845,640.008a3.37,3.37,0,0,1-.863-2.236l-.013-.438.013-.425a3.363,3.363,0,0,1,.863-2.216,3.108,3.108,0,0,1,4.3.077,3.617,3.617,0,0,1,.78,2.448v.232a.286.286,0,0,1-.3.3h-4.472v.116a2.393,2.393,0,0,0,.515,1.431,1.539,1.539,0,0,0,1.263.593,1.832,1.832,0,0,0,.986-.238,2.108,2.108,0,0,0,.573-.5.67.67,0,0,1,.18-.187.529.529,0,0,1,.219-.032h.567a.32.32,0,0,1,.2.064.2.2,0,0,1,.084.168,1.142,1.142,0,0,1-.348.683,2.843,2.843,0,0,1-.986.69,3.5,3.5,0,0,1-1.463.29A2.777,2.777,0,0,1,402.845,640.008Zm3.9-3.138v-.039a2.167,2.167,0,0,0-.49-1.469,1.65,1.65,0,0,0-1.314-.567,1.626,1.626,0,0,0-1.314.567,2.205,2.205,0,0,0-.477,1.469v.039Z" transform="translate(-375.294 -631.536)" fill="#fff"/><path d="M429.772,640.905a.287.287,0,0,1-.084-.213v-6.1a.31.31,0,0,1,.084-.219.277.277,0,0,1,.213-.09h.541a.289.289,0,0,1,.31.309v.567a1.922,1.922,0,0,1,1.791-.876h.5a.269.269,0,0,1,.3.3v.477a.3.3,0,0,1-.077.213.284.284,0,0,1-.219.084h-.734a1.494,1.494,0,0,0-1.115.412,1.529,1.529,0,0,0-.406,1.121v3.8a.278.278,0,0,1-.09.213.31.31,0,0,1-.219.084h-.58A.287.287,0,0,1,429.772,640.905Z" transform="translate(-394.508 -631.827)" fill="#fff"/><path d="M447.9,634.71a3.766,3.766,0,0,1-.728-2.216l-.013-.387.013-.387a3.752,3.752,0,0,1,.734-2.21,2.4,2.4,0,0,1,2.023-.883,2.5,2.5,0,0,1,2.088.954V626.6a.287.287,0,0,1,.3-.3h.58a.287.287,0,0,1,.3.3v8.557a.287.287,0,0,1-.3.3h-.554a.266.266,0,0,1-.206-.084.3.3,0,0,1-.077-.213v-.554a2.5,2.5,0,0,1-2.126.979A2.4,2.4,0,0,1,447.9,634.71Zm3.628-.728a2.5,2.5,0,0,0,.49-1.424q.013-.141.013-.489t-.013-.5a2.2,2.2,0,0,0-.5-1.36,1.643,1.643,0,0,0-1.346-.573,1.566,1.566,0,0,0-1.353.58,2.709,2.709,0,0,0-.464,1.521l-.013.374q0,2.474,1.83,2.474A1.586,1.586,0,0,0,451.529,633.982Z" transform="translate(-406.619 -626.295)" fill="#fff"/><path d="M476.215,640.028a3.126,3.126,0,0,1-.818-2.126l-.013-.554.013-.554a3.1,3.1,0,0,1,.831-2.126,3.35,3.35,0,0,1,4.343,0,3.1,3.1,0,0,1,.831,2.126q.026.284.026.554t-.026.554a3.128,3.128,0,0,1-.818,2.126,3.385,3.385,0,0,1-4.369,0Zm3.492-.689a2.27,2.27,0,0,0,.522-1.5q.013-.129.013-.489c0-.24,0-.4-.013-.49a2.271,2.271,0,0,0-.522-1.5,1.9,1.9,0,0,0-2.616,0,2.271,2.271,0,0,0-.522,1.5l-.013.49.013.489a2.27,2.27,0,0,0,.522,1.5,1.9,1.9,0,0,0,2.616,0Z" transform="translate(-426.183 -631.536)" fill="#fff"/><path d="M517.416,634.613a4.226,4.226,0,0,1-.818-2.545l-.013-1.109.013-1.147a4.1,4.1,0,0,1,.818-2.532,3.535,3.535,0,0,1,4.871,0,4.1,4.1,0,0,1,.818,2.532q.013.361.013,1.147,0,.761-.013,1.109a4.226,4.226,0,0,1-.818,2.545,3.535,3.535,0,0,1-4.871,0Zm3.924-.754a3.114,3.114,0,0,0,.528-1.856q.013-.374.013-1.07t-.013-1.056a3.091,3.091,0,0,0-.535-1.849,1.761,1.761,0,0,0-1.488-.664,1.743,1.743,0,0,0-1.482.664,3.121,3.121,0,0,0-.528,1.849l-.013,1.056.013,1.07a3.113,3.113,0,0,0,.528,1.856,2.014,2.014,0,0,0,2.977,0Z" transform="translate(-454.743 -626.295)" fill="#fff"/><path d="M549.587,635.665a.287.287,0,0,1-.084-.213v-1.882h-4.188a.287.287,0,0,1-.3-.3V632.8a.694.694,0,0,1,.142-.386l3.879-5.464a.426.426,0,0,1,.193-.161.681.681,0,0,1,.283-.058h.876a.269.269,0,0,1,.3.3v5.464h1.173a.287.287,0,0,1,.3.3v.49a.287.287,0,0,1-.3.3h-1.173v1.882a.287.287,0,0,1-.3.3H549.8A.287.287,0,0,1,549.587,635.665Zm-3.228-3.151h3.157v-4.485Z" transform="translate(-474.453 -626.586)" fill="#fff"/><path d="M576.279,635.529a2.681,2.681,0,0,1-1.082-.908,2.3,2.3,0,0,1-.4-1.2v-.026a.208.208,0,0,1,.077-.167.275.275,0,0,1,.181-.065h.631a.337.337,0,0,1,.348.284,1.738,1.738,0,0,0,.715,1.037,2.149,2.149,0,0,0,1.2.341,2.065,2.065,0,0,0,1.456-.535,1.908,1.908,0,0,0,.58-1.476,1.733,1.733,0,0,0-.58-1.372,2.127,2.127,0,0,0-1.456-.509,2.007,2.007,0,0,0-.747.116,2.718,2.718,0,0,0-.58.335,2.108,2.108,0,0,1-.277.187.5.5,0,0,1-.238.058h-.619a.294.294,0,0,1-.206-.084.226.226,0,0,1-.077-.2l.4-4.291q.039-.322.322-.322h4.459a.269.269,0,0,1,.3.3v.477a.267.267,0,0,1-.084.206.3.3,0,0,1-.213.077h-3.711l-.232,2.59a2.828,2.828,0,0,1,1.662-.438,3.575,3.575,0,0,1,1.572.342,2.7,2.7,0,0,1,1.128,1,2.842,2.842,0,0,1,.419,1.559,3.1,3.1,0,0,1-.419,1.643,2.678,2.678,0,0,1-1.16,1.044,3.881,3.881,0,0,1-1.695.354A3.762,3.762,0,0,1,576.279,635.529Z" transform="translate(-495.094 -626.586)" fill="#fff"/><path d="M617.286,634.71a3.765,3.765,0,0,1-.728-2.216l-.013-.387.013-.387a3.749,3.749,0,0,1,.734-2.21,2.4,2.4,0,0,1,2.023-.883,2.5,2.5,0,0,1,2.088.954V626.6a.286.286,0,0,1,.3-.3h.58a.287.287,0,0,1,.3.3v8.557a.287.287,0,0,1-.3.3h-.554a.265.265,0,0,1-.206-.084.3.3,0,0,1-.077-.213v-.554a2.5,2.5,0,0,1-2.127.979A2.4,2.4,0,0,1,617.286,634.71Zm3.627-.728a2.5,2.5,0,0,0,.49-1.424c.008-.094.013-.258.013-.489s0-.408-.013-.5a2.2,2.2,0,0,0-.5-1.36,1.643,1.643,0,0,0-1.346-.573,1.565,1.565,0,0,0-1.353.58,2.706,2.706,0,0,0-.464,1.521l-.013.374q0,2.474,1.83,2.474A1.585,1.585,0,0,0,620.913,633.982Z" transform="translate(-524.033 -626.295)" fill="#fff"/><path d="M645.56,640.008a3.372,3.372,0,0,1-.864-2.236l-.013-.438.013-.425a3.365,3.365,0,0,1,.864-2.216,3.107,3.107,0,0,1,4.3.077,3.616,3.616,0,0,1,.78,2.448v.232a.286.286,0,0,1-.3.3h-4.472v.116a2.393,2.393,0,0,0,.516,1.431,1.539,1.539,0,0,0,1.263.593,1.833,1.833,0,0,0,.986-.238,2.1,2.1,0,0,0,.573-.5.672.672,0,0,1,.18-.187.528.528,0,0,1,.219-.032h.567a.319.319,0,0,1,.2.064.2.2,0,0,1,.084.168,1.143,1.143,0,0,1-.348.683,2.845,2.845,0,0,1-.986.69,3.5,3.5,0,0,1-1.463.29A2.777,2.777,0,0,1,645.56,640.008Zm3.9-3.138v-.039a2.168,2.168,0,0,0-.49-1.469,1.65,1.65,0,0,0-1.315-.567,1.626,1.626,0,0,0-1.314.567,2.205,2.205,0,0,0-.477,1.469v.039Z" transform="translate(-543.538 -631.536)" fill="#fff"/><path d="M684.919,635.345a.287.287,0,0,1-.084-.213v-.387a.757.757,0,0,1,.322-.567l2.809-2.8a8.005,8.005,0,0,0,1.314-1.327,1.878,1.878,0,0,0,.361-1.1,1.626,1.626,0,0,0-.425-1.192,1.937,1.937,0,0,0-2.461.019A2.045,2.045,0,0,0,686.2,629a.337.337,0,0,1-.129.219.345.345,0,0,1-.206.077h-.618a.264.264,0,0,1-.193-.077.247.247,0,0,1-.077-.18,3.009,3.009,0,0,1,.367-1.321,2.7,2.7,0,0,1,1.012-1.044,3.079,3.079,0,0,1,1.624-.406,2.886,2.886,0,0,1,2.171.754,2.644,2.644,0,0,1,.728,1.914,2.775,2.775,0,0,1-.393,1.463,5.96,5.96,0,0,1-1.231,1.372l-2.539,2.577h4.059a.269.269,0,0,1,.3.3v.49a.287.287,0,0,1-.3.3h-5.644A.287.287,0,0,1,684.919,635.345Z" transform="translate(-571.37 -626.266)" fill="#fff"/><path d="M713.974,634.613a4.224,4.224,0,0,1-.818-2.545l-.013-1.109.013-1.147a4.093,4.093,0,0,1,.818-2.532,3.535,3.535,0,0,1,4.871,0,4.1,4.1,0,0,1,.818,2.532q.013.361.013,1.147,0,.761-.013,1.109a4.23,4.23,0,0,1-.818,2.545,3.535,3.535,0,0,1-4.871,0Zm3.924-.754a3.115,3.115,0,0,0,.528-1.856q.012-.374.013-1.07t-.013-1.056a3.093,3.093,0,0,0-.535-1.849,1.761,1.761,0,0,0-1.488-.664,1.743,1.743,0,0,0-1.482.664,3.121,3.121,0,0,0-.528,1.849l-.013,1.056.013,1.07a3.113,3.113,0,0,0,.528,1.856,2.014,2.014,0,0,0,2.977,0Z" transform="translate(-590.992 -626.295)" fill="#fff"/><path d="M743.752,634.613a4.224,4.224,0,0,1-.818-2.545l-.013-1.109.013-1.147a4.094,4.094,0,0,1,.818-2.532,3.535,3.535,0,0,1,4.871,0,4.1,4.1,0,0,1,.818,2.532q.013.361.013,1.147,0,.761-.013,1.109a4.224,4.224,0,0,1-.818,2.545,3.535,3.535,0,0,1-4.871,0Zm3.924-.754A3.113,3.113,0,0,0,748.2,632q.013-.374.013-1.07t-.013-1.056a3.091,3.091,0,0,0-.535-1.849,1.761,1.761,0,0,0-1.488-.664,1.743,1.743,0,0,0-1.482.664,3.121,3.121,0,0,0-.528,1.849l-.013,1.056.013,1.07a3.114,3.114,0,0,0,.528,1.856,2.014,2.014,0,0,0,2.977,0Z" transform="translate(-611.634 -626.295)" fill="#fff"/><path d="M774.131,635.665a.3.3,0,0,1-.077-.213v-7.268l-2.165,1.662a.292.292,0,0,1-.193.077.287.287,0,0,1-.219-.129l-.309-.4a.309.309,0,0,1-.064-.18.273.273,0,0,1,.129-.232l2.8-2.165a.611.611,0,0,1,.335-.09h.605a.287.287,0,0,1,.3.3v8.428a.287.287,0,0,1-.3.3h-.631A.266.266,0,0,1,774.131,635.665Z" transform="translate(-631.169 -626.586)" fill="#fff"/></g></g></g></svg>