<svg id="Componente_18" data-name="Componente 18" xmlns="http://www.w3.org/2000/svg" width="38" height="33.249" viewBox="0 0 38 33.249">
  <g id="Grupo_71" data-name="Grupo 71" transform="translate(-274.76 -692.271)">
    <path id="Trazado_114" data-name="Trazado 114" d="M274.76,697.021v-3.393a1.357,1.357,0,0,1,1.357-1.357H311.4a1.357,1.357,0,0,1,1.357,1.357v3.393a1.357,1.357,0,0,1-1.357,1.357H276.117A1.357,1.357,0,0,1,274.76,697.021Zm0,13.571V707.2a1.357,1.357,0,0,1,1.357-1.357H311.4a1.357,1.357,0,0,1,1.357,1.357v3.393a1.357,1.357,0,0,1-1.357,1.357H276.117A1.357,1.357,0,0,1,274.76,710.592Zm0,13.571v-3.392a1.357,1.357,0,0,1,1.357-1.357H311.4a1.357,1.357,0,0,1,1.357,1.357v3.392a1.357,1.357,0,0,1-1.357,1.357H276.117A1.357,1.357,0,0,1,274.76,724.163Z" fill="#fe7c1a"/>
  </g>
</svg>
