<svg xmlns="http://www.w3.org/2000/svg" width="84.258" height="67.406" viewBox="0 0 84.258 67.406">
  <g id="Grupo_58" data-name="Grupo 58" transform="translate(-209.44 -341.443)">
    <path id="Trazado_106" data-name="Trazado 106" d="M268.42,397.053v5.477a6.32,6.32,0,0,1-6.319,6.319H215.759a6.321,6.321,0,0,1-6.319-6.319v-5.477a17.7,17.7,0,0,1,17.694-17.694h2.2a22.922,22.922,0,0,0,19.2,0h2.2A17.7,17.7,0,0,1,268.42,397.053Zm-46.341-38.759a16.852,16.852,0,1,1,16.851,16.852A16.849,16.849,0,0,1,222.079,358.294Zm71.158,6.373-18.6,18.457a1.56,1.56,0,0,1-2.211-.013l-10.756-10.835a1.561,1.561,0,0,1,.013-2.212l3.7-3.673a1.563,1.563,0,0,1,2.212.013l5.99,6.03,13.8-13.692a1.561,1.561,0,0,1,2.212.013l3.66,3.7A1.574,1.574,0,0,1,293.237,364.667Z" fill="#016cfa"/>
  </g>
</svg>
