<svg xmlns="http://www.w3.org/2000/svg" width="84.258" height="58.98" viewBox="0 0 84.258 58.98">
  <g id="Grupo_62" data-name="Grupo 62" transform="translate(-764.778 -345.656)">
    <path id="Trazado_110" data-name="Trazado 110" d="M815.333,394.525v3.792a6.321,6.321,0,0,1-6.319,6.319H771.1a6.321,6.321,0,0,1-6.32-6.319v-3.792a15.171,15.171,0,0,1,15.167-15.166h1.093a20.361,20.361,0,0,0,18.036,0h1.093A15.17,15.17,0,0,1,815.333,394.525ZM775.311,360.4a14.745,14.745,0,1,1,14.745,14.745A14.737,14.737,0,0,1,775.311,360.4Zm73.725,33.7a6.32,6.32,0,0,1-6.319,6.319h-23.25c.013-.276.079-.552.079-.842v-5.056a19.265,19.265,0,0,0-5.227-13.139,14.633,14.633,0,0,1,7.333-2.027h.5a16.605,16.605,0,0,0,11.638,0h.5A14.738,14.738,0,0,1,849.036,394.1Zm-33.7-31.6a12.638,12.638,0,1,1,12.639,12.639A12.642,12.642,0,0,1,815.333,362.507Z" fill="#016cfa"/>
  </g>
</svg>
