<svg xmlns="http://www.w3.org/2000/svg" width="65.3" height="65.3" viewBox="0 0 65.3 65.3">
  <g id="Grupo_59" data-name="Grupo 59" transform="translate(-382.469 -342.496)">
    <path id="Trazado_107" data-name="Trazado 107" d="M415.119,407.8a32.65,32.65,0,1,1,32.65-32.65A32.648,32.648,0,0,1,415.119,407.8Zm-6.056-20.011a6.056,6.056,0,1,0,6.056-6.056A6.056,6.056,0,0,0,409.063,387.785Zm1.283-9.92a1.58,1.58,0,0,0,1.577,1.494h6.392a1.579,1.579,0,0,0,1.577-1.494l.977-17.9a1.58,1.58,0,0,0-1.577-1.666h-8.345a1.579,1.579,0,0,0-1.577,1.666Z" fill="#016cfa"/>
  </g>
</svg>
