<svg xmlns="http://www.w3.org/2000/svg" width="50.554" height="67.407" viewBox="0 0 50.554 67.407">
  <g id="Grupo_61" data-name="Grupo 61" transform="translate(-636.991 -341.443)">
    <path id="Trazado_109" data-name="Trazado 109" d="M687.545,366.72c0,10.111-3.37,13.06-22.749,40.865a3.159,3.159,0,0,1-5.056,0c-19.379-27.8-22.749-30.754-22.749-40.865a25.277,25.277,0,1,1,50.554,0Zm-10.25-5.757-3.4-3.427a1.449,1.449,0,0,0-2.048-.008l-12.8,12.694-5.55-5.594a1.449,1.449,0,0,0-2.048-.008l-3.427,3.4a1.448,1.448,0,0,0-.008,2.048l9.969,10.049a1.447,1.447,0,0,0,2.047.008l17.252-17.113A1.45,1.45,0,0,0,677.295,360.963Z" fill="#016cfa"/>
  </g>
</svg>
