<svg xmlns="http://www.w3.org/2000/svg" width="77.273" height="60.1" viewBox="0 0 77.273 60.1">
  <g id="Grupo_60" data-name="Grupo 60" transform="translate(-509.204 -345.656)">
    <path id="Trazado_108" data-name="Trazado 108" d="M586.477,358.534H509.2V352.1a6.44,6.44,0,0,1,6.439-6.439h64.393a6.441,6.441,0,0,1,6.44,6.439ZM509.2,375.706h77.273v23.611a6.441,6.441,0,0,1-6.44,6.439H515.643a6.44,6.44,0,0,1-6.439-6.439Zm8.585,19.854a1.614,1.614,0,0,0,1.61,1.61h9.659a1.614,1.614,0,0,0,1.61-1.61V390.2a1.615,1.615,0,0,0-1.61-1.61H519.4a1.615,1.615,0,0,0-1.61,1.61Zm17.172,0a1.614,1.614,0,0,0,1.61,1.61h18.244a1.614,1.614,0,0,0,1.61-1.61V390.2a1.615,1.615,0,0,0-1.61-1.61H536.571a1.615,1.615,0,0,0-1.61,1.61Z" fill="#016cfa"/>
  </g>
</svg>
