<svg xmlns="http://www.w3.org/2000/svg" width="74.184" height="65.941" viewBox="0 0 74.184 65.941">
  <path id="house-user-solid" d="M73.5,30.429l-7.559-6.675V6.182A2.061,2.061,0,0,0,63.88,4.121H55.638a2.061,2.061,0,0,0-2.061,2.061v6.655L40.541,1.327A5.924,5.924,0,0,0,37.092,0a5.909,5.909,0,0,0-3.444,1.327L.677,30.433A2.353,2.353,0,0,0,0,31.966a2.4,2.4,0,0,0,.527,1.379l2.757,3.064a2.723,2.723,0,0,0,1.545.683,2.791,2.791,0,0,0,1.377-.529l2.048-1.8V61.82a4.121,4.121,0,0,0,4.121,4.121H61.82a4.121,4.121,0,0,0,4.121-4.121V34.758l2.049,1.8a2.826,2.826,0,0,0,1.381.531,2.69,2.69,0,0,0,1.529-.684l2.757-3.067a2.787,2.787,0,0,0,.527-1.377A2.7,2.7,0,0,0,73.5,30.429ZM37.092,22.667a8.243,8.243,0,1,1-8.243,8.243A8.243,8.243,0,0,1,37.092,22.667ZM51.516,57.7H22.667a2.061,2.061,0,0,1-2.061-2.061A12.364,12.364,0,0,1,32.97,43.274h8.243A12.364,12.364,0,0,1,53.577,55.638,2.061,2.061,0,0,1,51.516,57.7Z" fill="#016cfa"/>
</svg>
