<svg id="Componente_7_3" data-name="Componente 7 – 3" xmlns="http://www.w3.org/2000/svg" width="44.402" height="38.853" viewBox="0 0 44.402 38.853">
  <g id="Grupo_54" data-name="Grupo 54" transform="translate(-296.742 -140.275)">
    <path id="Trazado_102" data-name="Trazado 102" d="M341.144,158.314c0,9.963-9.94,18.039-22.2,18.039a26.429,26.429,0,0,1-9.314-1.68,19.83,19.83,0,0,1-12.194,4.456h0a.693.693,0,0,1-.693-.694.794.794,0,0,1,.19-.477c.043-.046,3.665-3.942,4.754-8.3a16.03,16.03,0,0,1-4.945-11.339c0-9.963,9.94-18.039,22.2-18.039S341.144,148.351,341.144,158.314ZM325.3,161.037a5.081,5.081,0,0,0-3.721-4.134l-4.342-1.24a.731.731,0,0,1,.2-1.433h2.848a2.534,2.534,0,0,1,.884.192,1.069,1.069,0,0,0,1.224-.176l1.519-1.519a1.04,1.04,0,0,0-.134-1.594,6.334,6.334,0,0,0-2.756-.993V148.6a1.387,1.387,0,0,0-1.387-1.387H318.25a1.387,1.387,0,0,0-1.387,1.387v1.522a4.88,4.88,0,0,0-4.278,5.467,5.08,5.08,0,0,0,3.722,4.134l4.342,1.24a.731.731,0,0,1-.2,1.433H317.6a2.125,2.125,0,0,1-.89-.192,1.071,1.071,0,0,0-1.224.176l-1.52,1.52a1.04,1.04,0,0,0,.135,1.594,6.333,6.333,0,0,0,2.756.993v1.537a1.388,1.388,0,0,0,1.387,1.388h1.388a1.388,1.388,0,0,0,1.387-1.388V166.5A4.88,4.88,0,0,0,325.3,161.037Z" transform="translate(0 0)" fill="#fff"/>
  </g>
</svg>
