<svg id="Componente_8_3" data-name="Componente 8 – 3" xmlns="http://www.w3.org/2000/svg" width="48.376" height="43" viewBox="0 0 48.376 43">
  <g id="Grupo_55" data-name="Grupo 55" transform="translate(-422.985 -136.063)">
    <path id="Trazado_103" data-name="Trazado 103" d="M470.46,163.618a2.688,2.688,0,0,1-.108,4.107l-12.7,10.162a6.251,6.251,0,0,1-3.355,1.176H424.328a1.345,1.345,0,0,1-1.344-1.344v-8.062a1.345,1.345,0,0,1,1.344-1.344h4.653l3.905-3.167a11.5,11.5,0,0,1,6.223-2.208h13.438a2.69,2.69,0,0,1,2.688,2.682v.01a3.191,3.191,0,0,1-.039.448,2.787,2.787,0,0,1-2.792,2.234h-6.576a1.344,1.344,0,0,0,0,2.688h9.948a6.22,6.22,0,0,0,3.345-1.176l7.76-6.206a2.779,2.779,0,0,1,3.578,0Zm-28.621-19.443a4.825,4.825,0,0,1,4.494-5.291v-1.478a1.409,1.409,0,0,1,1.459-1.343h1.459a1.409,1.409,0,0,1,1.459,1.343v1.488a8.364,8.364,0,0,1,2.9.966,1.062,1.062,0,0,1,.465.822,1.13,1.13,0,0,1-.142.5,1.155,1.155,0,0,1-.182.219l-1.6,1.469a1.2,1.2,0,0,1-1.285.168,3.019,3.019,0,0,0-.944-.185h-2.99a.74.74,0,0,0-.766.706.761.761,0,0,0,.557.681l4.557,1.2a5.093,5.093,0,0,1,3.911,4.006,4.823,4.823,0,0,1-4.493,5.291v1.478a1.41,1.41,0,0,1-1.46,1.344h-1.46a1.41,1.41,0,0,1-1.458-1.344v-1.486a8.364,8.364,0,0,1-2.9-.966,1.063,1.063,0,0,1-.466-.823,1.131,1.131,0,0,1,.14-.5,1.172,1.172,0,0,1,.189-.223l1.6-1.47a1.205,1.205,0,0,1,1.285-.168,3,3,0,0,0,.94.185h2.99a.74.74,0,0,0,.766-.706.762.762,0,0,0-.557-.681l-4.558-1.2A5.1,5.1,0,0,1,441.839,144.176Z" fill="#fff"/>
  </g>
</svg>
