<svg id="Componente_10_3" data-name="Componente 10 – 3" xmlns="http://www.w3.org/2000/svg" width="53.754" height="43" viewBox="0 0 53.754 43">
  <g id="Grupo_57" data-name="Grupo 57" transform="translate(-675.471 -136.067)">
    <path id="Trazado_105" data-name="Trazado 105" d="M729.225,152.19V176.38a2.689,2.689,0,0,1-2.688,2.688H678.159a2.688,2.688,0,0,1-2.688-2.688V152.19a2.688,2.688,0,0,1,2.688-2.688h14.362l10.751,10.751h-5.627a.672.672,0,0,0-.672.672v1.344a.672.672,0,0,0,.672.672h8.315l5.376,5.376H697.644a.672.672,0,0,0-.672.672v1.344a.672.672,0,0,0,.672.672h24.861a1.345,1.345,0,0,0,1.344-1.344v-6.254a6.174,6.174,0,0,0-1.575-3.8l-10.1-10.1h14.363A2.689,2.689,0,0,1,729.225,152.19Zm-38.077,15.018a3.8,3.8,0,0,0-2.651-3.645l-3.78-1.134a1.1,1.1,0,0,1-.736-1.069,1.055,1.055,0,0,1,.991-1.108h2.361a2.357,2.357,0,0,1,1.076.313.816.816,0,0,0,.387.118.8.8,0,0,0,.464-.179l.987-.943a.769.769,0,0,0,.212-.489.76.76,0,0,0-.259-.53,5.642,5.642,0,0,0-2.635-.953v-1.368a.672.672,0,0,0-.672-.672h-1.344a.673.673,0,0,0-.672.672v1.354a3.74,3.74,0,0,0-3.583,3.786,3.8,3.8,0,0,0,2.652,3.644l3.78,1.134a1.1,1.1,0,0,1,.736,1.069,1.055,1.055,0,0,1-.991,1.108h-2.361a2.375,2.375,0,0,1-1.076-.313.809.809,0,0,0-.387-.119.8.8,0,0,0-.464.18l-.987.942a.77.77,0,0,0-.211.489.759.759,0,0,0,.259.531,5.644,5.644,0,0,0,2.635.953v1.368a.672.672,0,0,0,.672.672h1.344a.672.672,0,0,0,.672-.672v-1.354A3.739,3.739,0,0,0,691.148,167.209ZM689.5,142.671a2.015,2.015,0,0,1,0-2.838l3.182-3.181a2.025,2.025,0,0,1,2.847,0l3.51,3.508-6.022,6.031-.344-.345Zm5.414,5.418,6.022-6.022,19.44,19.438a3.09,3.09,0,0,1,.787,1.9h0v3.566a1.345,1.345,0,0,1-1.344,1.344h-3.57a3.089,3.089,0,0,1-1.9-.787Z" transform="translate(0 0)" fill="#fff"/>
  </g>
</svg>
