<svg id="Componente_9_3" data-name="Componente 9 – 3" xmlns="http://www.w3.org/2000/svg" width="43" height="43" viewBox="0 0 43 43">
  <g id="Grupo_56" data-name="Grupo 56" transform="translate(-549.228 -136.063)">
    <path id="Trazado_104" data-name="Trazado 104" d="M592.229,157.563v13.918a7.582,7.582,0,0,1-7.582,7.582H569.385a4.031,4.031,0,1,1,0-8.063h2.688a4.031,4.031,0,0,1,4.031,4.031h8.543a3.551,3.551,0,0,0,3.551-3.551s0-13.714-.01-13.918h.01a17.469,17.469,0,1,0-34.938,0v1.343a1.344,1.344,0,0,1-1.344,1.344h-1.344a1.344,1.344,0,0,1-1.344-1.344v-1.343c.385-11.52,9.505-21.5,21.5-21.5S591.844,146.043,592.229,157.563Zm-26.875,5.375a2.687,2.687,0,0,1-2.688,2.688h-1.344a5.375,5.375,0,0,1-5.375-5.375v-4.032a5.375,5.375,0,0,1,5.375-5.375h1.344a2.688,2.688,0,0,1,2.688,2.688Zm13.438,2.688a2.688,2.688,0,0,1-2.688-2.688v-9.406a2.688,2.688,0,0,1,2.688-2.688h1.344a5.375,5.375,0,0,1,5.375,5.375v4.032a5.375,5.375,0,0,1-5.375,5.375Z" fill="#fff"/>
  </g>
</svg>
