<svg height="512" viewBox="0 0 64 64" width="512" xmlns="http://www.w3.org/2000/svg"><g id="Filled_outline" data-name="Filled outline"><path d="m23 3a4 4 0 0 1 4 4v17a3 3 0 0 1 -3 3v4l-6-4h-5a4.012 4.012 0 0 1 -4-4v-16a4 4 0 0 1 4-4z" fill="#96c3f0"/><path d="m35 15h6 12v20h-18z" fill="#ffd782"/><path d="m33 61h22v-22h-21-1z" fill="#e97424"/><path d="m55 39h6a0 0 0 0 1 0 0v22a0 0 0 0 1 0 0h-2a4 4 0 0 1 -4-4v-18a0 0 0 0 1 0 0z" fill="#e1462b" transform="matrix(-1 0 0 -1 116 100)"/><path d="m53 28a4 4 0 0 0 0-8z" fill="#f9bb4b"/><path d="m35 20a4 4 0 0 0 0 8z" fill="#f9bb4b"/><path d="m44 26a3 3 0 0 1 3 3v2a0 0 0 0 1 0 0h-6a0 0 0 0 1 0 0v-2a3 3 0 0 1 3-3z" fill="#e4544f" transform="matrix(-1 0 0 -1 88 57)"/><path d="m37 39v7l6-2z" fill="#e1462b"/><path d="m51 39v7l-6-2z" fill="#e1462b"/><path d="m37 39 6 5h2l6-5z" fill="#ffd782"/><path d="m33 39-6 6-5-5-4 4 9 9 6-6z" fill="#e97424"/><path d="m33 39-4 4v8l4-4z" fill="#e1462b"/><path d="m33 49h22v4h-22z" fill="#f4f4e6"/><path d="m55 47h6v4h-6z" fill="#f9bb4b"/><path d="m33 11h22v4h-22z" fill="#e97424"/><path d="m43 3h2a8 8 0 0 1 8 8 0 0 0 0 1 0 0h-18a0 0 0 0 1 0 0 8 8 0 0 1 8-8z" fill="#e1462b"/><circle cx="44" cy="9" fill="#f4f4e6" r="2"/><path d="m9.879 30.05h4.243v9.899h-4.243z" fill="#2d75bb" transform="matrix(.707 -.707 .707 .707 -21.234 18.737)"/><path d="m14 40 3-3-2-2h7v5l-4 4z" fill="#ffd782"/><path d="m18 7h4l-3 6h4l-6 10v-7h-4z" fill="#fcf05a"/><path d="m57 38h-24a1 1 0 0 0 -.707.293l-5.293 5.293-4-4v-4.586a1 1 0 0 0 -1-1h-6.586l-4.707-4.707a1 1 0 0 0 -1.414 0l-.793.793-4.793-4.793-1.414 1.414 4.793 4.793-.793.793a1 1 0 0 0 0 1.414l20 20a1 1 0 0 0 1.414 0l4.293-4.293v11.586a1 1 0 0 0 1 1h28a1 1 0 0 0 1-1v-18a5.006 5.006 0 0 0 -5-5zm-48.586-5 1.586-1.586 5.586 5.586-1.586 1.586zm7 7 2.293-2.293a1 1 0 0 0 0-1.414l-.293-.293h3.586v3.586l-3 3zm12.586 10.586-1 1-7.586-7.586 2.586-2.586 4.293 4.293a1 1 0 0 0 1.414 0l.293-.293zm4-4-2 2v-5.172l2-2zm6-5.451 2.981 2.484-2.981.994zm5 18.865h-9v-6h9zm0-8h-9v-2h9zm0-4h-9v-8h2v6a1 1 0 0 0 1 1 1.01 1.01 0 0 0 .316-.051l5.684-1.895zm.362-5-3.6-3h8.476l-3.6 3zm6.638-1.865v3.478l-2.981-.994zm4 18.865h-9v-6h9zm0-8h-9v-2h9zm0-4h-9v-2.946l5.684 1.895a1.01 1.01 0 0 0 .316.051 1 1 0 0 0 1-1v-6h2zm6 12h-4v-8h4zm0-10h-4v-2h4zm0-4h-4v-6h1a3 3 0 0 1 3 3z"/><path d="m48 18h2v2h-2z"/><path d="m38 18h2v2h-2z"/><path d="m43 19h2v4h-2z"/><path d="m34 28.9v6.1a1 1 0 0 0 1 1h18a1 1 0 0 0 1-1v-6.1a5 5 0 0 0 0-9.8v-3.1h1a1 1 0 0 0 1-1v-4a1 1 0 0 0 -1-1h-1.059a9.011 9.011 0 0 0 -8.941-8h-2a9.011 9.011 0 0 0 -8.941 8h-1.059a1 1 0 0 0 -1 1v4a1 1 0 0 0 1 1h1v3.1a5 5 0 0 0 0 9.8zm18 5.1h-16v-18h16zm4-10a3.006 3.006 0 0 1 -2 2.829v-5.658a3.006 3.006 0 0 1 2 2.829zm-11-20a6.966 6.966 0 0 1 4.732 1.854l-1.439 1.439 1.414 1.414 1.293-1.294a6.933 6.933 0 0 1 .929 2.587h-5.113a2.947 2.947 0 0 0 -1.816-3.816zm-1 4a1 1 0 1 1 -1 1 1 1 0 0 1 1-1zm-7-.587 1.294 1.294 1.414-1.414-1.44-1.439a6.966 6.966 0 0 1 4.732-1.854v2.184a2.947 2.947 0 0 0 -1.816 3.816h-5.113a6.933 6.933 0 0 1 .929-2.587zm-3 4.587h20v2h-20zm0 9.171v5.658a3 3 0 0 1 0-5.658z"/><path d="m13 28h4.7l5.748 3.832a1 1 0 0 0 1.552-.832v-3.126a4.009 4.009 0 0 0 3-3.874v-17a5.006 5.006 0 0 0 -5-5h-10a5.006 5.006 0 0 0 -5 5v16a5.006 5.006 0 0 0 5 5zm-3-21a3 3 0 0 1 3-3h10a3 3 0 0 1 3 3v17a2 2 0 0 1 -2 2 1 1 0 0 0 -1 1v2.131l-4.445-2.963a1.006 1.006 0 0 0 -.555-.168h-5a3 3 0 0 1 -3-3z"/><path d="m40 28a4 4 0 0 0 8 0v-2a1 1 0 0 0 -1-1h-6a1 1 0 0 0 -1 1zm2-1h4v1a2 2 0 0 1 -4 0z"/><path d="m13 17h3v6a1 1 0 0 0 .733.964 1.022 1.022 0 0 0 .267.036 1 1 0 0 0 .857-.485l6-10a1 1 0 0 0 -.857-1.515h-2.382l2.282-4.553a1 1 0 0 0 -.9-1.447h-4a1 1 0 0 0 -.874.514l-5 9a1 1 0 0 0 .874 1.486zm5.588-9h1.794l-2.277 4.553a1 1 0 0 0 .895 1.447h2.234l-3.234 5.39v-3.39a1 1 0 0 0 -1-1h-2.3z"/></g></svg>