<svg height="512" viewBox="0 0 512 512" width="512" xmlns="http://www.w3.org/2000/svg"><g><g><g><path d="m208 368h-80v-64-16h80v16z" fill="#f98800"/><path d="m128 320h80v32h-80z" fill="#ffec00"/><path d="m128 328h80v16h-80z" fill="#dff1fc"/></g><g><path d="m264 80h32v48h-32z" fill="#dff1fc"/><path d="m264 104h8a24 24 0 0 0 24-24v48h-32z" fill="#aedef8"/><circle cx="168" cy="200" fill="#fac8b2" r="104"/><path d="m208.07 296a104.012 104.012 0 1 1 -40.14-200 104.018 104.018 0 0 0 40.07 200z" fill="#f4b7a2"/><path d="m264.03 160h-32.03l-48 48-16-16a22.627 22.627 0 0 0 -32 32l16 16-44.56 44.56a104.012 104.012 0 1 1 156.59-124.56z" fill="#683b11"/><path d="m104 192a103.6 103.6 0 0 0 26.57 69.43l-23.13 23.13a104.007 104.007 0 0 1 60.49-188.56 104.021 104.021 0 0 0 -63.93 96z" fill="#381b05"/><circle cx="240" cy="224" fill="#2c3f51" r="8"/><path d="m213.656 290.343-21.656-21.657v-76.686a8 8 0 0 0 -16 0v60.686l-66.342-66.343a8 8 0 0 0 -11.314 11.314l104 104a8 8 0 1 0 11.314-11.314z" fill="#c1641f"/><path d="m256 264a7.974 7.974 0 0 1 -5.657-2.343 3.312 3.312 0 0 0 -4.686 0 8 8 0 0 1 -11.314 0 3.312 3.312 0 0 0 -4.686 0 8 8 0 0 1 -11.314-11.314 19.351 19.351 0 0 1 21.657-3.933 19.351 19.351 0 0 1 21.657 3.933 8 8 0 0 1 -5.657 13.657z" fill="#683b11"/><path d="m40 160a16 16 0 1 0 0 32h256a16 16 0 1 0 0-32h-8a119.4 119.4 0 0 0 -24-72v-40s-32-24-96-24c-72 0-128 56-128 136z" fill="#ff0"/><g><path d="m24 176a15.979 15.979 0 0 0 16 16h256a16 16 0 0 0 16-16z" fill="#fcc200"/><g><path d="m168 160h120a119.4 119.4 0 0 0 -24-72c-32 48-96 72-96 72z" fill="#ffce00"/><path d="m307.32 164.68a15.987 15.987 0 0 0 -11.32-4.68h-128s64-24 96-72v-40s-12.713-9.523-38.115-16.572a174.327 174.327 0 0 1 -68.948 83.839 174.33 174.33 0 0 1 -115.7 24.6 163.8 163.8 0 0 0 -1.237 20.133 16 16 0 0 0 -16 16h288a15.987 15.987 0 0 0 -4.68-11.32z" fill="#ffec00"/></g></g><g fill="#fcc200"><path d="m264.006 95.989a7.985 7.985 0 0 1 -6.4-3.2 112.528 112.528 0 0 0 -44.806-35.474 8 8 0 1 1 6.4-14.661 128.561 128.561 0 0 1 51.2 40.53 8 8 0 0 1 -6.39 12.805z"/><path d="m48 168a8 8 0 0 1 -8-8 127.776 127.776 0 0 1 32.6-85.335 8 8 0 1 1 11.917 10.669 111.809 111.809 0 0 0 -28.517 74.666 8 8 0 0 1 -8 8z"/><path d="m96 168h-56a8 8 0 0 1 0-16h56a8 8 0 0 1 0 16z"/></g><path d="m288 168h-48a8 8 0 0 1 0-16h48a8 8 0 0 1 0 16z" fill="#fff"/><path d="m120.006 72.418a8 8 0 0 1 -4.322-14.738c2.787-1.784 5.686-3.463 8.618-4.991a8 8 0 1 1 7.398 14.189c-2.511 1.309-4.995 2.747-7.383 4.277a7.963 7.963 0 0 1 -4.311 1.263z" fill="#fff"/><path d="m80 120a8.005 8.005 0 0 1 -7.378-11.086 111.666 111.666 0 0 1 22.557-34.385 8 8 0 1 1 11.544 11.078 95.717 95.717 0 0 0 -19.343 29.476 8 8 0 0 1 -7.38 4.917z" fill="#fff"/></g><path d="m168 416-8 24h-40l8-24z" fill="#00587e"/><path d="m208 368 8 72h-40l-8-24h-40v-48z" fill="#007bb1"/><path d="m176 440v48h48v-8l-16-16 8-24z" fill="#c1641f"/><path d="m120 440v48h48v-8l-16-16 8-24z" fill="#8e4b19"/><path d="m296 336h-32l-24-24 8-8h48z" fill="#fbe2bc"/><path d="m152 24v280h144v-200a80 80 0 0 0 -80-80z" fill="#2c3f51"/><path d="m208 112h40v160h-40z" fill="#35495e"/><path d="m248 112h80v160h-80z" fill="#dff1fc"/><path d="m184 304h-32v32l56 56 56-56-32-32-24 24z" fill="#e22526"/><path d="m296 304h48v32h-48z" fill="#f9ce95"/><path d="m264 336-32 32 24 23.999 56-55.999z" fill="#d20e0f"/><path d="m344 304 48-48 16 16-40 40 16 16-48 48-16-16 24-24z" fill="#aedef8"/><path d="m432 320a7.976 7.976 0 0 1 -5.657-2.343l-32-32a8 8 0 0 1 11.314-11.314l32 32a8 8 0 0 1 -5.657 13.657z" fill="#2c3f51"/><path d="m456 24h32v288h-32z" fill="#aedef8"/><path d="m456 344h32v144h-32z" fill="#aedef8"/><g fill="#ffec00"><path d="m432 368a8 8 0 0 1 -8-8v-16a8 8 0 0 1 16 0v16a8 8 0 0 1 -8 8z"/><path d="m391.993 384a8 8 0 0 1 -6.607-12.5l9.928-14.593a8 8 0 1 1 13.229 9l-9.929 14.593a7.992 7.992 0 0 1 -6.621 3.5z"/><path d="m432 280a8 8 0 0 1 -8-8v-16a8 8 0 0 1 16 0v16a8 8 0 0 1 -8 8z"/><path d="m432 416a8 8 0 0 1 -8-8v-16a8 8 0 0 1 16 0v16a8 8 0 0 1 -8 8z"/><path d="m397.44 423.372a8 8 0 0 1 -7.148-11.58l8-16a8 8 0 1 1 14.31 7.155l-8 16a8 8 0 0 1 -7.162 4.425z"/><path d="m432 232a8 8 0 0 1 -8-8v-16a8 8 0 0 1 16 0v16a8 8 0 0 1 -8 8z"/><path d="m408.006 240a8 8 0 0 1 -7.161-4.424l-8-16a8 8 0 0 1 14.31-7.156l8 16a8 8 0 0 1 -7.149 11.58z"/><path d="m376 248a7.976 7.976 0 0 1 -5.657-2.343l-16-16a8 8 0 0 1 11.314-11.314l16 16a8 8 0 0 1 -5.657 13.657z"/><path d="m408.006 192a8 8 0 0 1 -7.161-4.424l-8-16a8 8 0 0 1 14.31-7.156l8 16a8 8 0 0 1 -7.149 11.58z"/><path d="m376 208a7.976 7.976 0 0 1 -5.657-2.343l-16-16a8 8 0 0 1 11.314-11.314l16 16a8 8 0 0 1 -5.657 13.657z"/><path d="m351.125 417.992a8 8 0 0 1 -5.657-13.657l16-16a8 8 0 1 1 11.314 11.313l-16 16a7.977 7.977 0 0 1 -5.657 2.344z"/><path d="m391.994 472a8 8 0 0 1 -7.149-11.58l8-16a8 8 0 1 1 14.31 7.156l-8 16a8 8 0 0 1 -7.161 4.424z"/><path d="m359.993 456a8 8 0 0 1 -7.149-11.58l8-16a8 8 0 1 1 14.31 7.156l-8 16a8 8 0 0 1 -7.161 4.424z"/><path d="m432 464a8 8 0 0 1 -8-8v-16a8 8 0 0 1 16 0v16a8 8 0 0 1 -8 8z"/><path d="m432 176a8 8 0 0 1 -8-8v-16a8 8 0 0 1 16 0v16a8 8 0 0 1 -8 8z"/></g><path d="m296 496h-40a8 8 0 0 1 0-16h40v-84.687a15.9 15.9 0 0 1 4.687-11.313l21.656-21.657a8 8 0 0 1 11.314 11.314l-21.657 21.656v84.687a16.019 16.019 0 0 1 -16 16z" fill="#f98800"/><path d="m88 496h-16a8 8 0 0 1 0-16h16a8 8 0 0 1 0 16z" fill="#f98800"/><path d="m24 376h48v112h-48z" fill="#319201"/><path d="m24 376v-16a16 16 0 0 1 16-16h16a16 16 0 0 1 16 16v16z" fill="#83c70c"/><path d="m152 112h-24a24 24 0 0 0 -24 24 24 24 0 0 0 24 24h24z" fill="#35495e"/><circle cx="128" cy="136" fill="#aedef8" r="8"/><path d="m456 24 32 288h-32z" fill="#dff1fc"/><path d="m488 344-32 144v-144z" fill="#dff1fc"/><g fill="#aedef8"><path d="m328 112-80 80v56l80-80z"/><path d="m280 272 48-48v48z"/><path d="m248 160 48-48h-48z"/></g><path d="m262.019 92.892a8 8 0 0 1 -7.843-6.464 32.951 32.951 0 0 0 -9.229-16.75 8 8 0 1 1 11.272-11.356 48.422 48.422 0 0 1 13.659 25.032 8 8 0 0 1 -6.314 9.388 8.085 8.085 0 0 1 -1.545.15z" fill="#fff"/><path d="m232 61.078a8 8 0 0 1 -2.15-.3 30.123 30.123 0 0 0 -6.732-1.085 8 8 0 1 1 .7-15.984 46.084 46.084 0 0 1 10.32 1.656 8 8 0 0 1 -2.138 15.713z" fill="#fff"/></g><path d="m411.313 280 2.344-2.343a8 8 0 0 0 0-11.314l-16-16a8 8 0 0 0 -11.314 0l-45.656 45.657h-36.687v-16h24a8 8 0 0 0 8-8v-160a8 8 0 0 0 -8-8h-24a88.1 88.1 0 0 0 -88-88c-.888.494-70.788-1.382-68.639 1.49-66.068 9.646-112.501 64.556-115.234 135.836-16.282 5.264-21.73 27.516-9.094 39.66 8.945 9.383 21.467 6.638 32.967 7.014-.225 42.811 25.5 83.442 64.44 101.4-1.241 28.218-.031 85.315-.44 113.3-.011.043-7.595 22.77-7.6 22.811a8.286 8.286 0 0 0 -.4 2.489v48a8 8 0 0 0 8 8c1.231-.242 52.925.9 52-1.079.58 2.353 49.624.533 52 1.08a8 8 0 0 0 8-8v-8a8 8 0 0 0 -2.343-5.657l-12.5-12.5 6.436-19.309a7.015 7.015 0 0 0 .269-1.068 8.492 8.492 0 0 0 .093-2.345l-5.175-46.579 13.22-13.23 18.343 18.343a8 8 0 0 0 11.314 0l53.656-53.656h9.374l-10.344 10.343a8 8 0 0 0 0 11.314l2.344 2.343-16 16a15.9 15.9 0 0 0 -4.687 11.313v84.687h-40a8 8 0 0 0 0 16h40a16.019 16.019 0 0 0 16-16v-84.687l16-16 2.343 2.344a8 8 0 0 0 11.314 0l48-48a8 8 0 0 0 0-11.314l-10.344-10.343 20.687-20.687 26.343 26.344a8 8 0 0 0 11.314-11.314zm-99.313 48h-8v-16h32v16zm-44.687 0-16-16h36.687v16zm-91.724 85.47a8.086 8.086 0 0 0 -7.589-5.47h-32v-32h44.687l21.656 21.657a7.975 7.975 0 0 0 1 .834l3.719 33.509h-25.3zm-31.589-261.47h-16a16 16 0 0 1 0-32h16zm-6.63 56a14.516 14.516 0 0 1 2.385-8h4.245v20.687c-3.705-3.257-6.8-7.55-6.63-12.687zm6.63 84.958a96.221 96.221 0 0 1 -23.89-9.754l23.89-23.891zm2.343 48.7 18.344 18.342h-28.687v-48h8v24a8 8 0 0 0 2.343 5.657zm-12.577 82.342h23.134l-2.666 8h-23.134zm74.234-43.314-48-48v-20.686h20.686l21.657 21.657a8 8 0 0 0 11.314 0l18.343-18.343 20.686 20.686zm4.686-68.686-4.686 4.686-4.686-4.686zm107.314-192v144h-64v-144zm-32-16c-19.95 0-60.058 0-80 0-10.541.263-10.558 15.733 0 16h32v144h-32c-10.542.264-10.557 15.732 0 16h80v16h-128v-263.746c4.171-.467 50.614-.184 56-.254a72.081 72.081 0 0 1 72 72zm-248 80c-10.543-.247-10.557-15.726 0-16h56c10.531-.257 10.565-15.732 0-16h-39.713a111.763 111.763 0 0 1 28.23-66.665c4.625-4.827.784-13.426-5.8-13.328a115.27 115.27 0 0 1 65.283-37.707v69.7h-16a32 32 0 0 0 0 64h16v16zm32 16h28.687l40 40-33.923 33.923a96.312 96.312 0 0 1 -34.764-73.923zm56 280v-32h20.9c-7.114 21.3-7.757 16.192 7.787 32zm33.153-18.161 6.436-19.309.411-1.23v27.389zm22.847 18.161v-32h20.9c-7.114 21.3-7.757 16.192 7.787 32zm72-99.314-12.686-12.686 24-24h25.373zm106.343-63.029 10.344 10.343-36.687 36.687-4.687-4.687 18.34-18.339a8.1 8.1 0 0 0 2-3.33 8.827 8.827 0 0 0 .307-1.532c.026-.264.04-.531.04-.8v-28.686l40-40 4.687 4.687-34.344 34.343a8 8 0 0 0 0 11.314zm125.657-301.657h-32a8 8 0 0 0 -8 8v288a8 8 0 0 0 8 8h32a8 8 0 0 0 8-8v-288a8 8 0 0 0 -8-8zm-8 288h-16v-272h16zm8 32h-32a8 8 0 0 0 -8 8v144a8 8 0 0 0 8 8h32a8 8 0 0 0 8-8v-144a8 8 0 0 0 -8-8zm-8 144h-16v-128h16zm-40-136v16a8 8 0 0 1 -16 0v-16c.266-10.547 15.733-10.553 16 0zm-54.614 27.5 9.928-14.593a8 8 0 1 1 13.229 9l-9.929 14.593a7.992 7.992 0 0 1 -6.621 3.5c-6.193.174-10.299-7.418-6.607-12.5zm38.614-99.5v-16a8 8 0 0 1 16 0v16c-.266 10.547-15.733 10.553-16 0zm16 120v16a8 8 0 0 1 -16 0v-16c.266-10.547 15.733-10.553 16 0zm-27.4 10.947-8 16a8 8 0 0 1 -7.162 4.425c-5.766.124-9.886-6.439-7.148-11.58l8-16c4.955-9.312 18.793-2.405 14.31 7.155zm11.4-178.947v-16a8 8 0 0 1 16 0v16c-.266 10.547-15.733 10.553-16 0zm-31.155-4.422c-4.48-9.551 9.353-16.475 14.31-7.155l8 16a8 8 0 1 1 -14.31 7.156zm-38.5 10.079c-7.269-7.642 3.661-18.588 11.314-11.314l16 16c5.1 4.752 1.189 13.9-5.657 13.657a7.976 7.976 0 0 1 -5.657-2.343zm38.5-58.079c-4.48-9.551 9.353-16.476 14.31-7.155l8 16a8 8 0 1 1 -14.31 7.156zm-38.5 18.079c-7.269-7.642 3.661-18.588 11.314-11.314l16 16c5.1 4.752 1.189 13.9-5.657 13.657a7.976 7.976 0 0 1 -5.657-2.343zm2.439 225.991c-7.644 7.27-18.588-3.662-11.314-11.313l16-16c7.643-7.268 18.589 3.66 11.314 11.314zm50.373 35.93-8 16a8 8 0 0 1 -7.163 4.422c-5.766.124-9.886-6.438-7.149-11.58l8-16c4.955-9.31 18.792-2.402 14.31 7.158zm-32-16-8 16a8 8 0 0 1 -14.31-7.156l8-16c4.953-9.311 18.79-2.404 14.308 7.156zm64.843 4.422v16a8 8 0 0 1 -16 0v-16c.266-10.547 15.733-10.553 16 0zm-16-272v-16a8 8 0 0 1 16 0v16c-.266 10.547-15.733 10.553-16 0zm-336 312h-8v-120a24.027 24.027 0 0 0 -24-24h-16a24.027 24.027 0 0 0 -24 24v128a8 8 0 0 0 8 8h64c10.547-.286 10.561-15.718 0-16zm-56-120a8.009 8.009 0 0 1 8-8h16a8.009 8.009 0 0 1 8 8v8h-32zm0 24h32v96h-32zm96-256c10.551.268 10.549 15.734 0 16-10.551-.268-10.549-15.734 0-16z"/></g></svg>