<svg xmlns="http://www.w3.org/2000/svg" viewBox="0 0 214.98 120.11"><defs><style>.cls-1{fill:#c6ed88;}</style></defs><g id="Capa_2" data-name="Capa 2"><g id="Capa_1-2" data-name="Capa 1"><path class="cls-1" d="M52.09,74.76l2,10.7h.64l2.14-10.7,19-72.62h32.62L69.2,117.87H39.36L0,2.14H32.62Z"/><path class="cls-1" d="M184.71,85.78q0-5.13-5-8.82t-18.45-6.48Q141,66.41,130.43,58.18T119.9,35.83q0-14.86,12.62-25.35T166.1,0Q188,0,201.24,10.48t12.67,26.1l-.21.64H183.54A15.16,15.16,0,0,0,179,25.88q-4.48-4.38-12.94-4.38-7.48,0-11.87,3.74a11.65,11.65,0,0,0-4.38,9.2,10.39,10.39,0,0,0,4.54,8.72q4.55,3.36,18.45,6,21.28,4.27,31.71,12.57T215,84.6q0,15.62-13.37,25.56t-35.29,10q-23.1,0-36.53-11.71T117,81.71l.21-.64h28.56q.33,9.32,6.1,13.48T167,98.72q8.65,0,13.21-3.48A11.26,11.26,0,0,0,184.71,85.78Z"/></g></g></svg>