<svg width="102" height="65" viewBox="0 0 102 65" fill="none" xmlns="http://www.w3.org/2000/svg">
<path d="M28.7762 23.9194C28.7762 25.2225 28.9185 26.3023 29.1319 27.0842C29.4165 27.866 29.7367 28.7224 30.1992 29.6532C30.377 29.9511 30.4482 30.2117 30.4482 30.4723C30.4482 30.8446 30.2348 31.1797 29.8079 31.5521L27.6734 33.0414C27.3532 33.2648 27.0686 33.3765 26.784 33.3765C26.4283 33.3765 26.1081 33.1903 25.7524 32.8924C25.2899 32.3712 24.863 31.7755 24.5429 31.217C24.2583 30.5468 23.9025 29.8766 23.5468 29.0575C20.9143 32.3339 17.5703 33.9349 13.586 33.9349C10.74 33.9349 8.46325 33.0786 6.79125 31.3659C5.11926 29.6532 4.26548 27.382 4.26548 24.5523C4.26548 21.5365 5.29713 19.0792 7.36044 17.2548C9.42376 15.4304 12.163 14.5368 15.6848 14.5368C16.8232 14.5368 18.0328 14.6485 19.2779 14.8346C20.523 15.0208 21.8036 15.2814 23.191 15.6165V13.0103C23.191 10.3295 22.6574 8.43065 21.5902 7.35091C20.523 6.23393 18.6731 5.71267 16.0762 5.71267C14.9022 5.71267 13.6571 5.8616 12.412 6.15946C11.1669 6.45732 9.9218 6.86688 8.74784 7.35091C8.21423 7.61153 7.78734 7.72323 7.57389 7.7977C7.36045 7.87216 7.18257 7.90939 7.04028 7.90939C6.57781 7.90939 6.32879 7.53707 6.32879 6.79242V5.04249C6.32879 4.484 6.39994 4.03721 6.57781 3.81381C6.75568 3.59042 7.04028 3.32979 7.53832 3.06916C8.71227 2.43621 10.1352 1.91495 11.8072 1.46816C13.4792 1.02137 15.2224 0.797977 17.1078 0.797977C21.1277 0.797977 24.0804 1.76602 26.0014 3.66488C27.8513 5.56374 28.8118 8.50512 28.8118 12.3773V23.8822L28.7762 23.9194ZM15.0089 29.3181C16.1117 29.3181 17.2857 29.0947 18.4952 28.6852C19.7047 28.2756 20.8076 27.4937 21.7325 26.414C22.2661 25.7438 22.693 24.9991 22.8709 24.1428C23.0843 23.2864 23.2266 22.2812 23.2266 21.0525V19.5632C22.2305 19.3026 21.1989 19.1164 20.0961 18.9675C19.0288 18.8185 17.9616 18.7441 16.8944 18.7441C14.6176 18.7441 12.9456 19.1909 11.8428 20.1589C10.74 21.1269 10.1708 22.4673 10.1708 24.2545C10.1708 25.9299 10.5621 27.1586 11.4159 28.015C12.2697 28.9085 13.4792 29.3181 15.0089 29.3181ZM42.2589 33.1531C41.6541 33.1531 41.2272 33.0414 40.9782 32.7807C40.6936 32.5573 40.4802 32.0733 40.2667 31.4031L32.2625 3.99998C32.049 3.29256 31.9423 2.84577 31.9423 2.58514C31.9423 2.02665 32.2269 1.69156 32.7605 1.69156H36.0689C36.7093 1.69156 37.1362 1.80326 37.3852 2.06388C37.6698 2.28728 37.8477 2.7713 38.0611 3.44149L43.753 26.9352L49.0536 3.44149C49.2315 2.73407 49.4093 2.28728 49.6939 2.06388C49.9785 1.84049 50.441 1.69156 51.0457 1.69156H53.7494C54.3897 1.69156 54.8166 1.80326 55.1012 2.06388C55.3858 2.28728 55.5993 2.7713 55.7416 3.44149L61.1489 27.1959L67.0186 3.44149C67.2321 2.73407 67.4455 2.28728 67.6945 2.06388C67.9791 1.84049 68.406 1.69156 69.0108 1.69156H72.1769C72.7105 1.69156 73.0307 1.98942 73.0307 2.58514C73.0307 2.7713 72.9951 2.95746 72.9595 3.14363C72.924 3.32979 72.8528 3.62765 72.7105 4.03721L64.5284 31.4404C64.315 32.1478 64.1015 32.5946 63.8169 32.818C63.5323 33.0414 63.1055 33.1903 62.5363 33.1903H59.6192C58.9788 33.1903 58.5519 33.0786 58.2673 32.818C57.9827 32.5573 57.7693 32.1105 57.627 31.4031L52.362 8.54235L47.1326 31.4031C46.9547 32.1105 46.7768 32.5573 46.4922 32.818C46.2076 33.0786 45.7452 33.1903 45.1404 33.1903H42.2589V33.1531ZM85.8019 34.1211C84.0232 34.1211 82.28 33.8977 80.5725 33.4882C78.8649 33.0786 77.5486 32.5946 76.6593 32.0733C76.1257 31.7382 75.7343 31.4031 75.5921 31.068C75.4498 30.7329 75.3786 30.3979 75.3786 30.0628V28.2384C75.3786 27.4937 75.6632 27.1214 76.1612 27.1214C76.3747 27.1214 76.5526 27.1586 76.766 27.2331C76.9795 27.3075 77.264 27.4565 77.6198 27.6054C78.7582 28.1267 80.0388 28.5735 81.3551 28.8341C82.7069 29.1319 84.0232 29.2436 85.375 29.2436C87.5095 29.2436 89.1815 28.8713 90.3198 28.0894C91.4582 27.3076 92.0986 26.1906 92.0986 24.7013C92.0986 23.696 91.7784 22.8769 91.1736 22.2067C90.5689 21.5365 89.3949 20.9408 87.7585 20.3451L82.8492 18.7441C80.359 17.9249 78.5447 16.7335 77.4419 15.1325C76.3391 13.5687 75.7343 11.8188 75.7343 9.99442C75.7343 8.50511 76.0545 7.20197 76.6593 6.04777C77.264 4.89356 78.0823 3.92551 79.1139 3.14363C80.1456 2.32451 81.284 1.72879 82.6358 1.282C83.9876 0.872442 85.4106 0.686279 86.9047 0.686279C87.6518 0.686279 88.4344 0.723512 89.1815 0.835209C89.9641 0.946907 90.6756 1.09584 91.3871 1.20754C92.063 1.3937 92.7033 1.57986 93.3081 1.76602C93.9128 1.95219 94.3753 2.17558 94.7311 2.39898C95.1935 2.69684 95.5493 2.95746 95.7627 3.29256C95.9762 3.59042 96.0829 3.96274 96.0829 4.44677V6.12223C96.0829 6.86688 95.7983 7.23921 95.3003 7.23921C95.0157 7.23921 94.5888 7.09028 94.0196 6.82965C92.0986 5.89884 89.9285 5.45205 87.5095 5.45205C85.5884 5.45205 84.0588 5.78714 82.9915 6.45732C81.9243 7.12751 81.3907 8.17002 81.3907 9.62209C81.3907 10.6274 81.7464 11.4837 82.4223 12.1539C83.0982 12.8241 84.3433 13.4943 86.1576 14.09L90.9602 15.691C93.4148 16.5101 95.1579 17.6271 96.2252 19.0792C97.2924 20.5312 97.7905 22.2067 97.7905 24.0311C97.7905 25.5576 97.4703 26.9352 96.9011 28.1639C96.2963 29.3553 95.4781 30.4351 94.4109 31.2914C93.3437 32.185 92.0986 32.818 90.64 33.2648C89.1103 33.8605 87.5095 34.1211 85.8019 34.1211Z" fill="#A9A9A9"/>
<path d="M92.2052 51.3598C81.0704 59.9978 64.8485 64.5401 50.9389 64.5401C31.4086 64.5401 13.8349 56.9819 0.530057 44.4346C-0.537173 43.4293 0.423334 42.0889 1.66844 42.8708C16.0405 51.5832 33.7565 56.8702 52.1129 56.8702C64.4927 56.8702 78.0821 54.1895 90.5687 48.6418C92.4542 47.7483 94.0194 49.9078 92.2052 51.3598Z" fill="#A9A9A9"/>
<path d="M96.8298 45.812C95.4068 43.9132 87.4026 44.8812 83.774 45.3652C82.7068 45.5142 82.5289 44.5089 83.4894 43.7642C89.8572 39.0729 100.352 40.4133 101.561 41.9771C102.771 43.5781 101.205 54.5244 95.2645 59.7742C94.3396 60.5933 93.4858 60.1466 93.8771 59.104C95.2645 55.6042 98.2528 47.6736 96.8298 45.812Z" fill="#A9A9A9"/>
</svg>
