<svg width="1116" height="837" viewBox="0 0 1116 837" fill="none" xmlns="http://www.w3.org/2000/svg">
<path d="M929.855 585.377C958.082 623.053 962.91 664.238 943.903 708.3C939.99 717.586 935.838 726.381 931.533 735.361C928.449 741.911 925.027 748.505 921.561 754.76L921.419 754.957C880.953 808.882 765.648 790.78 663.649 714.251C566.926 641.678 517.403 542.829 547.123 486.931C553.423 478.529 560.169 470.769 568.037 463.543C568.332 463.151 568.964 462.715 569.258 462.323C618.029 417.672 674.799 410.806 734.304 434.074C813.743 464.96 878.915 516.913 929.855 585.377Z" fill="#84428C"/>
<path d="M810.266 518.853C901.126 587.033 950.409 678.068 931.533 735.361C929.233 742.5 925.964 748.897 921.561 754.76L921.419 754.956C880.953 808.882 765.648 790.78 663.649 714.251C566.926 641.678 517.403 542.829 547.123 486.931C548.584 483.76 550.447 480.883 552.496 478.136C557.194 471.881 562.904 466.704 569.258 462.312C619.304 429.006 719.994 451.108 810.266 518.853Z" fill="#C473CB"/>
<path d="M182.56 746.783L148.676 677.327C141.364 662.331 147.587 644.261 162.583 636.948L232.039 603.065C247.035 595.752 265.105 601.975 272.417 616.971L306.301 686.427C313.613 701.424 307.39 719.493 292.394 726.806L222.938 760.689C207.942 768.002 189.873 761.779 182.56 746.783Z" fill="#B3D172"/>
<path d="M197.24 739.623L163.357 670.167C156.044 655.171 162.267 637.101 177.263 629.788L232.039 603.065C247.035 595.752 265.105 601.975 272.417 616.971L306.301 686.427C313.613 701.424 307.39 719.493 292.394 726.806L237.619 753.529C222.622 760.842 204.553 754.619 197.24 739.623Z" fill="#7EAB33"/>
<path d="M854.438 169.765C851.179 169.765 847.909 169.166 844.782 167.956C838.079 165.384 832.771 160.338 829.851 153.766L802.659 92.6149C796.632 79.0573 802.757 63.1238 816.315 57.0969L877.466 29.9053C891.024 23.8785 906.957 30.0034 912.984 43.5611L940.176 104.712C946.202 118.27 940.077 134.203 926.52 140.23L865.369 167.422C861.87 168.98 858.154 169.765 854.438 169.765ZM888.353 29.1097C884.91 29.1097 881.411 29.8181 878.076 31.3003L816.925 58.4919C804.13 64.1809 798.354 79.2098 804.043 92.0046L831.235 153.156C833.992 159.357 838.994 164.109 845.326 166.539C851.658 168.969 858.557 168.795 864.747 166.038L925.899 138.846C938.693 133.157 944.47 118.128 938.781 105.333L911.589 44.1823C907.382 34.7333 898.086 29.1097 888.353 29.1097Z" fill="black"/>
<path d="M848.727 156.818C838.417 156.818 828.554 150.856 824.107 140.84L802.659 92.6149C796.632 79.0573 802.757 63.1237 816.315 57.0969L877.466 29.9053C891.024 23.8785 906.957 30.0034 912.984 43.5611L934.432 91.7866C937.353 98.3584 937.549 105.671 934.966 112.374C932.383 119.076 927.348 124.384 920.776 127.305L920.471 126.607L920.776 127.305L859.625 154.496C856.083 156.077 852.378 156.818 848.727 156.818ZM888.353 29.1097C884.91 29.1097 881.411 29.8181 878.076 31.3003L816.925 58.4919C804.13 64.1809 798.354 79.2098 804.043 92.0046L825.491 140.23C831.18 153.014 846.22 158.801 859.004 153.112L920.155 125.921C926.356 123.163 931.108 118.161 933.538 111.829C935.969 105.497 935.794 98.5982 933.037 92.4078L911.589 44.1823C907.382 34.7333 898.086 29.1097 888.353 29.1097Z" fill="black"/>
<path d="M608.057 331.618C655.323 311.99 705.129 307.434 755.665 315.935C783.554 320.545 802.746 336.38 812.827 363.365C814.985 369.021 816.849 374.547 818.723 380.225C820.096 384.344 821.361 388.627 822.451 392.78L822.461 392.921C822.647 394.491 822.745 396.06 822.734 397.64C822.832 436.188 766.879 473.526 693.86 482.387C632.785 489.787 578.554 474.943 557.161 447.98C553.292 443.13 550.491 437.877 548.911 432.297C548.148 426.031 547.854 419.884 548.257 413.465C548.224 413.192 548.3 412.724 548.279 412.441C550.862 372.825 572.615 346.254 608.057 331.618Z" fill="#94D2DD"/>
<path d="M686.046 363.387C747.121 355.987 801.253 370.71 822.734 397.651C822.832 436.199 766.879 473.537 693.86 482.398C632.785 489.798 578.555 474.954 557.161 447.991C557.172 444.972 557.531 441.997 558.131 439.033C565.967 403.82 618.792 371.55 686.046 363.387Z" fill="#56ADBF"/>
<path d="M430.695 680.705C423.666 680.705 416.647 678.601 409.694 674.394C406.882 672.716 404.179 670.961 401.662 669.305C399.733 668.041 397.76 666.646 395.929 665.272L395.777 665.131C395.09 664.444 394.523 663.801 394.011 663.136C380.9 646.647 392.224 611.936 419.797 584.112C442.487 561.225 470.278 548.79 488.948 553.182C492.337 553.967 495.356 555.318 497.917 557.171L498.048 557.28C500.631 559.841 502.778 562.358 504.609 564.996C504.685 565.083 504.75 565.181 504.827 565.29L504.968 565.486C516.771 582.586 517.371 600.885 506.745 619.88C493.786 643.16 474.736 661.818 450.127 675.353C443.675 678.906 437.18 680.705 430.695 680.705ZM397.335 663.583C399.101 664.913 401.019 666.253 402.872 667.474C405.367 669.12 408.048 670.863 410.828 672.52C423.47 680.182 436.352 680.476 449.092 673.424C473.341 660.096 492.097 641.721 504.859 618.801C515.038 600.612 514.483 583.098 503.214 566.751C503.159 566.674 503.094 566.587 503.028 566.5L502.854 566.271C501.11 563.754 499.05 561.334 496.576 558.871C494.255 557.214 491.53 556.005 488.457 555.285C470.496 551.057 443.523 563.252 421.355 585.627C394.545 612.677 383.298 646.124 395.733 661.774C396.191 662.363 396.714 662.951 397.313 663.55L397.335 663.583Z" fill="black"/>
<path d="M402.49 664.38C399.733 664.38 397.095 664.096 394.622 663.519L394.251 663.431L394.011 663.137C380.9 646.637 392.224 611.925 419.797 584.102C442.487 561.215 470.268 548.78 488.948 553.172L489.318 553.259L489.558 553.564C490.55 554.818 491.411 556.202 492.217 557.782C500.881 575.699 488.893 607.13 463.729 632.534C444.057 652.38 420.549 664.38 402.49 664.38ZM395.493 661.492C413.432 665.404 440.166 653.209 462.17 631.009C486.713 606.236 498.527 575.852 490.255 558.763C489.591 557.455 488.871 556.289 488.076 555.221C470.115 551.254 443.37 563.438 421.344 585.649C394.72 612.525 383.429 645.722 395.493 661.492Z" fill="black"/>
<path d="M204.177 571.05L203.091 571.89L250.71 633.475L251.796 632.635L204.177 571.05Z" fill="black"/>
<path d="M954.58 552.85L897.418 653.914L899.315 654.987L956.477 553.923L954.58 552.85Z" fill="black"/>
<path d="M737.081 407.146L735.136 408.131L788.783 514.118L790.728 513.134L737.081 407.146Z" fill="black"/>
<path d="M843.666 260.689L842.057 262.16L898.473 323.851L900.082 322.38L843.666 260.689Z" fill="black"/>
<path d="M973.3 155.302L918.47 215.336L920.079 216.806L974.91 156.772L973.3 155.302Z" fill="black"/>
</svg>
