<svg xmlns="http://www.w3.org/2000/svg" viewBox="0 0 316.92 759.44"><defs><style>.cls-1{isolation:isolate;}.cls-2,.cls-3,.cls-4{fill:none;stroke:#000;stroke-miterlimit:10;}.cls-2,.cls-3{stroke-width:1.4px;}.cls-3{mix-blend-mode:multiply;}.cls-4{stroke-width:2px;}</style></defs><g class="cls-1"><g id="Capa_2" data-name="Capa 2"><g id="Capa_1-2" data-name="Capa 1"><rect class="cls-2" x="169.94" y="12.77" width="134.22" height="134.22" rx="29.44" transform="translate(-12 103.22) rotate(-23.98)"/><rect class="cls-3" x="166.7" y="13.45" width="134.22" height="118.3" rx="29.44" transform="translate(-9.33 101.28) rotate(-23.98)"/><path class="cls-4" d="M131.82,690.58c-14.86,26.67-36.48,47.24-63.26,62-14.76,8.17-29.6,7.86-44.3-1-3.11-1.85-6-3.74-9-5.71-2.16-1.42-4.34-2.95-6.39-4.49l-.06-.06a25,25,0,0,1-1.87-2.11C-7.38,721.14,5,683,35.87,651.79c25.83-26.07,56.7-39.2,76.69-34.5a26.67,26.67,0,0,1,9.67,4.29,61.25,61.25,0,0,1,7.28,8.57c.11.12.25.36.36.49C143.33,650.13,143,670.61,131.82,690.58Z"/><path class="cls-4" d="M83.57,704.58C57.73,730.65,27,743.79,6.93,739.14c-14.31-18-2-56.19,28.93-87.36,25.84-26.06,56.71-39.19,76.7-34.49a27.18,27.18,0,0,1,2.86,4.55C124.79,641.22,112,675.87,83.57,704.58Z"/><line class="cls-4" x1="279.94" y1="534.81" x2="219.54" y2="415.48"/><line class="cls-4" x1="110.19" y1="261.61" x2="35.71" y2="329.71"/></g></g></g></svg>