<svg xmlns="http://www.w3.org/2000/svg" viewBox="0 0 1344.16 908.2"><defs><style>.cls-1{fill:#3489ce;}.cls-2{fill:#59b7f7;}.cls-3{fill:none;stroke:#000;stroke-miterlimit:10;stroke-width:1.25px;}</style></defs><g id="Capa_2" data-name="Capa 2"><g id="Capa_1-2" data-name="Capa 1"><g id="Figuras"><path class="cls-1" d="M1214.82,122.47c-7.62-16.82-14.79-31.18-21.58-42.36-4.38-6.85,4.43-16.35,19.49-25a438.17,438.17,0,0,0,69.69-47.07c15-12.67,30.82-10.79,35.77,8.21,7.58,28.56,16.44,60.27,24.53,95.52,5.33,23.35-4.66,45.42-20.53,45a333.3,333.3,0,0,1-71.33-7.18C1235.88,146.13,1219.81,132.92,1214.82,122.47Z"/><path class="cls-2" d="M1229.67,123.87c-7.43-18.74-14.59-35-21.46-48.24-4.44-8.15,4.25-19.38,19.29-28.85a453.23,453.23,0,0,0,54.92-38.71c15-12.67,30.82-10.79,35.77,8.21,7.58,28.56,16.44,60.27,24.53,95.52,5.33,23.35-4.66,45.42-20.53,45a321.37,321.37,0,0,1-56.54-4.45C1250.54,149.39,1234.54,135.52,1229.67,123.87Z"/><path class="cls-2" d="M1159,125.6c24,9.77,48.18,26.09,73.69,49.08,16.53,14.6,20.8,50.75,7.92,72.14-19.72,32.94-40.49,58.18-60.67,75.91-13.16,11.58-35.43.28-51-16.84-24.1-26.6-48.73-46.84-73.16-61-15.91-9.4-18.22-18.75-5.39-28.28,19.75-14.75,39.12-35.84,58.21-63.69C1121,135.11,1143.5,119.32,1159,125.6Z"/><path class="cls-1" d="M1147,146.4c24,10.41,48.38,27.36,73.86,51,16.54,15,20.33,50,7.18,69.25-15.84,23.43-32.12,42.06-48,56.06-13.16,11.58-35.43.28-51-16.84-24.1-26.6-48.73-46.84-73.16-61-15.91-9.4-18.22-18.75-5.39-28.28,15.57-11.64,30.92-27.2,46.06-46.93C1108.9,153.68,1131.4,139.7,1147,146.4Z"/><path class="cls-1" d="M147.09,718.71c15.76,26.35,32.62,58.58,50.15,97.18,11.52,25.28,5.55,59.55-12.89,68.3-28.21,14.32-55.8,21.78-82.51,24-17.25,1.07-39.06-15.21-49.51-30.61-16-24.49-32.06-44.09-47.54-58-10-8.79-3.71-18.82,13.59-29.33,26.76-15.6,53.16-37,79.52-64.53C115,707.65,136.88,701.25,147.09,718.71Z"/><path class="cls-2" d="M130.42,736.71c15.78,24.93,32.46,55.71,49.49,92.71,11.18,24.25,4.88,56-13.36,62.94a215.11,215.11,0,0,1-64.71,15.79c-17.25,1.07-39.06-15.21-49.51-30.61-16-24.49-32.06-44.09-47.54-58-10-8.79-3.71-18.82,13.59-29.33,21.11-12.3,42-28.2,62.8-47.89C98.28,725.94,120.18,720.17,130.42,736.71Z"/><path class="cls-3" d="M178.46,464.76a353.15,353.15,0,0,0,58.59-40.16c12.65-10.86,26.18-9.85,30.64,5.79,6.86,23.54,14.75,49.89,22.13,79.35,4.87,19.5-3.14,38.67-16.51,39A254.42,254.42,0,0,1,213.22,545c-12.61-2.55-26.35-13.74-30.87-22.79-6.89-14.54-13.46-26.89-19.7-36.42C158.63,479.94,165.79,472,178.46,464.76Z"/><path d="M182.47,471.71a313.13,313.13,0,0,0,58.74-35.17c12.64-9.79,26.28-7.28,31,9.16,5.67,19.52,11.85,40.8,17.65,64,4.87,19.5-3.14,38.67-16.51,39A254.42,254.42,0,0,1,213.22,545c-12.61-2.55-26.35-13.74-30.87-22.79-5.43-11.46-10.68-21.57-15.7-30C162.54,485.6,169.75,477.89,182.47,471.71Z"/><path class="cls-1" d="M447.73,823.86c-30.74-31-62.2-54.49-93.56-71.31-20.41-11.26-26.6-22.71-13.73-33.61,19.77-17.13,39.26-41.16,58.3-72.63,12.33-19.91,38.33-40.58,58.21-37.4,30.72,5.26,61.5,17.77,93.61,37.47,20.72,12.26,29.11,53.13,16.75,82.09-19,44.29-39.73,80.26-60.36,107.5C493.44,854,467.54,844,447.73,823.86Z"/><path class="cls-2" d="M460.08,810.77c-31-30.06-62.47-52.51-93.68-68.16-20.3-10.52-26.25-22.68-13.47-35.46,15.51-15.82,30.78-36,45.81-60.84,12.33-19.91,38.33-40.58,58.21-37.4,30.72,5.26,61.5,17.77,93.61,37.47,20.72,12.26,29.11,53.13,16.75,82.09-15,34.92-31,64.69-47.29,89.06C506.52,837.91,480.07,830.34,460.08,810.77Z"/><path class="cls-1" d="M187.83,632.34c-19-13.43-35.12-27.18-48.6-36.82-7.46-5.41-9.56-9.27-5.76-15.37.78-1.29,1.63-2.56,2.52-3.91.64-1,1.36-2,2.1-3l0,0c.34-.37.72-.73,1.13-1.1,10-8,35.34-20.49,60.35-11.63,21.16,7.47,34.24,34.94,33,55.28a34.21,34.21,0,0,1-1.75,9.75,40.63,40.63,0,0,1-4.71,7.31c-.06.12-.2.24-.27.36C215,646.25,202.14,642.37,187.83,632.34Z"/><path class="cls-2" d="M172.19,600.57c-20.39-13.8-33.57-21.15-32.93-28.49,10-8,35.34-20.49,60.35-11.63,21.16,7.47,34.24,34.93,33,55.28a18.92,18.92,0,0,1-2.68,3.19C218.29,629.92,194.68,615.42,172.19,600.57Z"/><path class="cls-3" d="M1029.09,123.67c9.39.42,17.39,6.63,22.81,19.35a27,27,0,0,1-.3,21.67c-.62,1.39-1.26,2.65-1.91,3.9-.47.9-1,1.78-1.48,2.58l0,0a4.66,4.66,0,0,1-.7.64c-6,4.76-19-8.42-30.19-18.72-9.34-8.84-14.64-12.74-13.2-16.57a6,6,0,0,1,1.39-2.08c.89-.74,1.83-1.48,2.9-2.26l.16-.13C1015.17,127.26,1022,123.28,1029.09,123.67Z"/><path d="M1034.79,138.53c9.57,7.94,14.08,24.39,12.7,33.3-6,4.76-19-8.42-30.19-18.72-9.34-8.84-14.64-12.74-13.2-16.57.48-.3,1-.59,1.54-.87C1012.24,132.53,1024.28,129.63,1034.79,138.53Z"/><path class="cls-1" d="M127.65,427.62c7.07-6.83,17.52-15.84,29.84-27.42,6.79-6.36,13.33-10.53,20.3-8.43a32.69,32.69,0,0,1,4.3,1.64,25.89,25.89,0,0,1,3.1,1.67l0,0a7.92,7.92,0,0,1,.93,1.05c7.62,9.42-.07,40.27-15,53.08-12.32,11.25-26.28,7.27-35.32,1.26a34.48,34.48,0,0,1-4.32-3.38c-1.18-1.31-2.24-2.53-3.2-3.74-.06-.05-.12-.14-.17-.19C122.21,435.79,122.31,432.81,127.65,427.62Z"/><path class="cls-2" d="M150,422c12.36-11.23,26.6-25.3,36.11-25.85,7.63,9.42-.07,40.28-15,53.08-12.32,11.25-26.28,7.27-35.31,1.26a17.43,17.43,0,0,1-1.24-2C130.58,440.74,136.49,435,150,422Z"/><path class="cls-3" d="M190.82,725.23c3.25-3.23,8-7.36,13.71-12.58,3.12-2.87,6.15-4.69,9.34-3.68a14.93,14.93,0,0,1,2,.78,11,11,0,0,1,1.42.78h0a3.28,3.28,0,0,1,.42.48c3.44,4.29-.05,18.17-6.9,24.07-5.67,5.16-12.08,3.52-16.22.83a14.67,14.67,0,0,1-2-1.53c-.54-.59-1-1.15-1.47-1.72l-.07-.08C188.32,729.16,188.38,727.67,190.82,725.23Z"/><path d="M201.1,722.65c5.67-5.15,12.23-11.45,16.59-11.63,3.44,4.29-.05,18.17-6.9,24.07-5.67,5.16-12.07,3.52-16.22.83A9.64,9.64,0,0,1,194,735C192.16,731.41,194.88,728.59,201.1,722.65Z"/><path class="cls-2" d="M148,687c-9.77-10.66-17.11-18.32-22.09-24-2.76-3.13-2-5.51,2.16-9.79.86-.9,1.74-1.8,2.65-2.77l2.05-2.18,0,0c.29-.26.59-.52.91-.78,7.6-6,21.73-11.7,33.51,2.09,9.87,11.38,13,32.88,10.1,43.08a11.7,11.7,0,0,1-2.15,4.45,11.23,11.23,0,0,1-3.64,1.93c-.05,0-.15.05-.2.08C163.27,701.46,155.37,694.85,148,687Z"/><path class="cls-1" d="M144.34,668.74c-9.36-10.24-13.44-15.26-10.6-21.25,7.6-6,21.73-11.71,33.51,2.08,9.87,11.38,13,32.89,10.1,43.09a6,6,0,0,1-1.92.69C167.43,694.53,154.62,679.64,144.34,668.74Z"/><path class="cls-2" d="M1203.29,524.41c-30.63-21.61-56.51-43.76-78.21-59.26-12-8.71-15.39-14.92-9.27-24.74,1.25-2.07,2.62-4.12,4-6.29,1-1.58,2.19-3.24,3.39-4.86l0-.06c.56-.59,1.16-1.19,1.82-1.78,16.12-12.79,56.89-33,97.13-18.71,34,12,55.11,56.22,53.12,89a54.74,54.74,0,0,1-2.81,15.68,65.21,65.21,0,0,1-7.58,11.77c-.1.18-.32.39-.44.57C1247.08,546.79,1226.33,540.55,1203.29,524.41Z"/><path class="cls-1" d="M1178.12,473.28c-32.81-22.21-54-34-53-45.86,16.12-12.79,56.89-33,97.13-18.71,34,12,55.11,56.22,53.12,89a29.31,29.31,0,0,1-4.31,5.13C1252.32,520.5,1214.32,497.17,1178.12,473.28Z"/><path class="cls-3" d="M1245.63,349.16c-2.33,18.82-8.64,34.14-16.84,41.07-4.56,3.95-10.33,1.7-17.34-3.88-1.48-1.15-2.88-2.28-4.33-3.42-1-.82-2.12-1.68-3.14-2.5l0,0c-.36-.32-.71-.65-1-1-8.11-8.92-9.51-13.9-2-24.61,6.35-8.93,16.71-22.9,25.05-30.11a16.2,16.2,0,0,1,4.4-2.69,12.22,12.22,0,0,1,4.26-.06l.23,0C1243.43,323.43,1247.4,335,1245.63,349.16Z"/><path d="M1227.79,365.91c-6.56,15.63-16.42,18.22-24.88,13.51-8.11-8.92-9.51-13.9-2-24.61,6.35-8.93,16.71-22.9,25.05-30.11a5.24,5.24,0,0,1,1.83.26C1234.72,326.79,1235.25,348.88,1227.79,365.91Z"/><path class="cls-2" d="M321.44,695.5c-3.74,30.31-13.87,54.92-26.92,65.86-7.27,6.25-16.47,2.48-27.67-6.61-2.35-1.87-4.59-3.71-6.9-5.56-1.67-1.34-3.38-2.72-5-4.05l-.05,0c-.57-.53-1.12-1.06-1.66-1.59-12.91-14.4-15.18-21.86-3.26-38.73,10.14-14.06,26.68-36.53,39.94-48.29a26.19,26.19,0,0,1,7-4.41,19,19,0,0,1,6.79-.19,2.33,2.33,0,0,1,.36,0C317.83,654.05,324.28,672.7,321.44,695.5Z"/><path class="cls-1" d="M292.93,722.41c-10.48,25-26.19,28.84-39.7,21.08-12.91-14.39-15.18-21.85-3.26-38.72,10.14-14.06,26.68-36.53,39.94-48.29a8.23,8.23,0,0,1,2.92.38C304,659.6,304.87,695.16,292.93,722.41Z"/><path class="cls-3" d="M1284.55,331.89c-16.34-16.87-28.85-29.6-37.69-38.88-4.89-5.17-4.16-9,2.26-15.85,1.33-1.43,2.68-2.87,4.08-4.4,1-1.12,2.1-2.3,3.18-3.46l0,0c.46-.42.93-.83,1.44-1.24,12.08-9.39,35.4-19.19,55.38,1.32,16.78,17,23,50.94,18.68,68.12a21.21,21.21,0,0,1-3.26,7.62,20.52,20.52,0,0,1-5.77,3.76c-.08.06-.24.1-.33.16C1309.71,354.15,1296.82,344.36,1284.55,331.89Z"/><path d="M1277.25,301.8c-15.94-16.34-23.49-24.43-19.39-33.78,12.08-9.39,35.4-19.19,55.38,1.32,16.78,17,23,50.94,18.68,68.12a10.44,10.44,0,0,1-3.07,1.43C1316,342.12,1294.77,319.22,1277.25,301.8Z"/><path class="cls-1" d="M1164.83,623.24c-22.62-16-41.72-32.31-57.75-43.75-8.86-6.43-11.36-11-6.84-18.27.93-1.52,1.94-3,3-4.65.77-1.16,1.62-2.38,2.5-3.58l0,0c.42-.44.86-.88,1.35-1.32,11.89-9.44,42-24.34,71.71-13.81,25.13,8.87,40.68,41.51,39.21,65.68a40.56,40.56,0,0,1-2.07,11.58,48.43,48.43,0,0,1-5.6,8.69c-.07.13-.24.29-.32.42C1197.16,639.76,1181.84,635.15,1164.83,623.24Z"/><path class="cls-2" d="M1146.24,585.49c-24.22-16.4-39.88-25.14-39.12-33.86,11.89-9.45,42-24.34,71.71-13.82,25.13,8.88,40.68,41.51,39.22,65.69a21.73,21.73,0,0,1-3.19,3.78C1201,620.35,1173,603.13,1146.24,585.49Z"/></g></g></g></svg>