<svg width="43" height="38" viewBox="0 0 43 38" fill="none" xmlns="http://www.w3.org/2000/svg">
<path d="M24.1299 10.63C24.8147 10.63 25.3699 10.0748 25.3699 9.39001C25.3699 8.70518 24.8147 8.14999 24.1299 8.14999C23.445 8.14999 22.8899 8.70518 22.8899 9.39001C22.8899 10.0748 23.445 10.63 24.1299 10.63Z" fill="black"/>
<path d="M29.0999 10.63C29.7847 10.63 30.3399 10.0748 30.3399 9.39001C30.3399 8.70518 29.7847 8.14999 29.0999 8.14999C28.4151 8.14999 27.8599 8.70518 27.8599 9.39001C27.8599 10.0748 28.4151 10.63 29.0999 10.63Z" fill="black"/>
<path d="M34.0699 10.63C34.7547 10.63 35.3098 10.0748 35.3098 9.39001C35.3098 8.70518 34.7547 8.14999 34.0699 8.14999C33.385 8.14999 32.8298 8.70518 32.8298 9.39001C32.8298 10.0748 33.385 10.63 34.0699 10.63Z" fill="black"/>
<path d="M28.3699 37.99C30.4199 37.99 32.0799 36.32 32.0799 34.26V29.29C32.0799 28.76 31.7399 28.28 31.2299 28.11L23.7899 25.62C23.4299 25.5 23.0299 25.55 22.7099 25.76L19.5399 27.87C16.1399 26.26 12.1299 22.28 10.5299 18.94L12.6399 15.78C12.8499 15.46 12.9099 15.06 12.7799 14.7L10.2899 7.26001C10.1199 6.75001 9.64989 6.41 9.10989 6.41H4.13992C2.07992 6.41 0.409912 8.08 0.409912 10.12C0.409912 16.99 3.52992 24.04 8.97992 29.47C14.4299 34.89 21.4899 37.99 28.3699 37.99ZM4.1499 8.89999H8.22992L10.2399 14.92L8.0899 18.14C7.8599 18.48 7.81991 18.91 7.96991 19.29C8.79991 21.36 10.4499 23.68 12.6299 25.84C14.7899 27.98 17.1299 29.62 19.2099 30.45C19.5899 30.6 20.0199 30.56 20.3599 30.33L23.5799 28.18L29.5999 30.19V34.27C29.5999 34.97 29.0599 35.51 28.3699 35.51C15.2799 35.51 2.8999 23.17 2.8999 10.13C2.9099 9.43 3.4499 8.89999 4.1499 8.89999Z" fill="black"/>
<path d="M23.6499 22.98C24.1099 23.17 24.6499 23.07 25.0099 22.71L29.6199 18.1H34.0799C38.9299 18.1 42.8699 14.2 42.8699 9.39999C42.8699 4.59999 38.9299 0.700012 34.0799 0.700012H24.1299C19.3299 0.700012 15.4299 4.59999 15.4299 9.39999C15.4299 13.78 18.68 17.41 22.89 18.02V21.84C22.88 22.33 23.1899 22.78 23.6499 22.98ZM17.9099 9.39001C17.9099 5.96001 20.6999 3.17001 24.1299 3.17001H34.0799C37.5499 3.17001 40.3799 5.96001 40.3799 9.39001C40.3799 12.82 37.5499 15.61 34.0799 15.61H29.1099C28.7799 15.61 28.4599 15.74 28.2299 15.97L25.3799 18.82V16.85C25.3799 16.16 24.82 15.61 24.14 15.61C20.7 15.61 17.9099 12.82 17.9099 9.39001Z" fill="black"/>
</svg>
