<svg width="592" height="515" viewBox="0 0 592 515" fill="none" xmlns="http://www.w3.org/2000/svg">
<path d="M173.615 166.8C173.315 166.8 173.015 166.9 172.715 166.7H173.615V166.8Z" fill="#383838"/>
<path d="M170.715 166.7C170.515 166.9 170.215 166.8 169.915 166.8V166.7C170.215 166.7 170.415 166.7 170.715 166.7Z" fill="#383838"/>
<path d="M173.615 166.8V166.7C173.915 166.7 174.115 166.7 174.415 166.7C174.115 167 173.815 166.8 173.615 166.8Z" fill="#383838"/>
<path d="M169.915 166.7V166.8H169.315V166.7C169.515 166.7 169.715 166.7 169.915 166.7Z" fill="#383838"/>
<path d="M136.315 247.2C136.415 248.5 136.115 249.7 135.215 250.8C133.915 252.3 132.215 253.4 130.515 254.4C124.615 258 118.215 259.8 111.315 259.8C106.415 259.7 101.715 258.7 97.115 256.6C92.315 254.5 88.015 251.6 84.315 247.8C80.115 243.5 77.515 238.4 76.015 232.7C75.515 230.7 75.215 228.7 75.015 226.7C75.015 226.5 75.115 226.4 74.915 226.3V226.1C75.015 225.9 74.915 225.6 75.015 225.4C75.015 225.1 75.115 224.9 74.915 224.6V221.7C75.015 221.3 75.015 220.9 74.915 220.4V220C75.015 218.9 75.015 217.9 75.215 216.8C75.615 213.9 76.415 211.1 77.615 208.4C78.815 205.5 80.315 202.8 82.415 200.4C84.315 198.2 86.415 196.2 88.815 194.5C93.815 191 99.315 188.5 105.415 187.3C106.715 187 108.015 186.9 109.315 186.9H109.915C110.215 186.9 110.415 187 110.715 186.8H112.715C113.015 186.9 113.315 186.8 113.615 186.9C113.915 186.9 114.115 187 114.415 186.8H114.515C115.115 187.1 115.815 187 116.415 187.1C122.115 188 127.415 189.9 132.215 193.2C133.115 193.8 133.915 194.3 134.615 195.1C136.315 196.9 136.515 199.1 135.615 201.3C134.415 204.2 132.515 206.6 129.915 208.5C128.515 209.5 127.015 209.7 125.315 209C124.215 208.5 123.115 207.9 122.115 207.2C119.815 205.4 117.115 204.6 114.215 204.2C108.515 203.5 103.415 205.2 98.915 208.6C95.515 211.2 93.515 214.7 92.715 218.9C91.815 223.4 92.115 227.9 94.215 232.1C96.815 237.6 101.415 240.6 107.115 242C111.715 243.2 116.215 242.5 120.515 240.5C121.115 240.2 121.615 239.8 122.115 239.4C123.415 238.5 124.715 237.8 126.215 237.2C127.515 236.7 128.615 236.8 129.715 237.5C131.715 238.7 133.015 240.5 134.215 242.4C135.215 243.8 136.115 245.4 136.315 247.2Z" fill="#383838"/>
<path d="M169.315 166.8C164.415 167.2 159.915 168.6 155.615 170.6C151.315 172.7 147.415 175.3 144.015 178.7C140.915 181.9 138.715 185.7 137.115 189.9C135.915 193 135.315 196.2 135.015 199.4C135.015 199.6 135.115 199.8 134.915 199.9C135.015 198.8 135.015 197.8 135.215 196.7C135.615 193.8 136.415 191 137.615 188.3C138.815 185.4 140.315 182.7 142.415 180.3C144.315 178.1 146.415 176.1 148.815 174.4C153.815 170.9 159.315 168.4 165.415 167.2C166.615 167 168.015 166.8 169.315 166.8Z" fill="#383838"/>
<path d="M134.915 200.3C135.115 200.7 135.115 201.1 134.915 201.6C134.915 201.2 134.915 200.8 134.915 200.3Z" fill="#383838"/>
<path d="M134.915 204.5C135.115 204.7 135.015 205 135.015 205.3H134.915C134.915 205 134.915 204.8 134.915 204.5Z" fill="#383838"/>
<path d="M134.915 205.3H135.015C135.015 205.6 135.115 205.8 134.915 206C134.915 205.8 134.915 205.5 134.915 205.3Z" fill="#383838"/>
<path d="M217.915 213.5C219.015 211.9 220.115 210.5 221.515 209.3C223.715 207.4 226.315 206.5 229.215 206.6C232.915 206.7 236.315 207.6 239.215 209.8C240.815 211 242.115 212.6 243.215 214.3C243.615 215 243.715 215 244.115 214.4C246.315 211.4 249.215 209.2 252.515 207.7C256.715 205.8 260.915 206.1 265.015 208C270.215 210.4 273.315 214.5 274.815 220C275.915 223.9 276.315 227.9 276.315 231.9C276.315 238 276.415 244.2 276.415 250.3C276.415 251.7 276.315 253.1 275.815 254.4C275.215 255.9 274.215 256.9 272.715 257.3C269.315 258.2 265.915 258.3 262.515 257.1C261.415 256.7 260.615 255.9 260.215 254.9C259.715 253.8 259.415 252.7 259.415 251.4C259.415 245 259.315 238.6 259.315 232.1C259.315 230.4 259.115 228.7 258.415 227.1C257.515 225 255.815 223.9 253.515 223.8C252.815 223.8 252.115 223.8 251.415 224C249.415 224.5 248.415 225.8 247.915 227.6C247.515 229.3 247.415 231 247.415 232.8C247.415 238.5 247.515 244.2 247.515 249.9C247.515 250.7 247.515 251.5 247.415 252.4C246.915 255.9 245.715 257.2 242.215 257.8C239.815 258.2 237.315 258.2 234.915 257.7C232.115 257.1 230.615 255.2 230.515 252.3C230.315 245.7 230.415 239.2 230.315 232.6C230.315 231 230.215 229.5 229.715 227.9C228.615 224.4 225.015 222.9 221.715 224.5C219.915 225.4 219.215 227 218.815 228.8C218.515 230 218.415 231.3 218.415 232.5C218.415 238.6 218.515 244.8 218.515 250.9C218.515 252.3 218.415 253.7 217.815 255C217.315 256.2 216.415 256.9 215.315 257.4C214.315 257.8 213.215 258 212.115 258.1C209.915 258.3 207.715 258.3 205.515 257.8C202.915 257.1 202.115 256 201.515 253.1C201.315 252.2 201.415 251.3 201.415 250.5C201.315 238.2 201.215 225.8 201.215 213.5C201.215 212.6 201.315 211.8 201.615 210.9C202.315 208.8 203.815 207.7 205.915 207.3C208.515 206.8 211.015 206.8 213.615 207.4C216.115 207.9 217.515 209.5 217.815 212C217.815 212.4 217.815 212.9 217.915 213.5Z" fill="#383838"/>
<path d="M309.515 205C296.715 204.8 282.515 215.7 282.615 232C282.715 246.8 295.615 258.5 309.615 258.4C325.315 258.3 336.215 245.5 336.415 231.9C336.615 215.7 322.415 204.7 309.515 205ZM309.515 241.3C304.015 241.3 300.015 237.3 300.015 231.8C300.015 226.3 304.015 222.3 309.515 222.2C315.115 222.2 319.115 226 319.115 231.6C319.115 237 314.915 241.3 309.515 241.3Z" fill="#383838"/>
<path d="M194.915 232.7C194.915 216.5 181.015 206 168.415 205.9C155.015 205.8 140.815 216.9 141.215 232.9C141.015 247.5 154.015 259.3 168.015 259.3C183.515 259.3 194.915 246.8 194.915 232.7ZM167.815 242.2C162.415 242.2 158.415 238.1 158.515 232.7C158.515 227.1 162.515 223 168.115 223.1C173.815 223.1 177.615 227 177.615 232.6C177.615 238 173.315 242.2 167.815 242.2Z" fill="#383838"/>
<path d="M427.115 204.3C414.015 204.2 400.315 215.3 400.315 231C400.315 245.7 413.115 257.8 427.315 257.7C442.715 257.6 454.115 245.2 454.115 231C454.115 214.8 440.015 204 427.115 204.3ZM427.115 240.5C421.715 240.5 417.615 236.5 417.615 231.1C417.615 225.5 421.515 221.5 427.115 221.5C431.415 221.5 436.915 224.3 436.715 230.9C436.715 236.3 432.615 240.5 427.115 240.5Z" fill="#383838"/>
<path d="M359.515 212C360.315 211 361.115 210.2 362.015 209.5C365.315 206.6 369.115 205.5 373.415 205.9C380.415 206.6 385.515 210.2 389.415 215.7C392.115 219.5 393.515 223.8 393.915 228.4C394.015 229.9 394.015 231.5 394.015 233C394.015 238.5 394.115 244 394.115 249.6C394.115 251 394.015 252.3 393.515 253.6C393.015 254.8 392.215 255.7 391.015 256.1C389.115 256.8 387.215 256.9 385.215 256.9C383.915 256.9 382.515 256.8 381.215 256.4C378.915 255.8 377.615 254.3 377.315 251.9C377.115 250.7 377.015 249.5 377.015 248.3C377.015 242.5 376.915 236.8 376.915 231C376.915 229.3 376.515 227.7 375.615 226.2C374.215 224.1 372.115 223 369.615 222.8C366.815 222.6 364.215 223.1 362.115 225.2C360.515 226.8 359.915 228.8 359.915 231C359.915 234.8 360.015 238.5 360.015 242.3C360.015 245.2 360.115 248.1 360.015 250.9C359.915 251.7 359.815 252.6 359.515 253.4C358.915 255.1 357.715 256.1 356.015 256.5C353.015 257.2 350.015 257.3 347.015 256.5C344.515 255.9 343.615 254.5 343.115 251.6C342.915 250.5 343.015 249.3 343.015 248.1C342.915 236.6 342.815 225.1 342.815 213.5C342.815 211.9 342.815 210.4 343.515 208.9C344.115 207.5 345.215 206.7 346.615 206.3C349.715 205.5 352.815 205.5 356.015 206.2C358.115 206.7 359.215 208.1 359.615 210.2C359.315 210.9 359.415 211.4 359.515 212Z" fill="#383838"/>
<path d="M374.719 283.215C374.454 283.479 374.091 283.744 373.629 284.008C373.177 284.261 372.654 284.476 372.06 284.652C371.465 284.828 370.832 284.916 370.16 284.916C369.324 284.916 368.542 284.779 367.815 284.503C367.088 284.217 366.45 283.815 365.899 283.298C365.36 282.78 364.936 282.158 364.628 281.431C364.33 280.694 364.182 279.873 364.182 278.97C364.182 278.123 364.341 277.341 364.661 276.625C364.98 275.91 365.42 275.287 365.982 274.759C366.554 274.23 367.204 273.823 367.931 273.537C368.657 273.24 369.428 273.091 370.243 273.091C370.926 273.091 371.564 273.19 372.159 273.388C372.764 273.575 373.298 273.818 373.761 274.115C374.234 274.412 374.609 274.726 374.884 275.056L373.744 276.411C373.26 275.959 372.72 275.59 372.126 275.304C371.542 275.007 370.893 274.858 370.177 274.858C369.472 274.858 368.801 275.023 368.162 275.354C367.523 275.684 367 276.157 366.593 276.774C366.197 277.39 365.998 278.123 365.998 278.97C365.998 279.895 366.202 280.666 366.61 281.283C367.028 281.899 367.567 282.367 368.228 282.687C368.9 282.995 369.621 283.149 370.392 283.149C371.173 283.149 371.851 283 372.423 282.703C372.996 282.395 373.469 282.075 373.843 281.745L374.719 283.215ZM387.218 280.407C387.218 281.288 387.003 282.07 386.574 282.753C386.144 283.424 385.555 283.953 384.807 284.338C384.069 284.723 383.227 284.916 382.28 284.916C381.333 284.916 380.485 284.723 379.736 284.338C378.988 283.953 378.399 283.424 377.969 282.753C377.54 282.07 377.325 281.288 377.325 280.407C377.325 279.527 377.54 278.75 377.969 278.079C378.399 277.396 378.988 276.862 379.736 276.477C380.485 276.091 381.333 275.899 382.28 275.899C383.227 275.899 384.069 276.091 384.807 276.477C385.555 276.862 386.144 277.396 386.574 278.079C387.003 278.75 387.218 279.527 387.218 280.407ZM385.484 280.407C385.495 279.824 385.357 279.312 385.071 278.871C384.796 278.42 384.41 278.073 383.915 277.831C383.43 277.578 382.885 277.451 382.28 277.451C381.674 277.451 381.124 277.578 380.628 277.831C380.144 278.073 379.758 278.42 379.472 278.871C379.186 279.312 379.048 279.824 379.059 280.407C379.048 280.98 379.186 281.492 379.472 281.943C379.758 282.384 380.144 282.731 380.628 282.984C381.124 283.237 381.674 283.364 382.28 283.364C382.885 283.364 383.43 283.237 383.915 282.984C384.41 282.731 384.796 282.384 385.071 281.943C385.357 281.492 385.495 280.98 385.484 280.407Z" fill="#383838"/>
<path d="M390.591 284.751V272.529H392.292V284.751H390.591Z" fill="#383838"/>
<path d="M405.422 280.407C405.422 281.288 405.207 282.07 404.778 282.753C404.348 283.424 403.759 283.953 403.01 284.338C402.273 284.723 401.43 284.916 400.483 284.916C399.537 284.916 398.689 284.723 397.94 284.338C397.191 283.953 396.602 283.424 396.173 282.753C395.743 282.07 395.529 281.288 395.529 280.407C395.529 279.527 395.743 278.75 396.173 278.079C396.602 277.396 397.191 276.862 397.94 276.477C398.689 276.091 399.537 275.899 400.483 275.899C401.43 275.899 402.273 276.091 403.01 276.477C403.759 276.862 404.348 277.396 404.778 278.079C405.207 278.75 405.422 279.527 405.422 280.407ZM403.688 280.407C403.699 279.824 403.561 279.312 403.275 278.871C402.999 278.42 402.614 278.073 402.119 277.831C401.634 277.578 401.089 277.451 400.483 277.451C399.878 277.451 399.327 277.578 398.832 277.831C398.347 278.073 397.962 278.42 397.676 278.871C397.39 279.312 397.252 279.824 397.263 280.407C397.252 280.98 397.39 281.492 397.676 281.943C397.962 282.384 398.347 282.731 398.832 282.984C399.327 283.237 399.878 283.364 400.483 283.364C401.089 283.364 401.634 283.237 402.119 282.984C402.614 282.731 402.999 282.384 403.275 281.943C403.561 281.492 403.699 280.98 403.688 280.407ZM413.646 275.932C414.384 275.932 415 276.091 415.496 276.411C415.991 276.719 416.344 277.17 416.553 277.765C416.74 277.501 417.004 277.225 417.346 276.939C417.687 276.653 418.083 276.416 418.535 276.229C418.986 276.031 419.476 275.932 420.005 275.932C420.83 275.932 421.48 276.097 421.953 276.427C422.427 276.757 422.757 277.203 422.944 277.765C423.143 278.315 423.242 278.932 423.242 279.615V284.751H421.524V279.78C421.524 279.108 421.375 278.563 421.078 278.145C420.792 277.715 420.285 277.501 419.559 277.501C419.03 277.501 418.557 277.611 418.138 277.831C417.72 278.051 417.39 278.348 417.147 278.723C416.916 279.097 416.801 279.51 416.801 279.961V284.751H415.083V279.747C415.083 279.086 414.918 278.547 414.587 278.128C414.268 277.71 413.734 277.501 412.985 277.501C412.49 277.501 412.044 277.616 411.648 277.847C411.262 278.079 410.96 278.37 410.739 278.723C410.519 279.064 410.409 279.422 410.409 279.796V284.751H408.691V276.08H410.409V277.468C410.717 277.082 411.152 276.73 411.714 276.411C412.275 276.091 412.919 275.932 413.646 275.932ZM432.293 275.899C433.141 275.899 433.906 276.091 434.589 276.477C435.271 276.851 435.811 277.379 436.207 278.062C436.604 278.734 436.802 279.51 436.802 280.391C436.802 281.272 436.604 282.053 436.207 282.736C435.822 283.419 435.288 283.953 434.605 284.338C433.923 284.723 433.146 284.916 432.277 284.916C431.605 284.916 430.988 284.784 430.427 284.52C429.865 284.256 429.419 283.958 429.089 283.628V284.701H427.388V272.529H429.089V277.286C429.397 276.934 429.832 276.614 430.394 276.328C430.966 276.042 431.599 275.899 432.293 275.899ZM432.062 277.451C431.456 277.451 430.917 277.583 430.443 277.847C429.97 278.101 429.601 278.447 429.337 278.888C429.073 279.328 428.94 279.829 428.94 280.391C428.94 280.952 429.073 281.459 429.337 281.91C429.601 282.351 429.97 282.703 430.443 282.967C430.917 283.221 431.456 283.347 432.062 283.347C432.667 283.347 433.201 283.221 433.664 282.967C434.137 282.703 434.506 282.351 434.77 281.91C435.035 281.459 435.167 280.952 435.167 280.391C435.167 279.829 435.035 279.328 434.77 278.888C434.506 278.447 434.137 278.101 433.664 277.847C433.201 277.583 432.667 277.451 432.062 277.451ZM441.234 274.197C440.848 274.197 440.562 274.098 440.375 273.9C440.188 273.702 440.094 273.443 440.094 273.124C440.094 272.849 440.188 272.601 440.375 272.381C440.562 272.161 440.848 272.05 441.234 272.05C441.619 272.05 441.905 272.149 442.093 272.348C442.28 272.546 442.373 272.805 442.373 273.124C442.373 273.399 442.28 273.647 442.093 273.867C441.905 274.087 441.619 274.197 441.234 274.197ZM442.093 284.751H440.391V276.08H442.093V284.751ZM455.104 276.08V284.751H453.403V283.331C453.205 283.595 452.935 283.848 452.594 284.09C452.253 284.333 451.856 284.531 451.405 284.685C450.964 284.839 450.485 284.916 449.968 284.916C449.109 284.916 448.344 284.723 447.672 284.338C447.012 283.953 446.489 283.419 446.103 282.736C445.729 282.053 445.542 281.272 445.542 280.391C445.542 279.51 445.74 278.734 446.136 278.062C446.533 277.39 447.078 276.862 447.771 276.477C448.476 276.091 449.28 275.899 450.183 275.899C450.898 275.899 451.531 276.036 452.082 276.311C452.643 276.587 453.084 276.906 453.403 277.269V276.08H455.104ZM450.364 283.347C450.97 283.347 451.504 283.221 451.966 282.967C452.44 282.703 452.809 282.351 453.073 281.91C453.337 281.47 453.469 280.963 453.469 280.391C453.469 279.84 453.337 279.345 453.073 278.904C452.809 278.464 452.44 278.117 451.966 277.864C451.504 277.6 450.97 277.468 450.364 277.468C449.759 277.468 449.219 277.6 448.746 277.864C448.283 278.117 447.92 278.464 447.656 278.904C447.402 279.345 447.276 279.84 447.276 280.391C447.276 280.963 447.402 281.47 447.656 281.91C447.92 282.351 448.283 282.703 448.746 282.967C449.219 283.221 449.759 283.347 450.364 283.347Z" fill="#383838"/>
<path d="M94.5149 132.7C78.1149 142.4 60.8149 154.4 39.5149 166.2C25.6149 174.2 9.51494 170.9 6.91494 160C2.61494 143.6 0.814938 127.6 1.01494 110.7C1.51494 99.8002 9.91494 87.2002 17.7149 84.5002C30.4149 80.3002 41.7149 78.2002 54.1149 78.2002C62.1149 78.4002 72.0149 86.0002 76.3149 92.7002C82.8149 103.3 90.9149 111.9 101.215 117.3C107.915 120.7 105.215 126 94.5149 132.7Z" stroke="black" stroke-width="2" stroke-miterlimit="10"/>
<path d="M88.215 128.7C72.315 136.8 55.615 147 35.115 157.4C21.715 164.4 6.51497 160.6 4.61497 149.8C2.01497 136.9 0.914967 124.2 1.11497 110.9C1.61497 100 10.015 87.4004 17.815 84.7004C30.515 80.5004 41.815 78.4004 54.215 78.4004C62.215 78.6004 72.115 86.2004 76.415 92.9004C81.515 101.3 87.615 108.4 95.115 113.7C101.215 117.7 98.615 123 88.215 128.7Z" stroke="black" stroke-width="2" stroke-miterlimit="10"/>
<path d="M397.115 400.5C386.015 420.5 369.815 435.8 349.815 446.9C338.815 453 327.715 452.8 316.715 446.1C314.415 444.7 312.215 443.3 310.015 441.8C308.415 440.7 306.715 439.6 305.215 438.4C304.715 437.9 304.215 437.4 303.815 436.8C293.115 423.3 302.315 394.8 325.415 371.4C344.715 351.9 367.815 342.1 382.815 345.6C385.515 346.2 387.915 347.3 390.015 348.8C392.015 350.8 393.815 352.9 395.415 355.2C395.515 355.3 395.615 355.5 395.715 355.6C405.715 370.2 405.515 385.5 397.115 400.5Z" stroke="black" stroke-width="2" stroke-miterlimit="10"/>
<path d="M361.015 411C341.715 430.5 318.615 440.3 303.715 436.9C293.015 423.4 302.215 394.9 325.315 371.5C344.615 352 367.715 342.2 382.715 345.7C383.515 346.8 384.215 347.9 384.815 349.1C391.915 363.5 382.315 389.5 361.015 411Z" stroke="black" stroke-width="2" stroke-miterlimit="10"/>
<path d="M217.215 1L262.815 60" stroke="black" stroke-width="2" stroke-miterlimit="10"/>
<path d="M147.415 455.2L63.515 510.7" stroke="black" stroke-width="2" stroke-miterlimit="10"/>
<path d="M64.615 321.2L22.515 281.8" stroke="black" stroke-width="2" stroke-miterlimit="10"/>
<path d="M442.215 514.2L493.915 435.6" stroke="black" stroke-width="2" stroke-miterlimit="10"/>
<path d="M239.815 312.9L261.115 337.9" stroke="black" stroke-width="2" stroke-miterlimit="10"/>
<path d="M545.315 484.5L591.115 477.5" stroke="black" stroke-width="2" stroke-miterlimit="10"/>
</svg>
