<svg xmlns="http://www.w3.org/2000/svg" viewBox="0 0 840.73 320.59"><defs><style>.cls-1,.cls-2,.cls-4{fill:#fff;}.cls-2{font-size:36.33px;}.cls-2,.cls-4{font-family:LexendExa-Regular, Lexend Exa;}.cls-3{letter-spacing:-0.01em;}.cls-4{font-size:68.3px;}</style></defs><g id="Capa_2" data-name="Capa 2"><g id="Capa_1-2" data-name="Capa 1"><path class="cls-1" d="M85,96.9c-.66,0-1.37.27-2-.24H85c.09,0,.12.1.1.16s0,.09-.07.09"/><path class="cls-1" d="M78.63,96.69c-.5.49-1.12.23-1.69.25-.07-.06-.09-.11-.06-.16s.06-.08.08-.08h1.67"/><path class="cls-1" d="M85,96.9a1.9,1.9,0,0,1,0-.25h1.67c-.47.56-1.09.18-1.64.26"/><path class="cls-1" d="M77,96.7a1.06,1.06,0,0,1,0,.25H75.56a1.94,1.94,0,0,0,0-.24H77"/><path class="cls-1" d="M135.08,229.8a9.9,9.9,0,0,1-2.37,7.83c-2.86,3.36-6.54,5.65-10.27,7.91A78,78,0,0,1,49,250.39,89.64,89.64,0,0,1,20.9,231.07C11.76,221.7,6,210.42,2.68,197.82A90.75,90.75,0,0,1,.4,184.61c0-.34.13-.76-.31-1v-.54c.27-.52.07-1.06.13-1.58,0,0,0,0,0-.06v0c-.09-.56.15-1.14-.15-1.66l0-6.38a5.94,5.94,0,0,0,0-2.78v-.82c.33-2.32.23-4.66.58-7A76,76,0,0,1,5.8,144.33a68.58,68.58,0,0,1,10.53-17.67,73.67,73.67,0,0,1,14.14-13A97.73,97.73,0,0,1,67,97.75a46,46,0,0,1,8.68-.89h1.3c.56-.08,1.16.15,1.7-.15l4.44,0c.62.3,1.28,0,1.92.13.56-.09,1.14.15,1.7-.15H87c1.36.63,2.86.46,4.28.69A86.79,86.79,0,0,1,126,110.66a27.59,27.59,0,0,1,5.35,4.15c3.71,4,4.24,8.75,2.27,13.64a36.06,36.06,0,0,1-12.54,15.88,9.49,9.49,0,0,1-10.08,1,35.39,35.39,0,0,1-7.1-4c-5.17-3.9-11.08-5.75-17.43-6.49-12.61-1.48-23.81,2.16-33.76,9.68-7.51,5.67-11.82,13.5-13.68,22.59-2,10-1.25,19.75,3.23,29,5.82,12,15.94,18.65,28.48,21.83,10.16,2.59,20.07,1.17,29.57-3.21a20.9,20.9,0,0,0,3.56-2.39,42.45,42.45,0,0,1,8.95-4.93,8.12,8.12,0,0,1,7.8.73c4.3,2.63,7.21,6.57,9.85,10.71,2.17,3.35,4.17,6.8,4.61,10.86"/><path class="cls-1" d="M75.69,96.86l0,0a.17.17,0,0,1-.12.06,86.34,86.34,0,0,0-30.07,8.37A88.17,88.17,0,0,0,20,123.12c-6.9,7-11.58,15.43-15.09,24.56a76.18,76.18,0,0,0-4.58,21c0,.38.16.86-.28,1.14.33-2.32.23-4.66.58-7A76,76,0,0,1,5.8,144.33a68.58,68.58,0,0,1,10.53-17.67,73.67,73.67,0,0,1,14.14-13A97.73,97.73,0,0,1,67,97.75a46,46,0,0,1,8.68-.89Z"/><path class="cls-1" d="M0,170.62a3.1,3.1,0,0,1,0,2.77c0-.92,0-1.85,0-2.77"/><path class="cls-1" d="M.06,179.76c.49.5.23,1.12.25,1.69-.09.1-.17.09-.24,0v-1.67"/><path class="cls-1" d="M.07,181.43l.24,0c-.06.55.32,1.16-.23,1.64,0-.56,0-1.11,0-1.66"/><path class="cls-1" d="M314.5,155.65a40.92,40.92,0,0,1,8-9.16,25.18,25.18,0,0,1,17-6c8.07.14,15.53,2.11,22,7.06a37.72,37.72,0,0,1,8.85,9.83c1,1.5,1,1.54,2,.13a45.31,45.31,0,0,1,18.54-14.78c9.21-4.2,18.54-3.43,27.51.69,11.36,5.24,18.21,14.4,21.53,26.33a99,99,0,0,1,3.26,26.14q.13,20.22.23,40.45a23.88,23.88,0,0,1-1.32,9,9.69,9.69,0,0,1-6.8,6.36c-7.53,1.94-15.06,2.22-22.49-.45a8.6,8.6,0,0,1-5.12-5,19.49,19.49,0,0,1-1.73-7.63q-.1-21.19-.3-42.39a27.72,27.72,0,0,0-1.95-11,11.18,11.18,0,0,0-10.7-7.19,18.44,18.44,0,0,0-4.69.38c-4.31,1-6.61,3.89-7.69,8a43.33,43.33,0,0,0-1.13,11.4q.12,18.82.23,37.67a37.22,37.22,0,0,1-.26,5.39c-1.11,7.81-3.71,10.55-11.52,11.92a40.84,40.84,0,0,1-16.11-.25c-6.1-1.37-9.5-5.54-9.71-11.82-.47-14.44-.27-28.89-.44-43.34a33.78,33.78,0,0,0-1.34-10.25,12.42,12.42,0,0,0-17.66-7.53c-3.91,1.88-5.5,5.42-6.4,9.36a35.19,35.19,0,0,0-.78,8.25c.08,13.48.18,27,.22,40.45a21.81,21.81,0,0,1-1.54,9.07,9.65,9.65,0,0,1-5.55,5.27,23.58,23.58,0,0,1-7,1.56c-4.85.36-9.71.52-14.47-.77-5.75-1.55-7.44-4-8.85-10.24a26.72,26.72,0,0,1-.3-5.8q-.25-40.73-.49-81.44a17.19,17.19,0,0,1,.91-5.71c1.56-4.58,4.82-7.1,9.43-8a42,42,0,0,1,16.94.18c5.48,1.19,8.51,4.62,9.29,10.16.15,1.12.26,2.25.43,3.65"/><path class="cls-1" d="M516,137c-28.23-.36-59.36,23.44-59.07,59.38.25,32.59,28.62,58.29,59.42,58.07a59,59,0,0,0,58.86-58.24c.33-35.83-30.81-59.89-59.21-59.21m0,79.71c-12.08,0-20.9-8.75-20.94-20.89s8.75-21,20.89-21.07c12.42-.06,21.18,8.46,21.22,20.62A21,21,0,0,1,516,216.66"/><path class="cls-1" d="M264,197.8c.1-35.65-30.59-58.7-58.31-59-29.44-.31-60.77,24.12-59.87,59.41-.47,32.19,28.06,58.16,59,58.13A58.94,58.94,0,0,0,264,197.8M204.4,218.66c-11.79-.07-20.6-9-20.55-20.83,0-12.36,8.89-21.23,21.07-21.14,12.58.09,21,8.52,21,21a21,21,0,0,1-21.47,21"/><path class="cls-1" d="M774.74,135.3c-28.82-.28-59,24.18-59,58.78,0,32.42,28.12,58.87,59.38,58.67A58.94,58.94,0,0,0,834.05,194c.05-35.63-30.91-59.4-59.31-58.71m0,79.71c-12,.05-20.82-8.71-20.87-20.75-.06-12.28,8.6-21.1,20.84-21.22,9.44-.1,21.47,6.18,21.2,20.77-.2,11.86-9.25,21.14-21.17,21.2"/><path class="cls-1" d="M625.9,152.33a36.12,36.12,0,0,1,5.42-5.6c7.22-6.31,15.56-8.82,25.13-7.89,15.3,1.47,26.51,9.42,35.11,21.63a56.75,56.75,0,0,1,10,27.95c.31,3.36.29,6.73.31,10.1q.13,18.21.21,36.42a24,24,0,0,1-1.34,8.84,9.31,9.31,0,0,1-5.6,5.58c-4.13,1.62-8.46,1.83-12.81,1.8a33.35,33.35,0,0,1-8.77-1.08c-5.06-1.38-7.94-4.58-8.65-9.79a59.14,59.14,0,0,1-.58-7.86q-.12-19.05-.25-38.09a18.73,18.73,0,0,0-2.92-10.52c-3.14-4.71-7.69-7-13.25-7.5-6.26-.54-12,.73-16.53,5.39a17.36,17.36,0,0,0-4.8,12.74c0,8.26.13,16.52.14,24.79,0,6.32.31,12.65-.09,19a18.88,18.88,0,0,1-1.06,5.4,10.32,10.32,0,0,1-7.7,6.88,40.94,40.94,0,0,1-19.89,0c-5.45-1.4-7.42-4.33-8.49-10.67a49.31,49.31,0,0,1-.3-7.6q-.27-38-.47-76.05c0-3.43-.1-6.86,1.43-10.17a10,10,0,0,1,6.83-5.76,43.83,43.83,0,0,1,20.59-.27c4.72,1,7.11,4.14,7.9,8.7.19,1.09.28,2.19.46,3.64"/><text class="cls-2" transform="translate(633.36 311.22)"><tspan class="cls-3" x="56.35" y="0">Colombia</tspan><tspan x="69.1" y="0"></tspan></text><text class="cls-4" transform="translate(7.34 58.05)">Somos</text></g></g></svg>