<svg xmlns="http://www.w3.org/2000/svg" viewBox="0 0 394.18 105"><defs><style>.cls-1,.cls-2{fill:#3489ce;}.cls-2{font-size:17.03px;font-family:LexendExa-Regular, Lexend Exa;}.cls-3{letter-spacing:-0.01em;}</style></defs><g id="Capa_2" data-name="Capa 2"><g id="Capa_1-2" data-name="Capa 1"><path class="cls-1" d="M39.87.12C39.56.1,39.23.25,39,0h.91s0,.05,0,.08,0,0,0,0"/><path class="cls-1" d="M36.87,0c-.24.23-.53.11-.8.12,0,0,0-.05,0-.08s0,0,.05,0h.78"/><path class="cls-1" d="M39.87.12a.49.49,0,0,1,0-.12h.78c-.22.26-.51.08-.77.12"/><path class="cls-1" d="M36.08,0a.37.37,0,0,1,0,.11h-.65a.37.37,0,0,0,0-.11h.65"/><path class="cls-1" d="M63.33,62.43a4.61,4.61,0,0,1-1.11,3.67,18.87,18.87,0,0,1-4.81,3.71A36.88,36.88,0,0,1,37.6,75.34,36.42,36.42,0,0,1,23,72.08,42,42,0,0,1,9.8,63,34.2,34.2,0,0,1,1.26,47.44a41.63,41.63,0,0,1-1.07-6.2c0-.15.06-.35-.15-.45v-.26c.13-.24,0-.49.06-.74,0,0,0,0,0,0h0c0-.26.07-.53-.07-.77l0-3a2.76,2.76,0,0,0,0-1.31V34.3C.15,33.21.11,32.11.27,31a35.69,35.69,0,0,1,2.45-8.66,32.16,32.16,0,0,1,4.94-8.28A34.66,34.66,0,0,1,14.29,8,45.84,45.84,0,0,1,31.39.52,21.37,21.37,0,0,1,35.46.1h.61c.26,0,.54.07.79-.07L39,0c.29.14.6,0,.9.06s.53.08.79-.07h.13a7.16,7.16,0,0,0,2,.33A40.72,40.72,0,0,1,59.08,6.57a12.74,12.74,0,0,1,2.5,1.95,5.71,5.71,0,0,1,1.07,6.39,16.93,16.93,0,0,1-5.88,7.45,4.45,4.45,0,0,1-4.73.49A17,17,0,0,1,48.71,21a16.21,16.21,0,0,0-8.17-3,21.33,21.33,0,0,0-15.83,4.53A17.08,17.08,0,0,0,18.3,33.06a21,21,0,0,0,1.51,13.62c2.73,5.64,7.48,8.74,13.36,10.23A20.34,20.34,0,0,0,47,55.41a9.55,9.55,0,0,0,1.67-1.12A19.58,19.58,0,0,1,52.9,52a3.8,3.8,0,0,1,3.65.35,14.91,14.91,0,0,1,4.62,5,11.7,11.7,0,0,1,2.16,5.09"/><path class="cls-1" d="M35.49.1h0a.09.09,0,0,1-.06,0,40.54,40.54,0,0,0-14.1,3.93,41.64,41.64,0,0,0-12,8.34A33,33,0,0,0,2.28,23.93,35.66,35.66,0,0,0,.13,33.76c0,.18.08.4-.13.54C.15,33.21.11,32.11.27,31a35.69,35.69,0,0,1,2.45-8.66,32.16,32.16,0,0,1,4.94-8.28A34.66,34.66,0,0,1,14.29,8,45.84,45.84,0,0,1,31.39.52,21.37,21.37,0,0,1,35.46.1Z"/><path class="cls-1" d="M0,34.69A1.46,1.46,0,0,1,0,36c0-.43,0-.86,0-1.29"/><path class="cls-1" d="M0,39c.23.24.11.52.12.79,0,.05-.08,0-.12,0V39"/><path class="cls-1" d="M0,39.75H.15c0,.26.14.55-.11.77,0-.26,0-.52,0-.78"/><path class="cls-1" d="M147.45,27.67a19.52,19.52,0,0,1,3.74-4.3,11.84,11.84,0,0,1,8-2.83,17,17,0,0,1,10.33,3.31,17.57,17.57,0,0,1,4.15,4.61c.45.7.47.72.94.06a21.25,21.25,0,0,1,8.69-6.93,14.92,14.92,0,0,1,12.9.33c5.33,2.45,8.54,6.75,10.09,12.34a46.51,46.51,0,0,1,1.53,12.26q.06,9.48.11,19a11.22,11.22,0,0,1-.62,4.21,4.55,4.55,0,0,1-3.19,3,17.47,17.47,0,0,1-10.54-.22,4,4,0,0,1-2.4-2.31,8.87,8.87,0,0,1-.81-3.58q-.06-9.95-.15-19.87a12.92,12.92,0,0,0-.91-5.14,5.23,5.23,0,0,0-5-3.37,8.46,8.46,0,0,0-2.19.18,4.68,4.68,0,0,0-3.61,3.75,20.48,20.48,0,0,0-.53,5.34q.06,8.84.11,17.67a19.48,19.48,0,0,1-.12,2.53c-.53,3.66-1.74,4.94-5.4,5.59a19.24,19.24,0,0,1-7.56-.12,5.44,5.44,0,0,1-4.55-5.54c-.22-6.78-.13-13.55-.21-20.33a15.92,15.92,0,0,0-.63-4.8,5.82,5.82,0,0,0-8.28-3.53c-1.83.88-2.57,2.54-3,4.39a16.71,16.71,0,0,0-.36,3.87q.06,9.48.1,19a10.19,10.19,0,0,1-.72,4.25,4.5,4.5,0,0,1-2.61,2.47,10.92,10.92,0,0,1-3.28.74,20.07,20.07,0,0,1-6.78-.36c-2.7-.73-3.49-1.87-4.15-4.8a12.39,12.39,0,0,1-.14-2.72q-.12-19.09-.23-38.19a7.85,7.85,0,0,1,.42-2.67A5.4,5.4,0,0,1,135,21.11a19.66,19.66,0,0,1,7.94.08A5.18,5.18,0,0,1,147.25,26c.07.53.13,1.06.2,1.72"/><path class="cls-1" d="M241.93,18.9c-13.24-.17-27.83,11-27.7,27.84C214.35,62,227.65,74.07,242.09,74a27.68,27.68,0,0,0,27.6-27.31c.15-16.8-14.45-28.08-27.76-27.76m0,37.37a9.48,9.48,0,0,1-9.81-9.79,9.53,9.53,0,0,1,9.79-9.88c5.82,0,9.93,4,10,9.67a9.85,9.85,0,0,1-9.93,10"/><path class="cls-1" d="M123.78,47.43c0-16.72-14.34-27.52-27.34-27.65C82.64,19.64,68,31.09,68.37,47.63,68.15,62.73,81.53,74.91,96,74.89a27.63,27.63,0,0,0,27.77-27.46M95.84,57.21a9.48,9.48,0,0,1-9.64-9.76,9.54,9.54,0,0,1,9.88-9.92c5.89,0,9.84,4,9.82,9.83a9.82,9.82,0,0,1-10.06,9.85"/><path class="cls-1" d="M363.24,18.12C349.72,18,335.6,29.46,335.58,45.68c0,15.21,13.19,27.61,27.84,27.51A27.62,27.62,0,0,0,391,45.65c0-16.7-14.49-27.85-27.8-27.53m0,37.38a9.47,9.47,0,0,1-9.78-9.73,9.51,9.51,0,0,1,9.77-10c4.43,0,10.06,2.9,9.94,9.74a9.91,9.91,0,0,1-9.93,9.94"/><path class="cls-1" d="M293.46,26.11A16.24,16.24,0,0,1,296,23.49a14.92,14.92,0,0,1,11.78-3.71c7.17.7,12.43,4.42,16.46,10.15A26.59,26.59,0,0,1,328.91,43c.15,1.58.14,3.16.15,4.73q.06,8.55.1,17.08a11.51,11.51,0,0,1-.63,4.15,4.38,4.38,0,0,1-2.63,2.61,19.41,19.41,0,0,1-10.12.34,5.11,5.11,0,0,1-4-4.59,26.69,26.69,0,0,1-.27-3.68q-.06-8.94-.12-17.86A8.65,8.65,0,0,0,310,40.88a7.84,7.84,0,0,0-6.21-3.52A9.12,9.12,0,0,0,296,39.88a8.17,8.17,0,0,0-2.25,6c0,3.87.06,7.75.07,11.62,0,3,.14,5.93-.05,8.89a8.86,8.86,0,0,1-.49,2.54,4.85,4.85,0,0,1-3.61,3.22,19.13,19.13,0,0,1-9.33,0c-2.56-.65-3.48-2-4-5a23.59,23.59,0,0,1-.14-3.57q-.12-17.82-.22-35.65a10.71,10.71,0,0,1,.67-4.77,4.65,4.65,0,0,1,3.2-2.7,20.58,20.58,0,0,1,9.65-.13,4.55,4.55,0,0,1,3.71,4.08c.09.51.13,1,.22,1.71"/><text class="cls-2" transform="translate(296.95 100.61)">Co<tspan class="cls-3" x="26.42" y="0">l</tspan><tspan x="32.4" y="0">ombia</tspan></text></g></g></svg>