<svg xmlns="http://www.w3.org/2000/svg" viewBox="0 0 140.58 99.87"><defs><style>.cls-1{fill:#ebf6f7;}</style></defs><g id="Capa_2" data-name="Capa 2"><g id="Capa_1-2" data-name="Capa 1"><path class="cls-1" d="M26.23,94.91c.81.12,1.65.19,2.51.24l88.4,4.69a21,21,0,0,0,22-19.82,20.69,20.69,0,0,0-3.67-13c-.23-.35-.51-.69-.77-1a16.28,16.28,0,0,0-7.46-28.48,18.65,18.65,0,0,0-25.1-20.82A20.9,20.9,0,0,0,64.52,9l-.65.11A30.48,30.48,0,0,0,38.93,35.85a30.29,30.29,0,1,0-12.7,59.06ZM131.51,62.68c-.1-.08-.21-.13-.3-.21a23.08,23.08,0,0,0-2.81-1.9,18.55,18.55,0,0,0-2.9-1.34,23.24,23.24,0,0,0-3-7.48,21.77,21.77,0,0,0-1.93-2.64,23,23,0,0,0-2.34-2.39,14.11,14.11,0,0,0-1.52-1.26,25.07,25.07,0,0,0-2.81-1.83A23.58,23.58,0,0,0,99.27,41l0-.47a25.18,25.18,0,0,0,0-3.25A30,30,0,0,0,98.53,32a29.19,29.19,0,0,0-2-5.87,3.78,3.78,0,0,0-.17-.35l0,0v0a28.74,28.74,0,0,0-4.51-6.82,29.35,29.35,0,0,0-2.29-2.31c-.17-.16-.35-.3-.53-.46-.65-.57-1.32-1.13-2-1.63l-.51-.34q-1.11-.79-2.28-1.47l-.39-.21q-1.27-.7-2.61-1.29l-.26-.11A30.15,30.15,0,0,0,78,10.05L77.85,10a30.27,30.27,0,0,0-3.09-.76l-.12,0a31.9,31.9,0,0,0-3.22-.43h-.1c-.14,0-.28,0-.43,0A16.15,16.15,0,0,1,81.56,4.65,16.39,16.39,0,0,1,98,20.38a2.28,2.28,0,0,0,.37,1.18,2.33,2.33,0,0,0,3.22.7,13.7,13.7,0,0,1,8.17-2.13,14,14,0,0,1,13.22,14.7,14.19,14.19,0,0,1-.78,4,2.36,2.36,0,0,0,.32,2.18,2.31,2.31,0,0,0,2,.93h.41a11.65,11.65,0,0,1,6.63,20.75ZM4.72,63.5a25.62,25.62,0,0,1,27-24.18,25,25,0,0,1,8.48,1.92,2.23,2.23,0,0,0,.88.18,2.34,2.34,0,0,0,2.36-2.31q0-.75,0-1.5A25.81,25.81,0,0,1,64.68,13.7c.44-.07.88-.13,1.32-.16h.14c.65-.09,1.3-.14,2-.17s1.53,0,2.3,0A25.48,25.48,0,0,1,88.3,22a24,24,0,0,1,3.79,5.72l.07.15,0,.09A24.73,24.73,0,0,1,94,33.06a26,26,0,0,1,.64,4.56,24.32,24.32,0,0,1,0,2.7,22.86,22.86,0,0,1-.39,3.3,2.4,2.4,0,0,0,.08,1.16,2.33,2.33,0,0,0,2.94,1.49,15.41,15.41,0,0,1,1.65-.44l.41-.07c.44-.08.88-.16,1.32-.21l.48,0c.43,0,.86-.06,1.3-.07.15,0,.31,0,.46,0l1.31.07.67.08c.44,0,.89.11,1.33.19l.41.09c.49.11,1,.22,1.46.37.16,0,.31.1.46.15.45.15.9.3,1.34.48q.9.38,1.77.84a19.76,19.76,0,0,1,2.25,1.47,9.06,9.06,0,0,1,1.12.93,18.88,18.88,0,0,1,2,2,16.5,16.5,0,0,1,1.52,2.1,18.53,18.53,0,0,1,2.63,7.12,2.33,2.33,0,0,0,1.64,1.89,15.45,15.45,0,0,1,3.31,1.38,16.53,16.53,0,0,1,3.56,2.66,14.73,14.73,0,0,1,2,2.38,16.11,16.11,0,0,1,2.87,10.11,16.33,16.33,0,0,1-17.15,15.42L29,90.5c-.72,0-1.41-.1-2.11-.2A25.63,25.63,0,0,1,4.72,63.5Z"/></g></g></svg>