<svg xmlns="http://www.w3.org/2000/svg" viewBox="0 0 146.52 91.12"><defs><style>.cls-1{fill:#f3f9e4;}</style></defs><g id="Capa_2" data-name="Capa 2"><g id="Capa_1-2" data-name="Capa 1"><path class="cls-1" d="M128.05,62.88a8.41,8.41,0,1,0,6.33,10.06A8.41,8.41,0,0,0,128.05,62.88ZM125.28,75A4.07,4.07,0,1,1,130.14,72,4.07,4.07,0,0,1,125.28,75Z"/><path class="cls-1" d="M46.34,31c13.11,3,27.19,2.47,28.73-4.3S64.14,13.41,51,10.42,23.85,8,22.31,14.71,33.23,28,46.34,31ZM33.07,13.19a55.17,55.17,0,0,1,17,1.46,55.34,55.34,0,0,1,16,6c4.13,2.53,5,4.42,4.8,5.07s-1.7,2-6.52,2.49a54.86,54.86,0,0,1-17-1.47,54.82,54.82,0,0,1-16-6c-4.14-2.53-5-4.42-4.81-5.07S28.24,13.68,33.07,13.19Z"/><path class="cls-1" d="M142.52,56.83l-38.44-8.75a2.17,2.17,0,1,0-1,4.23l8.52,1.94L105.79,80l-5-1.15,2.44-10.7a2.17,2.17,0,1,0-4.24-1l-2.43,10.7-5-1.14,1.71-7.53a2.17,2.17,0,1,0-4.23-1L87.3,75.74l-5-1.14L84,67.07a2.17,2.17,0,0,0-4.23-1l-1.72,7.53-5-1.14L74.77,65a2.17,2.17,0,0,0-4.24-1l-1.71,7.53-5-1.14,1.71-7.53a2.17,2.17,0,1,0-4.23-1l-1.71,7.52-5-1.14L57,57.58a2.17,2.17,0,0,0-4.24-1L50.34,67.32l-5-1.14L47,58.65a2.17,2.17,0,1,0-4.23-1l-1.72,7.52-5-1.14,1.72-7.52a2.17,2.17,0,0,0-4.24-1l-1.71,7.53-5-1.14,1.72-7.53a2.17,2.17,0,1,0-4.24-1L22.61,61l-3.73-.85c-.43-.09-.85-.21-1.27-.34l1.7-7.47a2.17,2.17,0,1,0-4.23-1L13.56,58A18.42,18.42,0,0,1,9.12,54.4l1.67-7.34a2.17,2.17,0,1,0-4.23-1l-.72,3.15a18.52,18.52,0,0,1-1-11.44l4-17.55h0c3.79,5.27,9.64,8.84,15.31,11.64A92.75,92.75,0,0,0,44.53,39L90,49.31a2.17,2.17,0,1,0,1-4.23l-3.17-.72,3.2-14c1.19-5.23-2.38-11-10-16.35C73.79,9.06,63.83,5,52.84,2.47A91.64,91.64,0,0,0,29.54.05a2.18,2.18,0,0,0-2.1,2.24,2.19,2.19,0,0,0,2.25,2.1A87.46,87.46,0,0,1,51.88,6.7c22.4,5.1,36.33,16,34.82,22.67-.84,3.72-5.54,5.4-8.75,6.27a52.47,52.47,0,0,1-14.67,1.54,75.41,75.41,0,0,1-10.93-1,110.06,110.06,0,0,1-20.93-5.78A50.32,50.32,0,0,1,15.35,21c-2.32-2.1-5.45-5.45-4.69-8.92v0c.39-1.69,2-4.08,7.36-5.84a2.17,2.17,0,0,0-1.35-4.13c-7.32,2.4-9.61,6.22-10.24,9L.58,36.83A23.05,23.05,0,0,0,14.1,63.16l.26.11a23.28,23.28,0,0,0,3.55,1.12L134.74,91a5.15,5.15,0,0,0,6.16-3.87L146.4,63A5.16,5.16,0,0,0,142.52,56.83ZM74.81,40.73a30.93,30.93,0,0,0,10-3.16l-1.33,5.82L73,41C73.59,40.91,74.2,40.83,74.81,40.73Zm61.86,45.42a.81.81,0,0,1-1,.61L110,80.91l5.85-25.69,25.69,5.84a.81.81,0,0,1,.6,1Z"/></g></g></svg>