<svg xmlns="http://www.w3.org/2000/svg" viewBox="0 0 117.97 106.6"><defs><style>.cls-1{fill:#f7edf9;}</style></defs><g id="Capa_2" data-name="Capa 2"><g id="Capa_1-2" data-name="Capa 1"><path class="cls-1" d="M117.81,27.23a7.31,7.31,0,0,0-5.39-8.8L22.12.13a7.32,7.32,0,0,0-8.39,6L.16,73.09a7.31,7.31,0,0,0,5.39,8.8L43.2,89.52l-4.42,7.69-5.31-1.08a2.1,2.1,0,0,0-.84,4.12l6.8,1.38L57,105.18l6.8,1.38a2.1,2.1,0,1,0,.83-4.12l-5.31-1.08-1.08-8.8,37.65,7.63a7.32,7.32,0,0,0,8.39-6l13.57-66.95ZM17.85,7a3.13,3.13,0,0,1,3.44-2.72l90.29,18.3a3.14,3.14,0,0,1,2.11,3.85l-10,49.28L7.86,56.26Zm37.08,93.51-11.8-2.39,4.42-7.69,6.3,1.28Zm45.19-7.14a3.13,3.13,0,0,1-3.44,2.72l-40.5-8.21L46.9,86,6.39,77.76a3.11,3.11,0,0,1-2.1-3.84L7,60.38l95.83,19.43-2.74,13.53Z" transform="translate(0)"/><path class="cls-1" d="M52.09,84.2a5.92,5.92,0,1,0-4.63-7A5.91,5.91,0,0,0,52.09,84.2Zm1.51-7.48a1.71,1.71,0,1,1-2,1.34A1.71,1.71,0,0,1,53.6,76.72Z" transform="translate(0)"/><path class="cls-1" d="M20.53,24.34A2.1,2.1,0,0,0,18.05,26L12.94,51.2a2.1,2.1,0,0,0,4.12.84l5.11-25.22A2.1,2.1,0,0,0,20.53,24.34Z" transform="translate(0)"/><path class="cls-1" d="M23.71,8.67a2.11,2.11,0,0,0-2.48,1.64l-1.65,8.14a2.1,2.1,0,0,0,4.12.84l1.65-8.14A2.11,2.11,0,0,0,23.71,8.67Z" transform="translate(0)"/></g></g></svg>