<svg width="33" height="40" viewBox="0 0 33 40" fill="none" xmlns="http://www.w3.org/2000/svg">
<path d="M29.3399 7.15002C26.3299 2.79002 21.5499 0.280029 16.2299 0.280029C10.9099 0.280029 6.1399 2.78002 3.1199 7.15002C0.119904 11.49 -0.570081 16.99 1.25992 21.84C1.74992 23.17 2.52992 24.45 3.56992 25.66L15.1699 39.28C15.4299 39.59 15.8199 39.77 16.2199 39.77C16.6199 39.77 17.0099 39.59 17.2699 39.28L28.8699 25.66C29.9199 24.45 30.6999 23.16 31.1799 21.84C33.0299 16.99 32.3399 11.5 29.3399 7.15002ZM28.6099 20.89C28.2299 21.9 27.6199 22.91 26.7899 23.87C26.7899 23.87 26.7899 23.87 26.7799 23.88L16.2299 36.27L5.6799 23.87C4.8499 22.91 4.22989 21.9 3.85989 20.88C2.33989 16.86 2.9199 12.32 5.3999 8.72003C7.8899 5.11003 11.8399 3.04004 16.2399 3.04004C20.6299 3.04004 24.5799 5.11003 27.0799 8.72003C29.5499 12.32 30.1299 16.86 28.6099 20.89Z" fill="black"/>
<path d="M16.23 8.48004C11.97 8.48004 8.5 11.95 8.5 16.21C8.5 20.47 11.97 23.94 16.23 23.94C20.49 23.94 23.96 20.47 23.96 16.21C23.97 11.95 20.5 8.48004 16.23 8.48004ZM16.23 21.18C13.49 21.18 11.26 18.95 11.26 16.21C11.26 13.47 13.49 11.24 16.23 11.24C18.97 11.24 21.2 13.47 21.2 16.21C21.2 18.95 18.97 21.18 16.23 21.18Z" fill="black"/>
</svg>
