<?xml version="1.0" encoding="utf-8"?>
<!-- Generator: Adobe Illustrator 21.0.2, SVG Export Plug-In . SVG Version: 6.00 Build 0)  -->
<svg version="1.1" id="Capa_1" xmlns="http://www.w3.org/2000/svg" xmlns:xlink="http://www.w3.org/1999/xlink" x="0px" y="0px"
	 viewBox="0 0 800 800" style="enable-background:new 0 0 800 800;" xml:space="preserve">
<style type="text/css">	
	.st1{fill:#FFFFFF;}
	.st2{fill:#106BDD;}
</style>
<rect class="st0" width="800" height="800"/>
<g>
	
		<ellipse transform="matrix(0.1821 -0.9833 0.9833 0.1821 -83.7496 735.0764)" class="st1" cx="400" cy="417.9" rx="291.1" ry="291.1"/>
	<path class="st2" d="M366.7,418.5c0,17.4,5.8,31.1,17.4,41c11.6,9.5,23.8,14.3,36.7,14.3c13.3,0,25.5-3.7,36.7-11.2
		c11.6-7.9,20.9-11.8,28-11.8c12.4,0,27.6,11,45.4,32.9c9.5,12,14.3,22.8,14.3,32.3c0,15.7-11.4,30.5-34.2,44.1
		c-23.6,16.6-52.6,24.9-87,24.9c-38.5,0-75.6-13.9-111.3-41.6c-17-13.3-30.9-30.9-41.6-52.8c-10.8-22.4-16.2-46.8-16.2-73.3
		c0-26.9,5.4-51.2,16.2-72.7c10.8-22,24.7-39.6,41.6-52.8c34.4-27.3,71.1-41,110-41c15.7,0,31.1,2.3,46,6.8
		c14.9,4.1,25.9,8.3,32.9,12.4l9.9,6.2c7.5,5,13.3,8.9,17.4,11.8c10.8,8.3,16.2,17.8,16.2,28.6c0,10.4-4.4,22.2-13.1,35.4
		c-14.9,22.8-29.2,34.2-42.9,34.2c-7.9,0-19.1-4.6-33.6-13.7c-7.5-7-18.2-10.6-32.3-10.6c-13.7,0-26.5,5-38.5,14.9
		C372.8,386.8,366.7,400.7,366.7,418.5z"/>
</g>
</svg>
