<svg width="216" height="65" viewBox="0 0 216 65" fill="none" xmlns="http://www.w3.org/2000/svg">
<path d="M198.478 23.364C197.962 23.364 197.446 23.472 196.981 23.7421L182.687 32.3838C181.758 32.9239 181.19 34.0041 181.19 35.1384V52.3678C181.19 53.502 181.758 54.5282 182.687 55.1224L186.402 57.3908C188.208 58.309 188.879 58.309 189.705 58.309C192.388 58.309 193.937 56.5807 193.937 53.6641V36.5967C193.937 36.3806 193.73 36.1646 193.524 36.1646H191.769C191.563 36.1646 191.356 36.3266 191.356 36.5967V53.6101C191.356 54.9063 190.066 56.2566 187.95 55.1224L184.08 52.7459C183.925 52.6919 183.822 52.5298 183.822 52.3678V35.1384C183.822 34.9763 183.925 34.8143 184.08 34.7063L198.323 26.1186C198.478 26.0646 198.633 26.0646 198.736 26.1186L212.927 34.7063C213.082 34.8143 213.185 34.9763 213.185 35.1384V52.3678C213.185 52.5298 213.082 52.6919 212.979 52.7999L198.684 61.3876C198.581 61.4416 198.375 61.4416 198.271 61.3876L194.607 59.1192C194.504 59.0651 194.349 59.0651 194.246 59.1192C193.214 59.7133 193.059 59.7673 192.079 60.1454C191.821 60.2534 191.511 60.3614 192.182 60.7935L196.981 63.7641C197.446 64.0341 197.962 64.1962 198.478 64.1962C198.994 64.1962 199.51 64.0341 199.974 63.7641L214.269 55.1764C215.198 54.6363 215.766 53.556 215.766 52.4218V35.1384C215.766 34.0041 215.198 32.9779 214.269 32.3838L199.974 23.7421C199.51 23.526 198.994 23.364 198.478 23.364Z" fill="#A9A9A9"/>
<path d="M202.297 35.6785C198.22 35.6785 195.794 37.5148 195.794 40.4854C195.794 43.7801 198.22 44.6443 202.09 45.0763C206.735 45.5624 207.147 46.2646 207.147 47.2368C207.147 48.9111 205.857 49.6133 202.864 49.6133C199.097 49.6133 198.271 48.6411 197.962 46.6427C197.91 46.4266 197.755 46.2646 197.549 46.2646H195.691C195.485 46.2646 195.278 46.4806 195.278 46.6967C195.278 49.2352 196.568 52.2058 202.813 52.2058C207.354 52.2058 209.934 50.3694 209.934 47.0747C209.934 43.8341 207.818 42.9699 203.432 42.3758C198.994 41.7817 198.581 41.4576 198.581 40.3774C198.581 39.4592 198.942 38.271 202.245 38.271C205.186 38.271 206.27 38.9191 206.683 41.0255C206.735 41.2416 206.889 41.3496 207.096 41.3496H208.954C209.057 41.3496 209.16 41.2956 209.263 41.1876C209.366 41.0795 209.418 40.9715 209.366 40.8635C209.16 37.3528 206.889 35.6785 202.297 35.6785Z" fill="#A9A9A9"/>
<path d="M114.516 0.787354C114.361 0.787354 114.206 0.841364 114.051 0.895375C113.793 1.05741 113.587 1.38147 113.587 1.70554V26.0104C113.587 26.2264 113.484 26.4425 113.277 26.6045C113.071 26.7125 112.813 26.7125 112.658 26.6045L108.891 24.3361C108.323 24.012 107.652 24.012 107.085 24.3361L91.9644 33.4639C91.3967 33.7879 91.0355 34.4361 91.0355 35.1382V53.3939C91.0355 54.096 91.3967 54.6901 91.9644 55.0682L107.085 64.196C107.652 64.5201 108.323 64.5201 108.891 64.196L124.011 55.0682C124.579 54.7441 124.94 54.096 124.94 53.3939V7.80876C124.94 7.10662 124.579 6.45849 124.011 6.13442L114.98 0.841364C114.826 0.787354 114.671 0.787354 114.516 0.787354ZM17.1882 23.6339C16.8786 23.6339 16.6205 23.6879 16.3625 23.85L1.24213 32.9778C0.67447 33.3019 0.313232 33.95 0.313232 34.5981L0.364838 59.119C0.364838 59.4431 0.519654 59.7671 0.829286 59.9292C1.08731 60.0912 1.44855 60.0912 1.75818 59.9292L10.7375 54.5281C11.3052 54.15 11.6664 53.5559 11.6664 52.8538V41.4575C11.6664 40.7553 12.0276 40.1612 12.5953 39.7831L16.4141 37.4607C16.6721 37.2987 16.9818 37.1906 17.343 37.1906C17.6526 37.1906 17.9623 37.2987 18.2719 37.4607L22.0907 39.7831C22.6584 40.1072 23.0196 40.7553 23.0196 41.4575V52.9078C23.0196 53.6099 23.3808 54.204 23.9485 54.5821L32.9278 59.9832C33.1858 60.1452 33.5471 60.1452 33.8567 59.9832C34.1147 59.8212 34.3212 59.4971 34.3212 59.173L34.3728 34.6521C34.3728 33.95 34.0115 33.3559 33.4439 32.9778L18.1687 23.85C17.9107 23.6879 17.6526 23.6339 17.343 23.6339H17.1882ZM153.168 23.85C152.859 23.85 152.549 23.958 152.239 24.12L137.119 33.2478C136.551 33.5719 136.19 34.22 136.19 34.9222V53.1778C136.19 53.88 136.551 54.4741 137.119 54.8522L152.136 63.818C152.704 64.142 153.375 64.196 153.942 63.872L163.025 58.5789C163.335 58.4169 163.489 58.0928 163.489 57.7687C163.489 57.4447 163.335 57.1206 163.025 56.9586L147.801 47.8308C147.492 47.6687 147.337 47.2906 147.337 46.9666V41.1334C147.337 40.8094 147.543 40.4853 147.801 40.3233L152.549 37.4607C152.807 37.2987 153.168 37.2987 153.478 37.4607L158.226 40.3233C158.484 40.4853 158.69 40.8094 158.69 41.1334V45.6163C158.69 45.9404 158.845 46.2644 159.155 46.4265C159.413 46.5885 159.774 46.5885 160.083 46.4265L169.166 40.9174C169.734 40.5933 170.095 39.9452 170.095 39.243V34.8142C170.095 34.112 169.734 33.5179 169.166 33.1398L154.149 24.012C153.788 23.904 153.478 23.85 153.168 23.85ZM107.91 37.4607C108.014 37.4607 108.065 37.4607 108.168 37.5147L113.329 40.6473C113.484 40.7553 113.587 40.8634 113.587 41.0794V47.3447C113.587 47.5067 113.484 47.6687 113.329 47.7767L108.168 50.9094C108.014 51.0174 107.859 51.0174 107.704 50.9094L102.492 47.7767C102.337 47.6687 102.234 47.5607 102.234 47.3447V41.0794C102.234 40.9174 102.337 40.7553 102.492 40.6473L107.652 37.5147C107.756 37.5147 107.807 37.4607 107.91 37.4607Z" fill="#A9A9A9"/>
<path d="M62.6525 23.7419C62.3429 23.7419 62.0333 23.85 61.7236 24.012L46.6033 33.0858C46.0356 33.4099 45.6744 34.058 45.6744 34.7601V53.0158C45.6744 53.7179 46.0356 54.3121 46.6033 54.6901L61.7236 63.818C62.2913 64.142 62.9622 64.142 63.5298 63.818L78.6502 54.6901C79.2179 54.3661 79.5791 53.7179 79.5791 53.0158V34.7601C79.5791 34.058 79.2179 33.4099 78.6502 33.0858L63.5298 24.012C63.2718 23.796 62.9622 23.7419 62.6525 23.7419ZM153.117 40.0532C153.065 40.0532 153.014 40.0532 152.91 40.1072L150.02 41.8896C149.917 41.9436 149.866 42.0516 149.814 42.2136V45.7243C149.814 45.8324 149.866 45.9944 150.02 46.0484L152.91 47.7767C153.014 47.8308 153.117 47.8308 153.22 47.7767L156.11 46.0484C156.213 45.9944 156.265 45.8864 156.316 45.7243V42.2136C156.316 42.1056 156.265 41.9436 156.11 41.8896L153.22 40.1072C153.22 40.0532 153.168 40.0532 153.117 40.0532Z" fill="#A9A9A9"/>
</svg>
