<svg width="579" height="806" viewBox="0 0 579 806" fill="none" xmlns="http://www.w3.org/2000/svg">
<path d="M485.913 107.8L461.325 57.5C456.028 46.6 460.526 33.5 471.42 28.2L521.694 3.60002C532.588 -1.69998 545.681 2.80002 550.979 13.7L575.566 64C580.863 74.9 576.365 88 565.471 93.3L515.197 117.9C504.303 123.2 491.21 118.7 485.913 107.8Z" stroke="black" stroke-width="2" stroke-miterlimit="10"/>
<path d="M496.507 102.6L471.92 52.3C466.623 41.4 471.12 28.3 482.015 23L521.694 3.60002C532.588 -1.69998 545.681 2.80002 550.979 13.7L575.566 64C580.863 74.9 576.365 88 565.471 93.3L525.792 112.7C514.897 118 501.804 113.5 496.507 102.6Z" stroke="black" stroke-width="2" stroke-miterlimit="10"/>
<path d="M62.267 775.2C49.8735 747.3 36.6803 718.5 23.3873 686C15.1915 665 21.6881 639.3 39.079 634.3C60.7677 628 83.7558 624.9 110.742 625.2C132.93 625.9 162.115 642.8 170.411 656.5C183.604 678.5 195.598 695.8 205.792 709.7C212.389 718.2 197.397 731 177.407 742.5C152.92 755.6 130.731 770.6 108.643 785.7C90.6523 798.4 70.4628 793.6 62.267 775.2Z" stroke="black" stroke-width="2" stroke-miterlimit="10"/>
<path d="M43.8767 784.7C30.5836 755.8 16.8907 726.6 4.39722 693.8C-3.29877 672.7 4.79701 646.3 21.8881 639.9C48.8741 630 76.5597 624.7 110.742 625.2C132.93 625.9 162.115 642.8 170.411 656.5C183.604 678.5 195.598 695.8 205.792 709.7C212.389 718.2 197.397 731 177.407 742.5C146.323 759.1 118.838 778.9 90.9521 797.6C73.1614 810.1 52.772 803.7 43.8767 784.7Z" stroke="black" stroke-width="2" stroke-miterlimit="10"/>
<path d="M435.036 550.2C404.752 529 376.766 501.2 348.581 487C332.989 479.2 324.993 471.7 327.092 454.6C327.492 451.1 328.092 447.6 328.791 444C329.291 441.4 329.891 438.7 330.59 436V435.9C330.99 434.9 331.49 433.9 332.09 432.9C338.886 420.5 356.077 408.8 378.066 406.7C399.954 404.1 426.64 411.2 450.928 423.8C491.906 445.2 512.096 471 509.197 502.1C508.697 507.6 507.498 513.1 505.699 518.5C503.1 524.1 500.402 529.3 497.303 534.2C497.203 534.4 496.904 534.8 496.804 535C477.514 565.3 457.724 566.1 435.036 550.2Z" stroke="black" stroke-width="2" stroke-miterlimit="10"/>
<path d="M409.849 489.7C374.467 460.2 342.284 449 335.388 433.6C341.485 421.6 358.476 409.6 380.464 407.2C402.353 404.3 429.239 410.9 453.226 424.1C493.905 446.3 511.996 476.1 507.998 507.5C506.499 510 504.999 512.2 503.3 514.3C493.206 526.7 479.413 530.2 463.621 524.6C447.729 519.3 429.639 504.8 409.849 489.7Z" stroke="black" stroke-width="2" stroke-miterlimit="10"/>
</svg>
