<svg width="216" height="56" viewBox="0 0 216 56" fill="none" xmlns="http://www.w3.org/2000/svg">
<path d="M81.385 28.028C81.385 21.1199 79.4991 17.5745 75.7275 17.3552C74.2258 17.2821 72.759 17.538 71.3272 18.1228C70.1747 18.5614 69.4413 18.9635 69.0223 19.4021V35.923C71.432 37.4947 73.5622 38.2257 75.4481 38.116C79.4293 37.8602 81.385 34.4975 81.385 28.028ZM86.0297 28.3204C86.0297 31.8293 85.2265 34.7534 83.655 37.0561C81.8739 39.6877 79.4293 41.0401 76.3212 41.1132C73.9464 41.1863 71.5367 40.4187 69.0223 38.8105V53.8328L64.9712 52.3342V19C65.6348 18.1593 66.4729 17.4283 67.5206 16.807C69.9303 15.3449 72.8638 14.5774 76.2862 14.5408L76.3561 14.6139C79.4991 14.5774 81.9088 15.9297 83.62 18.671C85.2614 21.1565 86.0297 24.373 86.0297 28.3204ZM110.755 38.1891C110.755 42.9042 110.301 46.1572 109.393 47.9847C108.485 49.8123 106.774 51.2377 104.225 52.3342C102.164 53.1749 99.929 53.6501 97.5193 53.7232L96.8558 51.055C99.3004 50.726 101.012 50.3605 101.989 50.0316C103.945 49.3371 105.307 48.2771 106.041 46.8516C106.634 45.682 106.914 43.489 106.914 40.1994V39.1029C104.155 40.4187 101.256 41.0766 98.2178 41.0766C96.2272 41.0766 94.4811 40.4187 92.9444 39.1029C91.2332 37.6774 90.3951 35.8499 90.3951 33.6568V16.0028L94.4461 14.5408V32.2679C94.4461 34.1685 95.0398 35.6306 96.1923 36.654C97.3447 37.6774 98.8813 38.1526 100.732 38.116C102.583 38.0795 104.574 37.3119 106.669 35.8499V15.1622H110.72L110.755 38.1891ZM126.54 40.8939C126.086 40.9304 125.667 40.967 125.213 40.967C122.943 40.967 121.127 40.3822 119.87 39.2491C118.613 38.116 117.949 36.5443 117.949 34.4975V17.8304H115.19V15.1622H117.949V8.1079L122 6.60932V15.1987H126.54V17.8669H122V34.4244C122 35.9961 122.419 37.1292 123.223 37.7871C123.921 38.3353 125.039 38.6277 126.54 38.7008V40.8939ZM151.021 40.5649H146.97V24.2268C146.97 22.582 146.586 21.1199 145.853 19.9503C145.014 18.5979 143.827 17.94 142.29 17.94C140.44 17.94 138.135 18.9635 135.341 21.0103V40.6015H131.29V1.49222L135.341 0.176392V17.94C137.925 15.9663 140.754 14.9794 143.827 14.9794C145.957 14.9794 147.704 15.747 149.031 17.2456C150.358 18.7442 151.021 20.6082 151.021 22.8744V40.5649ZM172.499 27.3701C172.499 24.7019 172.01 22.5089 171.067 20.791C169.914 18.671 168.168 17.5745 165.759 17.4283C161.323 17.6842 159.123 21.0103 159.123 27.4067C159.123 30.3307 159.577 32.7796 160.52 34.7168C161.708 37.2023 163.489 38.445 165.863 38.4084C170.264 38.3719 172.499 34.6803 172.499 27.3701ZM176.934 27.4067C176.934 31.1714 176.026 34.3513 174.175 36.8368C172.15 39.6512 169.356 41.0766 165.759 41.0766C162.197 41.0766 159.438 39.6512 157.447 36.8368C155.631 34.3148 154.723 31.1714 154.723 27.4067C154.723 23.8612 155.701 20.8641 157.657 18.4152C159.717 15.8201 162.441 14.5408 165.794 14.5408C169.146 14.5408 171.87 15.8201 174 18.4152C175.956 20.8641 176.934 23.8612 176.934 27.4067ZM200.123 40.5649H196.072V23.2764C196.072 21.3758 195.513 19.9138 194.43 18.8538C193.348 17.7938 191.881 17.2821 190.065 17.3187C188.144 17.3552 186.328 18.0131 184.582 19.2924V40.5649H180.531V18.7807C182.871 17.0263 185.001 15.8566 186.957 15.3084C188.808 14.7967 190.414 14.5408 191.846 14.5408C192.789 14.5408 193.697 14.6505 194.57 14.8332C196.142 15.2353 197.434 15.9297 198.446 16.9897C199.564 18.1593 200.123 19.5483 200.123 21.1565V40.5649Z" fill="#A9A9A9"/>
<path d="M25.0893 1.67488C22.9939 1.67488 21.0383 1.85763 19.2921 2.18659C14.1235 3.13691 13.1806 5.1472 13.1806 8.80227V13.6635H25.3338V15.2717H8.60572C5.07851 15.2717 1.97037 17.5013 0.992531 21.7412C-0.125001 26.6025 -0.159924 29.6362 0.992531 34.6802C1.8656 38.4449 3.92605 41.1496 7.45326 41.1496H11.644V35.3015C11.644 31.0982 15.1363 27.4066 19.2572 27.4066H31.4104C34.7979 27.4066 37.4869 24.4825 37.4869 20.9371V8.80227C37.4869 5.3665 34.6931 2.7714 31.4104 2.18659C29.315 1.82108 27.1498 1.63833 25.0893 1.67488ZM18.4889 5.5858C19.7461 5.5858 20.7589 6.68233 20.7589 8.0347C20.7589 9.38708 19.7461 10.447 18.4889 10.447C17.2317 10.447 16.2189 9.35053 16.2189 8.0347C16.2189 6.64578 17.2317 5.5858 18.4889 5.5858Z" fill="#A9A9A9"/>
<path d="M39.0236 15.2719V20.9372C39.0236 25.3233 35.4615 29.0149 31.4104 29.0149H19.2573C15.9396 29.0149 13.1807 32.0121 13.1807 35.4844V47.6192C13.1807 51.055 16.0444 53.1018 19.2573 54.0887C23.0988 55.2583 26.8006 55.4776 31.4104 54.0887C34.4836 53.1749 37.487 51.2743 37.487 47.6192V42.758H25.3338V41.1497H43.5636C47.0908 41.1497 48.4179 38.5546 49.6402 34.6803C50.8974 30.6962 50.8625 26.8584 49.6402 21.7413C48.7671 18.0497 47.0908 15.2719 43.5636 15.2719H39.0236ZM32.1787 45.9744C33.4359 45.9744 34.4487 47.071 34.4487 48.3868C34.4487 49.7392 33.4359 50.8357 32.1787 50.8357C30.9215 50.8357 29.9087 49.7392 29.9087 48.3868C29.9087 47.071 30.9215 45.9744 32.1787 45.9744Z" fill="#A9A9A9"/>
<path d="M207.98 11.3976H208.679V6.75566H210.355V6.2074H206.304V6.75566H207.98V11.3976ZM210.984 11.3976H211.578V7.15772L212.905 11.3976H213.568L214.93 7.15772V11.3976H215.594V6.2074H214.721L213.219 10.6666L211.927 6.2074H210.949L210.984 11.3976Z" fill="#A9A9A9"/>
</svg>
