<svg width="103" height="96" viewBox="0 0 103 96" fill="none" xmlns="http://www.w3.org/2000/svg">
<path d="M102.87 47.6267C102.87 40.5477 94.3835 33.8457 81.3962 29.6737C84.4052 15.8119 83.0678 4.77634 77.1786 1.25034C75.8413 0.415947 74.2468 0.0391231 72.5238 0.0391231V0.012207C66.7888 0.012207 59.3051 4.29186 51.7185 11.6938C44.1833 4.31877 36.6738 0.0929551 30.9646 0.0929551V0.119871C29.2158 0.119871 27.6214 0.523612 26.2583 1.33109C20.3948 4.85709 19.0832 15.8657 22.1179 29.6737C9.15634 33.8726 0.721069 40.5747 0.721069 47.6267C0.721069 54.7056 9.20778 61.4077 22.195 65.5797C19.1861 79.4414 20.5234 90.477 26.4126 94.003C27.7757 94.8374 29.3444 95.2142 31.0932 95.2142C36.8282 95.2142 44.3119 90.9346 51.8985 83.5326C59.4851 90.9076 66.9688 95.1335 72.7038 95.1335C74.4526 95.1335 76.047 94.7297 77.41 93.9222C83.2736 90.3962 84.5852 79.3876 81.5505 65.5797C94.4349 61.4077 102.87 54.6787 102.87 47.6267ZM72.5238 4.88401C73.4753 4.91092 74.2468 5.09934 74.8897 5.47616C77.7186 7.17187 78.9531 13.6586 78.0015 21.9757C77.7701 24.0213 77.41 26.1746 76.9471 28.3817C72.8581 27.332 68.409 26.5245 63.7284 26.0131C60.9253 21.9757 57.9935 18.3151 55.0617 15.1121C61.8511 8.49076 68.2033 4.88401 72.5238 4.88401ZM61.2081 64.6376C58.0964 64.9337 54.9588 65.0683 51.7956 65.0683C48.6581 65.0683 45.4949 64.9068 42.4345 64.6645C40.7115 62.0806 39.0141 59.3082 37.3939 56.3744C35.7995 53.5213 34.385 50.6143 33.0734 47.7074C34.3593 44.8005 35.8252 41.8666 37.3939 39.0135C39.0141 36.0797 40.6857 33.2804 42.4088 30.6965C45.5206 30.4004 48.6581 30.2658 51.8213 30.2658C54.9588 30.2658 58.1221 30.4273 61.1824 30.6696C62.9055 33.2535 64.6028 36.0259 66.223 38.9597C67.8175 41.8128 69.2319 44.7197 70.5435 47.6267C69.2319 50.5336 67.7918 53.4674 66.223 56.3205C64.6028 59.2544 62.9312 62.0267 61.2081 64.6376ZM33.3563 58.7968C34.3336 60.5464 35.3365 62.2421 36.3652 63.8839C33.4078 63.4264 30.5531 62.8611 27.8271 62.1613C28.5986 59.3621 29.5502 56.4551 30.6303 53.5482C31.479 55.2977 32.3791 57.0473 33.3563 58.7968ZM27.7499 33.092C30.476 32.4191 33.3563 31.827 36.3395 31.3694C35.3108 33.0382 34.3079 34.7608 33.3306 36.5373C32.3791 38.2868 31.479 40.0363 30.6303 41.759C29.4987 38.852 28.5472 35.9182 27.7499 33.092ZM70.2349 58.7161C71.1865 56.9665 72.0866 55.217 72.9352 53.4674C74.0668 56.3744 75.0183 59.3082 75.8156 62.1344C73.0895 62.8342 70.2092 63.4264 67.226 63.8839C68.2547 62.2152 69.2834 60.4925 70.2349 58.7161ZM70.2349 36.4834C69.2834 34.7339 68.2547 33.0382 67.226 31.3963C70.1835 31.8539 73.0381 32.4191 75.7641 33.1189C74.9926 35.9182 74.0411 38.8251 72.9609 41.7321C72.0866 39.9556 71.2122 38.2061 70.2349 36.4834ZM57.5306 25.5017C55.6532 25.4209 53.7501 25.3402 51.7956 25.3402C49.8411 25.3402 47.9123 25.394 46.0092 25.5017C47.8866 22.9447 49.8154 20.6299 51.7442 18.5304C53.673 20.6299 55.6018 22.9716 57.5306 25.5017ZM28.5472 5.55691C29.1644 5.15317 29.9874 4.99167 30.9389 4.99167V4.96476C35.2594 4.96476 41.6373 8.5715 48.4267 15.1121C45.5206 18.3151 42.5888 21.9488 39.8371 25.9862C35.1308 26.4976 30.6817 27.3051 26.5927 28.3817C26.104 26.2015 25.7697 24.1021 25.5125 22.0564C24.5353 13.7394 25.744 7.27954 28.5472 5.55691ZM23.3009 60.8694C21.2435 60.1965 19.289 59.4428 17.463 58.6353C10.0822 55.3516 5.32446 51.0181 5.32446 47.5998C5.32446 44.1814 10.0822 39.8479 17.463 36.5642C19.2632 35.7567 21.2178 35.03 23.2237 34.3571C24.4067 38.6367 25.9755 43.0779 27.9042 47.6267C26.0269 52.2024 24.4839 56.6166 23.3009 60.8694ZM31.0418 90.3962C30.1159 90.3693 29.3187 90.1809 28.7015 89.8041C25.8726 88.1084 24.6382 81.6216 25.5897 73.3046C25.8211 71.2589 26.1812 69.1057 26.6441 66.8985C30.7332 67.9483 35.1822 68.7557 39.8628 69.2672C42.666 73.3046 45.5977 76.9651 48.5295 80.1681C41.7402 86.7626 35.3623 90.3962 31.0418 90.3962ZM51.847 76.7229C49.9183 74.6234 47.9637 72.3087 46.0607 69.7516C47.938 69.8324 49.8411 69.9131 51.7956 69.9131C53.7501 69.9131 55.6789 69.8593 57.582 69.7516C55.6789 72.3087 53.7501 74.6234 51.847 76.7229ZM75.0441 89.6964C74.4268 90.1002 73.6039 90.2617 72.6523 90.2617C68.3318 90.2617 61.9539 86.6549 55.1646 80.1143C58.0706 76.9113 61.0024 73.2776 63.7542 69.2402C68.4604 68.7288 72.9095 67.9213 76.9986 66.8447C77.4872 69.0518 77.8472 71.1513 78.0787 73.1969C79.0559 81.5139 77.8472 87.9738 75.0441 89.6964ZM86.0768 58.6622C84.2766 59.4697 82.322 60.1965 80.3161 60.8694C79.1331 56.5897 77.5643 52.1486 75.6355 47.5998C77.5386 43.0779 79.0817 38.6367 80.2647 34.384C82.322 35.0569 84.2766 35.8105 86.1282 36.618C93.5091 39.9018 98.2668 44.2352 98.2668 47.6536C98.2153 51.045 93.4576 55.3785 86.0768 58.6622Z" fill="#A9A9A9"/>
<path d="M53.2956 57.4576C58.483 56.5764 62.0058 51.4609 61.1639 46.0317C60.322 40.6025 55.4343 36.9155 50.2469 37.7967C45.0595 38.6778 41.5367 43.7933 42.3786 49.2226C43.2205 54.6518 48.1082 58.3387 53.2956 57.4576Z" fill="#A9A9A9"/>
</svg>
