<svg width="41" height="45" viewBox="0 0 41 45" fill="none" xmlns="http://www.w3.org/2000/svg">
<path d="M30.4899 34.75C30.0099 34.75 29.6199 35.14 29.6199 35.62C29.6199 36.1 30.0099 36.49 30.4899 36.49C30.9699 36.49 31.3599 36.1 31.3599 35.62C31.3599 35.14 30.9699 34.75 30.4899 34.75Z" fill="black"/>
<path d="M32.6299 31.94L28.4999 30.56L27.02 27.59C28.36 26.23 29.2799 24.43 29.5999 22.55L29.78 21.44H31.3599C32.7999 21.44 33.9699 20.27 33.9699 18.83V13.35C33.9699 6.16 28.1199 0.309998 20.9299 0.309998C13.7199 0.309998 7.88995 6.14 7.88995 13.35V18.83C7.88995 19.96 8.61994 20.93 9.62994 21.29V22.31C9.62994 23.75 10.7999 24.92 12.2399 24.92H12.9999C13.3799 25.74 13.8599 26.5 14.4599 27.18C14.5799 27.32 14.7099 27.46 14.8399 27.59L13.3599 30.55L9.22995 31.93C4.42995 33.53 0.939941 38.59 0.939941 43.95C0.939941 44.43 1.32994 44.82 1.80994 44.82H40.0499C40.5299 44.82 40.9199 44.43 40.9199 43.95C40.9199 38.59 37.4299 33.54 32.6299 31.94ZM32.2199 18.84C32.2199 19.32 31.8299 19.71 31.3499 19.71H30.02C30.24 18 30.39 16.18 30.45 14.38C30.45 14.33 30.45 14.28 30.45 14.23H32.21V18.84H32.2199ZM10.4999 19.71C10.0199 19.71 9.62994 19.32 9.62994 18.84V14.23H11.39C11.39 14.32 11.3999 14.41 11.3999 14.5V14.51C11.4599 16.25 11.6099 18.03 11.8199 19.7L10.4999 19.71ZM12.2399 23.19C11.7599 23.19 11.3699 22.8 11.3699 22.32V21.45H12.0799L12.2599 22.56C12.2999 22.77 12.34 22.98 12.39 23.19H12.2399ZM11.3699 12.5H9.65994C10.0999 6.68 14.9599 2.07 20.9299 2.07C26.8699 2.07 31.7499 6.67 32.1899 12.5H30.4799C30.4199 7.7 26.51 3.81 21.7 3.81H20.14C15.34 3.81 11.4299 7.7 11.3699 12.5ZM20.15 5.55H21.71C25.6 5.55 28.7599 8.74 28.7499 12.63C28.7499 12.9 28.7499 13.14 28.7399 13.36V13.37L27.65 13.21C24.7 12.79 21.9099 11.39 19.7999 9.28C19.6399 9.12 19.4199 9.03 19.1899 9.03C16.8599 9.03 14.62 10.09 13.14 11.89C13.51 8.34 16.5 5.55 20.15 5.55ZM14.1899 23.19C13.7499 21.74 13.2599 17.48 13.1499 14.76L14.3199 13.2C15.3899 11.77 17.07 10.88 18.84 10.78C21.18 13.01 24.21 14.48 27.4 14.93L28.6799 15.11C28.5899 16.93 28.4199 18.75 28.1699 20.42C28.0899 20.96 28.0299 21.31 27.8699 22.27C27.4099 25.03 25.3499 27.53 22.6299 28.21C21.5099 28.49 20.33 28.49 19.21 28.21C17.51 27.79 15.96 26.61 14.95 24.93H16.7199C17.0799 25.94 18.0399 26.67 19.1799 26.67H20.9199C22.3599 26.67 23.53 25.5 23.53 24.06C23.53 22.62 22.3599 21.45 20.9199 21.45H19.1799C18.0199 21.45 17.0699 22.2 16.7199 23.19H14.1899ZM19.1199 29.97C19.7199 30.1 20.3199 30.16 20.9299 30.16C21.4099 30.16 21.8799 30.12 22.3499 30.04L20.8099 31.66L19.1199 29.97ZM19.6199 32.93L16.8599 35.85C16.0999 34.4 15.4499 32.89 14.9099 31.34L15.95 29.27L19.6199 32.93ZM25.7599 28.97L26.9399 31.33C26.3999 32.88 25.7499 34.39 24.9899 35.84L22.0399 32.89L25.7599 28.97ZM18.3199 24.06C18.3199 23.58 18.7099 23.19 19.1899 23.19H20.9299C21.4099 23.19 21.7999 23.58 21.7999 24.06C21.7999 24.54 21.4099 24.93 20.9299 24.93H19.1899C18.7099 24.93 18.3199 24.54 18.3199 24.06ZM2.70993 43.09C3.04993 38.78 5.91994 34.87 9.77994 33.59L13.4399 32.37C14.1099 34.22 14.9399 36.02 15.9099 37.74V37.75C16.6199 39 17.4199 40.22 18.2899 41.38L19.3599 43.1H2.70993V43.09ZM20.9299 42.32L19.7499 40.43C19.7399 40.41 19.72 40.39 19.71 40.37C19.01 39.43 18.3499 38.45 17.7499 37.44L20.8499 34.16L24.1199 37.43C23.5199 38.44 22.86 39.43 22.15 40.37C22.11 40.42 22.1699 40.33 20.9299 42.32ZM22.4899 43.09L23.5599 41.37C24.4299 40.21 25.24 38.97 25.96 37.71C25.96 37.7 25.9699 37.69 25.9699 37.69C26.9299 36 27.7499 34.21 28.4199 32.37L32.08 33.59C35.94 34.88 38.8 38.79 39.15 43.09H22.4899Z" fill="black"/>
<path d="M36.53 39.57C35.95 38.41 35.1 37.37 34.07 36.58C33.69 36.29 33.14 36.36 32.85 36.74C32.56 37.12 32.63 37.67 33.01 37.96C33.83 38.59 34.51 39.42 34.98 40.35C35.19 40.78 35.72 40.95 36.15 40.74C36.57 40.52 36.75 40 36.53 39.57Z" fill="black"/>
</svg>
