<svg width="1920" height="858" viewBox="0 0 1920 858" fill="none" xmlns="http://www.w3.org/2000/svg">
<mask id="mask0" mask-type="alpha" maskUnits="userSpaceOnUse" x="0" y="600" width="1921" height="300">
<rect y="600" width="1921" height="300" fill="#C4C4C4"/>
</mask>
<g mask="url(#mask0)">
<path d="M1921 600H0V1571.2H1921V600Z" fill="black"/>
<path d="M1921 885.3C1815.8 782.8 1688.3 685.2 1543.1 600H214.3C208.4 616.2 202.8 632.6 197.5 648.8C182.2 695.3 167.6 740.7 154.3 788.4C89.3 1014.9 138.6 1212.4 299.6 1378.3C366.3 1447.4 436.1 1511.8 508.9 1571.2H1921V885.3Z" fill="#B3D172"/>
<g style="mix-blend-mode:multiply">
<path d="M1921 885.2C1815.8 782.7 1688.4 685.2 1543.2 600H266.7C323.6 866.2 593.6 1180.9 988.2 1404.7C1113.4 1475.7 1240.1 1531.2 1362.9 1571.2H1921V885.2Z" fill="#B3D172"/>
</g>
<path d="M958.214 759.371C958.214 756.881 957.335 754.977 955.578 753.658C953.82 752.311 950.656 750.904 946.085 749.44C941.515 747.945 937.897 746.481 935.231 745.045C927.965 741.119 924.333 735.831 924.333 729.181C924.333 725.724 925.299 722.648 927.233 719.952C929.196 717.228 931.994 715.104 935.626 713.58C939.289 712.057 943.39 711.295 947.931 711.295C952.501 711.295 956.574 712.13 960.148 713.8C963.722 715.441 966.491 717.77 968.454 720.787C970.446 723.805 971.442 727.233 971.442 731.07H958.258C958.258 728.141 957.335 725.87 955.49 724.259C953.644 722.618 951.051 721.798 947.711 721.798C944.489 721.798 941.984 722.486 940.197 723.863C938.41 725.211 937.516 726.998 937.516 729.225C937.516 731.305 938.556 733.048 940.636 734.454C942.746 735.86 945.836 737.179 949.909 738.409C957.409 740.665 962.873 743.463 966.3 746.803C969.728 750.143 971.442 754.303 971.442 759.283C971.442 764.82 969.347 769.171 965.158 772.335C960.968 775.47 955.329 777.037 948.239 777.037C943.317 777.037 938.834 776.144 934.792 774.357C930.749 772.54 927.658 770.065 925.519 766.93C923.41 763.795 922.355 760.162 922.355 756.031H935.583C935.583 763.092 939.801 766.622 948.239 766.622C951.374 766.622 953.82 765.992 955.578 764.733C957.335 763.443 958.214 761.656 958.214 759.371ZM977.594 751.944C977.594 747.228 978.502 743.024 980.319 739.332C982.135 735.641 984.743 732.784 988.141 730.763C991.569 728.741 995.539 727.731 1000.05 727.731C1006.47 727.731 1011.7 729.693 1015.74 733.619C1019.81 737.545 1022.08 742.877 1022.55 749.615L1022.64 752.867C1022.64 760.162 1020.6 766.022 1016.53 770.445C1012.46 774.84 1006.99 777.037 1000.14 777.037C993.283 777.037 987.804 774.84 983.703 770.445C979.63 766.051 977.594 760.074 977.594 752.516V751.944ZM990.294 752.867C990.294 757.379 991.144 760.836 992.843 763.238C994.542 765.611 996.974 766.798 1000.14 766.798C1003.21 766.798 1005.62 765.626 1007.35 763.282C1009.07 760.909 1009.94 757.13 1009.94 751.944C1009.94 747.521 1009.07 744.093 1007.35 741.661C1005.62 739.23 1003.19 738.014 1000.05 738.014C996.945 738.014 994.542 739.23 992.843 741.661C991.144 744.064 990.294 747.799 990.294 752.867ZM1033.93 776.158V737.926H1026.86V728.609H1033.93V724.567C1033.93 719.234 1035.46 715.104 1038.5 712.174C1041.58 709.215 1045.87 707.735 1051.38 707.735C1053.14 707.735 1055.29 708.028 1057.84 708.614L1057.71 718.458C1056.65 718.194 1055.36 718.063 1053.84 718.063C1049.06 718.063 1046.68 720.304 1046.68 724.786V728.609H1056.12V737.926H1046.68V776.158H1033.93ZM1077.92 716.92V728.609H1086.05V737.926H1077.92V761.656C1077.92 763.414 1078.26 764.674 1078.93 765.436C1079.61 766.197 1080.9 766.578 1082.8 766.578C1084.21 766.578 1085.45 766.476 1086.53 766.271V775.895C1084.04 776.656 1081.48 777.037 1078.84 777.037C1069.94 777.037 1065.4 772.54 1065.22 763.546V737.926H1058.28V728.609H1065.22V716.92H1077.92ZM1134.48 758.888L1140.72 728.609H1152.98L1140.85 776.158H1130.22L1121.21 746.232L1112.2 776.158H1101.61L1089.48 728.609H1101.74L1107.94 758.844L1116.64 728.609H1125.82L1134.48 758.888ZM1186.86 776.158C1186.28 775.016 1185.85 773.595 1185.59 771.896C1182.51 775.323 1178.51 777.037 1173.59 777.037C1168.93 777.037 1165.06 775.69 1161.99 772.994C1158.94 770.299 1157.42 766.901 1157.42 762.799C1157.42 757.76 1159.28 753.893 1163 751.197C1166.75 748.502 1172.15 747.14 1179.22 747.11H1185.06V744.386C1185.06 742.189 1184.49 740.431 1183.35 739.112C1182.23 737.794 1180.46 737.135 1178.03 737.135C1175.89 737.135 1174.21 737.648 1172.98 738.673C1171.77 739.698 1171.17 741.105 1171.17 742.892H1158.47C1158.47 740.138 1159.32 737.589 1161.02 735.245C1162.72 732.901 1165.12 731.07 1168.23 729.752C1171.33 728.404 1174.82 727.731 1178.69 727.731C1184.55 727.731 1189.19 729.21 1192.62 732.169C1196.08 735.099 1197.8 739.23 1197.8 744.562V765.172C1197.83 769.684 1198.46 773.097 1199.69 775.411V776.158H1186.86ZM1176.36 767.325C1178.23 767.325 1179.96 766.915 1181.54 766.095C1183.13 765.245 1184.3 764.117 1185.06 762.711V754.537H1180.31C1173.96 754.537 1170.57 756.734 1170.16 761.129L1170.12 761.876C1170.12 763.458 1170.68 764.762 1171.79 765.787C1172.9 766.813 1174.43 767.325 1176.36 767.325ZM1234.28 740.519C1232.55 740.284 1231.03 740.167 1229.71 740.167C1224.9 740.167 1221.75 741.793 1220.26 745.045V776.158H1207.56V728.609H1219.56L1219.91 734.278C1222.46 729.913 1225.99 727.731 1230.5 727.731C1231.91 727.731 1233.22 727.921 1234.45 728.302L1234.28 740.519ZM1261.44 777.037C1254.46 777.037 1248.78 774.899 1244.39 770.621C1240.02 766.344 1237.84 760.646 1237.84 753.526V752.296C1237.84 747.521 1238.76 743.258 1240.61 739.508C1242.45 735.729 1245.06 732.828 1248.43 730.807C1251.83 728.756 1255.69 727.731 1260.03 727.731C1266.53 727.731 1271.65 729.781 1275.37 733.883C1279.12 737.984 1280.99 743.8 1280.99 751.329V756.515H1250.71C1251.12 759.62 1252.35 762.11 1254.41 763.985C1256.49 765.86 1259.11 766.798 1262.27 766.798C1267.16 766.798 1270.99 765.026 1273.74 761.481L1279.98 768.468C1278.08 771.163 1275.5 773.273 1272.25 774.796C1269 776.29 1265.39 777.037 1261.44 777.037ZM1259.99 738.014C1257.47 738.014 1255.42 738.863 1253.83 740.563C1252.28 742.262 1251.29 744.693 1250.85 747.858H1268.51V746.847C1268.45 744.034 1267.69 741.866 1266.23 740.343C1264.76 738.79 1262.68 738.014 1259.99 738.014ZM1338.21 776.158C1337.62 775.016 1337.2 773.595 1336.94 771.896C1333.86 775.323 1329.86 777.037 1324.94 777.037C1320.28 777.037 1316.41 775.69 1313.34 772.994C1310.29 770.299 1308.77 766.901 1308.77 762.799C1308.77 757.76 1310.63 753.893 1314.35 751.197C1318.1 748.502 1323.5 747.14 1330.56 747.11H1336.41V744.386C1336.41 742.189 1335.84 740.431 1334.69 739.112C1333.58 737.794 1331.81 737.135 1329.38 737.135C1327.24 737.135 1325.55 737.648 1324.32 738.673C1323.12 739.698 1322.52 741.105 1322.52 742.892H1309.82C1309.82 740.138 1310.67 737.589 1312.37 735.245C1314.07 732.901 1316.47 731.07 1319.58 729.752C1322.68 728.404 1326.17 727.731 1330.04 727.731C1335.9 727.731 1340.54 729.21 1343.97 732.169C1347.42 735.099 1349.15 739.23 1349.15 744.562V765.172C1349.18 769.684 1349.81 773.097 1351.04 775.411V776.158H1338.21ZM1327.71 767.325C1329.58 767.325 1331.31 766.915 1332.89 766.095C1334.47 765.245 1335.65 764.117 1336.41 762.711V754.537H1331.66C1325.3 754.537 1321.92 756.734 1321.51 761.129L1321.47 761.876C1321.47 763.458 1322.02 764.762 1323.14 765.787C1324.25 766.813 1325.77 767.325 1327.71 767.325ZM1394.72 776.158H1381.98V708.658H1394.72V776.158ZM1432.78 776.158C1432.19 775.016 1431.77 773.595 1431.51 771.896C1428.43 775.323 1424.43 777.037 1419.51 777.037C1414.85 777.037 1410.98 775.69 1407.91 772.994C1404.86 770.299 1403.34 766.901 1403.34 762.799C1403.34 757.76 1405.2 753.893 1408.92 751.197C1412.67 748.502 1418.07 747.14 1425.13 747.11H1430.98V744.386C1430.98 742.189 1430.41 740.431 1429.26 739.112C1428.15 737.794 1426.38 737.135 1423.95 737.135C1421.81 737.135 1420.12 737.648 1418.89 738.673C1417.69 739.698 1417.09 741.105 1417.09 742.892H1404.39C1404.39 740.138 1405.24 737.589 1406.94 735.245C1408.64 732.901 1411.04 731.07 1414.15 729.752C1417.25 728.404 1420.74 727.731 1424.61 727.731C1430.47 727.731 1435.11 729.21 1438.54 732.169C1441.99 735.099 1443.72 739.23 1443.72 744.562V765.172C1443.75 769.684 1444.38 773.097 1445.61 775.411V776.158H1432.78ZM1422.28 767.325C1424.15 767.325 1425.88 766.915 1427.46 766.095C1429.04 765.245 1430.22 764.117 1430.98 762.711V754.537H1426.23C1419.87 754.537 1416.49 756.734 1416.08 761.129L1416.04 761.876C1416.04 763.458 1416.59 764.762 1417.71 765.787C1418.82 766.813 1420.34 767.325 1422.28 767.325ZM1487.8 728.609L1488.19 733.927C1491.56 729.796 1496.12 727.731 1501.86 727.731C1507.98 727.731 1512.19 730.148 1514.47 734.982C1517.81 730.148 1522.57 727.731 1528.76 727.731C1533.91 727.731 1537.75 729.239 1540.27 732.257C1542.79 735.245 1544.05 739.757 1544.05 745.792V776.158H1531.31V745.836C1531.31 743.141 1530.78 741.178 1529.72 739.947C1528.67 738.688 1526.81 738.058 1524.14 738.058C1520.33 738.058 1517.7 739.874 1516.23 743.507L1516.28 776.158H1503.58V745.88C1503.58 743.126 1503.03 741.134 1501.95 739.903C1500.87 738.673 1499.02 738.058 1496.41 738.058C1492.81 738.058 1490.2 739.552 1488.59 742.54V776.158H1475.89V728.609H1487.8ZM1575.73 777.037C1568.76 777.037 1563.08 774.899 1558.68 770.621C1554.32 766.344 1552.14 760.646 1552.14 753.526V752.296C1552.14 747.521 1553.06 743.258 1554.9 739.508C1556.75 735.729 1559.36 732.828 1562.73 730.807C1566.12 728.756 1569.99 727.731 1574.33 727.731C1580.83 727.731 1585.94 729.781 1589.66 733.883C1593.41 737.984 1595.29 743.8 1595.29 751.329V756.515H1565.01C1565.42 759.62 1566.65 762.11 1568.7 763.985C1570.78 765.86 1573.4 766.798 1576.57 766.798C1581.46 766.798 1585.28 765.026 1588.04 761.481L1594.28 768.468C1592.37 771.163 1589.8 773.273 1586.54 774.796C1583.29 776.29 1579.69 777.037 1575.73 777.037ZM1574.28 738.014C1571.76 738.014 1569.71 738.863 1568.13 740.563C1566.58 742.262 1565.58 744.693 1565.14 747.858H1582.81V746.847C1582.75 744.034 1581.99 741.866 1580.52 740.343C1579.06 738.79 1576.98 738.014 1574.28 738.014ZM1600.56 752.032C1600.56 744.62 1602.22 738.717 1605.53 734.322C1608.87 729.928 1613.42 727.731 1619.2 727.731C1623.82 727.731 1627.65 729.459 1630.67 732.916V708.658H1643.41V776.158H1631.94L1631.32 771.105C1628.16 775.06 1624.09 777.037 1619.11 777.037C1613.51 777.037 1609.02 774.84 1605.62 770.445C1602.25 766.022 1600.56 759.884 1600.56 752.032ZM1613.26 752.955C1613.26 757.408 1614.04 760.821 1615.59 763.194C1617.15 765.568 1619.4 766.754 1622.36 766.754C1626.29 766.754 1629.05 765.099 1630.67 761.788V743.024C1629.08 739.713 1626.34 738.058 1622.45 738.058C1616.32 738.058 1613.26 743.024 1613.26 752.955ZM1666.66 776.158H1653.91V728.609H1666.66V776.158ZM1653.17 716.305C1653.17 714.401 1653.8 712.833 1655.06 711.603C1656.34 710.372 1658.09 709.757 1660.28 709.757C1662.45 709.757 1664.18 710.372 1665.47 711.603C1666.76 712.833 1667.4 714.401 1667.4 716.305C1667.4 718.238 1666.74 719.82 1665.43 721.051C1664.14 722.281 1662.42 722.897 1660.28 722.897C1658.15 722.897 1656.42 722.281 1655.1 721.051C1653.81 719.82 1653.17 718.238 1653.17 716.305ZM1675.18 752.032C1675.18 744.62 1676.84 738.717 1680.15 734.322C1683.49 729.928 1688.04 727.731 1693.81 727.731C1698.44 727.731 1702.27 729.459 1705.28 732.916V708.658H1718.03V776.158H1706.56L1705.94 771.105C1702.78 775.06 1698.71 777.037 1693.73 777.037C1688.13 777.037 1683.63 774.84 1680.24 770.445C1676.87 766.022 1675.18 759.884 1675.18 752.032ZM1687.88 752.955C1687.88 757.408 1688.66 760.821 1690.21 763.194C1691.76 765.568 1694.02 766.754 1696.98 766.754C1700.9 766.754 1703.67 765.099 1705.28 761.788V743.024C1703.7 739.713 1700.96 738.058 1697.07 738.058C1690.94 738.058 1687.88 743.024 1687.88 752.955ZM1755.43 776.158C1754.84 775.016 1754.42 773.595 1754.15 771.896C1751.08 775.323 1747.08 777.037 1742.15 777.037C1737.5 777.037 1733.63 775.69 1730.55 772.994C1727.51 770.299 1725.98 766.901 1725.98 762.799C1725.98 757.76 1727.84 753.893 1731.56 751.197C1735.31 748.502 1740.72 747.14 1747.78 747.11H1753.62V744.386C1753.62 742.189 1753.05 740.431 1751.91 739.112C1750.8 737.794 1749.02 737.135 1746.59 737.135C1744.45 737.135 1742.77 737.648 1741.54 738.673C1740.34 739.698 1739.74 741.105 1739.74 742.892H1727.04C1727.04 740.138 1727.89 737.589 1729.59 735.245C1731.29 732.901 1733.69 731.07 1736.79 729.752C1739.9 728.404 1743.39 727.731 1747.25 727.731C1753.11 727.731 1757.76 729.21 1761.18 732.169C1764.64 735.099 1766.37 739.23 1766.37 744.562V765.172C1766.4 769.684 1767.03 773.097 1768.26 775.411V776.158H1755.43ZM1744.92 767.325C1746.8 767.325 1748.53 766.915 1750.11 766.095C1751.69 765.245 1752.86 764.117 1753.62 762.711V754.537H1748.88C1742.52 754.537 1739.14 756.734 1738.73 761.129L1738.68 761.876C1738.68 763.458 1739.24 764.762 1740.35 765.787C1741.47 766.813 1742.99 767.325 1744.92 767.325Z" fill="white"/>
<path d="M804 758H882.7L854.1 735.6" stroke="white" stroke-width="3.601" stroke-miterlimit="10"/>
<g style="mix-blend-mode:screen">
<path d="M966.1 1431.6C740.5 1303.6 546.9 1144.6 406.3 971.7C302.8 844.5 234.4 718.1 204.5 600H202.6C212.8 640 227.4 681.2 246.5 723.2C283.8 805.6 337 889.6 404.8 972.9C473.4 1057.2 555.3 1139 648.4 1215.9C744.6 1295.5 851.2 1368.6 965.2 1433.3C1059.9 1487 1156.7 1533.2 1254.1 1571.2H1260C1162.2 1533.4 1063.5 1486.8 966.1 1431.6Z" fill="#B3D172"/>
<path d="M1921 845.9V843.3C1896.2 820.5 1870.5 798 1843.9 776C1767.7 712.9 1685.1 653.9 1597.4 600H1593.6C1714.3 674 1824.6 756.9 1921 845.9Z" fill="#B3D172"/>
</g>
<g style="mix-blend-mode:screen">
<path d="M977.9 1475.7C738.9 1340.1 533.8 1171.6 384.8 988.4C276.8 855.6 204.8 723.6 172.4 600H170.4C181.1 640.7 196.2 682.5 215.5 725.2C255 812.5 311.4 901.5 383.2 989.8C455.9 1079.1 542.7 1165.7 641.3 1247.3C743.2 1331.5 856.1 1409 976.9 1477.5C1037.1 1511.6 1098.1 1542.9 1159.6 1571.2H1164.9C1102.5 1542.7 1039.9 1510.8 977.9 1475.7Z" fill="#B3D172"/>
<path d="M1921 794.6V792C1916.7 788.3 1912.3 784.7 1907.9 781.1C1829.8 716.3 1745.2 655.7 1655.5 600H1651.5C1748.3 659.9 1838.7 725.2 1921 794.6Z" fill="#B3D172"/>
</g>
<g style="mix-blend-mode:screen">
<path d="M973 1503C722.3 1360.8 507.3 1184.2 351.1 992.2C242.2 858.3 168.2 725.2 132.5 600H130.4C141.3 637.9 155.6 676.7 173.5 716.1C214.8 807.7 274 901 349.3 993.6C425.5 1087.3 516.5 1178.1 619.9 1263.6C726.8 1351.9 845.2 1433.1 971.9 1505C1013.1 1528.4 1054.7 1550.5 1096.6 1571.2H1101.8C1058.7 1550 1015.7 1527.3 973 1503Z" fill="#B3D172"/>
<path d="M1707.5 600H1703.4C1780.2 648.7 1853 700.7 1921.1 755.4V752.7C1853.9 698.8 1782.4 647.7 1707.5 600Z" fill="#B3D172"/>
</g>
</g>
<mask id="mask1" mask-type="alpha" maskUnits="userSpaceOnUse" x="0" y="300" width="1920" height="300">
<rect y="300" width="1920" height="300" fill="#C4C4C4"/>
</mask>
<g mask="url(#mask1)">
<path d="M1920 300H-1V1271.2H1920V300Z" fill="black"/>
<path d="M1920 998V300H520.5C332.1 402.1 184.5 519.6 166.7 620.7C132.1 746.6 238.7 863.4 363.6 1004.2C453.2 1097.2 536.1 1188 644.3 1262.5C648.4 1265.4 652.5 1268.3 656.6 1271.1H1842.7C1870.9 1191 1892.2 1100.6 1920 998Z" fill="#84428C"/>
<g style="mix-blend-mode:screen">
<path d="M1920 472C1888.5 418.7 1840.3 374.2 1782.9 337.1C1762.4 323.8 1740.7 311.5 1718.2 300H733.6C516.8 383.7 303.4 499.8 213.9 605.9C134.2 746 237.2 863.9 362.8 1004.5C454.3 1096.9 534.7 1188.5 642.1 1263.3C645.8 1266 649.5 1268.6 653.2 1271.2H1814C1841 1176 1862.5 1070.3 1898.5 950.8C1905.5 923.3 1912.9 895.9 1920 868.6V472Z" fill="#84428C"/>
</g>
<path d="M489.666 454.96V477.504H476.482V413.519H501.443C506.248 413.519 510.466 414.398 514.099 416.156C517.761 417.914 520.574 420.419 522.537 423.671C524.5 426.893 525.481 430.57 525.481 434.701C525.481 440.97 523.328 445.922 519.021 449.554C514.744 453.158 508.811 454.96 501.223 454.96H489.666ZM489.666 444.281H501.443C504.929 444.281 507.581 443.461 509.397 441.82C511.243 440.179 512.166 437.836 512.166 434.789C512.166 431.654 511.243 429.12 509.397 427.186C507.551 425.253 505.002 424.256 501.75 424.198H489.666V444.281Z" fill="white"/>
<path d="M560.081 477.504C559.495 476.361 559.07 474.94 558.806 473.241C555.73 476.669 551.731 478.382 546.809 478.382C542.151 478.382 538.284 477.035 535.208 474.339C532.161 471.644 530.637 468.246 530.637 464.144C530.637 459.105 532.498 455.238 536.218 452.543C539.968 449.847 545.374 448.485 552.434 448.456H558.279V445.731C558.279 443.534 557.708 441.776 556.565 440.458C555.452 439.139 553.679 438.48 551.248 438.48C549.109 438.48 547.424 438.993 546.194 440.018C544.993 441.044 544.392 442.45 544.392 444.237H531.692C531.692 441.483 532.542 438.934 534.241 436.59C535.94 434.247 538.342 432.416 541.448 431.097C544.553 429.75 548.04 429.076 551.907 429.076C557.766 429.076 562.41 430.555 565.837 433.514C569.294 436.444 571.023 440.575 571.023 445.907V466.517C571.052 471.029 571.682 474.442 572.913 476.756V477.504H560.081ZM549.578 468.671C551.453 468.671 553.181 468.26 554.763 467.44C556.345 466.59 557.517 465.463 558.279 464.056V455.882H553.533C547.175 455.882 543.792 458.08 543.381 462.474L543.337 463.221C543.337 464.803 543.894 466.107 545.007 467.132C546.121 468.158 547.644 468.671 549.578 468.671ZM554.412 410.004H568.254L556.082 423.627H545.754L554.412 410.004ZM578.933 453.378C578.933 446.083 580.662 440.209 584.119 435.755C587.605 431.302 592.292 429.076 598.181 429.076C603.396 429.076 607.454 430.863 610.354 434.437L610.881 429.955H622.395V475.922C622.395 480.082 621.443 483.7 619.539 486.776C617.664 489.852 615.012 492.196 611.584 493.807C608.157 495.419 604.143 496.224 599.543 496.224C596.057 496.224 592.659 495.521 589.348 494.115C586.038 492.738 583.533 490.951 581.833 488.754L587.458 481.019C590.623 484.564 594.46 486.337 598.972 486.337C602.341 486.337 604.963 485.428 606.838 483.612C608.713 481.825 609.651 479.276 609.651 475.965V473.417C606.721 476.727 602.869 478.382 598.093 478.382C592.38 478.382 587.751 476.156 584.207 471.703C580.691 467.22 578.933 461.288 578.933 453.905V453.378ZM591.633 454.3C591.633 458.607 592.498 461.991 594.226 464.452C595.955 466.883 598.328 468.099 601.345 468.099C605.212 468.099 607.981 466.649 609.651 463.749V443.754C607.952 440.853 605.212 439.403 601.433 439.403C598.386 439.403 595.984 440.648 594.226 443.138C592.498 445.629 591.633 449.349 591.633 454.3ZM645.598 477.504H632.854V429.955H645.598V477.504ZM632.107 417.65C632.107 415.746 632.737 414.178 633.997 412.948C635.286 411.717 637.029 411.102 639.226 411.102C641.394 411.102 643.123 411.717 644.412 412.948C645.701 414.178 646.345 415.746 646.345 417.65C646.345 419.584 645.686 421.166 644.368 422.396C643.079 423.627 641.365 424.242 639.226 424.242C637.087 424.242 635.359 423.627 634.041 422.396C632.751 421.166 632.107 419.584 632.107 417.65ZM667.791 429.955L668.186 435.448C671.584 431.2 676.14 429.076 681.853 429.076C686.892 429.076 690.642 430.555 693.103 433.514C695.564 436.473 696.824 440.897 696.882 446.786V477.504H684.182V447.093C684.182 444.398 683.596 442.45 682.424 441.249C681.252 440.018 679.304 439.403 676.58 439.403C673.005 439.403 670.325 440.926 668.538 443.973V477.504H655.837V429.955H667.791ZM734.104 477.504C733.518 476.361 733.093 474.94 732.83 473.241C729.753 476.669 725.754 478.382 720.833 478.382C716.174 478.382 712.307 477.035 709.231 474.339C706.184 471.644 704.661 468.246 704.661 464.144C704.661 459.105 706.521 455.238 710.242 452.543C713.992 449.847 719.397 448.485 726.458 448.456H732.302V445.731C732.302 443.534 731.731 441.776 730.588 440.458C729.475 439.139 727.703 438.48 725.271 438.48C723.132 438.48 721.448 438.993 720.217 440.018C719.016 441.044 718.416 442.45 718.416 444.237H705.715C705.715 441.483 706.565 438.934 708.264 436.59C709.963 434.247 712.366 432.416 715.471 431.097C718.577 429.75 722.063 429.076 725.93 429.076C731.79 429.076 736.433 430.555 739.861 433.514C743.318 436.444 745.046 440.575 745.046 445.907V466.517C745.076 471.029 745.706 474.442 746.936 476.756V477.504H734.104ZM723.601 468.671C725.476 468.671 727.205 468.26 728.787 467.44C730.369 466.59 731.541 465.463 732.302 464.056V455.882H727.556C721.199 455.882 717.815 458.08 717.405 462.474L717.361 463.221C717.361 464.803 717.917 466.107 719.031 467.132C720.144 468.158 721.667 468.671 723.601 468.671ZM780.554 464.364C780.554 462.811 779.778 461.595 778.225 460.716C776.702 459.808 774.241 459.003 770.842 458.299C759.534 455.926 753.879 451.122 753.879 443.885C753.879 439.667 755.623 436.151 759.109 433.339C762.625 430.497 767.209 429.076 772.864 429.076C778.899 429.076 783.718 430.497 787.322 433.339C790.955 436.18 792.771 439.872 792.771 444.413H780.071C780.071 442.596 779.485 441.102 778.313 439.93C777.141 438.729 775.31 438.129 772.82 438.129C770.681 438.129 769.026 438.612 767.854 439.579C766.682 440.546 766.096 441.776 766.096 443.27C766.096 444.676 766.755 445.819 768.074 446.698C769.421 447.547 771.677 448.295 774.841 448.939C778.005 449.554 780.671 450.257 782.839 451.048C789.548 453.509 792.903 457.772 792.903 463.837C792.903 468.172 791.042 471.688 787.322 474.383C783.601 477.049 778.796 478.382 772.908 478.382C768.923 478.382 765.378 477.679 762.273 476.273C759.197 474.838 756.78 472.889 755.022 470.428C753.264 467.938 752.385 465.257 752.385 462.386H764.426C764.543 464.642 765.378 466.371 766.931 467.572C768.484 468.773 770.564 469.374 773.171 469.374C775.603 469.374 777.434 468.92 778.665 468.011C779.924 467.074 780.554 465.858 780.554 464.364ZM864.885 460.233L871.125 429.955H883.386L871.257 477.504H860.623L851.614 447.577L842.605 477.504H832.014L819.885 429.955H832.146L838.342 460.189L847.043 429.955H856.228L864.885 460.233ZM911.599 478.382C904.626 478.382 898.943 476.244 894.548 471.966C890.183 467.689 888 461.991 888 454.872V453.641C888 448.866 888.923 444.603 890.769 440.853C892.615 437.074 895.222 434.173 898.591 432.152C901.99 430.101 905.857 429.076 910.193 429.076C916.697 429.076 921.809 431.127 925.53 435.228C929.28 439.33 931.155 445.145 931.155 452.674V457.86H900.876C901.287 460.965 902.517 463.456 904.568 465.331C906.648 467.206 909.27 468.143 912.434 468.143C917.327 468.143 921.15 466.371 923.904 462.826L930.144 469.813C928.24 472.508 925.662 474.618 922.41 476.141C919.158 477.635 915.554 478.382 911.599 478.382ZM910.149 439.359C907.629 439.359 905.579 440.209 903.997 441.908C902.444 443.607 901.448 446.039 901.008 449.203H918.674V448.192C918.616 445.38 917.854 443.212 916.389 441.688C914.924 440.135 912.844 439.359 910.149 439.359ZM981.252 454.169C981.252 461.786 979.626 467.733 976.375 472.01C973.123 476.258 968.582 478.382 962.751 478.382C957.595 478.382 953.479 476.405 950.403 472.45L949.832 477.504H938.406V410.004H951.106V434.217C954.036 430.79 957.888 429.076 962.664 429.076C968.464 429.076 973.005 431.214 976.287 435.492C979.597 439.74 981.252 445.731 981.252 453.465V454.169ZM968.552 453.246C968.552 448.441 967.791 444.94 966.267 442.743C964.744 440.516 962.473 439.403 959.456 439.403C955.413 439.403 952.629 441.058 951.106 444.369V463.133C952.659 466.473 955.471 468.143 959.543 468.143C963.645 468.143 966.34 466.122 967.629 462.079C968.245 460.145 968.552 457.201 968.552 453.246ZM1029.28 459.53L1038.07 429.955H1051.7L1032.58 484.886L1031.53 487.391C1028.68 493.602 1024 496.708 1017.46 496.708C1015.62 496.708 1013.74 496.429 1011.84 495.873V486.249L1013.77 486.293C1016.17 486.293 1017.96 485.926 1019.13 485.194C1020.33 484.462 1021.27 483.246 1021.95 481.547L1023.44 477.635L1006.78 429.955H1020.45L1029.28 459.53ZM1106.67 477.504C1106.09 476.361 1105.66 474.94 1105.4 473.241C1102.32 476.669 1098.32 478.382 1093.4 478.382C1088.74 478.382 1084.88 477.035 1081.8 474.339C1078.75 471.644 1077.23 468.246 1077.23 464.144C1077.23 459.105 1079.09 455.238 1082.81 452.543C1086.56 449.847 1091.97 448.485 1099.03 448.456H1104.87V445.731C1104.87 443.534 1104.3 441.776 1103.16 440.458C1102.04 439.139 1100.27 438.48 1097.84 438.48C1095.7 438.48 1094.02 438.993 1092.79 440.018C1091.58 441.044 1090.98 442.45 1090.98 444.237H1078.28C1078.28 441.483 1079.13 438.934 1080.83 436.59C1082.53 434.247 1084.93 432.416 1088.04 431.097C1091.15 429.75 1094.63 429.076 1098.5 429.076C1104.36 429.076 1109 430.555 1112.43 433.514C1115.89 436.444 1117.61 440.575 1117.61 445.907V466.517C1117.64 471.029 1118.27 474.442 1119.5 476.756V477.504H1106.67ZM1096.17 468.671C1098.04 468.671 1099.77 468.26 1101.35 467.44C1102.94 466.59 1104.11 465.463 1104.87 464.056V455.882H1100.12C1093.77 455.882 1090.38 458.08 1089.97 462.474L1089.93 463.221C1089.93 464.803 1090.49 466.107 1091.6 467.132C1092.71 468.158 1094.24 468.671 1096.17 468.671ZM1170.17 454.169C1170.17 461.493 1168.5 467.367 1165.16 471.791C1161.85 476.185 1157.37 478.382 1151.72 478.382C1146.91 478.382 1143.03 476.713 1140.07 473.373V495.785H1127.37V429.955H1139.15L1139.59 434.613C1142.66 430.922 1146.68 429.076 1151.63 429.076C1157.49 429.076 1162.04 431.244 1165.3 435.58C1168.55 439.916 1170.17 445.892 1170.17 453.509V454.169ZM1157.47 453.246C1157.47 448.822 1156.68 445.409 1155.1 443.006C1153.55 440.604 1151.28 439.403 1148.29 439.403C1144.3 439.403 1141.56 440.926 1140.07 443.973V463.441C1141.62 466.576 1144.39 468.143 1148.38 468.143C1154.44 468.143 1157.47 463.177 1157.47 453.246ZM1191.49 477.504H1178.74V410.004H1191.49V477.504ZM1215.39 477.504H1202.65V429.955H1215.39V477.504ZM1201.9 417.65C1201.9 415.746 1202.53 414.178 1203.79 412.948C1205.08 411.717 1206.82 411.102 1209.02 411.102C1211.19 411.102 1212.92 411.717 1214.21 412.948C1215.5 414.178 1216.14 415.746 1216.14 417.65C1216.14 419.584 1215.48 421.166 1214.16 422.396C1212.87 423.627 1211.16 424.242 1209.02 424.242C1206.88 424.242 1205.15 423.627 1203.84 422.396C1202.55 421.166 1201.9 419.584 1201.9 417.65ZM1245.67 468.143C1248.02 468.143 1249.92 467.499 1251.38 466.21C1252.85 464.921 1253.61 463.207 1253.67 461.068H1265.58C1265.55 464.291 1264.67 467.25 1262.94 469.945C1261.21 472.611 1258.84 474.691 1255.82 476.185C1252.83 477.65 1249.52 478.382 1245.89 478.382C1239.09 478.382 1233.73 476.229 1229.81 471.922C1225.88 467.587 1223.92 461.61 1223.92 453.993V453.158C1223.92 445.834 1225.87 439.989 1229.76 435.624C1233.66 431.258 1239.01 429.076 1245.8 429.076C1251.75 429.076 1256.51 430.775 1260.09 434.173C1263.69 437.543 1265.52 442.04 1265.58 447.665H1253.67C1253.61 445.204 1252.85 443.212 1251.38 441.688C1249.92 440.135 1247.99 439.359 1245.58 439.359C1242.62 439.359 1240.38 440.443 1238.86 442.611C1237.37 444.75 1236.62 448.236 1236.62 453.07V454.388C1236.62 459.281 1237.37 462.797 1238.86 464.935C1240.35 467.074 1242.62 468.143 1245.67 468.143ZM1300.38 477.504C1299.8 476.361 1299.37 474.94 1299.11 473.241C1296.03 476.669 1292.03 478.382 1287.11 478.382C1282.45 478.382 1278.59 477.035 1275.51 474.339C1272.46 471.644 1270.94 468.246 1270.94 464.144C1270.94 459.105 1272.8 455.238 1276.52 452.543C1280.27 449.847 1285.68 448.485 1292.74 448.456H1298.58V445.731C1298.58 443.534 1298.01 441.776 1296.87 440.458C1295.75 439.139 1293.98 438.48 1291.55 438.48C1289.41 438.48 1287.73 438.993 1286.5 440.018C1285.3 441.044 1284.69 442.45 1284.69 444.237H1271.99C1271.99 441.483 1272.84 438.934 1274.54 436.59C1276.24 434.247 1278.65 432.416 1281.75 431.097C1284.86 429.75 1288.34 429.076 1292.21 429.076C1298.07 429.076 1302.71 430.555 1306.14 433.514C1309.6 436.444 1311.33 440.575 1311.33 445.907V466.517C1311.35 471.029 1311.98 474.442 1313.22 476.756V477.504H1300.38ZM1289.88 468.671C1291.76 468.671 1293.48 468.26 1295.07 467.44C1296.65 466.59 1297.82 465.463 1298.58 464.056V455.882H1293.84C1287.48 455.882 1284.09 458.08 1283.68 462.474L1283.64 463.221C1283.64 464.803 1284.2 466.107 1285.31 467.132C1286.42 468.158 1287.95 468.671 1289.88 468.671ZM1340.86 468.143C1343.2 468.143 1345.1 467.499 1346.57 466.21C1348.03 464.921 1348.8 463.207 1348.85 461.068H1360.76C1360.73 464.291 1359.86 467.25 1358.13 469.945C1356.4 472.611 1354.03 474.691 1351.01 476.185C1348.02 477.65 1344.71 478.382 1341.08 478.382C1334.28 478.382 1328.92 476.229 1324.99 471.922C1321.07 467.587 1319.1 461.61 1319.1 453.993V453.158C1319.1 445.834 1321.05 439.989 1324.95 435.624C1328.85 431.258 1334.19 429.076 1340.99 429.076C1346.94 429.076 1351.7 430.775 1355.27 434.173C1358.87 437.543 1360.71 442.04 1360.76 447.665H1348.85C1348.8 445.204 1348.03 443.212 1346.57 441.688C1345.1 440.135 1343.17 439.359 1340.77 439.359C1337.81 439.359 1335.57 440.443 1334.05 442.611C1332.55 444.75 1331.8 448.236 1331.8 453.07V454.388C1331.8 459.281 1332.55 462.797 1334.05 464.935C1335.54 467.074 1337.81 468.143 1340.86 468.143ZM1381.42 477.504H1368.67V429.955H1381.42V477.504ZM1367.93 417.65C1367.93 415.746 1368.56 414.178 1369.82 412.948C1371.11 411.717 1372.85 411.102 1375.05 411.102C1377.21 411.102 1378.94 411.717 1380.23 412.948C1381.52 414.178 1382.17 415.746 1382.17 417.65C1382.17 419.584 1381.51 421.166 1380.19 422.396C1378.9 423.627 1377.19 424.242 1375.05 424.242C1372.91 424.242 1371.18 423.627 1369.86 422.396C1368.57 421.166 1367.93 419.584 1367.93 417.65ZM1389.94 453.29C1389.94 448.573 1390.85 444.369 1392.67 440.677C1394.48 436.986 1397.09 434.13 1400.49 432.108C1403.92 430.087 1407.89 429.076 1412.4 429.076C1418.82 429.076 1424.05 431.039 1428.09 434.964C1432.16 438.89 1434.43 444.222 1434.9 450.961L1434.99 454.213C1434.99 461.507 1432.95 467.367 1428.88 471.791C1424.81 476.185 1419.34 478.382 1412.49 478.382C1405.63 478.382 1400.15 476.185 1396.05 471.791C1391.98 467.396 1389.94 461.42 1389.94 453.861V453.29ZM1402.64 454.213C1402.64 458.724 1403.49 462.181 1405.19 464.584C1406.89 466.957 1409.32 468.143 1412.49 468.143C1415.56 468.143 1417.97 466.971 1419.69 464.628C1421.42 462.255 1422.29 458.475 1422.29 453.29C1422.29 448.866 1421.42 445.438 1419.69 443.006C1417.97 440.575 1415.53 439.359 1412.4 439.359C1409.29 439.359 1406.89 440.575 1405.19 443.006C1403.49 445.409 1402.64 449.144 1402.64 454.213ZM1454.5 429.955L1454.9 435.448C1458.29 431.2 1462.85 429.076 1468.56 429.076C1473.6 429.076 1477.35 430.555 1479.81 433.514C1482.27 436.473 1483.53 440.897 1483.59 446.786V477.504H1470.89V447.093C1470.89 444.398 1470.31 442.45 1469.13 441.249C1467.96 440.018 1466.01 439.403 1463.29 439.403C1459.71 439.403 1457.03 440.926 1455.25 443.973V477.504H1442.55V429.955H1454.5ZM1515.14 478.382C1508.17 478.382 1502.49 476.244 1498.09 471.966C1493.73 467.689 1491.55 461.991 1491.55 454.872V453.641C1491.55 448.866 1492.47 444.603 1494.31 440.853C1496.16 437.074 1498.77 434.173 1502.14 432.152C1505.53 430.101 1509.4 429.076 1513.74 429.076C1520.24 429.076 1525.35 431.127 1529.07 435.228C1532.82 439.33 1534.7 445.145 1534.7 452.674V457.86H1504.42C1504.83 460.965 1506.06 463.456 1508.11 465.331C1510.19 467.206 1512.81 468.143 1515.98 468.143C1520.87 468.143 1524.69 466.371 1527.45 462.826L1533.69 469.813C1531.78 472.508 1529.21 474.618 1525.95 476.141C1522.7 477.635 1519.1 478.382 1515.14 478.382ZM1513.69 439.359C1511.17 439.359 1509.12 440.209 1507.54 441.908C1505.99 443.607 1504.99 446.039 1504.55 449.203H1522.22V448.192C1522.16 445.38 1521.4 443.212 1519.93 441.688C1518.47 440.135 1516.39 439.359 1513.69 439.359ZM1567.7 464.364C1567.7 462.811 1566.93 461.595 1565.37 460.716C1563.85 459.808 1561.39 459.003 1557.99 458.299C1546.68 455.926 1541.03 451.122 1541.03 443.885C1541.03 439.667 1542.77 436.151 1546.26 433.339C1549.77 430.497 1554.36 429.076 1560.01 429.076C1566.05 429.076 1570.87 430.497 1574.47 433.339C1578.1 436.18 1579.92 439.872 1579.92 444.413H1567.22C1567.22 442.596 1566.63 441.102 1565.46 439.93C1564.29 438.729 1562.46 438.129 1559.97 438.129C1557.83 438.129 1556.17 438.612 1555 439.579C1553.83 440.546 1553.24 441.776 1553.24 443.27C1553.24 444.676 1553.9 445.819 1555.22 446.698C1556.57 447.547 1558.83 448.295 1561.99 448.939C1565.15 449.554 1567.82 450.257 1569.99 451.048C1576.7 453.509 1580.05 457.772 1580.05 463.837C1580.05 468.172 1578.19 471.688 1574.47 474.383C1570.75 477.049 1565.94 478.382 1560.06 478.382C1556.07 478.382 1552.53 477.679 1549.42 476.273C1546.35 474.838 1543.93 472.889 1542.17 470.428C1540.41 467.938 1539.53 465.257 1539.53 462.386H1551.57C1551.69 464.642 1552.53 466.371 1554.08 467.572C1555.63 468.773 1557.71 469.374 1560.32 469.374C1562.75 469.374 1564.58 468.92 1565.81 468.011C1567.07 467.074 1567.7 465.858 1567.7 464.364ZM1652.03 460.233L1658.27 429.955H1670.53L1658.41 477.504H1647.77L1638.76 447.577L1629.75 477.504H1619.16L1607.03 429.955H1619.29L1625.49 460.189L1634.19 429.955H1643.38L1652.03 460.233ZM1698.75 478.382C1691.77 478.382 1686.09 476.244 1681.7 471.966C1677.33 467.689 1675.15 461.991 1675.15 454.872V453.641C1675.15 448.866 1676.07 444.603 1677.92 440.853C1679.76 437.074 1682.37 434.173 1685.74 432.152C1689.14 430.101 1693.01 429.076 1697.34 429.076C1703.85 429.076 1708.96 431.127 1712.68 435.228C1716.43 439.33 1718.3 445.145 1718.3 452.674V457.86H1688.02C1688.44 460.965 1689.67 463.456 1691.72 465.331C1693.8 467.206 1696.42 468.143 1699.58 468.143C1704.48 468.143 1708.3 466.371 1711.05 462.826L1717.29 469.813C1715.39 472.508 1712.81 474.618 1709.56 476.141C1706.31 477.635 1702.7 478.382 1698.75 478.382ZM1697.3 439.359C1694.78 439.359 1692.73 440.209 1691.15 441.908C1689.59 443.607 1688.6 446.039 1688.16 449.203H1705.82V448.192C1705.76 445.38 1705 443.212 1703.54 441.688C1702.07 440.135 1699.99 439.359 1697.3 439.359ZM1768.4 454.169C1768.4 461.786 1766.77 467.733 1763.52 472.01C1760.27 476.258 1755.73 478.382 1749.9 478.382C1744.74 478.382 1740.63 476.405 1737.55 472.45L1736.98 477.504H1725.55V410.004H1738.25V434.217C1741.18 430.79 1745.04 429.076 1749.81 429.076C1755.61 429.076 1760.15 431.214 1763.44 435.492C1766.75 439.74 1768.4 445.731 1768.4 453.465V454.169ZM1755.7 453.246C1755.7 448.441 1754.94 444.94 1753.42 442.743C1751.89 440.516 1749.62 439.403 1746.6 439.403C1742.56 439.403 1739.78 441.058 1738.25 444.369V463.133C1739.81 466.473 1742.62 468.143 1746.69 468.143C1750.79 468.143 1753.49 466.122 1754.78 462.079C1755.39 460.145 1755.7 457.201 1755.7 453.246Z" fill="white"/>
<path d="M357.6 460.2H436.3L407.7 437.8" stroke="white" stroke-width="3.601" stroke-miterlimit="10"/>
<g style="mix-blend-mode:screen">
<path d="M370.3 1062.4C352.6 1044.2 334.4 1025.3 316 1006.7C254.6 938.1 191.2 867 157.6 798.1C121.3 723.6 122.1 657.6 160.2 590.5C230.2 507.7 382.6 410 578.5 322.6C595.8 314.9 613.3 307.3 630.7 300H625.6C609.6 306.8 593.6 313.7 577.7 320.8C485.1 362.1 399.2 407.2 329.2 451.2C252.6 499.4 195.2 545.8 158.6 589.3L158.5 589.5C120 657.2 119.1 723.8 155.8 799C189.5 868.2 253.1 939.3 314.6 1008.2C333.1 1026.8 351.3 1045.7 369 1063.9C441.6 1138.9 510.4 1209.9 596 1271.3H599.4C512.8 1209.5 443.5 1138 370.3 1062.4Z" fill="#84428C"/>
<path d="M1802 309.3C1851.1 341 1890.4 375.9 1920 413.6V410.4C1890.5 373.3 1851.4 339 1803.1 307.7C1799.2 305.1 1795.1 302.6 1791.1 300.1H1787.3C1792.2 303.1 1797.2 306.2 1802 309.3Z" fill="#84428C"/>
<path d="M1885.8 300C1897.9 309.4 1909.4 319.1 1920.1 329V326.3C1910.3 317.4 1900 308.6 1889.1 300H1885.8Z" fill="#84428C"/>
<path d="M306.2 1075.5C287.3 1056 267.7 1035.8 247.9 1015.8C182.1 942.2 114.1 866 78.1001 792.1C39.1001 712.2 40.0001 641.5 80.9001 569.5C151.2 486.3 299.4 389 490.7 300H486C403 338.8 326.3 380 262.2 420.4C180.1 472.1 118.6 521.8 79.3001 568.4L79.2001 568.6C37.9001 641.1 37.0001 712.4 76.3001 793C112.5 867.2 180.6 943.4 246.5 1017.2C266.3 1037.2 285.9 1057.4 304.8 1076.9C371.8 1146.1 435.8 1212.1 510.9 1271.2H514.1C438.2 1211.8 373.7 1145.3 306.2 1075.5Z" fill="#84428C"/>
<path d="M341.2 1067.7C322.9 1048.8 304.1 1029.4 285 1010.1C221.5 939 155.9 865.6 121.1 794.3C83.5002 717.2 84.4002 649 123.8 579.6C196.2 493.9 353.8 393 556.4 302.6C558.3 301.7 560.3 300.9 562.2 300H557.3C556.7 300.3 556.2 300.5 555.6 300.8C459.9 343.5 371 390.1 298.7 435.6C219.5 485.4 160.1 533.5 122.2 578.4L122.1 578.6C82.3002 648.6 81.4002 717.5 119.3 795.2C154.2 866.8 219.9 940.3 283.5 1011.5C302.6 1030.8 321.5 1050.3 339.7 1069.1C410 1141.7 476.8 1210.6 557.6 1271.2H560.9C479.3 1210.3 412 1140.9 341.2 1067.7Z" fill="#84428C"/>
<path d="M1920 369V366.1C1897.8 342.9 1871.8 320.8 1842 300H1838.5C1869.9 321.7 1897.1 344.7 1920 369Z" fill="#84428C"/>
</g>
</g>
<mask id="mask2" mask-type="alpha" maskUnits="userSpaceOnUse" x="0" y="0" width="1920" height="876">
<rect width="1920" height="876" fill="#C4C4C4"/>
</mask>
<g mask="url(#mask2)">
<path d="M1921 -28.2267H0V917.075H1921V-28.2267Z" fill="black"/>
<path d="M843.5 212.381H761.3V210.435H837.7L811.2 190.287L812.4 188.729L843.5 212.381Z" fill="white"/>
<path d="M425.7 324.315L708.5 917.172H1912.3L1921 913.279V-28.2267H480.9C394.1 64.824 367.9 203.037 425.7 324.315Z" fill="#94D2DD"/>
<g style="mix-blend-mode:multiply">
<path d="M1921 902.572V393.519L1719.8 -28.2267H490.5C396.1 64.7266 365.8 208.488 425.7 334.048L703.8 917.075H1904.7C1910.4 912.403 1915.8 907.633 1921 902.572Z" fill="#94D2DD"/>
</g>
<g style="mix-blend-mode:screen">
<path d="M389.3 327.527C350.4 245.961 346.4 154.565 378.1 70.1773C391.8 33.872 411.3 0.778648 435.8 -28.2267H433.2C409.1 0.583982 389.8 33.4827 376.2 69.496C344.3 154.371 348.3 246.351 387.4 328.403L668.3 917.172H670.5L389.3 327.527Z" fill="#94D2DD"/>
</g>
<g style="mix-blend-mode:screen">
<path d="M352.4 323.731C295.8 205.276 313.1 71.4426 385.6 -28.2267H383C364.7 -2.92002 349.9 24.528 338.9 54.02C322.7 97.1386 315.3 142.204 316.9 187.951C318.6 235.255 329.9 281.293 350.6 324.607L633.3 917.172H635.5L352.4 323.731Z" fill="#94D2DD"/>
</g>
<g style="mix-blend-mode:screen">
<path d="M310.5 321.005C267.8 231.556 263.5 131.205 298.3 38.6413C307.2 15.0866 318.3 -7.30002 331.5 -28.2267H329.3C316.2 -7.39735 305.2 14.7946 296.5 38.0573C279.5 83.3173 271.7 130.524 273.4 178.509C275.2 228.149 287.1 276.329 308.8 321.881L592.8 917.172H594.9L310.5 321.005Z" fill="#94D2DD"/>
</g>
<g style="mix-blend-mode:screen">
<path d="M1788.4 -28.2267L1921 249.757V245.183L1790.6 -28.2267H1788.4Z" fill="#94D2DD"/>
<path d="M1753.8 -28.2267L1921 322.271V317.599L1756 -28.2267H1753.8Z" fill="#94D2DD"/>
<path d="M1826.7 -28.2267L1921 169.457V164.98L1828.8 -28.2267H1826.7Z" fill="#94D2DD"/>
</g>
</g>
</svg>
