<svg width="1920" height="900" viewBox="0 0 1920 900" fill="none" xmlns="http://www.w3.org/2000/svg">
<mask id="mask0" mask-type="alpha" maskUnits="userSpaceOnUse" x="0" y="600" width="1921" height="300">
<rect y="600" width="1921" height="300" fill="#C4C4C4"/>
</mask>
<g mask="url(#mask0)">
<path d="M1921 600H0V1571.2H1921V600Z" fill="black"/>
<path d="M1921 885.3C1815.8 782.8 1688.3 685.2 1543.1 600H214.3C208.4 616.2 202.8 632.6 197.5 648.8C182.2 695.3 167.6 740.7 154.3 788.4C89.2998 1014.9 138.6 1212.4 299.6 1378.3C366.3 1447.4 436.1 1511.8 508.9 1571.2H1921V885.3Z" fill="#B3D172"/>
<g style="mix-blend-mode:multiply">
<path d="M1921 885.2C1815.8 782.7 1688.4 685.2 1543.2 600H266.7C323.6 866.2 593.6 1180.9 988.2 1404.7C1113.4 1475.7 1240.1 1531.2 1362.9 1571.2H1921V885.2Z" fill="#B3D172"/>
</g>
<path d="M958.214 759.371C958.214 756.881 957.335 754.977 955.578 753.658C953.82 752.311 950.656 750.904 946.085 749.44C941.515 747.945 937.897 746.481 935.231 745.045C927.965 741.119 924.333 735.831 924.333 729.181C924.333 725.724 925.299 722.648 927.233 719.952C929.196 717.228 931.994 715.104 935.626 713.58C939.289 712.057 943.39 711.295 947.931 711.295C952.501 711.295 956.574 712.13 960.148 713.8C963.722 715.441 966.491 717.77 968.454 720.787C970.446 723.805 971.442 727.233 971.442 731.07H958.258C958.258 728.141 957.335 725.87 955.49 724.259C953.644 722.618 951.051 721.798 947.711 721.798C944.489 721.798 941.984 722.486 940.197 723.863C938.41 725.211 937.516 726.998 937.516 729.225C937.516 731.305 938.556 733.048 940.636 734.454C942.746 735.86 945.836 737.179 949.909 738.409C957.409 740.665 962.873 743.463 966.3 746.803C969.728 750.143 971.442 754.303 971.442 759.283C971.442 764.82 969.347 769.171 965.158 772.335C960.968 775.47 955.329 777.037 948.239 777.037C943.317 777.037 938.834 776.144 934.792 774.357C930.749 772.54 927.658 770.065 925.519 766.93C923.41 763.795 922.355 760.162 922.355 756.031H935.583C935.583 763.092 939.801 766.622 948.239 766.622C951.374 766.622 953.82 765.992 955.578 764.733C957.335 763.443 958.214 761.656 958.214 759.371ZM977.594 751.944C977.594 747.228 978.502 743.024 980.319 739.332C982.135 735.641 984.743 732.784 988.141 730.763C991.569 728.741 995.539 727.731 1000.05 727.731C1006.47 727.731 1011.7 729.693 1015.74 733.619C1019.81 737.545 1022.08 742.877 1022.55 749.615L1022.64 752.867C1022.64 760.162 1020.6 766.022 1016.53 770.445C1012.46 774.84 1006.99 777.037 1000.14 777.037C993.283 777.037 987.804 774.84 983.703 770.445C979.63 766.051 977.594 760.074 977.594 752.516V751.944ZM990.294 752.867C990.294 757.379 991.144 760.836 992.843 763.238C994.542 765.611 996.974 766.798 1000.14 766.798C1003.21 766.798 1005.62 765.626 1007.35 763.282C1009.07 760.909 1009.94 757.13 1009.94 751.944C1009.94 747.521 1009.07 744.093 1007.35 741.661C1005.62 739.23 1003.19 738.014 1000.05 738.014C996.945 738.014 994.542 739.23 992.843 741.661C991.144 744.064 990.294 747.799 990.294 752.867ZM1033.93 776.158V737.926H1026.86V728.609H1033.93V724.567C1033.93 719.234 1035.46 715.104 1038.5 712.174C1041.58 709.215 1045.87 707.735 1051.38 707.735C1053.14 707.735 1055.29 708.028 1057.84 708.614L1057.71 718.458C1056.65 718.194 1055.36 718.063 1053.84 718.063C1049.06 718.063 1046.68 720.304 1046.68 724.786V728.609H1056.12V737.926H1046.68V776.158H1033.93ZM1077.92 716.92V728.609H1086.05V737.926H1077.92V761.656C1077.92 763.414 1078.26 764.674 1078.93 765.436C1079.61 766.197 1080.9 766.578 1082.8 766.578C1084.21 766.578 1085.45 766.476 1086.53 766.271V775.895C1084.04 776.656 1081.48 777.037 1078.84 777.037C1069.94 777.037 1065.4 772.54 1065.22 763.546V737.926H1058.28V728.609H1065.22V716.92H1077.92ZM1134.48 758.888L1140.72 728.609H1152.98L1140.85 776.158H1130.22L1121.21 746.232L1112.2 776.158H1101.61L1089.48 728.609H1101.74L1107.94 758.844L1116.64 728.609H1125.82L1134.48 758.888ZM1186.86 776.158C1186.28 775.016 1185.85 773.595 1185.59 771.896C1182.51 775.323 1178.51 777.037 1173.59 777.037C1168.93 777.037 1165.06 775.69 1161.99 772.994C1158.94 770.299 1157.42 766.901 1157.42 762.799C1157.42 757.76 1159.28 753.893 1163 751.197C1166.75 748.502 1172.15 747.14 1179.22 747.11H1185.06V744.386C1185.06 742.189 1184.49 740.431 1183.35 739.112C1182.23 737.794 1180.46 737.135 1178.03 737.135C1175.89 737.135 1174.21 737.648 1172.98 738.673C1171.77 739.698 1171.17 741.105 1171.17 742.892H1158.47C1158.47 740.138 1159.32 737.589 1161.02 735.245C1162.72 732.901 1165.12 731.07 1168.23 729.752C1171.33 728.404 1174.82 727.731 1178.69 727.731C1184.55 727.731 1189.19 729.21 1192.62 732.169C1196.08 735.099 1197.8 739.23 1197.8 744.562V765.172C1197.83 769.684 1198.46 773.097 1199.69 775.411V776.158H1186.86ZM1176.36 767.325C1178.23 767.325 1179.96 766.915 1181.54 766.095C1183.13 765.245 1184.3 764.117 1185.06 762.711V754.537H1180.31C1173.96 754.537 1170.57 756.734 1170.16 761.129L1170.12 761.876C1170.12 763.458 1170.68 764.762 1171.79 765.787C1172.9 766.813 1174.43 767.325 1176.36 767.325ZM1234.28 740.519C1232.55 740.284 1231.03 740.167 1229.71 740.167C1224.9 740.167 1221.75 741.793 1220.26 745.045V776.158H1207.56V728.609H1219.56L1219.91 734.278C1222.46 729.913 1225.99 727.731 1230.5 727.731C1231.91 727.731 1233.22 727.921 1234.45 728.302L1234.28 740.519ZM1261.44 777.037C1254.46 777.037 1248.78 774.899 1244.39 770.621C1240.02 766.344 1237.84 760.646 1237.84 753.526V752.296C1237.84 747.521 1238.76 743.258 1240.61 739.508C1242.45 735.729 1245.06 732.828 1248.43 730.807C1251.83 728.756 1255.69 727.731 1260.03 727.731C1266.53 727.731 1271.65 729.781 1275.37 733.883C1279.12 737.984 1280.99 743.8 1280.99 751.329V756.515H1250.71C1251.12 759.62 1252.35 762.11 1254.41 763.985C1256.49 765.86 1259.11 766.798 1262.27 766.798C1267.16 766.798 1270.99 765.026 1273.74 761.481L1279.98 768.468C1278.08 771.163 1275.5 773.273 1272.25 774.796C1269 776.29 1265.39 777.037 1261.44 777.037ZM1259.99 738.014C1257.47 738.014 1255.42 738.863 1253.83 740.563C1252.28 742.262 1251.29 744.693 1250.85 747.858H1268.51V746.847C1268.45 744.034 1267.69 741.866 1266.23 740.343C1264.76 738.79 1262.68 738.014 1259.99 738.014ZM1338.21 776.158C1337.62 775.016 1337.2 773.595 1336.94 771.896C1333.86 775.323 1329.86 777.037 1324.94 777.037C1320.28 777.037 1316.41 775.69 1313.34 772.994C1310.29 770.299 1308.77 766.901 1308.77 762.799C1308.77 757.76 1310.63 753.893 1314.35 751.197C1318.1 748.502 1323.5 747.14 1330.56 747.11H1336.41V744.386C1336.41 742.189 1335.84 740.431 1334.69 739.112C1333.58 737.794 1331.81 737.135 1329.38 737.135C1327.24 737.135 1325.55 737.648 1324.32 738.673C1323.12 739.698 1322.52 741.105 1322.52 742.892H1309.82C1309.82 740.138 1310.67 737.589 1312.37 735.245C1314.07 732.901 1316.47 731.07 1319.58 729.752C1322.68 728.404 1326.17 727.731 1330.04 727.731C1335.9 727.731 1340.54 729.21 1343.97 732.169C1347.42 735.099 1349.15 739.23 1349.15 744.562V765.172C1349.18 769.684 1349.81 773.097 1351.04 775.411V776.158H1338.21ZM1327.71 767.325C1329.58 767.325 1331.31 766.915 1332.89 766.095C1334.47 765.245 1335.65 764.117 1336.41 762.711V754.537H1331.66C1325.3 754.537 1321.92 756.734 1321.51 761.129L1321.47 761.876C1321.47 763.458 1322.02 764.762 1323.14 765.787C1324.25 766.813 1325.77 767.325 1327.71 767.325ZM1394.72 776.158H1381.98V708.658H1394.72V776.158ZM1432.78 776.158C1432.19 775.016 1431.77 773.595 1431.51 771.896C1428.43 775.323 1424.43 777.037 1419.51 777.037C1414.85 777.037 1410.98 775.69 1407.91 772.994C1404.86 770.299 1403.34 766.901 1403.34 762.799C1403.34 757.76 1405.2 753.893 1408.92 751.197C1412.67 748.502 1418.07 747.14 1425.13 747.11H1430.98V744.386C1430.98 742.189 1430.41 740.431 1429.26 739.112C1428.15 737.794 1426.38 737.135 1423.95 737.135C1421.81 737.135 1420.12 737.648 1418.89 738.673C1417.69 739.698 1417.09 741.105 1417.09 742.892H1404.39C1404.39 740.138 1405.24 737.589 1406.94 735.245C1408.64 732.901 1411.04 731.07 1414.15 729.752C1417.25 728.404 1420.74 727.731 1424.61 727.731C1430.47 727.731 1435.11 729.21 1438.54 732.169C1441.99 735.099 1443.72 739.23 1443.72 744.562V765.172C1443.75 769.684 1444.38 773.097 1445.61 775.411V776.158H1432.78ZM1422.28 767.325C1424.15 767.325 1425.88 766.915 1427.46 766.095C1429.04 765.245 1430.22 764.117 1430.98 762.711V754.537H1426.23C1419.87 754.537 1416.49 756.734 1416.08 761.129L1416.04 761.876C1416.04 763.458 1416.59 764.762 1417.71 765.787C1418.82 766.813 1420.34 767.325 1422.28 767.325ZM1487.8 728.609L1488.19 733.927C1491.56 729.796 1496.12 727.731 1501.86 727.731C1507.98 727.731 1512.19 730.148 1514.47 734.982C1517.81 730.148 1522.57 727.731 1528.76 727.731C1533.91 727.731 1537.75 729.239 1540.27 732.257C1542.79 735.245 1544.05 739.757 1544.05 745.792V776.158H1531.31V745.836C1531.31 743.141 1530.78 741.178 1529.72 739.947C1528.67 738.688 1526.81 738.058 1524.14 738.058C1520.33 738.058 1517.7 739.874 1516.23 743.507L1516.28 776.158H1503.58V745.88C1503.58 743.126 1503.03 741.134 1501.95 739.903C1500.87 738.673 1499.02 738.058 1496.41 738.058C1492.81 738.058 1490.2 739.552 1488.59 742.54V776.158H1475.89V728.609H1487.8ZM1575.73 777.037C1568.76 777.037 1563.08 774.899 1558.68 770.621C1554.32 766.344 1552.14 760.646 1552.14 753.526V752.296C1552.14 747.521 1553.06 743.258 1554.9 739.508C1556.75 735.729 1559.36 732.828 1562.73 730.807C1566.12 728.756 1569.99 727.731 1574.33 727.731C1580.83 727.731 1585.94 729.781 1589.66 733.883C1593.41 737.984 1595.29 743.8 1595.29 751.329V756.515H1565.01C1565.42 759.62 1566.65 762.11 1568.7 763.985C1570.78 765.86 1573.4 766.798 1576.57 766.798C1581.46 766.798 1585.28 765.026 1588.04 761.481L1594.28 768.468C1592.37 771.163 1589.8 773.273 1586.54 774.796C1583.29 776.29 1579.69 777.037 1575.73 777.037ZM1574.28 738.014C1571.76 738.014 1569.71 738.863 1568.13 740.563C1566.58 742.262 1565.58 744.693 1565.14 747.858H1582.81V746.847C1582.75 744.034 1581.99 741.866 1580.52 740.343C1579.06 738.79 1576.98 738.014 1574.28 738.014ZM1600.56 752.032C1600.56 744.62 1602.22 738.717 1605.53 734.322C1608.87 729.928 1613.42 727.731 1619.2 727.731C1623.82 727.731 1627.65 729.459 1630.67 732.916V708.658H1643.41V776.158H1631.94L1631.32 771.105C1628.16 775.06 1624.09 777.037 1619.11 777.037C1613.51 777.037 1609.02 774.84 1605.62 770.445C1602.25 766.022 1600.56 759.884 1600.56 752.032ZM1613.26 752.955C1613.26 757.408 1614.04 760.821 1615.59 763.194C1617.15 765.568 1619.4 766.754 1622.36 766.754C1626.29 766.754 1629.05 765.099 1630.67 761.788V743.024C1629.08 739.713 1626.34 738.058 1622.45 738.058C1616.32 738.058 1613.26 743.024 1613.26 752.955ZM1666.66 776.158H1653.91V728.609H1666.66V776.158ZM1653.17 716.305C1653.17 714.401 1653.8 712.833 1655.06 711.603C1656.34 710.372 1658.09 709.757 1660.28 709.757C1662.45 709.757 1664.18 710.372 1665.47 711.603C1666.76 712.833 1667.4 714.401 1667.4 716.305C1667.4 718.238 1666.74 719.82 1665.43 721.051C1664.14 722.281 1662.42 722.897 1660.28 722.897C1658.15 722.897 1656.42 722.281 1655.1 721.051C1653.81 719.82 1653.17 718.238 1653.17 716.305ZM1675.18 752.032C1675.18 744.62 1676.84 738.717 1680.15 734.322C1683.49 729.928 1688.04 727.731 1693.81 727.731C1698.44 727.731 1702.27 729.459 1705.28 732.916V708.658H1718.03V776.158H1706.56L1705.94 771.105C1702.78 775.06 1698.71 777.037 1693.73 777.037C1688.13 777.037 1683.63 774.84 1680.24 770.445C1676.87 766.022 1675.18 759.884 1675.18 752.032ZM1687.88 752.955C1687.88 757.408 1688.66 760.821 1690.21 763.194C1691.76 765.568 1694.02 766.754 1696.98 766.754C1700.9 766.754 1703.67 765.099 1705.28 761.788V743.024C1703.7 739.713 1700.96 738.058 1697.07 738.058C1690.94 738.058 1687.88 743.024 1687.88 752.955ZM1755.43 776.158C1754.84 775.016 1754.42 773.595 1754.15 771.896C1751.08 775.323 1747.08 777.037 1742.15 777.037C1737.5 777.037 1733.63 775.69 1730.55 772.994C1727.51 770.299 1725.98 766.901 1725.98 762.799C1725.98 757.76 1727.84 753.893 1731.56 751.197C1735.31 748.502 1740.72 747.14 1747.78 747.11H1753.62V744.386C1753.62 742.189 1753.05 740.431 1751.91 739.112C1750.8 737.794 1749.02 737.135 1746.59 737.135C1744.45 737.135 1742.77 737.648 1741.54 738.673C1740.34 739.698 1739.74 741.105 1739.74 742.892H1727.04C1727.04 740.138 1727.89 737.589 1729.59 735.245C1731.29 732.901 1733.69 731.07 1736.79 729.752C1739.9 728.404 1743.39 727.731 1747.25 727.731C1753.11 727.731 1757.76 729.21 1761.18 732.169C1764.64 735.099 1766.37 739.23 1766.37 744.562V765.172C1766.4 769.684 1767.03 773.097 1768.26 775.411V776.158H1755.43ZM1744.92 767.325C1746.8 767.325 1748.53 766.915 1750.11 766.095C1751.69 765.245 1752.86 764.117 1753.62 762.711V754.537H1748.88C1742.52 754.537 1739.14 756.734 1738.73 761.129L1738.68 761.876C1738.68 763.458 1739.24 764.762 1740.35 765.787C1741.47 766.813 1742.99 767.325 1744.92 767.325Z" fill="white"/>
<path d="M804 758H882.7L854.1 735.6" stroke="white" stroke-width="3.601" stroke-miterlimit="10"/>
<g style="mix-blend-mode:screen">
<path d="M966.1 1431.6C740.5 1303.6 546.9 1144.6 406.3 971.7C302.8 844.5 234.4 718.1 204.5 600H202.6C212.8 640 227.4 681.2 246.5 723.2C283.8 805.6 337 889.6 404.8 972.9C473.4 1057.2 555.3 1139 648.4 1215.9C744.6 1295.5 851.2 1368.6 965.2 1433.3C1059.9 1487 1156.7 1533.2 1254.1 1571.2H1260C1162.2 1533.4 1063.5 1486.8 966.1 1431.6Z" fill="#B3D172"/>
<path d="M1921 845.9V843.3C1896.2 820.5 1870.5 798 1843.9 776C1767.7 712.9 1685.1 653.9 1597.4 600H1593.6C1714.3 674 1824.6 756.9 1921 845.9Z" fill="#B3D172"/>
</g>
<g style="mix-blend-mode:screen">
<path d="M977.9 1475.7C738.9 1340.1 533.8 1171.6 384.8 988.4C276.8 855.6 204.8 723.6 172.4 600H170.4C181.1 640.7 196.2 682.5 215.5 725.2C255 812.5 311.4 901.5 383.2 989.8C455.9 1079.1 542.7 1165.7 641.3 1247.3C743.2 1331.5 856.1 1409 976.9 1477.5C1037.1 1511.6 1098.1 1542.9 1159.6 1571.2H1164.9C1102.5 1542.7 1039.9 1510.8 977.9 1475.7Z" fill="#B3D172"/>
<path d="M1921 794.6V792C1916.7 788.3 1912.3 784.7 1907.9 781.1C1829.8 716.3 1745.2 655.7 1655.5 600H1651.5C1748.3 659.9 1838.7 725.2 1921 794.6Z" fill="#B3D172"/>
</g>
<g style="mix-blend-mode:screen">
<path d="M973 1503C722.3 1360.8 507.3 1184.2 351.1 992.2C242.2 858.3 168.2 725.2 132.5 600H130.4C141.3 637.9 155.6 676.7 173.5 716.1C214.8 807.7 274 901 349.3 993.6C425.5 1087.3 516.5 1178.1 619.9 1263.6C726.8 1351.9 845.2 1433.1 971.9 1505C1013.1 1528.4 1054.7 1550.5 1096.6 1571.2H1101.8C1058.7 1550 1015.7 1527.3 973 1503Z" fill="#B3D172"/>
<path d="M1707.5 600H1703.4C1780.2 648.7 1853 700.7 1921.1 755.4V752.7C1853.9 698.8 1782.4 647.7 1707.5 600Z" fill="#B3D172"/>
</g>
</g>
<mask id="mask1" mask-type="alpha" maskUnits="userSpaceOnUse" x="0" y="0" width="1920" height="300">
<rect width="1920" height="300" fill="#C4C4C4"/>
</mask>
<g mask="url(#mask1)">
<path d="M1921 -29H0V942.2H1921V-29Z" fill="black"/>
<path d="M843.5 218.2H761.3V216.2H837.7L811.2 195.5L812.4 193.9L843.5 218.2Z" fill="white"/>
<path d="M425.7 333.2L708.5 942.3H1912.3L1921 938.3V-29H480.9C394.1 66.6 367.9 208.6 425.7 333.2Z" fill="#94D2DD"/>
<g style="mix-blend-mode:multiply">
<path d="M1921 927.3V404.3L1719.8 -29H490.5C396.1 66.5 365.8 214.2 425.7 343.2L703.8 942.2H1904.7C1910.4 937.4 1915.8 932.5 1921 927.3Z" fill="#94D2DD"/>
</g>
<path d="M918.208 168.084C918.208 165.575 917.322 163.655 915.551 162.327C913.779 160.968 910.59 159.551 905.984 158.075C901.378 156.569 897.731 155.092 895.044 153.646C887.721 149.689 884.06 144.359 884.06 137.657C884.06 134.173 885.034 131.072 886.983 128.356C888.961 125.61 891.781 123.469 895.443 121.934C899.133 120.398 903.267 119.63 907.844 119.63C912.45 119.63 916.554 120.472 920.157 122.155C923.759 123.809 926.549 126.156 928.528 129.197C930.536 132.239 931.539 135.693 931.539 139.561H918.252C918.252 136.609 917.322 134.32 915.462 132.696C913.602 131.043 910.989 130.216 907.622 130.216C904.375 130.216 901.85 130.91 900.049 132.298C898.248 133.656 897.347 135.457 897.347 137.701C897.347 139.797 898.395 141.554 900.492 142.972C902.618 144.389 905.733 145.718 909.837 146.958C917.396 149.231 922.903 152.051 926.357 155.417C929.812 158.783 931.539 162.976 931.539 167.996C931.539 173.576 929.428 177.961 925.206 181.15C920.983 184.31 915.3 185.889 908.154 185.889C903.193 185.889 898.676 184.989 894.601 183.188C890.526 181.357 887.411 178.862 885.256 175.702C883.13 172.543 882.067 168.882 882.067 164.718H895.398C895.398 171.834 899.65 175.392 908.154 175.392C911.313 175.392 913.779 174.758 915.551 173.488C917.322 172.189 918.208 170.388 918.208 168.084ZM937.74 160.599C937.74 155.845 938.655 151.608 940.486 147.888C942.317 144.167 944.945 141.289 948.37 139.251C951.825 137.214 955.825 136.195 960.373 136.195C966.839 136.195 972.11 138.173 976.184 142.13C980.289 146.087 982.577 151.461 983.049 158.252L983.138 161.529C983.138 168.882 981.086 174.787 976.982 179.246C972.877 183.675 967.371 185.889 960.461 185.889C953.552 185.889 948.03 183.675 943.897 179.246C939.792 174.817 937.74 168.793 937.74 161.175V160.599ZM950.54 161.529C950.54 166.077 951.396 169.561 953.109 171.982C954.822 174.374 957.272 175.57 960.461 175.57C963.562 175.57 965.983 174.388 967.725 172.026C969.467 169.635 970.338 165.826 970.338 160.599C970.338 156.141 969.467 152.686 967.725 150.235C965.983 147.785 963.532 146.559 960.373 146.559C957.243 146.559 954.822 147.785 953.109 150.235C951.396 152.656 950.54 156.421 950.54 161.529ZM1004.53 185.003H991.686V116.973H1004.53V185.003ZM1043.82 180.131C1040.66 183.97 1036.29 185.889 1030.71 185.889C1025.57 185.889 1021.64 184.413 1018.92 181.46C1016.24 178.507 1014.86 174.182 1014.81 168.483V137.081H1027.61V168.04C1027.61 173.03 1029.88 175.525 1034.43 175.525C1038.77 175.525 1041.75 174.019 1043.37 171.008V137.081H1056.22V185.003H1044.17L1043.82 180.131ZM1085.8 175.57C1088.17 175.57 1090.09 174.92 1091.56 173.621C1093.04 172.322 1093.81 170.594 1093.86 168.439H1105.87C1105.84 171.687 1104.95 174.669 1103.21 177.385C1101.47 180.072 1099.08 182.169 1096.03 183.675C1093.02 185.151 1089.69 185.889 1086.03 185.889C1079.17 185.889 1073.77 183.719 1069.81 179.379C1065.86 175.009 1063.88 168.985 1063.88 161.308V160.466C1063.88 153.085 1065.84 147.194 1069.77 142.794C1073.7 138.395 1079.09 136.195 1085.94 136.195C1091.93 136.195 1096.73 137.908 1100.33 141.333C1103.96 144.728 1105.81 149.261 1105.87 154.93H1093.86C1093.81 152.45 1093.04 150.442 1091.56 148.907C1090.09 147.342 1088.14 146.559 1085.72 146.559C1082.73 146.559 1080.47 147.652 1078.94 149.837C1077.43 151.992 1076.68 155.506 1076.68 160.378V161.707C1076.68 166.638 1077.43 170.181 1078.94 172.336C1080.44 174.492 1082.73 175.57 1085.8 175.57ZM1126.68 185.003H1113.84V137.081H1126.68V185.003ZM1113.09 124.68C1113.09 122.76 1113.72 121.181 1114.99 119.94C1116.29 118.7 1118.05 118.08 1120.26 118.08C1122.45 118.08 1124.19 118.7 1125.49 119.94C1126.79 121.181 1127.44 122.76 1127.44 124.68C1127.44 126.628 1126.77 128.223 1125.44 129.463C1124.14 130.703 1122.42 131.323 1120.26 131.323C1118.11 131.323 1116.36 130.703 1115.04 129.463C1113.74 128.223 1113.09 126.628 1113.09 124.68ZM1135.28 160.599C1135.28 155.845 1136.19 151.608 1138.02 147.888C1139.85 144.167 1142.48 141.289 1145.91 139.251C1149.36 137.214 1153.36 136.195 1157.91 136.195C1164.38 136.195 1169.65 138.173 1173.72 142.13C1177.82 146.087 1180.11 151.461 1180.59 158.252L1180.67 161.529C1180.67 168.882 1178.62 174.787 1174.52 179.246C1170.41 183.675 1164.91 185.889 1158 185.889C1151.09 185.889 1145.57 183.675 1141.43 179.246C1137.33 174.817 1135.28 168.793 1135.28 161.175V160.599ZM1148.08 161.529C1148.08 166.077 1148.93 169.561 1150.65 171.982C1152.36 174.374 1154.81 175.57 1158 175.57C1161.1 175.57 1163.52 174.388 1165.26 172.026C1167 169.635 1167.87 165.826 1167.87 160.599C1167.87 156.141 1167 152.686 1165.26 150.235C1163.52 147.785 1161.07 146.559 1157.91 146.559C1154.78 146.559 1152.36 147.785 1150.65 150.235C1148.93 152.656 1148.08 156.421 1148.08 161.529ZM1200.34 137.081L1200.74 142.617C1204.16 138.336 1208.75 136.195 1214.51 136.195C1219.59 136.195 1223.37 137.686 1225.85 140.669C1228.33 143.651 1229.6 148.109 1229.66 154.044V185.003H1216.86V154.354C1216.86 151.638 1216.27 149.674 1215.09 148.464C1213.91 147.224 1211.94 146.603 1209.2 146.603C1205.6 146.603 1202.89 148.139 1201.09 151.21V185.003H1188.29V137.081H1200.34ZM1261.46 185.889C1254.43 185.889 1248.7 183.734 1244.28 179.423C1239.88 175.112 1237.68 169.369 1237.68 162.194V160.954C1237.68 156.141 1238.61 151.845 1240.47 148.065C1242.33 144.256 1244.95 141.333 1248.35 139.295C1251.78 137.229 1255.67 136.195 1260.04 136.195C1266.6 136.195 1271.75 138.262 1275.5 142.396C1279.28 146.53 1281.17 152.391 1281.17 159.979V165.206H1250.65C1251.07 168.335 1252.31 170.845 1254.37 172.735C1256.47 174.625 1259.11 175.57 1262.3 175.57C1267.23 175.57 1271.09 173.783 1273.86 170.21L1280.15 177.253C1278.23 179.969 1275.63 182.095 1272.36 183.63C1269.08 185.136 1265.45 185.889 1261.46 185.889ZM1260 146.559C1257.46 146.559 1255.39 147.415 1253.8 149.128C1252.23 150.841 1251.23 153.291 1250.79 156.48H1268.59V155.462C1268.53 152.627 1267.76 150.442 1266.29 148.907C1264.81 147.342 1262.72 146.559 1260 146.559ZM1314.43 171.761C1314.43 170.196 1313.65 168.97 1312.08 168.084C1310.55 167.169 1308.07 166.357 1304.64 165.648C1293.25 163.257 1287.55 158.414 1287.55 151.121C1287.55 146.869 1289.3 143.326 1292.82 140.491C1296.36 137.627 1300.98 136.195 1306.68 136.195C1312.76 136.195 1317.62 137.627 1321.25 140.491C1324.91 143.355 1326.74 147.076 1326.74 151.653H1313.94C1313.94 149.822 1313.35 148.316 1312.17 147.135C1310.99 145.924 1309.15 145.319 1306.64 145.319C1304.48 145.319 1302.81 145.806 1301.63 146.781C1300.45 147.755 1299.86 148.995 1299.86 150.501C1299.86 151.918 1300.52 153.07 1301.85 153.956C1303.21 154.812 1305.49 155.565 1308.67 156.215C1311.86 156.835 1314.55 157.543 1316.73 158.34C1323.5 160.821 1326.88 165.117 1326.88 171.229C1326.88 175.599 1325 179.142 1321.25 181.859C1317.5 184.546 1312.66 185.889 1306.73 185.889C1302.71 185.889 1299.14 185.181 1296.01 183.763C1292.91 182.316 1290.47 180.353 1288.7 177.873C1286.93 175.363 1286.04 172.661 1286.04 169.767H1298.18C1298.3 172.041 1299.14 173.783 1300.7 174.994C1302.27 176.204 1304.36 176.81 1306.99 176.81C1309.44 176.81 1311.29 176.352 1312.53 175.437C1313.8 174.492 1314.43 173.266 1314.43 171.761ZM1379.8 185.889C1372.78 185.889 1367.05 183.734 1362.62 179.423C1358.22 175.112 1356.02 169.369 1356.02 162.194V160.954C1356.02 156.141 1356.95 151.845 1358.81 148.065C1360.67 144.256 1363.3 141.333 1366.69 139.295C1370.12 137.229 1374.02 136.195 1378.39 136.195C1384.94 136.195 1390.1 138.262 1393.84 142.396C1397.62 146.53 1399.51 152.391 1399.51 159.979V165.206H1369C1369.41 168.335 1370.65 170.845 1372.72 172.735C1374.81 174.625 1377.46 175.57 1380.65 175.57C1385.58 175.57 1389.43 173.783 1392.21 170.21L1398.5 177.253C1396.58 179.969 1393.98 182.095 1390.7 183.63C1387.42 185.136 1383.79 185.889 1379.8 185.889ZM1378.34 146.559C1375.8 146.559 1373.74 147.415 1372.14 149.128C1370.58 150.841 1369.57 153.291 1369.13 156.48H1386.94V155.462C1386.88 152.627 1386.11 150.442 1384.63 148.907C1383.16 147.342 1381.06 146.559 1378.34 146.559ZM1418.6 137.081L1419 142.617C1422.43 138.336 1427.02 136.195 1432.78 136.195C1437.86 136.195 1441.63 137.686 1444.11 140.669C1446.6 143.651 1447.86 148.109 1447.92 154.044V185.003H1435.12V154.354C1435.12 151.638 1434.53 149.674 1433.35 148.464C1432.17 147.224 1430.21 146.603 1427.46 146.603C1423.86 146.603 1421.16 148.139 1419.36 151.21V185.003H1406.56V137.081H1418.6ZM1493.76 185.003H1480.92V116.973H1493.76V185.003ZM1532.12 185.003C1531.53 183.852 1531.1 182.42 1530.84 180.707C1527.74 184.162 1523.71 185.889 1518.74 185.889C1514.05 185.889 1510.15 184.531 1507.05 181.814C1503.98 179.098 1502.45 175.673 1502.45 171.539C1502.45 166.46 1504.32 162.563 1508.07 159.846C1511.85 157.13 1517.3 155.757 1524.41 155.727H1530.3V152.981C1530.3 150.767 1529.73 148.995 1528.58 147.666C1527.46 146.338 1525.67 145.673 1523.22 145.673C1521.06 145.673 1519.36 146.19 1518.12 147.224C1516.91 148.257 1516.31 149.674 1516.31 151.475H1503.51C1503.51 148.7 1504.36 146.131 1506.08 143.769C1507.79 141.407 1510.21 139.561 1513.34 138.233C1516.47 136.874 1519.98 136.195 1523.88 136.195C1529.79 136.195 1534.47 137.686 1537.92 140.669C1541.41 143.621 1543.15 147.785 1543.15 153.158V173.931C1543.18 178.478 1543.81 181.918 1545.05 184.25V185.003H1532.12ZM1521.53 176.101C1523.42 176.101 1525.17 175.688 1526.76 174.861C1528.36 174.005 1529.54 172.868 1530.3 171.45V163.212H1525.52C1519.11 163.212 1515.7 165.427 1515.29 169.856L1515.25 170.609C1515.25 172.203 1515.81 173.517 1516.93 174.551C1518.05 175.584 1519.59 176.101 1521.53 176.101ZM1587.35 137.081L1587.75 142.617C1591.17 138.336 1595.77 136.195 1601.52 136.195C1606.6 136.195 1610.38 137.686 1612.86 140.669C1615.34 143.651 1616.61 148.109 1616.67 154.044V185.003H1603.87V154.354C1603.87 151.638 1603.28 149.674 1602.1 148.464C1600.92 147.224 1598.95 146.603 1596.21 146.603C1592.61 146.603 1589.9 148.139 1588.1 151.21V185.003H1575.3V137.081H1587.35ZM1655.12 180.131C1651.96 183.97 1647.59 185.889 1642.01 185.889C1636.87 185.889 1632.94 184.413 1630.22 181.46C1627.54 178.507 1626.16 174.182 1626.11 168.483V137.081H1638.9V168.04C1638.9 173.03 1641.18 175.525 1645.73 175.525C1650.07 175.525 1653.05 174.019 1654.67 171.008V137.081H1667.52V185.003H1655.47L1655.12 180.131ZM1720.36 161.485C1720.36 169.162 1718.72 175.156 1715.44 179.467C1712.16 183.749 1707.59 185.889 1701.71 185.889C1696.51 185.889 1692.36 183.896 1689.26 179.91L1688.69 185.003H1677.17V116.973H1689.97V141.377C1692.92 137.922 1696.81 136.195 1701.62 136.195C1707.47 136.195 1712.04 138.351 1715.35 142.662C1718.69 146.943 1720.36 152.981 1720.36 160.776V161.485ZM1707.56 160.555C1707.56 155.713 1706.79 152.184 1705.25 149.97C1703.72 147.725 1701.43 146.603 1698.39 146.603C1694.31 146.603 1691.51 148.272 1689.97 151.608V170.52C1691.54 173.886 1694.37 175.57 1698.48 175.57C1702.61 175.57 1705.33 173.532 1706.63 169.457C1707.25 167.509 1707.56 164.541 1707.56 160.555ZM1750.34 185.889C1743.31 185.889 1737.58 183.734 1733.16 179.423C1728.76 175.112 1726.56 169.369 1726.56 162.194V160.954C1726.56 156.141 1727.49 151.845 1729.35 148.065C1731.21 144.256 1733.83 141.333 1737.23 139.295C1740.66 137.229 1744.55 136.195 1748.92 136.195C1755.48 136.195 1760.63 138.262 1764.38 142.396C1768.16 146.53 1770.05 152.391 1770.05 159.979V165.206H1739.53C1739.95 168.335 1741.19 170.845 1743.25 172.735C1745.35 174.625 1747.99 175.57 1751.18 175.57C1756.11 175.57 1759.97 173.783 1762.74 170.21L1769.03 177.253C1767.11 179.969 1764.51 182.095 1761.24 183.63C1757.96 185.136 1754.33 185.889 1750.34 185.889ZM1748.88 146.559C1746.34 146.559 1744.27 147.415 1742.68 149.128C1741.11 150.841 1740.11 153.291 1739.67 156.48H1757.47V155.462C1757.41 152.627 1756.64 150.442 1755.17 148.907C1753.69 147.342 1751.6 146.559 1748.88 146.559Z" fill="white"/>
<g style="mix-blend-mode:screen">
<path d="M389.3 336.5C350.4 252.7 346.4 158.8 378.1 72.1C391.8 34.8 411.3 0.799999 435.8 -29H433.2C409.1 0.6 389.8 34.4 376.2 71.4C344.3 158.6 348.3 253.1 387.4 337.4L668.3 942.3H670.5L389.3 336.5Z" fill="#94D2DD"/>
</g>
<g style="mix-blend-mode:screen">
<path d="M352.4 332.6C295.8 210.9 313.1 73.4 385.6 -29H383C364.7 -3 349.9 25.2 338.9 55.5C322.7 99.8 315.3 146.1 316.9 193.1C318.6 241.7 329.9 289 350.6 333.5L633.3 942.3H635.5L352.4 332.6Z" fill="#94D2DD"/>
</g>
<g style="mix-blend-mode:screen">
<path d="M310.5 329.8C267.8 237.9 263.5 134.8 298.3 39.7C307.2 15.5 318.3 -7.5 331.5 -29H329.3C316.2 -7.6 305.2 15.2 296.5 39.1C279.5 85.6 271.7 134.1 273.4 183.4C275.2 234.4 287.1 283.9 308.8 330.7L592.8 942.3H594.9L310.5 329.8Z" fill="#94D2DD"/>
</g>
<g style="mix-blend-mode:screen">
<path d="M1788.4 -29L1921 256.6V251.9L1790.6 -29H1788.4Z" fill="#94D2DD"/>
<path d="M1753.8 -29L1921 331.1V326.3L1756 -29H1753.8Z" fill="#94D2DD"/>
<path d="M1826.7 -29L1921 174.1V169.5L1828.8 -29H1826.7Z" fill="#94D2DD"/>
</g>
<path d="M843.5 168.2H761.3V166.2H837.7L811.2 145.5L812.4 143.9L843.5 168.2Z" fill="white"/>
</g>
<mask id="mask2" mask-type="alpha" maskUnits="userSpaceOnUse" x="0" y="0" width="1920" height="900">
<rect width="1920" height="900" fill="#C4C4C4"/>
</mask>
<g mask="url(#mask2)">
<path d="M1920 0H-1V971.2H1920V0Z" fill="#0F0F0F"/>
<path d="M1920 698V0H520.5C332.1 102.1 184.5 219.6 166.7 320.7C132.1 446.6 238.7 563.4 363.6 704.2C453.2 797.2 536.1 888 644.3 962.5C648.4 965.4 652.5 968.3 656.6 971.1H1842.7C1870.9 891 1892.2 800.6 1920 698Z" fill="#84428C"/>
<g style="mix-blend-mode:screen">
<path d="M1920 172C1888.5 118.7 1840.3 74.2 1782.9 37.1C1762.4 23.8 1740.7 11.5 1718.2 0H733.6C516.8 83.7 303.4 199.8 213.9 305.9C134.2 446 237.2 563.9 362.8 704.5C454.3 796.9 534.7 888.5 642.1 963.3C645.8 966 649.5 968.6 653.2 971.2H1814C1841 876 1862.5 770.3 1898.5 650.8C1905.5 623.3 1912.9 595.9 1920 568.6V172Z" fill="#84428C"/>
</g>
<g style="mix-blend-mode:screen">
<path d="M370.3 762.4C352.6 744.2 334.4 725.3 316 706.7C254.6 638.1 191.2 567 157.6 498.1C121.3 423.6 122.1 357.6 160.2 290.5C230.2 207.7 382.6 110 578.5 22.6C595.8 14.9 613.3 7.3 630.7 0H625.6C609.6 6.8 593.6 13.7 577.7 20.8C485.1 62.1 399.2 107.2 329.2 151.2C252.6 199.4 195.2 245.8 158.6 289.3L158.5 289.5C120 357.2 119.1 423.8 155.8 499C189.5 568.2 253.1 639.3 314.6 708.2C333.1 726.8 351.3 745.7 369 763.9C441.6 838.9 510.4 909.9 596 971.3H599.4C512.8 909.5 443.5 838 370.3 762.4Z" fill="#84428C"/>
<path d="M1920 659.4C1899.5 728.3 1883.8 791.9 1868.5 853.6C1858.3 894.9 1848.6 933.9 1838.3 971.2H1840.4C1850.6 934 1860.2 895.1 1870.4 854.1C1885.2 794.4 1900.4 732.9 1919.9 666.5V659.4H1920Z" fill="#84428C"/>
<path d="M1802 9.29998C1851.1 41 1890.4 75.9 1920 113.6V110.4C1890.5 73.3 1851.4 39 1803.1 7.69998C1799.2 5.09998 1795.1 2.59998 1791.1 0.0999756H1787.3C1792.2 3.09998 1797.2 6.19998 1802 9.29998Z" fill="#84428C"/>
<path d="M1885.8 0C1897.9 9.4 1909.4 19.1 1920.1 29V26.3C1910.3 17.4 1900 8.6 1889.1 0H1885.8Z" fill="#84428C"/>
<path d="M1920 841.4C1917.3 852.1 1914.7 862.7 1912.1 873.2C1903.7 907.2 1895.6 939.8 1887.3 971.2H1889.4C1897.6 939.9 1905.7 907.5 1914 873.7C1916 865.7 1918 857.7 1919.9 849.7V841.4H1920Z" fill="#84428C"/>
<path d="M306.2 775.5C287.3 756 267.7 735.8 247.9 715.8C182.1 642.2 114.1 566 78.1001 492.1C39.1001 412.2 40.0001 341.5 80.9001 269.5C151.2 186.3 299.4 89 490.7 0H486C403 38.8 326.3 80 262.2 120.4C180.1 172.1 118.6 221.8 79.3001 268.4L79.2001 268.6C37.9001 341.1 37.0001 412.4 76.3001 493C112.5 567.2 180.6 643.4 246.5 717.2C266.3 737.2 285.9 757.4 304.8 776.9C371.8 846.1 435.8 912.1 510.9 971.2H514.1C438.2 911.8 373.7 845.3 306.2 775.5Z" fill="#84428C"/>
<path d="M1920 746.1C1909.4 785.9 1899.9 824.3 1890.6 862C1881.2 900.1 1872.2 936.4 1862.8 971.3H1864.9C1874.2 936.6 1883.2 900.5 1892.6 862.5C1901.4 827.2 1910.3 791.2 1920.1 754V746.1H1920Z" fill="#84428C"/>
<path d="M341.2 767.7C322.9 748.8 304.1 729.4 285 710.1C221.5 639 155.9 565.6 121.1 494.3C83.4999 417.2 84.3999 349 123.8 279.6C196.2 193.9 353.8 93 556.4 2.6C558.3 1.7 560.3 0.9 562.2 0H557.3C556.7 0.3 556.2 0.5 555.6 0.8C459.9 43.5 371 90.1 298.7 135.6C219.5 185.4 160.1 233.5 122.2 278.4L122.1 278.6C82.2999 348.6 81.3999 417.5 119.3 495.2C154.2 566.8 219.9 640.3 283.5 711.5C302.6 730.8 321.5 750.3 339.7 769.1C410 841.7 476.8 910.6 557.6 971.2H560.9C479.3 910.3 412 840.9 341.2 767.7Z" fill="#84428C"/>
<path d="M1920 69V66.1C1897.8 42.9 1871.8 20.8 1842 0H1838.5C1869.9 21.7 1897.1 44.7 1920 69Z" fill="#84428C"/>
</g>
</g>
</svg>
