<svg width="1920" height="889" viewBox="0 0 1920 889" fill="none" xmlns="http://www.w3.org/2000/svg">
<mask id="mask0" mask-type="alpha" maskUnits="userSpaceOnUse" x="0" y="300" width="1920" height="300">
<rect y="300" width="1920" height="300" fill="#C4C4C4"/>
</mask>
<g mask="url(#mask0)">
<path d="M1920 300H-1V1271.2H1920V300Z" fill="black"/>
<path d="M1920 998V300H520.5C332.1 402.1 184.5 519.6 166.7 620.7C132.1 746.6 238.7 863.4 363.6 1004.2C453.2 1097.2 536.1 1188 644.3 1262.5C648.4 1265.4 652.5 1268.3 656.6 1271.1H1842.7C1870.9 1191 1892.2 1100.6 1920 998Z" fill="#84428C"/>
<g style="mix-blend-mode:screen">
<path d="M1920 472C1888.5 418.7 1840.3 374.2 1782.9 337.1C1762.4 323.8 1740.7 311.5 1718.2 300H733.6C516.8 383.7 303.4 499.8 213.9 605.9C134.2 746 237.2 863.9 362.8 1004.5C454.3 1096.9 534.7 1188.5 642.1 1263.3C645.8 1266 649.5 1268.6 653.2 1271.2H1814C1841 1176 1862.5 1070.3 1898.5 950.8C1905.5 923.3 1912.9 895.9 1920 868.6V472Z" fill="#84428C"/>
</g>
<path d="M489.665 454.96V477.504H476.481V413.519H501.442C506.247 413.519 510.466 414.398 514.099 416.156C517.761 417.914 520.573 420.419 522.536 423.671C524.499 426.893 525.48 430.57 525.48 434.701C525.48 440.97 523.327 445.922 519.021 449.554C514.743 453.158 508.811 454.96 501.223 454.96H489.665ZM489.665 444.281H501.442C504.929 444.281 507.58 443.461 509.396 441.82C511.242 440.179 512.165 437.836 512.165 434.789C512.165 431.654 511.242 429.12 509.396 427.186C507.551 425.253 505.002 424.256 501.75 424.198H489.665V444.281Z" fill="white"/>
<path d="M560.08 477.504C559.494 476.361 559.069 474.94 558.806 473.241C555.729 476.669 551.73 478.382 546.809 478.382C542.15 478.382 538.283 477.035 535.207 474.339C532.16 471.644 530.637 468.246 530.637 464.144C530.637 459.105 532.497 455.238 536.218 452.543C539.968 449.847 545.373 448.485 552.434 448.456H558.278V445.731C558.278 443.534 557.707 441.776 556.564 440.458C555.451 439.139 553.679 438.48 551.247 438.48C549.108 438.48 547.424 438.993 546.193 440.018C544.992 441.044 544.392 442.45 544.392 444.237H531.691C531.691 441.483 532.541 438.934 534.24 436.59C535.939 434.247 538.342 432.416 541.447 431.097C544.553 429.75 548.039 429.076 551.906 429.076C557.766 429.076 562.409 430.555 565.837 433.514C569.294 436.444 571.022 440.575 571.022 445.907V466.517C571.052 471.029 571.682 474.442 572.912 476.756V477.504H560.08ZM549.577 468.671C551.452 468.671 553.181 468.26 554.763 467.44C556.345 466.59 557.517 465.463 558.278 464.056V455.882H553.532C547.175 455.882 543.791 458.08 543.381 462.474L543.337 463.221C543.337 464.803 543.894 466.107 545.007 467.132C546.12 468.158 547.644 468.671 549.577 468.671ZM554.411 410.004H568.254L556.081 423.627H545.754L554.411 410.004ZM578.933 453.378C578.933 446.083 580.661 440.209 584.118 435.755C587.604 431.302 592.292 429.076 598.181 429.076C603.396 429.076 607.453 430.863 610.354 434.437L610.881 429.955H622.395V475.922C622.395 480.082 621.442 483.7 619.538 486.776C617.663 489.852 615.012 492.196 611.584 493.807C608.156 495.419 604.143 496.224 599.543 496.224C596.057 496.224 592.658 495.521 589.348 494.115C586.037 492.738 583.532 490.951 581.833 488.754L587.458 481.019C590.622 484.564 594.46 486.337 598.972 486.337C602.341 486.337 604.963 485.428 606.838 483.612C608.713 481.825 609.65 479.276 609.65 475.965V473.417C606.721 476.727 602.868 478.382 598.093 478.382C592.38 478.382 587.751 476.156 584.206 471.703C580.69 467.22 578.933 461.288 578.933 453.905V453.378ZM591.633 454.3C591.633 458.607 592.497 461.991 594.226 464.452C595.954 466.883 598.327 468.099 601.345 468.099C605.212 468.099 607.98 466.649 609.65 463.749V443.754C607.951 440.853 605.212 439.403 601.433 439.403C598.386 439.403 595.983 440.648 594.226 443.138C592.497 445.629 591.633 449.349 591.633 454.3ZM645.598 477.504H632.854V429.955H645.598V477.504ZM632.106 417.65C632.106 415.746 632.736 414.178 633.996 412.948C635.285 411.717 637.028 411.102 639.226 411.102C641.394 411.102 643.122 411.717 644.411 412.948C645.7 414.178 646.345 415.746 646.345 417.65C646.345 419.584 645.686 421.166 644.367 422.396C643.078 423.627 641.364 424.242 639.226 424.242C637.087 424.242 635.358 423.627 634.04 422.396C632.751 421.166 632.106 419.584 632.106 417.65ZM667.79 429.955L668.186 435.448C671.584 431.2 676.14 429.076 681.853 429.076C686.892 429.076 690.642 430.555 693.103 433.514C695.563 436.473 696.823 440.897 696.882 446.786V477.504H684.182V447.093C684.182 444.398 683.596 442.45 682.424 441.249C681.252 440.018 679.304 439.403 676.579 439.403C673.005 439.403 670.324 440.926 668.537 443.973V477.504H655.837V429.955H667.79ZM734.104 477.504C733.518 476.361 733.093 474.94 732.829 473.241C729.753 476.669 725.754 478.382 720.832 478.382C716.174 478.382 712.307 477.035 709.23 474.339C706.184 471.644 704.66 468.246 704.66 464.144C704.66 459.105 706.521 455.238 710.241 452.543C713.991 449.847 719.396 448.485 726.457 448.456H732.302V445.731C732.302 443.534 731.73 441.776 730.588 440.458C729.475 439.139 727.702 438.48 725.271 438.48C723.132 438.48 721.447 438.993 720.217 440.018C719.016 441.044 718.415 442.45 718.415 444.237H705.715C705.715 441.483 706.564 438.934 708.264 436.59C709.963 434.247 712.365 432.416 715.471 431.097C718.576 429.75 722.062 429.076 725.93 429.076C731.789 429.076 736.433 430.555 739.86 433.514C743.317 436.444 745.046 440.575 745.046 445.907V466.517C745.075 471.029 745.705 474.442 746.936 476.756V477.504H734.104ZM723.601 468.671C725.476 468.671 727.204 468.26 728.786 467.44C730.368 466.59 731.54 465.463 732.302 464.056V455.882H727.556C721.198 455.882 717.814 458.08 717.404 462.474L717.36 463.221C717.36 464.803 717.917 466.107 719.03 467.132C720.144 468.158 721.667 468.671 723.601 468.671ZM780.554 464.364C780.554 462.811 779.777 461.595 778.225 460.716C776.701 459.808 774.24 459.003 770.842 458.299C759.533 455.926 753.879 451.122 753.879 443.885C753.879 439.667 755.622 436.151 759.108 433.339C762.624 430.497 767.209 429.076 772.863 429.076C778.898 429.076 783.718 430.497 787.321 433.339C790.954 436.18 792.771 439.872 792.771 444.413H780.07C780.07 442.596 779.484 441.102 778.312 439.93C777.141 438.729 775.31 438.129 772.819 438.129C770.681 438.129 769.025 438.612 767.854 439.579C766.682 440.546 766.096 441.776 766.096 443.27C766.096 444.676 766.755 445.819 768.073 446.698C769.421 447.547 771.677 448.295 774.841 448.939C778.005 449.554 780.671 450.257 782.839 451.048C789.548 453.509 792.902 457.772 792.902 463.837C792.902 468.172 791.042 471.688 787.321 474.383C783.601 477.049 778.796 478.382 772.907 478.382C768.923 478.382 765.378 477.679 762.272 476.273C759.196 474.838 756.779 472.889 755.021 470.428C753.264 467.938 752.385 465.257 752.385 462.386H764.426C764.543 464.642 765.378 466.371 766.931 467.572C768.483 468.773 770.563 469.374 773.171 469.374C775.603 469.374 777.434 468.92 778.664 468.011C779.924 467.074 780.554 465.858 780.554 464.364ZM864.885 460.233L871.125 429.955H883.386L871.257 477.504H860.622L851.613 447.577L842.604 477.504H832.014L819.885 429.955H832.146L838.342 460.189L847.043 429.955H856.228L864.885 460.233ZM911.599 478.382C904.626 478.382 898.942 476.244 894.548 471.966C890.183 467.689 888 461.991 888 454.872V453.641C888 448.866 888.923 444.603 890.769 440.853C892.614 437.074 895.222 434.173 898.591 432.152C901.989 430.101 905.856 429.076 910.192 429.076C916.696 429.076 921.809 431.127 925.529 435.228C929.279 439.33 931.154 445.145 931.154 452.674V457.86H900.876C901.286 460.965 902.517 463.456 904.567 465.331C906.647 467.206 909.27 468.143 912.434 468.143C917.326 468.143 921.149 466.371 923.903 462.826L930.144 469.813C928.239 472.508 925.661 474.618 922.409 476.141C919.157 477.635 915.554 478.382 911.599 478.382ZM910.148 439.359C907.629 439.359 905.578 440.209 903.996 441.908C902.443 443.607 901.447 446.039 901.008 449.203H918.674V448.192C918.615 445.38 917.854 443.212 916.389 441.688C914.924 440.135 912.844 439.359 910.148 439.359ZM981.252 454.169C981.252 461.786 979.626 467.733 976.374 472.01C973.122 476.258 968.581 478.382 962.751 478.382C957.595 478.382 953.479 476.405 950.402 472.45L949.831 477.504H938.405V410.004H951.105V434.217C954.035 430.79 957.888 429.076 962.663 429.076C968.464 429.076 973.005 431.214 976.286 435.492C979.597 439.74 981.252 445.731 981.252 453.465V454.169ZM968.552 453.246C968.552 448.441 967.79 444.94 966.267 442.743C964.743 440.516 962.473 439.403 959.455 439.403C955.412 439.403 952.629 441.058 951.105 444.369V463.133C952.658 466.473 955.471 468.143 959.543 468.143C963.645 468.143 966.34 466.122 967.629 462.079C968.244 460.145 968.552 457.201 968.552 453.246ZM1029.28 459.53L1038.07 429.955H1051.7L1032.58 484.886L1031.53 487.391C1028.68 493.602 1024 496.708 1017.46 496.708C1015.62 496.708 1013.74 496.429 1011.84 495.873V486.249L1013.77 486.293C1016.17 486.293 1017.96 485.926 1019.13 485.194C1020.33 484.462 1021.27 483.246 1021.95 481.547L1023.44 477.635L1006.78 429.955H1020.45L1029.28 459.53ZM1106.67 477.504C1106.09 476.361 1105.66 474.94 1105.4 473.241C1102.32 476.669 1098.32 478.382 1093.4 478.382C1088.74 478.382 1084.88 477.035 1081.8 474.339C1078.75 471.644 1077.23 468.246 1077.23 464.144C1077.23 459.105 1079.09 455.238 1082.81 452.543C1086.56 449.847 1091.96 448.485 1099.03 448.456H1104.87V445.731C1104.87 443.534 1104.3 441.776 1103.16 440.458C1102.04 439.139 1100.27 438.48 1097.84 438.48C1095.7 438.48 1094.02 438.993 1092.79 440.018C1091.58 441.044 1090.98 442.45 1090.98 444.237H1078.28C1078.28 441.483 1079.13 438.934 1080.83 436.59C1082.53 434.247 1084.93 432.416 1088.04 431.097C1091.14 429.75 1094.63 429.076 1098.5 429.076C1104.36 429.076 1109 430.555 1112.43 433.514C1115.89 436.444 1117.61 440.575 1117.61 445.907V466.517C1117.64 471.029 1118.27 474.442 1119.5 476.756V477.504H1106.67ZM1096.17 468.671C1098.04 468.671 1099.77 468.26 1101.35 467.44C1102.94 466.59 1104.11 465.463 1104.87 464.056V455.882H1100.12C1093.77 455.882 1090.38 458.08 1089.97 462.474L1089.93 463.221C1089.93 464.803 1090.49 466.107 1091.6 467.132C1092.71 468.158 1094.24 468.671 1096.17 468.671ZM1170.17 454.169C1170.17 461.493 1168.5 467.367 1165.16 471.791C1161.85 476.185 1157.37 478.382 1151.72 478.382C1146.91 478.382 1143.03 476.713 1140.07 473.373V495.785H1127.37V429.955H1139.15L1139.59 434.613C1142.66 430.922 1146.68 429.076 1151.63 429.076C1157.49 429.076 1162.04 431.244 1165.29 435.58C1168.55 439.916 1170.17 445.892 1170.17 453.509V454.169ZM1157.47 453.246C1157.47 448.822 1156.68 445.409 1155.1 443.006C1153.55 440.604 1151.28 439.403 1148.29 439.403C1144.3 439.403 1141.56 440.926 1140.07 443.973V463.441C1141.62 466.576 1144.39 468.143 1148.38 468.143C1154.44 468.143 1157.47 463.177 1157.47 453.246ZM1191.49 477.504H1178.74V410.004H1191.49V477.504ZM1215.39 477.504H1202.65V429.955H1215.39V477.504ZM1201.9 417.65C1201.9 415.746 1202.53 414.178 1203.79 412.948C1205.08 411.717 1206.82 411.102 1209.02 411.102C1211.19 411.102 1212.92 411.717 1214.21 412.948C1215.5 414.178 1216.14 415.746 1216.14 417.65C1216.14 419.584 1215.48 421.166 1214.16 422.396C1212.87 423.627 1211.16 424.242 1209.02 424.242C1206.88 424.242 1205.15 423.627 1203.83 422.396C1202.55 421.166 1201.9 419.584 1201.9 417.65ZM1245.67 468.143C1248.01 468.143 1249.92 467.499 1251.38 466.21C1252.85 464.921 1253.61 463.207 1253.67 461.068H1265.58C1265.55 464.291 1264.67 467.25 1262.94 469.945C1261.21 472.611 1258.84 474.691 1255.82 476.185C1252.83 477.65 1249.52 478.382 1245.89 478.382C1239.09 478.382 1233.73 476.229 1229.81 471.922C1225.88 467.587 1223.92 461.61 1223.92 453.993V453.158C1223.92 445.834 1225.87 439.989 1229.76 435.624C1233.66 431.258 1239.01 429.076 1245.8 429.076C1251.75 429.076 1256.51 430.775 1260.08 434.173C1263.69 437.543 1265.52 442.04 1265.58 447.665H1253.67C1253.61 445.204 1252.85 443.212 1251.38 441.688C1249.92 440.135 1247.99 439.359 1245.58 439.359C1242.62 439.359 1240.38 440.443 1238.86 442.611C1237.37 444.75 1236.62 448.236 1236.62 453.07V454.388C1236.62 459.281 1237.37 462.797 1238.86 464.935C1240.35 467.074 1242.62 468.143 1245.67 468.143ZM1300.38 477.504C1299.8 476.361 1299.37 474.94 1299.11 473.241C1296.03 476.669 1292.03 478.382 1287.11 478.382C1282.45 478.382 1278.59 477.035 1275.51 474.339C1272.46 471.644 1270.94 468.246 1270.94 464.144C1270.94 459.105 1272.8 455.238 1276.52 452.543C1280.27 449.847 1285.68 448.485 1292.74 448.456H1298.58V445.731C1298.58 443.534 1298.01 441.776 1296.87 440.458C1295.75 439.139 1293.98 438.48 1291.55 438.48C1289.41 438.48 1287.73 438.993 1286.5 440.018C1285.29 441.044 1284.69 442.45 1284.69 444.237H1271.99C1271.99 441.483 1272.84 438.934 1274.54 436.59C1276.24 434.247 1278.64 432.416 1281.75 431.097C1284.86 429.75 1288.34 429.076 1292.21 429.076C1298.07 429.076 1302.71 430.555 1306.14 433.514C1309.6 436.444 1311.33 440.575 1311.33 445.907V466.517C1311.35 471.029 1311.98 474.442 1313.21 476.756V477.504H1300.38ZM1289.88 468.671C1291.75 468.671 1293.48 468.26 1295.07 467.44C1296.65 466.59 1297.82 465.463 1298.58 464.056V455.882H1293.83C1287.48 455.882 1284.09 458.08 1283.68 462.474L1283.64 463.221C1283.64 464.803 1284.2 466.107 1285.31 467.132C1286.42 468.158 1287.95 468.671 1289.88 468.671ZM1340.86 468.143C1343.2 468.143 1345.1 467.499 1346.57 466.21C1348.03 464.921 1348.8 463.207 1348.85 461.068H1360.76C1360.73 464.291 1359.86 467.25 1358.13 469.945C1356.4 472.611 1354.03 474.691 1351.01 476.185C1348.02 477.65 1344.71 478.382 1341.08 478.382C1334.28 478.382 1328.92 476.229 1324.99 471.922C1321.07 467.587 1319.1 461.61 1319.1 453.993V453.158C1319.1 445.834 1321.05 439.989 1324.95 435.624C1328.84 431.258 1334.19 429.076 1340.99 429.076C1346.94 429.076 1351.7 430.775 1355.27 434.173C1358.87 437.543 1360.71 442.04 1360.76 447.665H1348.85C1348.8 445.204 1348.03 443.212 1346.57 441.688C1345.1 440.135 1343.17 439.359 1340.77 439.359C1337.81 439.359 1335.57 440.443 1334.04 442.611C1332.55 444.75 1331.8 448.236 1331.8 453.07V454.388C1331.8 459.281 1332.55 462.797 1334.04 464.935C1335.54 467.074 1337.81 468.143 1340.86 468.143ZM1381.42 477.504H1368.67V429.955H1381.42V477.504ZM1367.93 417.65C1367.93 415.746 1368.56 414.178 1369.82 412.948C1371.11 411.717 1372.85 411.102 1375.05 411.102C1377.21 411.102 1378.94 411.717 1380.23 412.948C1381.52 414.178 1382.17 415.746 1382.17 417.65C1382.17 419.584 1381.51 421.166 1380.19 422.396C1378.9 423.627 1377.18 424.242 1375.05 424.242C1372.91 424.242 1371.18 423.627 1369.86 422.396C1368.57 421.166 1367.93 419.584 1367.93 417.65ZM1389.94 453.29C1389.94 448.573 1390.85 444.369 1392.67 440.677C1394.48 436.986 1397.09 434.13 1400.49 432.108C1403.92 430.087 1407.89 429.076 1412.4 429.076C1418.82 429.076 1424.04 431.039 1428.09 434.964C1432.16 438.89 1434.43 444.222 1434.9 450.961L1434.99 454.213C1434.99 461.507 1432.95 467.367 1428.88 471.791C1424.81 476.185 1419.34 478.382 1412.49 478.382C1405.63 478.382 1400.15 476.185 1396.05 471.791C1391.98 467.396 1389.94 461.42 1389.94 453.861V453.29ZM1402.64 454.213C1402.64 458.724 1403.49 462.181 1405.19 464.584C1406.89 466.957 1409.32 468.143 1412.49 468.143C1415.56 468.143 1417.97 466.971 1419.69 464.628C1421.42 462.255 1422.29 458.475 1422.29 453.29C1422.29 448.866 1421.42 445.438 1419.69 443.006C1417.97 440.575 1415.53 439.359 1412.4 439.359C1409.29 439.359 1406.89 440.575 1405.19 443.006C1403.49 445.409 1402.64 449.144 1402.64 454.213ZM1454.5 429.955L1454.89 435.448C1458.29 431.2 1462.85 429.076 1468.56 429.076C1473.6 429.076 1477.35 430.555 1479.81 433.514C1482.27 436.473 1483.53 440.897 1483.59 446.786V477.504H1470.89V447.093C1470.89 444.398 1470.3 442.45 1469.13 441.249C1467.96 440.018 1466.01 439.403 1463.29 439.403C1459.71 439.403 1457.03 440.926 1455.25 443.973V477.504H1442.55V429.955H1454.5ZM1515.14 478.382C1508.17 478.382 1502.49 476.244 1498.09 471.966C1493.73 467.689 1491.54 461.991 1491.54 454.872V453.641C1491.54 448.866 1492.47 444.603 1494.31 440.853C1496.16 437.074 1498.77 434.173 1502.14 432.152C1505.53 430.101 1509.4 429.076 1513.74 429.076C1520.24 429.076 1525.35 431.127 1529.07 435.228C1532.82 439.33 1534.7 445.145 1534.7 452.674V457.86H1504.42C1504.83 460.965 1506.06 463.456 1508.11 465.331C1510.19 467.206 1512.81 468.143 1515.98 468.143C1520.87 468.143 1524.69 466.371 1527.45 462.826L1533.69 469.813C1531.78 472.508 1529.21 474.618 1525.95 476.141C1522.7 477.635 1519.1 478.382 1515.14 478.382ZM1513.69 439.359C1511.17 439.359 1509.12 440.209 1507.54 441.908C1505.99 443.607 1504.99 446.039 1504.55 449.203H1522.22V448.192C1522.16 445.38 1521.4 443.212 1519.93 441.688C1518.47 440.135 1516.39 439.359 1513.69 439.359ZM1567.7 464.364C1567.7 462.811 1566.93 461.595 1565.37 460.716C1563.85 459.808 1561.39 459.003 1557.99 458.299C1546.68 455.926 1541.03 451.122 1541.03 443.885C1541.03 439.667 1542.77 436.151 1546.26 433.339C1549.77 430.497 1554.36 429.076 1560.01 429.076C1566.05 429.076 1570.87 430.497 1574.47 433.339C1578.1 436.18 1579.92 439.872 1579.92 444.413H1567.22C1567.22 442.596 1566.63 441.102 1565.46 439.93C1564.29 438.729 1562.46 438.129 1559.97 438.129C1557.83 438.129 1556.17 438.612 1555 439.579C1553.83 440.546 1553.24 441.776 1553.24 443.27C1553.24 444.676 1553.9 445.819 1555.22 446.698C1556.57 447.547 1558.83 448.295 1561.99 448.939C1565.15 449.554 1567.82 450.257 1569.99 451.048C1576.7 453.509 1580.05 457.772 1580.05 463.837C1580.05 468.172 1578.19 471.688 1574.47 474.383C1570.75 477.049 1565.94 478.382 1560.06 478.382C1556.07 478.382 1552.53 477.679 1549.42 476.273C1546.34 474.838 1543.93 472.889 1542.17 470.428C1540.41 467.938 1539.53 465.257 1539.53 462.386H1551.57C1551.69 464.642 1552.53 466.371 1554.08 467.572C1555.63 468.773 1557.71 469.374 1560.32 469.374C1562.75 469.374 1564.58 468.92 1565.81 468.011C1567.07 467.074 1567.7 465.858 1567.7 464.364ZM1652.03 460.233L1658.27 429.955H1670.53L1658.41 477.504H1647.77L1638.76 447.577L1629.75 477.504H1619.16L1607.03 429.955H1619.29L1625.49 460.189L1634.19 429.955H1643.38L1652.03 460.233ZM1698.75 478.382C1691.77 478.382 1686.09 476.244 1681.7 471.966C1677.33 467.689 1675.15 461.991 1675.15 454.872V453.641C1675.15 448.866 1676.07 444.603 1677.92 440.853C1679.76 437.074 1682.37 434.173 1685.74 432.152C1689.14 430.101 1693 429.076 1697.34 429.076C1703.84 429.076 1708.96 431.127 1712.68 435.228C1716.43 439.33 1718.3 445.145 1718.3 452.674V457.86H1688.02C1688.43 460.965 1689.67 463.456 1691.72 465.331C1693.8 467.206 1696.42 468.143 1699.58 468.143C1704.47 468.143 1708.3 466.371 1711.05 462.826L1717.29 469.813C1715.39 472.508 1712.81 474.618 1709.56 476.141C1706.31 477.635 1702.7 478.382 1698.75 478.382ZM1697.3 439.359C1694.78 439.359 1692.73 440.209 1691.14 441.908C1689.59 443.607 1688.6 446.039 1688.16 449.203H1705.82V448.192C1705.76 445.38 1705 443.212 1703.54 441.688C1702.07 440.135 1699.99 439.359 1697.3 439.359ZM1768.4 454.169C1768.4 461.786 1766.77 467.733 1763.52 472.01C1760.27 476.258 1755.73 478.382 1749.9 478.382C1744.74 478.382 1740.63 476.405 1737.55 472.45L1736.98 477.504H1725.55V410.004H1738.25V434.217C1741.18 430.79 1745.04 429.076 1749.81 429.076C1755.61 429.076 1760.15 431.214 1763.43 435.492C1766.75 439.74 1768.4 445.731 1768.4 453.465V454.169ZM1755.7 453.246C1755.7 448.441 1754.94 444.94 1753.42 442.743C1751.89 440.516 1749.62 439.403 1746.6 439.403C1742.56 439.403 1739.78 441.058 1738.25 444.369V463.133C1739.81 466.473 1742.62 468.143 1746.69 468.143C1750.79 468.143 1753.49 466.122 1754.78 462.079C1755.39 460.145 1755.7 457.201 1755.7 453.246Z" fill="white"/>
<path d="M357.6 460.2H436.3L407.7 437.8" stroke="white" stroke-width="3.601" stroke-miterlimit="10"/>
<g style="mix-blend-mode:screen">
<path d="M370.3 1062.4C352.6 1044.2 334.4 1025.3 316 1006.7C254.6 938.1 191.2 867 157.6 798.1C121.3 723.6 122.1 657.6 160.2 590.5C230.2 507.7 382.6 410 578.5 322.6C595.8 314.9 613.3 307.3 630.7 300H625.6C609.6 306.8 593.6 313.7 577.7 320.8C485.1 362.1 399.2 407.2 329.2 451.2C252.6 499.4 195.2 545.8 158.6 589.3L158.5 589.5C120 657.2 119.1 723.8 155.8 799C189.5 868.2 253.1 939.3 314.6 1008.2C333.1 1026.8 351.3 1045.7 369 1063.9C441.6 1138.9 510.4 1209.9 596 1271.3H599.4C512.8 1209.5 443.5 1138 370.3 1062.4Z" fill="#84428C"/>
<path d="M1802 309.3C1851.1 341 1890.4 375.9 1920 413.6V410.4C1890.5 373.3 1851.4 339 1803.1 307.7C1799.2 305.1 1795.1 302.6 1791.1 300.1H1787.3C1792.2 303.1 1797.2 306.2 1802 309.3Z" fill="#84428C"/>
<path d="M1885.8 300C1897.9 309.4 1909.4 319.1 1920.1 329V326.3C1910.3 317.4 1900 308.6 1889.1 300H1885.8Z" fill="#84428C"/>
<path d="M306.2 1075.5C287.3 1056 267.7 1035.8 247.9 1015.8C182.1 942.2 114.1 866 78.1001 792.1C39.1001 712.2 40.0001 641.5 80.9001 569.5C151.2 486.3 299.4 389 490.7 300H486C403 338.8 326.3 380 262.2 420.4C180.1 472.1 118.6 521.8 79.3001 568.4L79.2001 568.6C37.9001 641.1 37.0001 712.4 76.3001 793C112.5 867.2 180.6 943.4 246.5 1017.2C266.3 1037.2 285.9 1057.4 304.8 1076.9C371.8 1146.1 435.8 1212.1 510.9 1271.2H514.1C438.2 1211.8 373.7 1145.3 306.2 1075.5Z" fill="#84428C"/>
<path d="M341.2 1067.7C322.9 1048.8 304.1 1029.4 285 1010.1C221.5 939 155.9 865.6 121.1 794.3C83.4999 717.2 84.3999 649 123.8 579.6C196.2 493.9 353.8 393 556.4 302.6C558.3 301.7 560.3 300.9 562.2 300H557.3C556.7 300.3 556.2 300.5 555.6 300.8C459.9 343.5 371 390.1 298.7 435.6C219.5 485.4 160.1 533.5 122.2 578.4L122.1 578.6C82.2999 648.6 81.3999 717.5 119.3 795.2C154.2 866.8 219.9 940.3 283.5 1011.5C302.6 1030.8 321.5 1050.3 339.7 1069.1C410 1141.7 476.8 1210.6 557.6 1271.2H560.9C479.3 1210.3 412 1140.9 341.2 1067.7Z" fill="#84428C"/>
<path d="M1920 369V366.1C1897.8 342.9 1871.8 320.8 1842 300H1838.5C1869.9 321.7 1897.1 344.7 1920 369Z" fill="#84428C"/>
</g>
</g>
<mask id="mask1" mask-type="alpha" maskUnits="userSpaceOnUse" x="0" y="0" width="1920" height="300">
<rect width="1920" height="300" fill="#C4C4C4"/>
</mask>
<g mask="url(#mask1)">
<path d="M1921 -29H0V942.2H1921V-29Z" fill="black"/>
<path d="M843.5 218.2H761.3V216.2H837.7L811.2 195.5L812.4 193.9L843.5 218.2Z" fill="white"/>
<path d="M425.7 333.2L708.5 942.3H1912.3L1921 938.3V-29H480.9C394.1 66.6 367.9 208.6 425.7 333.2Z" fill="#94D2DD"/>
<g style="mix-blend-mode:multiply">
<path d="M1921 927.3V404.3L1719.8 -29H490.5C396.1 66.5 365.8 214.2 425.7 343.2L703.8 942.2H1904.7C1910.4 937.4 1915.8 932.5 1921 927.3Z" fill="#94D2DD"/>
</g>
<path d="M918.208 168.084C918.208 165.575 917.322 163.655 915.551 162.327C913.779 160.968 910.59 159.551 905.984 158.075C901.378 156.569 897.731 155.092 895.044 153.646C887.721 149.689 884.06 144.359 884.06 137.657C884.06 134.173 885.034 131.072 886.983 128.356C888.961 125.61 891.781 123.469 895.443 121.934C899.133 120.398 903.267 119.63 907.844 119.63C912.45 119.63 916.554 120.472 920.157 122.155C923.759 123.809 926.549 126.156 928.528 129.197C930.536 132.239 931.539 135.693 931.539 139.561H918.252C918.252 136.609 917.322 134.32 915.462 132.696C913.602 131.043 910.989 130.216 907.622 130.216C904.375 130.216 901.85 130.91 900.049 132.298C898.248 133.656 897.347 135.457 897.347 137.701C897.347 139.797 898.395 141.554 900.492 142.972C902.618 144.389 905.733 145.718 909.837 146.958C917.396 149.231 922.903 152.051 926.357 155.417C929.812 158.783 931.539 162.976 931.539 167.996C931.539 173.576 929.428 177.961 925.206 181.15C920.983 184.31 915.3 185.889 908.154 185.889C903.193 185.889 898.676 184.989 894.601 183.188C890.526 181.357 887.411 178.862 885.256 175.702C883.13 172.543 882.067 168.882 882.067 164.718H895.398C895.398 171.834 899.65 175.392 908.154 175.392C911.313 175.392 913.779 174.758 915.551 173.488C917.322 172.189 918.208 170.388 918.208 168.084ZM937.74 160.599C937.74 155.845 938.655 151.608 940.486 147.888C942.317 144.167 944.945 141.289 948.37 139.251C951.825 137.214 955.825 136.195 960.373 136.195C966.839 136.195 972.11 138.173 976.184 142.13C980.289 146.087 982.577 151.461 983.049 158.252L983.138 161.529C983.138 168.882 981.086 174.787 976.982 179.246C972.877 183.675 967.371 185.889 960.461 185.889C953.552 185.889 948.03 183.675 943.897 179.246C939.792 174.817 937.74 168.793 937.74 161.175V160.599ZM950.54 161.529C950.54 166.077 951.396 169.561 953.109 171.982C954.822 174.374 957.272 175.57 960.461 175.57C963.562 175.57 965.983 174.388 967.725 172.026C969.467 169.635 970.338 165.826 970.338 160.599C970.338 156.141 969.467 152.686 967.725 150.235C965.983 147.785 963.532 146.559 960.373 146.559C957.243 146.559 954.822 147.785 953.109 150.235C951.396 152.656 950.54 156.421 950.54 161.529ZM1004.53 185.003H991.686V116.973H1004.53V185.003ZM1043.82 180.131C1040.66 183.97 1036.29 185.889 1030.71 185.889C1025.57 185.889 1021.64 184.413 1018.92 181.46C1016.24 178.507 1014.86 174.182 1014.81 168.483V137.081H1027.61V168.04C1027.61 173.03 1029.88 175.525 1034.43 175.525C1038.77 175.525 1041.75 174.019 1043.37 171.008V137.081H1056.22V185.003H1044.17L1043.82 180.131ZM1085.8 175.57C1088.17 175.57 1090.09 174.92 1091.56 173.621C1093.04 172.322 1093.81 170.594 1093.86 168.439H1105.87C1105.84 171.687 1104.95 174.669 1103.21 177.385C1101.47 180.072 1099.08 182.169 1096.03 183.675C1093.02 185.151 1089.69 185.889 1086.03 185.889C1079.17 185.889 1073.77 183.719 1069.81 179.379C1065.86 175.009 1063.88 168.985 1063.88 161.308V160.466C1063.88 153.085 1065.84 147.194 1069.77 142.794C1073.7 138.395 1079.09 136.195 1085.94 136.195C1091.93 136.195 1096.73 137.908 1100.33 141.333C1103.96 144.728 1105.81 149.261 1105.87 154.93H1093.86C1093.81 152.45 1093.04 150.442 1091.56 148.907C1090.09 147.342 1088.14 146.559 1085.72 146.559C1082.73 146.559 1080.47 147.652 1078.94 149.837C1077.43 151.992 1076.68 155.506 1076.68 160.378V161.707C1076.68 166.638 1077.43 170.181 1078.94 172.336C1080.44 174.492 1082.73 175.57 1085.8 175.57ZM1126.68 185.003H1113.84V137.081H1126.68V185.003ZM1113.09 124.68C1113.09 122.76 1113.72 121.181 1114.99 119.94C1116.29 118.7 1118.05 118.08 1120.26 118.08C1122.45 118.08 1124.19 118.7 1125.49 119.94C1126.79 121.181 1127.44 122.76 1127.44 124.68C1127.44 126.628 1126.77 128.223 1125.44 129.463C1124.14 130.703 1122.42 131.323 1120.26 131.323C1118.11 131.323 1116.36 130.703 1115.04 129.463C1113.74 128.223 1113.09 126.628 1113.09 124.68ZM1135.28 160.599C1135.28 155.845 1136.19 151.608 1138.02 147.888C1139.85 144.167 1142.48 141.289 1145.91 139.251C1149.36 137.214 1153.36 136.195 1157.91 136.195C1164.38 136.195 1169.65 138.173 1173.72 142.13C1177.82 146.087 1180.11 151.461 1180.59 158.252L1180.67 161.529C1180.67 168.882 1178.62 174.787 1174.52 179.246C1170.41 183.675 1164.91 185.889 1158 185.889C1151.09 185.889 1145.57 183.675 1141.43 179.246C1137.33 174.817 1135.28 168.793 1135.28 161.175V160.599ZM1148.08 161.529C1148.08 166.077 1148.93 169.561 1150.65 171.982C1152.36 174.374 1154.81 175.57 1158 175.57C1161.1 175.57 1163.52 174.388 1165.26 172.026C1167 169.635 1167.87 165.826 1167.87 160.599C1167.87 156.141 1167 152.686 1165.26 150.235C1163.52 147.785 1161.07 146.559 1157.91 146.559C1154.78 146.559 1152.36 147.785 1150.65 150.235C1148.93 152.656 1148.08 156.421 1148.08 161.529ZM1200.34 137.081L1200.74 142.617C1204.16 138.336 1208.75 136.195 1214.51 136.195C1219.59 136.195 1223.37 137.686 1225.85 140.669C1228.33 143.651 1229.6 148.109 1229.66 154.044V185.003H1216.86V154.354C1216.86 151.638 1216.27 149.674 1215.09 148.464C1213.91 147.224 1211.94 146.603 1209.2 146.603C1205.6 146.603 1202.89 148.139 1201.09 151.21V185.003H1188.29V137.081H1200.34ZM1261.46 185.889C1254.43 185.889 1248.7 183.734 1244.28 179.423C1239.88 175.112 1237.68 169.369 1237.68 162.194V160.954C1237.68 156.141 1238.61 151.845 1240.47 148.065C1242.33 144.256 1244.95 141.333 1248.35 139.295C1251.78 137.229 1255.67 136.195 1260.04 136.195C1266.6 136.195 1271.75 138.262 1275.5 142.396C1279.28 146.53 1281.17 152.391 1281.17 159.979V165.206H1250.65C1251.07 168.335 1252.31 170.845 1254.37 172.735C1256.47 174.625 1259.11 175.57 1262.3 175.57C1267.23 175.57 1271.09 173.783 1273.86 170.21L1280.15 177.253C1278.23 179.969 1275.63 182.095 1272.36 183.63C1269.08 185.136 1265.45 185.889 1261.46 185.889ZM1260 146.559C1257.46 146.559 1255.39 147.415 1253.8 149.128C1252.23 150.841 1251.23 153.291 1250.79 156.48H1268.59V155.462C1268.53 152.627 1267.76 150.442 1266.29 148.907C1264.81 147.342 1262.72 146.559 1260 146.559ZM1314.43 171.761C1314.43 170.196 1313.65 168.97 1312.08 168.084C1310.55 167.169 1308.07 166.357 1304.64 165.648C1293.25 163.257 1287.55 158.414 1287.55 151.121C1287.55 146.869 1289.3 143.326 1292.82 140.491C1296.36 137.627 1300.98 136.195 1306.68 136.195C1312.76 136.195 1317.62 137.627 1321.25 140.491C1324.91 143.355 1326.74 147.076 1326.74 151.653H1313.94C1313.94 149.822 1313.35 148.316 1312.17 147.135C1310.99 145.924 1309.15 145.319 1306.64 145.319C1304.48 145.319 1302.81 145.806 1301.63 146.781C1300.45 147.755 1299.86 148.995 1299.86 150.501C1299.86 151.918 1300.52 153.07 1301.85 153.956C1303.21 154.812 1305.49 155.565 1308.67 156.215C1311.86 156.835 1314.55 157.543 1316.73 158.34C1323.5 160.821 1326.88 165.117 1326.88 171.229C1326.88 175.599 1325 179.142 1321.25 181.859C1317.5 184.546 1312.66 185.889 1306.73 185.889C1302.71 185.889 1299.14 185.181 1296.01 183.763C1292.91 182.316 1290.47 180.353 1288.7 177.873C1286.93 175.363 1286.04 172.661 1286.04 169.767H1298.18C1298.3 172.041 1299.14 173.783 1300.7 174.994C1302.27 176.204 1304.36 176.81 1306.99 176.81C1309.44 176.81 1311.29 176.352 1312.53 175.437C1313.8 174.492 1314.43 173.266 1314.43 171.761ZM1379.8 185.889C1372.78 185.889 1367.05 183.734 1362.62 179.423C1358.22 175.112 1356.02 169.369 1356.02 162.194V160.954C1356.02 156.141 1356.95 151.845 1358.81 148.065C1360.67 144.256 1363.3 141.333 1366.69 139.295C1370.12 137.229 1374.02 136.195 1378.39 136.195C1384.94 136.195 1390.1 138.262 1393.84 142.396C1397.62 146.53 1399.51 152.391 1399.51 159.979V165.206H1369C1369.41 168.335 1370.65 170.845 1372.72 172.735C1374.81 174.625 1377.46 175.57 1380.65 175.57C1385.58 175.57 1389.43 173.783 1392.21 170.21L1398.5 177.253C1396.58 179.969 1393.98 182.095 1390.7 183.63C1387.42 185.136 1383.79 185.889 1379.8 185.889ZM1378.34 146.559C1375.8 146.559 1373.74 147.415 1372.14 149.128C1370.58 150.841 1369.57 153.291 1369.13 156.48H1386.94V155.462C1386.88 152.627 1386.11 150.442 1384.63 148.907C1383.16 147.342 1381.06 146.559 1378.34 146.559ZM1418.6 137.081L1419 142.617C1422.43 138.336 1427.02 136.195 1432.78 136.195C1437.86 136.195 1441.63 137.686 1444.11 140.669C1446.6 143.651 1447.86 148.109 1447.92 154.044V185.003H1435.12V154.354C1435.12 151.638 1434.53 149.674 1433.35 148.464C1432.17 147.224 1430.21 146.603 1427.46 146.603C1423.86 146.603 1421.16 148.139 1419.36 151.21V185.003H1406.56V137.081H1418.6ZM1493.76 185.003H1480.92V116.973H1493.76V185.003ZM1532.12 185.003C1531.53 183.852 1531.1 182.42 1530.84 180.707C1527.74 184.162 1523.71 185.889 1518.74 185.889C1514.05 185.889 1510.15 184.531 1507.05 181.814C1503.98 179.098 1502.45 175.673 1502.45 171.539C1502.45 166.46 1504.32 162.563 1508.07 159.846C1511.85 157.13 1517.3 155.757 1524.41 155.727H1530.3V152.981C1530.3 150.767 1529.73 148.995 1528.58 147.666C1527.46 146.338 1525.67 145.673 1523.22 145.673C1521.06 145.673 1519.36 146.19 1518.12 147.224C1516.91 148.257 1516.31 149.674 1516.31 151.475H1503.51C1503.51 148.7 1504.36 146.131 1506.08 143.769C1507.79 141.407 1510.21 139.561 1513.34 138.233C1516.47 136.874 1519.98 136.195 1523.88 136.195C1529.79 136.195 1534.47 137.686 1537.92 140.669C1541.41 143.621 1543.15 147.785 1543.15 153.158V173.931C1543.18 178.478 1543.81 181.918 1545.05 184.25V185.003H1532.12ZM1521.53 176.101C1523.42 176.101 1525.17 175.688 1526.76 174.861C1528.36 174.005 1529.54 172.868 1530.3 171.45V163.212H1525.52C1519.11 163.212 1515.7 165.427 1515.29 169.856L1515.25 170.609C1515.25 172.203 1515.81 173.517 1516.93 174.551C1518.05 175.584 1519.59 176.101 1521.53 176.101ZM1587.35 137.081L1587.75 142.617C1591.17 138.336 1595.77 136.195 1601.52 136.195C1606.6 136.195 1610.38 137.686 1612.86 140.669C1615.34 143.651 1616.61 148.109 1616.67 154.044V185.003H1603.87V154.354C1603.87 151.638 1603.28 149.674 1602.1 148.464C1600.92 147.224 1598.95 146.603 1596.21 146.603C1592.61 146.603 1589.9 148.139 1588.1 151.21V185.003H1575.3V137.081H1587.35ZM1655.12 180.131C1651.96 183.97 1647.59 185.889 1642.01 185.889C1636.87 185.889 1632.94 184.413 1630.22 181.46C1627.54 178.507 1626.16 174.182 1626.11 168.483V137.081H1638.9V168.04C1638.9 173.03 1641.18 175.525 1645.73 175.525C1650.07 175.525 1653.05 174.019 1654.67 171.008V137.081H1667.52V185.003H1655.47L1655.12 180.131ZM1720.36 161.485C1720.36 169.162 1718.72 175.156 1715.44 179.467C1712.16 183.749 1707.59 185.889 1701.71 185.889C1696.51 185.889 1692.36 183.896 1689.26 179.91L1688.69 185.003H1677.17V116.973H1689.97V141.377C1692.92 137.922 1696.81 136.195 1701.62 136.195C1707.47 136.195 1712.04 138.351 1715.35 142.662C1718.69 146.943 1720.36 152.981 1720.36 160.776V161.485ZM1707.56 160.555C1707.56 155.713 1706.79 152.184 1705.25 149.97C1703.72 147.725 1701.43 146.603 1698.39 146.603C1694.31 146.603 1691.51 148.272 1689.97 151.608V170.52C1691.54 173.886 1694.37 175.57 1698.48 175.57C1702.61 175.57 1705.33 173.532 1706.63 169.457C1707.25 167.509 1707.56 164.541 1707.56 160.555ZM1750.34 185.889C1743.31 185.889 1737.58 183.734 1733.16 179.423C1728.76 175.112 1726.56 169.369 1726.56 162.194V160.954C1726.56 156.141 1727.49 151.845 1729.35 148.065C1731.21 144.256 1733.83 141.333 1737.23 139.295C1740.66 137.229 1744.55 136.195 1748.92 136.195C1755.48 136.195 1760.63 138.262 1764.38 142.396C1768.16 146.53 1770.05 152.391 1770.05 159.979V165.206H1739.53C1739.95 168.335 1741.19 170.845 1743.25 172.735C1745.35 174.625 1747.99 175.57 1751.18 175.57C1756.11 175.57 1759.97 173.783 1762.74 170.21L1769.03 177.253C1767.11 179.969 1764.51 182.095 1761.24 183.63C1757.96 185.136 1754.33 185.889 1750.34 185.889ZM1748.88 146.559C1746.34 146.559 1744.27 147.415 1742.68 149.128C1741.11 150.841 1740.11 153.291 1739.67 156.48H1757.47V155.462C1757.41 152.627 1756.64 150.442 1755.17 148.907C1753.69 147.342 1751.6 146.559 1748.88 146.559Z" fill="white"/>
<g style="mix-blend-mode:screen">
<path d="M389.3 336.5C350.4 252.7 346.4 158.8 378.1 72.1C391.8 34.8 411.3 0.799999 435.8 -29H433.2C409.1 0.6 389.8 34.4 376.2 71.4C344.3 158.6 348.3 253.1 387.4 337.4L668.3 942.3H670.5L389.3 336.5Z" fill="#94D2DD"/>
</g>
<g style="mix-blend-mode:screen">
<path d="M352.4 332.6C295.8 210.9 313.1 73.4 385.6 -29H383C364.7 -3 349.9 25.2 338.9 55.5C322.7 99.8 315.3 146.1 316.9 193.1C318.6 241.7 329.9 289 350.6 333.5L633.3 942.3H635.5L352.4 332.6Z" fill="#94D2DD"/>
</g>
<g style="mix-blend-mode:screen">
<path d="M310.5 329.8C267.8 237.9 263.5 134.8 298.3 39.7C307.2 15.5 318.3 -7.5 331.5 -29H329.3C316.2 -7.6 305.2 15.2 296.5 39.1C279.5 85.6 271.7 134.1 273.4 183.4C275.2 234.4 287.1 283.9 308.8 330.7L592.8 942.3H594.9L310.5 329.8Z" fill="#94D2DD"/>
</g>
<g style="mix-blend-mode:screen">
<path d="M1788.4 -29L1921 256.6V251.9L1790.6 -29H1788.4Z" fill="#94D2DD"/>
<path d="M1753.8 -29L1921 331.1V326.3L1756 -29H1753.8Z" fill="#94D2DD"/>
<path d="M1826.7 -29L1921 174.1V169.5L1828.8 -29H1826.7Z" fill="#94D2DD"/>
</g>
<path d="M843.5 168.2H761.3V166.2H837.7L811.2 145.5L812.4 143.9L843.5 168.2Z" fill="white"/>
</g>
<mask id="mask2" mask-type="alpha" maskUnits="userSpaceOnUse" x="0" y="0" width="1921" height="900">
<rect width="1921" height="900" fill="#C4C4C4"/>
</mask>
<g mask="url(#mask2)">
<path d="M1921 0H0V971.2H1921V0Z" fill="black"/>
<path d="M1921 285.3C1815.8 182.8 1688.3 85.2 1543.1 0H214.3C208.4 16.2 202.8 32.6 197.5 48.8C182.2 95.3 167.6 140.7 154.3 188.4C89.2998 414.9 138.6 612.4 299.6 778.3C366.3 847.4 436.1 911.8 508.9 971.2H1921V285.3Z" fill="#B3D172"/>
<g style="mix-blend-mode:multiply">
<path d="M1921 285.2C1815.8 182.7 1688.4 85.2 1543.2 0H266.7C323.6 266.2 593.6 580.9 988.2 804.7C1113.4 875.7 1240.1 931.2 1362.9 971.2H1921V285.2Z" fill="#B3D172"/>
</g>
<g style="mix-blend-mode:screen">
<path d="M966.1 831.6C740.5 703.6 546.9 544.6 406.3 371.7C302.8 244.5 234.4 118.1 204.5 0H202.6C212.8 40 227.4 81.2 246.5 123.2C283.8 205.6 337 289.6 404.8 372.9C473.4 457.2 555.3 539 648.4 615.9C744.6 695.5 851.2 768.6 965.2 833.3C1059.9 887 1156.7 933.2 1254.1 971.2H1260C1162.2 933.4 1063.5 886.8 966.1 831.6Z" fill="#B3D172"/>
<path d="M1921 245.9V243.3C1896.2 220.5 1870.5 198 1843.9 176C1767.7 112.9 1685.1 53.9 1597.4 0H1593.6C1714.3 74 1824.6 156.9 1921 245.9Z" fill="#B3D172"/>
</g>
<g style="mix-blend-mode:screen">
<path d="M977.9 875.7C738.9 740.1 533.8 571.6 384.8 388.4C276.8 255.6 204.8 123.6 172.4 0H170.4C181.1 40.7 196.2 82.5 215.5 125.2C255 212.5 311.4 301.5 383.2 389.8C455.9 479.1 542.7 565.7 641.3 647.3C743.2 731.5 856.1 809 976.9 877.5C1037.1 911.6 1098.1 942.9 1159.6 971.2H1164.9C1102.5 942.7 1039.9 910.8 977.9 875.7Z" fill="#B3D172"/>
<path d="M1921 194.6V192C1916.7 188.3 1912.3 184.7 1907.9 181.1C1829.8 116.3 1745.2 55.7 1655.5 0H1651.5C1748.3 59.9 1838.7 125.2 1921 194.6Z" fill="#B3D172"/>
</g>
<g style="mix-blend-mode:screen">
<path d="M973 903C722.3 760.8 507.3 584.2 351.1 392.2C242.2 258.3 168.2 125.2 132.5 0H130.4C141.3 37.9 155.6 76.7 173.5 116.1C214.8 207.7 274 301 349.3 393.6C425.5 487.3 516.5 578.1 619.9 663.6C726.8 751.9 845.2 833.1 971.9 905C1013.1 928.4 1054.7 950.5 1096.6 971.2H1101.8C1058.7 950 1015.7 927.3 973 903Z" fill="#B3D172"/>
<path d="M1707.5 0H1703.4C1780.2 48.7 1853 100.7 1921.1 155.4V152.7C1853.9 98.8 1782.4 47.7 1707.5 0Z" fill="#B3D172"/>
</g>
</g>
</svg>
