<svg width="36" height="37" viewBox="0 0 36 37" fill="none" xmlns="http://www.w3.org/2000/svg">
<path d="M32.7699 22.81C32.2899 22.81 31.8999 23.2 31.8999 23.68V31.39C31.8999 32.83 30.7299 33.99 29.2999 33.99H4.94989C3.50989 33.99 2.34988 32.82 2.34988 31.39V8.77C2.34988 7.33 3.51989 6.17 4.94989 6.17H12.6599C13.1399 6.17 13.5299 5.78 13.5299 5.3C13.5299 4.82 13.1399 4.42999 12.6599 4.42999H4.94989C2.54989 4.42999 0.609863 6.37 0.609863 8.77V31.39C0.609863 33.79 2.54989 35.73 4.94989 35.73H29.2999C31.6999 35.73 33.6399 33.79 33.6399 31.39V23.68C33.6299 23.2 33.2399 22.81 32.7699 22.81Z" fill="black" stroke="black" stroke-width="0.5829" stroke-miterlimit="10"/>
<path d="M33.2898 2.19999C31.7598 0.66999 29.2898 0.66999 27.7698 2.19999L12.2898 17.68C12.1798 17.79 12.1098 17.92 12.0698 18.06L10.0298 25.41C9.94983 25.71 10.0298 26.03 10.2498 26.26C10.4698 26.48 10.7898 26.57 11.0998 26.48L18.4498 24.44C18.5898 24.4 18.7298 24.32 18.8298 24.22L34.3098 8.72999C35.8298 7.19999 35.8298 4.73 34.3098 3.21L33.2898 2.19999ZM14.1698 18.25L26.8398 5.58L30.9298 9.66999L18.2598 22.34L14.1698 18.25ZM13.3598 19.88L16.6298 23.15L12.1098 24.4L13.3598 19.88ZM33.0798 7.50999L32.1598 8.42999L28.0698 4.33999L28.9898 3.41999C29.8398 2.56999 31.2098 2.56999 32.0598 3.41999L33.0798 4.44C33.9298 5.29 33.9298 6.65999 33.0798 7.50999Z" fill="black" stroke="black" stroke-width="0.5829" stroke-miterlimit="10"/>
</svg>
